<svg width="2595" height="1466" xmlns="http://www.w3.org/2000/svg" xmlns:xlink="http://www.w3.org/1999/xlink" xml:space="preserve" overflow="hidden"><defs><clipPath id="clip0"><rect x="6182" y="3795" width="2595" height="1466"/></clipPath><clipPath id="clip1"><rect x="6183" y="3795" width="2590" height="1461"/></clipPath><clipPath id="clip2"><rect x="6183" y="3795" width="2590" height="1461"/></clipPath><clipPath id="clip3"><rect x="6516" y="3965" width="1980" height="1084"/></clipPath><clipPath id="clip4"><rect x="6516" y="3965" width="1980" height="1084"/></clipPath><clipPath id="clip5"><rect x="6516" y="3965" width="1980" height="1084"/></clipPath><clipPath id="clip6"><rect x="6516" y="3965" width="1980" height="1084"/></clipPath><clipPath id="clip7"><rect x="6183" y="3795" width="2590" height="1461"/></clipPath><clipPath id="clip8"><rect x="6183" y="3795" width="2590" height="1461"/></clipPath><clipPath id="clip9"><rect x="6516" y="3965" width="1980" height="1084"/></clipPath><clipPath id="clip10"><rect x="6183" y="3795" width="2590" height="1461"/></clipPath><clipPath id="clip11"><rect x="6516" y="3965" width="1980" height="1084"/></clipPath><clipPath id="clip12"><rect x="6183" y="3795" width="2590" height="1461"/></clipPath><clipPath id="clip13"><rect x="6183" y="3795" width="2590" height="1461"/></clipPath><clipPath id="clip14"><rect x="6183" y="3795" width="2590" height="1461"/></clipPath><clipPath id="clip15"><rect x="6183" y="3795" width="2590" height="1461"/></clipPath><clipPath id="clip16"><rect x="6183" y="3795" width="2590" height="1461"/></clipPath><clipPath id="clip17"><rect x="6183" y="3795" width="2590" height="1461"/></clipPath><clipPath id="clip18"><rect x="6183" y="3795" width="2590" height="1461"/></clipPath><clipPath id="clip19"><rect x="6183" y="3795" width="2590" height="1461"/></clipPath><clipPath id="clip20"><rect x="6183" y="3795" width="2590" height="1461"/></clipPath><clipPath id="clip21"><rect x="6183" y="3795" width="2590" height="1461"/></clipPath><clipPath id="clip22"><rect x="6183" y="3795" width="2590" height="1461"/></clipPath><clipPath id="clip23"><rect x="6183" y="3795" width="2590" height="1461"/></clipPath><clipPath id="clip24"><rect x="6183" y="3795" width="2590" height="1461"/></clipPath><clipPath id="clip25"><rect x="6183" y="3795" width="2590" height="1461"/></clipPath><clipPath id="clip26"><rect x="6183" y="3795" width="2590" height="1461"/></clipPath><clipPath id="clip27"><rect x="6183" y="3795" width="2590" height="1461"/></clipPath><clipPath id="clip28"><rect x="6183" y="3795" width="2590" height="1461"/></clipPath><clipPath id="clip29"><rect x="6183" y="3795" width="2590" height="1461"/></clipPath><clipPath id="clip30"><rect x="6183" y="3795" width="2590" height="1461"/></clipPath><clipPath id="clip31"><rect x="6183" y="3795" width="2590" height="1461"/></clipPath><clipPath id="clip32"><rect x="6183" y="3795" width="2590" height="1461"/></clipPath><clipPath id="clip33"><rect x="6183" y="3795" width="2590" height="1461"/></clipPath><clipPath id="clip34"><rect x="6183" y="3795" width="2590" height="1461"/></clipPath><clipPath id="clip35"><rect x="6183" y="3795" width="2590" height="1461"/></clipPath><clipPath id="clip36"><rect x="6183" y="3795" width="2590" height="1461"/></clipPath><clipPath id="clip37"><rect x="6183" y="3795" width="2590" height="1461"/></clipPath><clipPath id="clip38"><rect x="6183" y="3795" width="2590" height="1461"/></clipPath><clipPath id="clip39"><rect x="6183" y="3795" width="2590" height="1461"/></clipPath><clipPath id="clip40"><rect x="6183" y="3795" width="2590" height="1461"/></clipPath><clipPath id="clip41"><rect x="6183" y="3795" width="2590" height="1461"/></clipPath><clipPath id="clip42"><rect x="6183" y="3795" width="2590" height="1461"/></clipPath><clipPath id="clip43"><rect x="6183" y="3795" width="2590" height="1461"/></clipPath><clipPath id="clip44"><rect x="6183" y="3795" width="2590" height="1461"/></clipPath><clipPath id="clip45"><rect x="6183" y="3795" width="2590" height="1461"/></clipPath><clipPath id="clip46"><rect x="6183" y="3795" width="2590" height="1461"/></clipPath><clipPath id="clip47"><rect x="6183" y="3795" width="2590" height="1461"/></clipPath><clipPath id="clip48"><rect x="6183" y="3795" width="2590" height="1461"/></clipPath><clipPath id="clip49"><rect x="6183" y="3795" width="2590" height="1461"/></clipPath><clipPath id="clip50"><rect x="6183" y="3795" width="2590" height="1461"/></clipPath><clipPath id="clip51"><rect x="6183" y="3795" width="2590" height="1461"/></clipPath><clipPath id="clip52"><rect x="6183" y="3795" width="2590" height="1461"/></clipPath><clipPath id="clip53"><rect x="6183" y="3795" width="2590" height="1461"/></clipPath><clipPath id="clip54"><rect x="6183" y="3795" width="2590" height="1461"/></clipPath><clipPath id="clip55"><rect x="6183" y="3795" width="2590" height="1461"/></clipPath><clipPath id="clip56"><rect x="6183" y="3795" width="2590" height="1461"/></clipPath><clipPath id="clip57"><rect x="6183" y="3795" width="2590" height="1461"/></clipPath><clipPath id="clip58"><rect x="6183" y="3795" width="2590" height="1461"/></clipPath><clipPath id="clip59"><rect x="6183" y="3795" width="2590" height="1461"/></clipPath><clipPath id="clip60"><rect x="6183" y="3795" width="2590" height="1461"/></clipPath><clipPath id="clip61"><rect x="6183" y="3795" width="2590" height="1461"/></clipPath><clipPath id="clip62"><rect x="6183" y="3795" width="2590" height="1461"/></clipPath></defs><g clip-path="url(#clip0)" transform="translate(-6182 -3795)"><rect x="6184" y="3796" width="2590" height="1461" fill="#FFFFFF" fill-opacity="1"/><g clip-path="url(#clip1)"><path d="M6516.5 4891.66 8493.5 4891.66M6516.5 4737.66 8493.5 4737.66M6516.5 4582.65 8493.5 4582.65M6516.5 4428.65 8493.5 4428.65M6516.5 4274.64 8493.5 4274.64M6516.5 4119.64 8493.5 4119.64M6516.5 3965.5 8493.5 3965.5" stroke="#D9D9D9" stroke-width="3.4375" stroke-linecap="butt" stroke-linejoin="round" stroke-miterlimit="10" stroke-opacity="1" fill="none" fill-rule="nonzero"/></g><g clip-path="url(#clip2)"><path d="M6516.5 3965.5 6516.5 5045.5M6668.72 3965.5 6668.72 5045.5M6820.72 3965.5 6820.72 5045.5M6972.73 3965.5 6972.73 5045.5M7124.73 3965.5 7124.73 5045.5M7276.74 3965.5 7276.74 5045.5M7428.74 3965.5 7428.74 5045.5M7580.75 3965.5 7580.75 5045.5M7732.75 3965.5 7732.75 5045.5M7884.76 3965.5 7884.76 5045.5M8036.76 3965.5 8036.76 5045.5M8189.77 3965.5 8189.77 5045.5M8341.77 3965.5 8341.77 5045.5M8493.5 3965.5 8493.5 5045.5" stroke="#D9D9D9" stroke-width="3.4375" stroke-linecap="butt" stroke-linejoin="round" stroke-miterlimit="10" stroke-opacity="1" fill="none" fill-rule="nonzero"/></g><g clip-path="url(#clip3)"><path d="M6516 4691.15 6668.22 4691.15 6668.22 5046 6516 5046ZM6668.22 4691.15 6820.22 4691.15 6820.22 5046 6668.22 5046ZM6820.22 4691.15 6972.23 4691.15 6972.23 5046 6820.22 5046ZM6972.23 4691.15 7124.23 4691.15 7124.23 5046 6972.23 5046ZM7124.23 4691.15 7276.24 4691.15 7276.24 5046 7124.23 5046ZM7276.24 4691.15 7429.24 4691.15 7429.24 5046 7276.24 5046ZM7429.24 4691.15 7581.25 4691.15 7581.25 5046 7429.24 5046ZM7581.25 4691.15 7733.25 4691.15 7733.25 5046 7581.25 5046ZM7733.25 4691.15 7885.26 4691.15 7885.26 5046 7733.25 5046ZM7885.26 4691.15 8037.26 4691.15 8037.26 5046 7885.26 5046ZM8037.26 4691.15 8189.27 4691.15 8189.27 5046 8037.26 5046ZM8189.27 4691.15 8341.27 4691.15 8341.27 5046 8189.27 5046ZM8341.27 4691.15 8494 4691.15 8494 5046 8341.27 5046Z" fill="#00B050" fill-rule="nonzero" fill-opacity="0.301961"/></g><g clip-path="url(#clip4)"><path d="M6516 4583.15 6668.22 4583.15 6668.22 4691.15 6516 4691.15ZM6668.22 4583.15 6820.22 4583.15 6820.22 4691.15 6668.22 4691.15ZM6820.22 4583.15 6972.23 4583.15 6972.23 4691.15 6820.22 4691.15ZM6972.23 4583.15 7124.23 4583.15 7124.23 4691.15 6972.23 4691.15ZM7124.23 4583.15 7276.24 4583.15 7276.24 4691.15 7124.23 4691.15ZM7276.24 4583.15 7429.24 4583.15 7429.24 4691.15 7276.24 4691.15ZM7429.24 4583.15 7581.25 4583.15 7581.25 4691.15 7429.24 4691.15ZM7581.25 4583.15 7733.25 4583.15 7733.25 4691.15 7581.25 4691.15ZM7733.25 4583.15 7885.26 4583.15 7885.26 4691.15 7733.25 4691.15ZM7885.26 4583.15 8037.26 4583.15 8037.26 4691.15 7885.26 4691.15ZM8037.26 4583.15 8189.27 4583.15 8189.27 4691.15 8037.26 4691.15ZM8189.27 4583.15 8341.27 4583.15 8341.27 4691.15 8189.27 4691.15ZM8341.27 4583.15 8494 4583.15 8494 4691.15 8341.27 4691.15Z" fill="#FFC000" fill-rule="nonzero" fill-opacity="0.301961"/></g><g clip-path="url(#clip5)"><path d="M6516 4521.15 6668.22 4521.15 6668.22 4583.15 6516 4583.15ZM6668.22 4521.15 6820.22 4521.15 6820.22 4583.15 6668.22 4583.15ZM6820.22 4521.15 6972.23 4521.15 6972.23 4583.15 6820.22 4583.15ZM6972.23 4521.15 7124.23 4521.15 7124.23 4583.15 6972.23 4583.15ZM7124.23 4521.15 7276.24 4521.15 7276.24 4583.15 7124.23 4583.15ZM7276.24 4521.15 7429.24 4521.15 7429.24 4583.15 7276.24 4583.15ZM7429.24 4521.15 7581.25 4521.15 7581.25 4583.15 7429.24 4583.15ZM7581.25 4521.15 7733.25 4521.15 7733.25 4583.15 7581.25 4583.15ZM7733.25 4521.15 7885.26 4521.15 7885.26 4583.15 7733.25 4583.15ZM7885.26 4521.15 8037.26 4521.15 8037.26 4583.15 7885.26 4583.15ZM8037.26 4521.15 8189.27 4521.15 8189.27 4583.15 8037.26 4583.15ZM8189.27 4521.15 8341.27 4521.15 8341.27 4583.15 8189.27 4583.15ZM8341.27 4521.15 8494 4521.15 8494 4583.15 8341.27 4583.15Z" fill="#4472C4" fill-rule="nonzero" fill-opacity="0.301961"/></g><g clip-path="url(#clip6)"><path d="M6516 3966 6668.22 3966 6668.22 4521.15 6516 4521.15ZM6668.22 3966 6820.22 3966 6820.22 4521.15 6668.22 4521.15ZM6820.22 3966 6972.23 3966 6972.23 4521.15 6820.22 4521.15ZM6972.23 3966 7124.23 3966 7124.23 4521.15 6972.23 4521.15ZM7124.23 3966 7276.24 3966 7276.24 4521.15 7124.23 4521.15ZM7276.24 3966 7429.24 3966 7429.24 4521.15 7276.24 4521.15ZM7429.24 3966 7581.25 3966 7581.25 4521.15 7429.24 4521.15ZM7581.25 3966 7733.25 3966 7733.25 4521.15 7581.25 4521.15ZM7733.25 3966 7885.26 3966 7885.26 4521.15 7733.25 4521.15ZM7885.26 3966 8037.26 3966 8037.26 4521.15 7885.26 4521.15ZM8037.26 3966 8189.27 3966 8189.27 4521.15 8037.26 4521.15ZM8189.27 3966 8341.27 3966 8341.27 4521.15 8189.27 4521.15ZM8341.27 3966 8494 3966 8494 4521.15 8341.27 4521.15Z" fill="#FF0000" fill-rule="nonzero" fill-opacity="0.301961"/></g><g clip-path="url(#clip7)"><path d="M0 0 0.000360892 1080" stroke="#D9D9D9" stroke-width="3.4375" stroke-linecap="butt" stroke-linejoin="round" stroke-miterlimit="10" stroke-opacity="0" fill="none" fill-rule="evenodd" transform="matrix(1 0 0 -1 6516.5 5045.5)"/></g><g clip-path="url(#clip8)"><path d="M6516.5 5045.5 8493.5 5045.5" stroke="#D9D9D9" stroke-width="3.4375" stroke-linecap="butt" stroke-linejoin="round" stroke-miterlimit="10" stroke-opacity="1" fill="none" fill-rule="evenodd"/></g><g clip-path="url(#clip9)"><path d="M6592 4082.13 6744.22 4038.13 6896.23 4029.13 7048.23 4034.13 7200.24 4069.13 7352.24 4027 7505.25 4049.13 7657.25 4099 7809.26 4046.13 7961.26 4034.13 8113.27 4052.13 8265.27 4031.13 8417 4087.13" stroke="#000000" stroke-width="10.3125" stroke-linecap="round" stroke-linejoin="round" stroke-miterlimit="10" stroke-opacity="1" fill="none" fill-rule="nonzero"/></g><g clip-path="url(#clip10)"><path d="M6603.18 4082.26C6603.18 4088.34 6598.25 4093.26 6592.18 4093.26 6586.1 4093.26 6581.18 4088.34 6581.18 4082.26 6581.18 4076.19 6586.1 4071.26 6592.18 4071.26 6598.25 4071.26 6603.18 4076.19 6603.18 4082.26Z" stroke="#000000" stroke-width="4.58333" stroke-linecap="butt" stroke-linejoin="round" stroke-miterlimit="10" stroke-opacity="1" fill="#000000" fill-rule="nonzero" fill-opacity="1"/><path d="M6755.18 4038.26C6755.18 4044.34 6750.25 4049.26 6744.18 4049.26 6738.1 4049.26 6733.18 4044.34 6733.18 4038.26 6733.18 4032.19 6738.1 4027.26 6744.18 4027.26 6750.25 4027.26 6755.18 4032.19 6755.18 4038.26Z" stroke="#000000" stroke-width="4.58333" stroke-linecap="butt" stroke-linejoin="round" stroke-miterlimit="10" stroke-opacity="1" fill="#000000" fill-rule="nonzero" fill-opacity="1"/><path d="M6907.18 4029.26C6907.18 4035.34 6902.26 4040.26 6896.18 4040.26 6890.11 4040.26 6885.18 4035.34 6885.18 4029.26 6885.18 4023.19 6890.11 4018.26 6896.18 4018.26 6902.26 4018.26 6907.18 4023.19 6907.18 4029.26Z" stroke="#000000" stroke-width="4.58333" stroke-linecap="butt" stroke-linejoin="round" stroke-miterlimit="10" stroke-opacity="1" fill="#000000" fill-rule="nonzero" fill-opacity="1"/><path d="M7059.18 4033.26C7059.18 4039.34 7054.26 4044.26 7048.18 4044.26 7042.11 4044.26 7037.18 4039.34 7037.18 4033.26 7037.18 4027.19 7042.11 4022.26 7048.18 4022.26 7054.26 4022.26 7059.18 4027.19 7059.18 4033.26Z" stroke="#000000" stroke-width="4.58333" stroke-linecap="butt" stroke-linejoin="round" stroke-miterlimit="10" stroke-opacity="1" fill="#000000" fill-rule="nonzero" fill-opacity="1"/><path d="M7211.18 4069.26C7211.18 4075.34 7206.26 4080.26 7200.18 4080.26 7194.11 4080.26 7189.18 4075.34 7189.18 4069.26 7189.18 4063.19 7194.11 4058.26 7200.18 4058.26 7206.26 4058.26 7211.18 4063.19 7211.18 4069.26Z" stroke="#000000" stroke-width="4.58333" stroke-linecap="butt" stroke-linejoin="round" stroke-miterlimit="10" stroke-opacity="1" fill="#000000" fill-rule="nonzero" fill-opacity="1"/><path d="M7363.18 4027.26C7363.18 4033.34 7358.25 4038.26 7352.18 4038.26 7346.1 4038.26 7341.18 4033.34 7341.18 4027.26 7341.18 4021.19 7346.1 4016.26 7352.18 4016.26 7358.25 4016.26 7363.18 4021.19 7363.18 4027.26Z" stroke="#000000" stroke-width="4.58333" stroke-linecap="butt" stroke-linejoin="round" stroke-miterlimit="10" stroke-opacity="1" fill="#000000" fill-rule="nonzero" fill-opacity="1"/><path d="M7515.18 4049.26C7515.18 4055.34 7510.25 4060.26 7504.18 4060.26 7498.1 4060.26 7493.18 4055.34 7493.18 4049.26 7493.18 4043.19 7498.1 4038.26 7504.18 4038.26 7510.25 4038.26 7515.18 4043.19 7515.18 4049.26Z" stroke="#000000" stroke-width="4.58333" stroke-linecap="butt" stroke-linejoin="round" stroke-miterlimit="10" stroke-opacity="1" fill="#000000" fill-rule="nonzero" fill-opacity="1"/><path d="M7667.18 4098.26C7667.18 4104.34 7662.26 4109.26 7656.18 4109.26 7650.11 4109.26 7645.18 4104.34 7645.18 4098.26 7645.18 4092.19 7650.11 4087.26 7656.18 4087.26 7662.26 4087.26 7667.18 4092.19 7667.18 4098.26Z" stroke="#000000" stroke-width="4.58333" stroke-linecap="butt" stroke-linejoin="round" stroke-miterlimit="10" stroke-opacity="1" fill="#000000" fill-rule="nonzero" fill-opacity="1"/><path d="M7820.18 4046.26C7820.18 4052.34 7815.26 4057.26 7809.18 4057.26 7803.11 4057.26 7798.18 4052.34 7798.18 4046.26 7798.18 4040.19 7803.11 4035.26 7809.18 4035.26 7815.26 4035.26 7820.18 4040.19 7820.18 4046.26Z" stroke="#000000" stroke-width="4.58333" stroke-linecap="butt" stroke-linejoin="round" stroke-miterlimit="10" stroke-opacity="1" fill="#000000" fill-rule="nonzero" fill-opacity="1"/><path d="M7972.18 4033.26C7972.18 4039.34 7967.26 4044.26 7961.18 4044.26 7955.11 4044.26 7950.18 4039.34 7950.18 4033.26 7950.18 4027.19 7955.11 4022.26 7961.18 4022.26 7967.26 4022.26 7972.18 4027.19 7972.18 4033.26Z" stroke="#000000" stroke-width="4.58333" stroke-linecap="butt" stroke-linejoin="round" stroke-miterlimit="10" stroke-opacity="1" fill="#000000" fill-rule="nonzero" fill-opacity="1"/><path d="M8124.18 4052.26C8124.18 4058.34 8119.26 4063.26 8113.18 4063.26 8107.11 4063.26 8102.18 4058.34 8102.18 4052.26 8102.18 4046.19 8107.11 4041.26 8113.18 4041.26 8119.26 4041.26 8124.18 4046.19 8124.18 4052.26Z" stroke="#000000" stroke-width="4.58333" stroke-linecap="butt" stroke-linejoin="round" stroke-miterlimit="10" stroke-opacity="1" fill="#000000" fill-rule="nonzero" fill-opacity="1"/><path d="M8276.18 4031.26C8276.18 4037.34 8271.26 4042.26 8265.18 4042.26 8259.11 4042.26 8254.18 4037.34 8254.18 4031.26 8254.18 4025.19 8259.11 4020.26 8265.18 4020.26 8271.26 4020.26 8276.18 4025.19 8276.18 4031.26Z" stroke="#000000" stroke-width="4.58333" stroke-linecap="butt" stroke-linejoin="round" stroke-miterlimit="10" stroke-opacity="1" fill="#000000" fill-rule="nonzero" fill-opacity="1"/><path d="M8428.18 4087.26C8428.18 4093.34 8423.26 4098.26 8417.18 4098.26 8411.11 4098.26 8406.18 4093.34 8406.18 4087.26 8406.18 4081.19 8411.11 4076.26 8417.18 4076.26 8423.26 4076.26 8428.18 4081.19 8428.18 4087.26Z" stroke="#000000" stroke-width="4.58333" stroke-linecap="butt" stroke-linejoin="round" stroke-miterlimit="10" stroke-opacity="1" fill="#000000" fill-rule="nonzero" fill-opacity="1"/></g><g clip-path="url(#clip11)"><path d="M6592 5013 6744.22 5013 6896.23 5013 7048.23 5013 7200.24 5013 7352.24 5013 7505.25 5013 7657.25 5013 7809.26 5013 7961.26 5013 8113.27 5013 8265.27 5013 8417 5013" stroke="#FF00FF" stroke-width="10.3125" stroke-linecap="round" stroke-linejoin="round" stroke-miterlimit="10" stroke-opacity="1" fill="none" fill-rule="nonzero"/></g><g clip-path="url(#clip12)"><path d="M6603.18 5013.26C6603.18 5019.34 6598.25 5024.26 6592.18 5024.26 6586.1 5024.26 6581.18 5019.34 6581.18 5013.26 6581.18 5007.19 6586.1 5002.26 6592.18 5002.26 6598.25 5002.26 6603.18 5007.19 6603.18 5013.26Z" stroke="#FF00FF" stroke-width="3.4375" stroke-linecap="butt" stroke-linejoin="round" stroke-miterlimit="10" stroke-opacity="1" fill="#FF00FF" fill-rule="nonzero" fill-opacity="1"/><path d="M6755.18 5013.26C6755.18 5019.34 6750.25 5024.26 6744.18 5024.26 6738.1 5024.26 6733.18 5019.34 6733.18 5013.26 6733.18 5007.19 6738.1 5002.26 6744.18 5002.26 6750.25 5002.26 6755.18 5007.19 6755.18 5013.26Z" stroke="#FF00FF" stroke-width="3.4375" stroke-linecap="butt" stroke-linejoin="round" stroke-miterlimit="10" stroke-opacity="1" fill="#FF00FF" fill-rule="nonzero" fill-opacity="1"/><path d="M6907.18 5013.26C6907.18 5019.34 6902.26 5024.26 6896.18 5024.26 6890.11 5024.26 6885.18 5019.34 6885.18 5013.26 6885.18 5007.19 6890.11 5002.26 6896.18 5002.26 6902.26 5002.26 6907.18 5007.19 6907.18 5013.26Z" stroke="#FF00FF" stroke-width="3.4375" stroke-linecap="butt" stroke-linejoin="round" stroke-miterlimit="10" stroke-opacity="1" fill="#FF00FF" fill-rule="nonzero" fill-opacity="1"/><path d="M7059.18 5013.26C7059.18 5019.34 7054.26 5024.26 7048.18 5024.26 7042.11 5024.26 7037.18 5019.34 7037.18 5013.26 7037.18 5007.19 7042.11 5002.26 7048.18 5002.26 7054.26 5002.26 7059.18 5007.19 7059.18 5013.26Z" stroke="#FF00FF" stroke-width="3.4375" stroke-linecap="butt" stroke-linejoin="round" stroke-miterlimit="10" stroke-opacity="1" fill="#FF00FF" fill-rule="nonzero" fill-opacity="1"/><path d="M7211.18 5013.26C7211.18 5019.34 7206.26 5024.26 7200.18 5024.26 7194.11 5024.26 7189.18 5019.34 7189.18 5013.26 7189.18 5007.19 7194.11 5002.26 7200.18 5002.26 7206.26 5002.26 7211.18 5007.19 7211.18 5013.26Z" stroke="#FF00FF" stroke-width="3.4375" stroke-linecap="butt" stroke-linejoin="round" stroke-miterlimit="10" stroke-opacity="1" fill="#FF00FF" fill-rule="nonzero" fill-opacity="1"/><path d="M7363.18 5013.26C7363.18 5019.34 7358.25 5024.26 7352.18 5024.26 7346.1 5024.26 7341.18 5019.34 7341.18 5013.26 7341.18 5007.19 7346.1 5002.26 7352.18 5002.26 7358.25 5002.26 7363.18 5007.19 7363.18 5013.26Z" stroke="#FF00FF" stroke-width="3.4375" stroke-linecap="butt" stroke-linejoin="round" stroke-miterlimit="10" stroke-opacity="1" fill="#FF00FF" fill-rule="nonzero" fill-opacity="1"/><path d="M7515.18 5013.26C7515.18 5019.34 7510.25 5024.26 7504.18 5024.26 7498.1 5024.26 7493.18 5019.34 7493.18 5013.26 7493.18 5007.19 7498.1 5002.26 7504.18 5002.26 7510.25 5002.26 7515.18 5007.19 7515.18 5013.26Z" stroke="#FF00FF" stroke-width="3.4375" stroke-linecap="butt" stroke-linejoin="round" stroke-miterlimit="10" stroke-opacity="1" fill="#FF00FF" fill-rule="nonzero" fill-opacity="1"/><path d="M7667.18 5013.26C7667.18 5019.34 7662.26 5024.26 7656.18 5024.26 7650.11 5024.26 7645.18 5019.34 7645.18 5013.26 7645.18 5007.19 7650.11 5002.26 7656.18 5002.26 7662.26 5002.26 7667.18 5007.19 7667.18 5013.26Z" stroke="#FF00FF" stroke-width="3.4375" stroke-linecap="butt" stroke-linejoin="round" stroke-miterlimit="10" stroke-opacity="1" fill="#FF00FF" fill-rule="nonzero" fill-opacity="1"/><path d="M7820.18 5013.26C7820.18 5019.34 7815.26 5024.26 7809.18 5024.26 7803.11 5024.26 7798.18 5019.34 7798.18 5013.26 7798.18 5007.19 7803.11 5002.26 7809.18 5002.26 7815.26 5002.26 7820.18 5007.19 7820.18 5013.26Z" stroke="#FF00FF" stroke-width="3.4375" stroke-linecap="butt" stroke-linejoin="round" stroke-miterlimit="10" stroke-opacity="1" fill="#FF00FF" fill-rule="nonzero" fill-opacity="1"/><path d="M7972.18 5013.26C7972.18 5019.34 7967.26 5024.26 7961.18 5024.26 7955.11 5024.26 7950.18 5019.34 7950.18 5013.26 7950.18 5007.19 7955.11 5002.26 7961.18 5002.26 7967.26 5002.26 7972.18 5007.19 7972.18 5013.26Z" stroke="#FF00FF" stroke-width="3.4375" stroke-linecap="butt" stroke-linejoin="round" stroke-miterlimit="10" stroke-opacity="1" fill="#FF00FF" fill-rule="nonzero" fill-opacity="1"/><path d="M8124.18 5013.26C8124.18 5019.34 8119.26 5024.26 8113.18 5024.26 8107.11 5024.26 8102.18 5019.34 8102.18 5013.26 8102.18 5007.19 8107.11 5002.26 8113.18 5002.26 8119.26 5002.26 8124.18 5007.19 8124.18 5013.26Z" stroke="#FF00FF" stroke-width="3.4375" stroke-linecap="butt" stroke-linejoin="round" stroke-miterlimit="10" stroke-opacity="1" fill="#FF00FF" fill-rule="nonzero" fill-opacity="1"/><path d="M8276.18 5013.26C8276.18 5019.34 8271.26 5024.26 8265.18 5024.26 8259.11 5024.26 8254.18 5019.34 8254.18 5013.26 8254.18 5007.19 8259.11 5002.26 8265.18 5002.26 8271.26 5002.26 8276.18 5007.19 8276.18 5013.26Z" stroke="#FF00FF" stroke-width="3.4375" stroke-linecap="butt" stroke-linejoin="round" stroke-miterlimit="10" stroke-opacity="1" fill="#FF00FF" fill-rule="nonzero" fill-opacity="1"/><path d="M8428.18 5013.26C8428.18 5019.34 8423.26 5024.26 8417.18 5024.26 8411.11 5024.26 8406.18 5019.34 8406.18 5013.26 8406.18 5007.19 8411.11 5002.26 8417.18 5002.26 8423.26 5002.26 8428.18 5007.19 8428.18 5013.26Z" stroke="#FF00FF" stroke-width="3.4375" stroke-linecap="butt" stroke-linejoin="round" stroke-miterlimit="10" stroke-opacity="1" fill="#FF00FF" fill-rule="nonzero" fill-opacity="1"/></g><g clip-path="url(#clip13)"><text fill="#595959" fill-opacity="1" font-family="Calibri,Calibri_MSFontService,sans-serif" font-style="normal" font-variant="normal" font-weight="400" font-stretch="normal" font-size="41" text-anchor="start" direction="ltr" writing-mode="lr-tb" unicode-bidi="normal" text-decoration="none" transform="matrix(1 0 0 1 8531.81 5056)">0,00</text></g><g clip-path="url(#clip14)"><text fill="#595959" fill-opacity="1" font-family="Calibri,Calibri_MSFontService,sans-serif" font-style="normal" font-variant="normal" font-weight="400" font-stretch="normal" font-size="41" text-anchor="start" direction="ltr" writing-mode="lr-tb" unicode-bidi="normal" text-decoration="none" transform="matrix(1 0 0 1 8531.81 4948)">10,00</text></g><g clip-path="url(#clip15)"><text fill="#595959" fill-opacity="1" font-family="Calibri,Calibri_MSFontService,sans-serif" font-style="normal" font-variant="normal" font-weight="400" font-stretch="normal" font-size="41" text-anchor="start" direction="ltr" writing-mode="lr-tb" unicode-bidi="normal" text-decoration="none" transform="matrix(1 0 0 1 8531.81 4840)">20,00</text></g><g clip-path="url(#clip16)"><text fill="#595959" fill-opacity="1" font-family="Calibri,Calibri_MSFontService,sans-serif" font-style="normal" font-variant="normal" font-weight="400" font-stretch="normal" font-size="41" text-anchor="start" direction="ltr" writing-mode="lr-tb" unicode-bidi="normal" text-decoration="none" transform="matrix(1 0 0 1 8531.81 4732)">30,00</text></g><g clip-path="url(#clip17)"><text fill="#595959" fill-opacity="1" font-family="Calibri,Calibri_MSFontService,sans-serif" font-style="normal" font-variant="normal" font-weight="400" font-stretch="normal" font-size="41" text-anchor="start" direction="ltr" writing-mode="lr-tb" unicode-bidi="normal" text-decoration="none" transform="matrix(1 0 0 1 8531.81 4624)">40,00</text></g><g clip-path="url(#clip18)"><text fill="#595959" fill-opacity="1" font-family="Calibri,Calibri_MSFontService,sans-serif" font-style="normal" font-variant="normal" font-weight="400" font-stretch="normal" font-size="41" text-anchor="start" direction="ltr" writing-mode="lr-tb" unicode-bidi="normal" text-decoration="none" transform="matrix(1 0 0 1 8531.81 4516)">50,00</text></g><g clip-path="url(#clip19)"><text fill="#595959" fill-opacity="1" font-family="Calibri,Calibri_MSFontService,sans-serif" font-style="normal" font-variant="normal" font-weight="400" font-stretch="normal" font-size="41" text-anchor="start" direction="ltr" writing-mode="lr-tb" unicode-bidi="normal" text-decoration="none" transform="matrix(1 0 0 1 8531.81 4408)">60,00</text></g><g clip-path="url(#clip20)"><text fill="#595959" fill-opacity="1" font-family="Calibri,Calibri_MSFontService,sans-serif" font-style="normal" font-variant="normal" font-weight="400" font-stretch="normal" font-size="41" text-anchor="start" direction="ltr" writing-mode="lr-tb" unicode-bidi="normal" text-decoration="none" transform="matrix(1 0 0 1 8531.81 4300)">70,00</text></g><g clip-path="url(#clip21)"><text fill="#595959" fill-opacity="1" font-family="Calibri,Calibri_MSFontService,sans-serif" font-style="normal" font-variant="normal" font-weight="400" font-stretch="normal" font-size="41" text-anchor="start" direction="ltr" writing-mode="lr-tb" unicode-bidi="normal" text-decoration="none" transform="matrix(1 0 0 1 8531.81 4192)">80,00</text></g><g clip-path="url(#clip22)"><text fill="#595959" fill-opacity="1" font-family="Calibri,Calibri_MSFontService,sans-serif" font-style="normal" font-variant="normal" font-weight="400" font-stretch="normal" font-size="41" text-anchor="start" direction="ltr" writing-mode="lr-tb" unicode-bidi="normal" text-decoration="none" transform="matrix(1 0 0 1 8531.81 4084)">90,00</text></g><g clip-path="url(#clip23)"><text fill="#595959" fill-opacity="1" font-family="Calibri,Calibri_MSFontService,sans-serif" font-style="normal" font-variant="normal" font-weight="400" font-stretch="normal" font-size="41" text-anchor="start" direction="ltr" writing-mode="lr-tb" unicode-bidi="normal" text-decoration="none" transform="matrix(1 0 0 1 8531.81 3976)">100,00</text></g><g clip-path="url(#clip24)"><text fill="#595959" fill-opacity="1" font-family="Calibri,Calibri_MSFontService,sans-serif" font-style="normal" font-variant="normal" font-weight="400" font-stretch="normal" font-size="41" text-anchor="start" direction="ltr" writing-mode="lr-tb" unicode-bidi="normal" text-decoration="none" transform="matrix(1 0 0 1 6456.96 5056)">1</text></g><g clip-path="url(#clip25)"><text fill="#595959" fill-opacity="1" font-family="Calibri,Calibri_MSFontService,sans-serif" font-style="normal" font-variant="normal" font-weight="400" font-stretch="normal" font-size="41" text-anchor="start" direction="ltr" writing-mode="lr-tb" unicode-bidi="normal" text-decoration="none" transform="matrix(1 0 0 1 6436.06 4902)">10</text></g><g clip-path="url(#clip26)"><text fill="#595959" fill-opacity="1" font-family="Calibri,Calibri_MSFontService,sans-serif" font-style="normal" font-variant="normal" font-weight="400" font-stretch="normal" font-size="41" text-anchor="start" direction="ltr" writing-mode="lr-tb" unicode-bidi="normal" text-decoration="none" transform="matrix(1 0 0 1 6415.16 4747)">100</text></g><g clip-path="url(#clip27)"><text fill="#595959" fill-opacity="1" font-family="Calibri,Calibri_MSFontService,sans-serif" font-style="normal" font-variant="normal" font-weight="400" font-stretch="normal" font-size="41" text-anchor="start" direction="ltr" writing-mode="lr-tb" unicode-bidi="normal" text-decoration="none" transform="matrix(1 0 0 1 6394.26 4593)">1000</text></g><g clip-path="url(#clip28)"><text fill="#595959" fill-opacity="1" font-family="Calibri,Calibri_MSFontService,sans-serif" font-style="normal" font-variant="normal" font-weight="400" font-stretch="normal" font-size="41" text-anchor="start" direction="ltr" writing-mode="lr-tb" unicode-bidi="normal" text-decoration="none" transform="matrix(1 0 0 1 6373.36 4439)">10000</text></g><g clip-path="url(#clip29)"><text fill="#595959" fill-opacity="1" font-family="Calibri,Calibri_MSFontService,sans-serif" font-style="normal" font-variant="normal" font-weight="400" font-stretch="normal" font-size="41" text-anchor="start" direction="ltr" writing-mode="lr-tb" unicode-bidi="normal" text-decoration="none" transform="matrix(1 0 0 1 6352.46 4284)">100000</text></g><g clip-path="url(#clip30)"><text fill="#595959" fill-opacity="1" font-family="Calibri,Calibri_MSFontService,sans-serif" font-style="normal" font-variant="normal" font-weight="400" font-stretch="normal" font-size="41" text-anchor="start" direction="ltr" writing-mode="lr-tb" unicode-bidi="normal" text-decoration="none" transform="matrix(1 0 0 1 6331.56 4130)">1000000</text></g><g clip-path="url(#clip31)"><text fill="#595959" fill-opacity="1" font-family="Calibri,Calibri_MSFontService,sans-serif" font-style="normal" font-variant="normal" font-weight="400" font-stretch="normal" font-size="41" text-anchor="start" direction="ltr" writing-mode="lr-tb" unicode-bidi="normal" text-decoration="none" transform="matrix(1 0 0 1 6310.66 3976)">10000000</text></g><g clip-path="url(#clip32)"><text fill="#595959" fill-opacity="1" font-family="Calibri,Calibri_MSFontService,sans-serif" font-style="normal" font-variant="normal" font-weight="400" font-stretch="normal" font-size="41" text-anchor="start" direction="ltr" writing-mode="lr-tb" unicode-bidi="normal" text-decoration="none" transform="matrix(1 0 0 1 6537.68 5111)">Jan-18</text></g><g clip-path="url(#clip33)"><text fill="#595959" fill-opacity="1" font-family="Calibri,Calibri_MSFontService,sans-serif" font-style="normal" font-variant="normal" font-weight="400" font-stretch="normal" font-size="41" text-anchor="start" direction="ltr" writing-mode="lr-tb" unicode-bidi="normal" text-decoration="none" transform="matrix(1 0 0 1 6682.37 5111)">Mar-18</text></g><g clip-path="url(#clip34)"><text fill="#595959" fill-opacity="1" font-family="Calibri,Calibri_MSFontService,sans-serif" font-style="normal" font-variant="normal" font-weight="400" font-stretch="normal" font-size="41" text-anchor="start" direction="ltr" writing-mode="lr-tb" unicode-bidi="normal" text-decoration="none" transform="matrix(1 0 0 1 6832.34 5111)">May-18</text></g><g clip-path="url(#clip35)"><text fill="#595959" fill-opacity="1" font-family="Calibri,Calibri_MSFontService,sans-serif" font-style="normal" font-variant="normal" font-weight="400" font-stretch="normal" font-size="41" text-anchor="start" direction="ltr" writing-mode="lr-tb" unicode-bidi="normal" text-decoration="none" transform="matrix(1 0 0 1 6999.15 5111)">Jul-18</text></g><g clip-path="url(#clip36)"><text fill="#595959" fill-opacity="1" font-family="Calibri,Calibri_MSFontService,sans-serif" font-style="normal" font-variant="normal" font-weight="400" font-stretch="normal" font-size="41" text-anchor="start" direction="ltr" writing-mode="lr-tb" unicode-bidi="normal" text-decoration="none" transform="matrix(1 0 0 1 7142.82 5111)">Sep-18</text></g><g clip-path="url(#clip37)"><text fill="#595959" fill-opacity="1" font-family="Calibri,Calibri_MSFontService,sans-serif" font-style="normal" font-variant="normal" font-weight="400" font-stretch="normal" font-size="41" text-anchor="start" direction="ltr" writing-mode="lr-tb" unicode-bidi="normal" text-decoration="none" transform="matrix(1 0 0 1 7292.01 5111)">Nov-18</text></g><g clip-path="url(#clip38)"><text fill="#595959" fill-opacity="1" font-family="Calibri,Calibri_MSFontService,sans-serif" font-style="normal" font-variant="normal" font-weight="400" font-stretch="normal" font-size="41" text-anchor="start" direction="ltr" writing-mode="lr-tb" unicode-bidi="normal" text-decoration="none" transform="matrix(1 0 0 1 7450.33 5111)">Jan-19</text></g><g clip-path="url(#clip39)"><text fill="#595959" fill-opacity="1" font-family="Calibri,Calibri_MSFontService,sans-serif" font-style="normal" font-variant="normal" font-weight="400" font-stretch="normal" font-size="41" text-anchor="start" direction="ltr" writing-mode="lr-tb" unicode-bidi="normal" text-decoration="none" transform="matrix(1 0 0 1 7595.02 5111)">Mar-19</text></g><g clip-path="url(#clip40)"><text fill="#595959" fill-opacity="1" font-family="Calibri,Calibri_MSFontService,sans-serif" font-style="normal" font-variant="normal" font-weight="400" font-stretch="normal" font-size="41" text-anchor="start" direction="ltr" writing-mode="lr-tb" unicode-bidi="normal" text-decoration="none" transform="matrix(1 0 0 1 7744.99 5111)">May-19</text></g><g clip-path="url(#clip41)"><text fill="#595959" fill-opacity="1" font-family="Calibri,Calibri_MSFontService,sans-serif" font-style="normal" font-variant="normal" font-weight="400" font-stretch="normal" font-size="41" text-anchor="start" direction="ltr" writing-mode="lr-tb" unicode-bidi="normal" text-decoration="none" transform="matrix(1 0 0 1 7911.8 5111)">Jul-19</text></g><g clip-path="url(#clip42)"><text fill="#595959" fill-opacity="1" font-family="Calibri,Calibri_MSFontService,sans-serif" font-style="normal" font-variant="normal" font-weight="400" font-stretch="normal" font-size="41" text-anchor="start" direction="ltr" writing-mode="lr-tb" unicode-bidi="normal" text-decoration="none" transform="matrix(1 0 0 1 8055.48 5111)">Sep-19</text></g><g clip-path="url(#clip43)"><text fill="#595959" fill-opacity="1" font-family="Calibri,Calibri_MSFontService,sans-serif" font-style="normal" font-variant="normal" font-weight="400" font-stretch="normal" font-size="41" text-anchor="start" direction="ltr" writing-mode="lr-tb" unicode-bidi="normal" text-decoration="none" transform="matrix(1 0 0 1 8204.66 5111)">Nov-19</text></g><g clip-path="url(#clip44)"><text fill="#595959" fill-opacity="1" font-family="Calibri,Calibri_MSFontService,sans-serif" font-style="normal" font-variant="normal" font-weight="400" font-stretch="normal" font-size="41" text-anchor="start" direction="ltr" writing-mode="lr-tb" unicode-bidi="normal" text-decoration="none" transform="matrix(1 0 0 1 8359.69 5111)">Feb-20</text></g><g clip-path="url(#clip45)"><text fill="#595959" fill-opacity="1" font-family="Calibri,Calibri_MSFontService,sans-serif" font-style="normal" font-variant="normal" font-weight="400" font-stretch="normal" font-size="46" text-anchor="start" direction="ltr" writing-mode="lr-tb" unicode-bidi="normal" text-decoration="none" transform="matrix(6.12323e-17 -1 1 6.12323e-17 8704.35 4610)">Valor de Qi</text></g><g clip-path="url(#clip46)"><text fill="#595959" fill-opacity="1" font-family="Calibri,Calibri_MSFontService,sans-serif" font-style="normal" font-variant="normal" font-weight="700" font-stretch="normal" font-size="46" text-anchor="start" direction="ltr" writing-mode="lr-tb" unicode-bidi="normal" text-decoration="none" transform="matrix(6.12323e-17 -1 1 6.12323e-17 6284.97 4735)">Coliformes (UFC/100ml)</text></g><g clip-path="url(#clip47)"><text fill="#595959" fill-opacity="1" font-family="Calibri,Calibri_MSFontService,sans-serif" font-style="normal" font-variant="normal" font-weight="700" font-stretch="normal" font-size="64" text-anchor="start" direction="ltr" writing-mode="lr-tb" unicode-bidi="normal" text-decoration="none" transform="matrix(1 0 0 1 6981.96 3891)">Coliformes (UFC/100ml)        </text></g><g clip-path="url(#clip48)"><text fill="#595959" fill-opacity="1" font-family="Calibri,Calibri_MSFontService,sans-serif" font-style="normal" font-variant="normal" font-weight="700" font-stretch="normal" font-size="64" text-anchor="start" direction="ltr" writing-mode="lr-tb" unicode-bidi="normal" text-decoration="none" transform="matrix(1 0 0 1 7737.13 3891)">x  Tempo</text></g><g clip-path="url(#clip49)"><rect x="6464" y="5179" width="88" height="23" fill="#00B050" fill-opacity="0.301961"/></g><g clip-path="url(#clip50)"><text fill="#595959" fill-opacity="1" font-family="Calibri,Calibri_MSFontService,sans-serif" font-style="normal" font-variant="normal" font-weight="400" font-stretch="normal" font-size="41" text-anchor="start" direction="ltr" writing-mode="lr-tb" unicode-bidi="normal" text-decoration="none" transform="matrix(1 0 0 1 6561.61 5201)">Classe I</text></g><g clip-path="url(#clip51)"><rect x="6750" y="5179" width="88" height="23" fill="#FFC000" fill-opacity="0.301961"/></g><g clip-path="url(#clip52)"><text fill="#595959" fill-opacity="1" font-family="Calibri,Calibri_MSFontService,sans-serif" font-style="normal" font-variant="normal" font-weight="400" font-stretch="normal" font-size="41" text-anchor="start" direction="ltr" writing-mode="lr-tb" unicode-bidi="normal" text-decoration="none" transform="matrix(1 0 0 1 6846.8 5201)">Classe II</text></g><g clip-path="url(#clip53)"><rect x="7045" y="5179" width="88" height="23" fill="#4472C4" fill-opacity="0.301961"/></g><g clip-path="url(#clip54)"><text fill="#595959" fill-opacity="1" font-family="Calibri,Calibri_MSFontService,sans-serif" font-style="normal" font-variant="normal" font-weight="400" font-stretch="normal" font-size="41" text-anchor="start" direction="ltr" writing-mode="lr-tb" unicode-bidi="normal" text-decoration="none" transform="matrix(1 0 0 1 7142.39 5201)">Classe III</text></g><g clip-path="url(#clip55)"><rect x="7351" y="5179" width="88" height="23" fill="#FF0000" fill-opacity="0.301961"/></g><g clip-path="url(#clip56)"><text fill="#595959" fill-opacity="1" font-family="Calibri,Calibri_MSFontService,sans-serif" font-style="normal" font-variant="normal" font-weight="400" font-stretch="normal" font-size="41" text-anchor="start" direction="ltr" writing-mode="lr-tb" unicode-bidi="normal" text-decoration="none" transform="matrix(1 0 0 1 7448.38 5201)">Classe IV</text></g><g clip-path="url(#clip57)"><path d="M7660 5191 7748 5191" stroke="#000000" stroke-width="10.3125" stroke-linecap="round" stroke-linejoin="round" stroke-miterlimit="10" stroke-opacity="1" fill="none" fill-rule="evenodd"/></g><g clip-path="url(#clip58)"><path d="M7714 5190C7714 5196.07 7709.08 5201 7703 5201 7696.92 5201 7692 5196.07 7692 5190 7692 5183.92 7696.92 5179 7703 5179 7709.08 5179 7714 5183.92 7714 5190Z" stroke="#000000" stroke-width="4.58333" stroke-linecap="butt" stroke-linejoin="round" stroke-miterlimit="10" stroke-opacity="1" fill="#000000" fill-rule="nonzero" fill-opacity="1"/></g><g clip-path="url(#clip59)"><text fill="#595959" fill-opacity="1" font-family="Calibri,Calibri_MSFontService,sans-serif" font-style="normal" font-variant="normal" font-weight="400" font-stretch="normal" font-size="41" text-anchor="start" direction="ltr" writing-mode="lr-tb" unicode-bidi="normal" text-decoration="none" transform="matrix(1 0 0 1 7756.97 5201)">Coliformes (UFC/100ml)</text></g><g clip-path="url(#clip60)"><path d="M8225 5191 8313 5191" stroke="#FF00FF" stroke-width="10.3125" stroke-linecap="round" stroke-linejoin="round" stroke-miterlimit="10" stroke-opacity="1" fill="none" fill-rule="evenodd"/></g><g clip-path="url(#clip61)"><path d="M8279 5190C8279 5196.07 8274.08 5201 8268 5201 8261.92 5201 8257 5196.07 8257 5190 8257 5183.92 8261.92 5179 8268 5179 8274.08 5179 8279 5183.92 8279 5190Z" stroke="#FF00FF" stroke-width="3.4375" stroke-linecap="butt" stroke-linejoin="round" stroke-miterlimit="10" stroke-opacity="1" fill="#FF00FF" fill-rule="nonzero" fill-opacity="1"/></g><g clip-path="url(#clip62)"><text fill="#595959" fill-opacity="1" font-family="Calibri,Calibri_MSFontService,sans-serif" font-style="normal" font-variant="normal" font-weight="400" font-stretch="normal" font-size="41" text-anchor="start" direction="ltr" writing-mode="lr-tb" unicode-bidi="normal" text-decoration="none" transform="matrix(1 0 0 1 8322.25 5201)">Valor de Qi</text></g><rect x="6184.5" y="3796.5" width="2590" height="1461" stroke="#D9D9D9" stroke-width="3.4375" stroke-linecap="butt" stroke-linejoin="round" stroke-miterlimit="10" stroke-opacity="1" fill="none"/></g></svg>