<svg width="2603" height="1467" xmlns="http://www.w3.org/2000/svg" xmlns:xlink="http://www.w3.org/1999/xlink" xml:space="preserve" overflow="hidden"><defs><clipPath id="clip0"><rect x="797" y="2277" width="2603" height="1467"/></clipPath><clipPath id="clip1"><rect x="801" y="2280" width="2595" height="1461"/></clipPath><clipPath id="clip2"><rect x="801" y="2280" width="2595" height="1461"/></clipPath><clipPath id="clip3"><rect x="1028" y="2450" width="2112" height="1083"/></clipPath><clipPath id="clip4"><rect x="1028" y="2450" width="2112" height="1083"/></clipPath><clipPath id="clip5"><rect x="1028" y="2450" width="2112" height="1083"/></clipPath><clipPath id="clip6"><rect x="1028" y="2450" width="2112" height="1083"/></clipPath><clipPath id="clip7"><rect x="801" y="2280" width="2595" height="1461"/></clipPath><clipPath id="clip8"><rect x="801" y="2280" width="2595" height="1461"/></clipPath><clipPath id="clip9"><rect x="1028" y="2450" width="2112" height="1083"/></clipPath><clipPath id="clip10"><rect x="801" y="2280" width="2595" height="1461"/></clipPath><clipPath id="clip11"><rect x="1028" y="2450" width="2112" height="1083"/></clipPath><clipPath id="clip12"><rect x="801" y="2280" width="2595" height="1461"/></clipPath><clipPath id="clip13"><rect x="801" y="2280" width="2595" height="1461"/></clipPath><clipPath id="clip14"><rect x="801" y="2280" width="2595" height="1461"/></clipPath><clipPath id="clip15"><rect x="801" y="2280" width="2595" height="1461"/></clipPath><clipPath id="clip16"><rect x="801" y="2280" width="2595" height="1461"/></clipPath><clipPath id="clip17"><rect x="801" y="2280" width="2595" height="1461"/></clipPath><clipPath id="clip18"><rect x="801" y="2280" width="2595" height="1461"/></clipPath><clipPath id="clip19"><rect x="801" y="2280" width="2595" height="1461"/></clipPath><clipPath id="clip20"><rect x="801" y="2280" width="2595" height="1461"/></clipPath><clipPath id="clip21"><rect x="801" y="2280" width="2595" height="1461"/></clipPath><clipPath id="clip22"><rect x="801" y="2280" width="2595" height="1461"/></clipPath><clipPath id="clip23"><rect x="801" y="2280" width="2595" height="1461"/></clipPath><clipPath id="clip24"><rect x="801" y="2280" width="2595" height="1461"/></clipPath><clipPath id="clip25"><rect x="801" y="2280" width="2595" height="1461"/></clipPath><clipPath id="clip26"><rect x="801" y="2280" width="2595" height="1461"/></clipPath><clipPath id="clip27"><rect x="801" y="2280" width="2595" height="1461"/></clipPath><clipPath id="clip28"><rect x="801" y="2280" width="2595" height="1461"/></clipPath><clipPath id="clip29"><rect x="801" y="2280" width="2595" height="1461"/></clipPath><clipPath id="clip30"><rect x="801" y="2280" width="2595" height="1461"/></clipPath><clipPath id="clip31"><rect x="801" y="2280" width="2595" height="1461"/></clipPath><clipPath id="clip32"><rect x="801" y="2280" width="2595" height="1461"/></clipPath><clipPath id="clip33"><rect x="801" y="2280" width="2595" height="1461"/></clipPath><clipPath id="clip34"><rect x="801" y="2280" width="2595" height="1461"/></clipPath><clipPath id="clip35"><rect x="801" y="2280" width="2595" height="1461"/></clipPath><clipPath id="clip36"><rect x="801" y="2280" width="2595" height="1461"/></clipPath><clipPath id="clip37"><rect x="801" y="2280" width="2595" height="1461"/></clipPath><clipPath id="clip38"><rect x="801" y="2280" width="2595" height="1461"/></clipPath><clipPath id="clip39"><rect x="801" y="2280" width="2595" height="1461"/></clipPath><clipPath id="clip40"><rect x="801" y="2280" width="2595" height="1461"/></clipPath><clipPath id="clip41"><rect x="801" y="2280" width="2595" height="1461"/></clipPath><clipPath id="clip42"><rect x="801" y="2280" width="2595" height="1461"/></clipPath><clipPath id="clip43"><rect x="801" y="2280" width="2595" height="1461"/></clipPath><clipPath id="clip44"><rect x="801" y="2280" width="2595" height="1461"/></clipPath><clipPath id="clip45"><rect x="801" y="2280" width="2595" height="1461"/></clipPath><clipPath id="clip46"><rect x="801" y="2280" width="2595" height="1461"/></clipPath><clipPath id="clip47"><rect x="801" y="2280" width="2595" height="1461"/></clipPath><clipPath id="clip48"><rect x="801" y="2280" width="2595" height="1461"/></clipPath><clipPath id="clip49"><rect x="801" y="2280" width="2595" height="1461"/></clipPath><clipPath id="clip50"><rect x="801" y="2280" width="2595" height="1461"/></clipPath><clipPath id="clip51"><rect x="801" y="2280" width="2595" height="1461"/></clipPath><clipPath id="clip52"><rect x="801" y="2280" width="2595" height="1461"/></clipPath></defs><g clip-path="url(#clip0)" transform="translate(-797 -2277)"><rect x="801" y="2280" width="2595" height="1461" fill="#FFFFFF" fill-opacity="1"/><g clip-path="url(#clip1)"><path d="M1028.5 2990.6 3137.5 2990.6M1028.5 2450.5 3137.5 2450.5" stroke="#D9D9D9" stroke-width="3.4375" stroke-linecap="butt" stroke-linejoin="round" stroke-miterlimit="10" stroke-opacity="1" fill="none" fill-rule="nonzero"/></g><g clip-path="url(#clip2)"><path d="M1028.5 2450.5 1028.5 3530.5M1191.54 2450.5 1191.54 3530.5M1353.54 2450.5 1353.54 3530.5M1515.55 2450.5 1515.55 3530.5M1677.56 2450.5 1677.56 3530.5M1839.56 2450.5 1839.56 3530.5M2001.57 2450.5 2001.57 3530.5M2164.57 2450.5 2164.57 3530.5M2326.58 2450.5 2326.58 3530.5M2488.58 2450.5 2488.58 3530.5M2650.59 2450.5 2650.59 3530.5M2812.59 2450.5 2812.59 3530.5M2974.6 2450.5 2974.6 3530.5M3137.5 2450.5 3137.5 3530.5" stroke="#D9D9D9" stroke-width="3.4375" stroke-linecap="butt" stroke-linejoin="round" stroke-miterlimit="10" stroke-opacity="1" fill="none" fill-rule="nonzero"/></g><g clip-path="url(#clip3)"><path d="M1029 3273.11 1191.04 3273.11 1191.04 3530 1029 3530ZM1191.04 3273.11 1353.04 3273.11 1353.04 3530 1191.04 3530ZM1353.04 3273.11 1515.05 3273.11 1515.05 3530 1353.04 3530ZM1515.05 3273.11 1678.06 3273.11 1678.06 3530 1515.05 3530ZM1678.06 3273.11 1840.06 3273.11 1840.06 3530 1678.06 3530ZM1840.06 3273.11 2002.07 3273.11 2002.07 3530 1840.06 3530ZM2002.07 3273.11 2164.07 3273.11 2164.07 3530 2002.07 3530ZM2164.07 3273.11 2326.08 3273.11 2326.08 3530 2164.07 3530ZM2326.08 3273.11 2488.08 3273.11 2488.08 3530 2326.08 3530ZM2488.08 3273.11 2651.09 3273.11 2651.09 3530 2488.08 3530ZM2651.09 3273.11 2813.09 3273.11 2813.09 3530 2651.09 3530ZM2813.09 3273.11 2975.1 3273.11 2975.1 3530 2813.09 3530ZM2975.1 3273.11 3137 3273.11 3137 3530 2975.1 3530Z" fill="#00B050" fill-rule="nonzero" fill-opacity="0.301961"/></g><g clip-path="url(#clip4)"><path d="M1029 3153.1 1191.04 3153.1 1191.04 3273.11 1029 3273.11ZM1191.04 3153.1 1353.04 3153.1 1353.04 3273.11 1191.04 3273.11ZM1353.04 3153.1 1515.05 3153.1 1515.05 3273.11 1353.04 3273.11ZM1515.05 3153.1 1678.06 3153.1 1678.06 3273.11 1515.05 3273.11ZM1678.06 3153.1 1840.06 3153.1 1840.06 3273.11 1678.06 3273.11ZM1840.06 3153.1 2002.07 3153.1 2002.07 3273.11 1840.06 3273.11ZM2002.07 3153.1 2164.07 3153.1 2164.07 3273.11 2002.07 3273.11ZM2164.07 3153.1 2326.08 3153.1 2326.08 3273.11 2164.07 3273.11ZM2326.08 3153.1 2488.08 3153.1 2488.08 3273.11 2326.08 3273.11ZM2488.08 3153.1 2651.09 3153.1 2651.09 3273.11 2488.08 3273.11ZM2651.09 3153.1 2813.09 3153.1 2813.09 3273.11 2651.09 3273.11ZM2813.09 3153.1 2975.1 3153.1 2975.1 3273.11 2813.09 3273.11ZM2975.1 3153.1 3137 3153.1 3137 3273.11 2975.1 3273.11Z" fill="#FFC000" fill-rule="nonzero" fill-opacity="0.301961"/></g><g clip-path="url(#clip5)"><path d="M1029 2990.1 1191.04 2990.1 1191.04 3153.1 1029 3153.1ZM1191.04 2990.1 1353.04 2990.1 1353.04 3153.1 1191.04 3153.1ZM1353.04 2990.1 1515.05 2990.1 1515.05 3153.1 1353.04 3153.1ZM1515.05 2990.1 1678.06 2990.1 1678.06 3153.1 1515.05 3153.1ZM1678.06 2990.1 1840.06 2990.1 1840.06 3153.1 1678.06 3153.1ZM1840.06 2990.1 2002.07 2990.1 2002.07 3153.1 1840.06 3153.1ZM2002.07 2990.1 2164.07 2990.1 2164.07 3153.1 2002.07 3153.1ZM2164.07 2990.1 2326.08 2990.1 2326.08 3153.1 2164.07 3153.1ZM2326.08 2990.1 2488.08 2990.1 2488.08 3153.1 2326.08 3153.1ZM2488.08 2990.1 2651.09 2990.1 2651.09 3153.1 2488.08 3153.1ZM2651.09 2990.1 2813.09 2990.1 2813.09 3153.1 2651.09 3153.1ZM2813.09 2990.1 2975.1 2990.1 2975.1 3153.1 2813.09 3153.1ZM2975.1 2990.1 3137 2990.1 3137 3153.1 2975.1 3153.1Z" fill="#4472C4" fill-rule="nonzero" fill-opacity="0.301961"/></g><g clip-path="url(#clip6)"><path d="M1029 2428 1191.04 2428 1191.04 2990.1 1029 2990.1ZM1191.04 2428 1353.04 2428 1353.04 2990.1 1191.04 2990.1ZM1353.04 2428 1515.05 2428 1515.05 2990.1 1353.04 2990.1ZM1515.05 2428 1678.06 2428 1678.06 2990.1 1515.05 2990.1ZM1678.06 2428 1840.06 2428 1840.06 2990.1 1678.06 2990.1ZM1840.06 2428 2002.07 2428 2002.07 2990.1 1840.06 2990.1ZM2002.07 2428 2164.07 2428 2164.07 2990.1 2002.07 2990.1ZM2164.07 2428 2326.08 2428 2326.08 2990.1 2164.07 2990.1ZM2326.08 2428 2488.08 2428 2488.08 2990.1 2326.08 2990.1ZM2488.08 2428 2651.09 2428 2651.09 2990.1 2488.08 2990.1ZM2651.09 2428 2813.09 2428 2813.09 2990.1 2651.09 2990.1ZM2813.09 2428 2975.1 2428 2975.1 2990.1 2813.09 2990.1ZM2975.1 2428 3137 2428 3137 2990.1 2975.1 2990.1Z" fill="#FF0000" fill-rule="nonzero" fill-opacity="0.301961"/></g><g clip-path="url(#clip7)"><path d="M0 0 0.000360892 1080" stroke="#D9D9D9" stroke-width="3.4375" stroke-linecap="butt" stroke-linejoin="round" stroke-miterlimit="10" stroke-opacity="0" fill="none" fill-rule="evenodd" transform="matrix(1 0 0 -1 1028.5 3530.5)"/></g><g clip-path="url(#clip8)"><path d="M1028.5 3530.5 3137.5 3530.5" stroke="#D9D9D9" stroke-width="3.4375" stroke-linecap="butt" stroke-linejoin="round" stroke-miterlimit="10" stroke-opacity="1" fill="none" fill-rule="evenodd"/></g><g clip-path="url(#clip9)"><path d="M1110 2683.09 1272.04 2805.09 1434.05 2586.08 1596.05 2551 1759.06 2586.08 1921.06 2795.09 2083.07 2805.09 2245.07 2880.09 2407.08 2740.09 2569.08 2740.09 2732.09 2690.09 2894.09 2581.08 3056 2922" stroke="#000000" stroke-width="10.3125" stroke-linecap="round" stroke-linejoin="round" stroke-miterlimit="10" stroke-opacity="1" fill="none" fill-rule="nonzero"/></g><g clip-path="url(#clip10)"><path d="M1121.51 2683.74C1121.51 2689.82 1116.58 2694.74 1110.51 2694.74 1104.43 2694.74 1099.51 2689.82 1099.51 2683.74 1099.51 2677.67 1104.43 2672.74 1110.51 2672.74 1116.58 2672.74 1121.51 2677.67 1121.51 2683.74Z" stroke="#000000" stroke-width="4.58333" stroke-linecap="butt" stroke-linejoin="round" stroke-miterlimit="10" stroke-opacity="1" fill="#000000" fill-rule="nonzero" fill-opacity="1"/><path d="M1283.51 2805.74C1283.51 2811.82 1278.58 2816.74 1272.51 2816.74 1266.43 2816.74 1261.51 2811.82 1261.51 2805.74 1261.51 2799.67 1266.43 2794.74 1272.51 2794.74 1278.58 2794.74 1283.51 2799.67 1283.51 2805.74Z" stroke="#000000" stroke-width="4.58333" stroke-linecap="butt" stroke-linejoin="round" stroke-miterlimit="10" stroke-opacity="1" fill="#000000" fill-rule="nonzero" fill-opacity="1"/><path d="M1445.51 2586.74C1445.51 2592.82 1440.58 2597.74 1434.51 2597.74 1428.43 2597.74 1423.51 2592.82 1423.51 2586.74 1423.51 2580.67 1428.43 2575.74 1434.51 2575.74 1440.58 2575.74 1445.51 2580.67 1445.51 2586.74Z" stroke="#000000" stroke-width="4.58333" stroke-linecap="butt" stroke-linejoin="round" stroke-miterlimit="10" stroke-opacity="1" fill="#000000" fill-rule="nonzero" fill-opacity="1"/><path d="M1607.51 2551.74C1607.51 2557.82 1602.58 2562.74 1596.51 2562.74 1590.43 2562.74 1585.51 2557.82 1585.51 2551.74 1585.51 2545.67 1590.43 2540.74 1596.51 2540.74 1602.58 2540.74 1607.51 2545.67 1607.51 2551.74Z" stroke="#000000" stroke-width="4.58333" stroke-linecap="butt" stroke-linejoin="round" stroke-miterlimit="10" stroke-opacity="1" fill="#000000" fill-rule="nonzero" fill-opacity="1"/><path d="M1769.51 2586.74C1769.51 2592.82 1764.58 2597.74 1758.51 2597.74 1752.43 2597.74 1747.51 2592.82 1747.51 2586.74 1747.51 2580.67 1752.43 2575.74 1758.51 2575.74 1764.58 2575.74 1769.51 2580.67 1769.51 2586.74Z" stroke="#000000" stroke-width="4.58333" stroke-linecap="butt" stroke-linejoin="round" stroke-miterlimit="10" stroke-opacity="1" fill="#000000" fill-rule="nonzero" fill-opacity="1"/><path d="M1931.51 2794.74C1931.51 2800.82 1926.58 2805.74 1920.51 2805.74 1914.43 2805.74 1909.51 2800.82 1909.51 2794.74 1909.51 2788.67 1914.43 2783.74 1920.51 2783.74 1926.58 2783.74 1931.51 2788.67 1931.51 2794.74Z" stroke="#000000" stroke-width="4.58333" stroke-linecap="butt" stroke-linejoin="round" stroke-miterlimit="10" stroke-opacity="1" fill="#000000" fill-rule="nonzero" fill-opacity="1"/><path d="M2094.51 2805.74C2094.51 2811.82 2089.58 2816.74 2083.51 2816.74 2077.43 2816.74 2072.51 2811.82 2072.51 2805.74 2072.51 2799.67 2077.43 2794.74 2083.51 2794.74 2089.58 2794.74 2094.51 2799.67 2094.51 2805.74Z" stroke="#000000" stroke-width="4.58333" stroke-linecap="butt" stroke-linejoin="round" stroke-miterlimit="10" stroke-opacity="1" fill="#000000" fill-rule="nonzero" fill-opacity="1"/><path d="M2256.51 2880.74C2256.51 2886.82 2251.58 2891.74 2245.51 2891.74 2239.43 2891.74 2234.51 2886.82 2234.51 2880.74 2234.51 2874.67 2239.43 2869.74 2245.51 2869.74 2251.58 2869.74 2256.51 2874.67 2256.51 2880.74Z" stroke="#000000" stroke-width="4.58333" stroke-linecap="butt" stroke-linejoin="round" stroke-miterlimit="10" stroke-opacity="1" fill="#000000" fill-rule="nonzero" fill-opacity="1"/><path d="M2418.51 2740.74C2418.51 2746.82 2413.58 2751.74 2407.51 2751.74 2401.43 2751.74 2396.51 2746.82 2396.51 2740.74 2396.51 2734.67 2401.43 2729.74 2407.51 2729.74 2413.58 2729.74 2418.51 2734.67 2418.51 2740.74Z" stroke="#000000" stroke-width="4.58333" stroke-linecap="butt" stroke-linejoin="round" stroke-miterlimit="10" stroke-opacity="1" fill="#000000" fill-rule="nonzero" fill-opacity="1"/><path d="M2580.51 2740.74C2580.51 2746.82 2575.58 2751.74 2569.51 2751.74 2563.43 2751.74 2558.51 2746.82 2558.51 2740.74 2558.51 2734.67 2563.43 2729.74 2569.51 2729.74 2575.58 2729.74 2580.51 2734.67 2580.51 2740.74Z" stroke="#000000" stroke-width="4.58333" stroke-linecap="butt" stroke-linejoin="round" stroke-miterlimit="10" stroke-opacity="1" fill="#000000" fill-rule="nonzero" fill-opacity="1"/><path d="M2742.51 2689.74C2742.51 2695.82 2737.58 2700.74 2731.51 2700.74 2725.43 2700.74 2720.51 2695.82 2720.51 2689.74 2720.51 2683.67 2725.43 2678.74 2731.51 2678.74 2737.58 2678.74 2742.51 2683.67 2742.51 2689.74Z" stroke="#000000" stroke-width="4.58333" stroke-linecap="butt" stroke-linejoin="round" stroke-miterlimit="10" stroke-opacity="1" fill="#000000" fill-rule="nonzero" fill-opacity="1"/><path d="M2904.51 2581.74C2904.51 2587.82 2899.58 2592.74 2893.51 2592.74 2887.43 2592.74 2882.51 2587.82 2882.51 2581.74 2882.51 2575.67 2887.43 2570.74 2893.51 2570.74 2899.58 2570.74 2904.51 2575.67 2904.51 2581.74Z" stroke="#000000" stroke-width="4.58333" stroke-linecap="butt" stroke-linejoin="round" stroke-miterlimit="10" stroke-opacity="1" fill="#000000" fill-rule="nonzero" fill-opacity="1"/><path d="M3067.51 2921.74C3067.51 2927.82 3062.58 2932.74 3056.51 2932.74 3050.43 2932.74 3045.51 2927.82 3045.51 2921.74 3045.51 2915.67 3050.43 2910.74 3056.51 2910.74 3062.58 2910.74 3067.51 2915.67 3067.51 2921.74Z" stroke="#000000" stroke-width="4.58333" stroke-linecap="butt" stroke-linejoin="round" stroke-miterlimit="10" stroke-opacity="1" fill="#000000" fill-rule="nonzero" fill-opacity="1"/></g><g clip-path="url(#clip11)"><path d="M1110 3458 1272.04 3170.1 1434.05 3458 1596.05 3458 1759.06 3458 1921.06 3170.1 2083.07 3170.1 2245.07 2882.09 2407.08 3422.11 2569.08 3422.11 2732.09 3458 2894.09 3458 3056 2594" stroke="#FF00FF" stroke-width="10.3125" stroke-linecap="round" stroke-linejoin="round" stroke-miterlimit="10" stroke-opacity="1" fill="none" fill-rule="nonzero"/></g><g clip-path="url(#clip12)"><path d="M1121.51 3458.74C1121.51 3464.82 1116.58 3469.74 1110.51 3469.74 1104.43 3469.74 1099.51 3464.82 1099.51 3458.74 1099.51 3452.67 1104.43 3447.74 1110.51 3447.74 1116.58 3447.74 1121.51 3452.67 1121.51 3458.74Z" stroke="#FF00FF" stroke-width="4.58333" stroke-linecap="butt" stroke-linejoin="round" stroke-miterlimit="10" stroke-opacity="1" fill="#FF00FF" fill-rule="nonzero" fill-opacity="1"/><path d="M1283.51 3170.74C1283.51 3176.82 1278.58 3181.74 1272.51 3181.74 1266.43 3181.74 1261.51 3176.82 1261.51 3170.74 1261.51 3164.67 1266.43 3159.74 1272.51 3159.74 1278.58 3159.74 1283.51 3164.67 1283.51 3170.74Z" stroke="#FF00FF" stroke-width="4.58333" stroke-linecap="butt" stroke-linejoin="round" stroke-miterlimit="10" stroke-opacity="1" fill="#FF00FF" fill-rule="nonzero" fill-opacity="1"/><path d="M1445.51 3458.74C1445.51 3464.82 1440.58 3469.74 1434.51 3469.74 1428.43 3469.74 1423.51 3464.82 1423.51 3458.74 1423.51 3452.67 1428.43 3447.74 1434.51 3447.74 1440.58 3447.74 1445.51 3452.67 1445.51 3458.74Z" stroke="#FF00FF" stroke-width="4.58333" stroke-linecap="butt" stroke-linejoin="round" stroke-miterlimit="10" stroke-opacity="1" fill="#FF00FF" fill-rule="nonzero" fill-opacity="1"/><path d="M1607.51 3458.74C1607.51 3464.82 1602.58 3469.74 1596.51 3469.74 1590.43 3469.74 1585.51 3464.82 1585.51 3458.74 1585.51 3452.67 1590.43 3447.74 1596.51 3447.74 1602.58 3447.74 1607.51 3452.67 1607.51 3458.74Z" stroke="#FF00FF" stroke-width="4.58333" stroke-linecap="butt" stroke-linejoin="round" stroke-miterlimit="10" stroke-opacity="1" fill="#FF00FF" fill-rule="nonzero" fill-opacity="1"/><path d="M1769.51 3458.74C1769.51 3464.82 1764.58 3469.74 1758.51 3469.74 1752.43 3469.74 1747.51 3464.82 1747.51 3458.74 1747.51 3452.67 1752.43 3447.74 1758.51 3447.74 1764.58 3447.74 1769.51 3452.67 1769.51 3458.74Z" stroke="#FF00FF" stroke-width="4.58333" stroke-linecap="butt" stroke-linejoin="round" stroke-miterlimit="10" stroke-opacity="1" fill="#FF00FF" fill-rule="nonzero" fill-opacity="1"/><path d="M1931.51 3170.74C1931.51 3176.82 1926.58 3181.74 1920.51 3181.74 1914.43 3181.74 1909.51 3176.82 1909.51 3170.74 1909.51 3164.67 1914.43 3159.74 1920.51 3159.74 1926.58 3159.74 1931.51 3164.67 1931.51 3170.74Z" stroke="#FF00FF" stroke-width="4.58333" stroke-linecap="butt" stroke-linejoin="round" stroke-miterlimit="10" stroke-opacity="1" fill="#FF00FF" fill-rule="nonzero" fill-opacity="1"/><path d="M2094.51 3170.74C2094.51 3176.82 2089.58 3181.74 2083.51 3181.74 2077.43 3181.74 2072.51 3176.82 2072.51 3170.74 2072.51 3164.67 2077.43 3159.74 2083.51 3159.74 2089.58 3159.74 2094.51 3164.67 2094.51 3170.74Z" stroke="#FF00FF" stroke-width="4.58333" stroke-linecap="butt" stroke-linejoin="round" stroke-miterlimit="10" stroke-opacity="1" fill="#FF00FF" fill-rule="nonzero" fill-opacity="1"/><path d="M2256.51 2882.74C2256.51 2888.82 2251.58 2893.74 2245.51 2893.74 2239.43 2893.74 2234.51 2888.82 2234.51 2882.74 2234.51 2876.67 2239.43 2871.74 2245.51 2871.74 2251.58 2871.74 2256.51 2876.67 2256.51 2882.74Z" stroke="#FF00FF" stroke-width="4.58333" stroke-linecap="butt" stroke-linejoin="round" stroke-miterlimit="10" stroke-opacity="1" fill="#FF00FF" fill-rule="nonzero" fill-opacity="1"/><path d="M2418.51 3422.74C2418.51 3428.82 2413.58 3433.74 2407.51 3433.74 2401.43 3433.74 2396.51 3428.82 2396.51 3422.74 2396.51 3416.67 2401.43 3411.74 2407.51 3411.74 2413.58 3411.74 2418.51 3416.67 2418.51 3422.74Z" stroke="#FF00FF" stroke-width="4.58333" stroke-linecap="butt" stroke-linejoin="round" stroke-miterlimit="10" stroke-opacity="1" fill="#FF00FF" fill-rule="nonzero" fill-opacity="1"/><path d="M2580.51 3422.74C2580.51 3428.82 2575.58 3433.74 2569.51 3433.74 2563.43 3433.74 2558.51 3428.82 2558.51 3422.74 2558.51 3416.67 2563.43 3411.74 2569.51 3411.74 2575.58 3411.74 2580.51 3416.67 2580.51 3422.74Z" stroke="#FF00FF" stroke-width="4.58333" stroke-linecap="butt" stroke-linejoin="round" stroke-miterlimit="10" stroke-opacity="1" fill="#FF00FF" fill-rule="nonzero" fill-opacity="1"/><path d="M2742.51 3458.74C2742.51 3464.82 2737.58 3469.74 2731.51 3469.74 2725.43 3469.74 2720.51 3464.82 2720.51 3458.74 2720.51 3452.67 2725.43 3447.74 2731.51 3447.74 2737.58 3447.74 2742.51 3452.67 2742.51 3458.74Z" stroke="#FF00FF" stroke-width="4.58333" stroke-linecap="butt" stroke-linejoin="round" stroke-miterlimit="10" stroke-opacity="1" fill="#FF00FF" fill-rule="nonzero" fill-opacity="1"/><path d="M2904.51 3458.74C2904.51 3464.82 2899.58 3469.74 2893.51 3469.74 2887.43 3469.74 2882.51 3464.82 2882.51 3458.74 2882.51 3452.67 2887.43 3447.74 2893.51 3447.74 2899.58 3447.74 2904.51 3452.67 2904.51 3458.74Z" stroke="#FF00FF" stroke-width="4.58333" stroke-linecap="butt" stroke-linejoin="round" stroke-miterlimit="10" stroke-opacity="1" fill="#FF00FF" fill-rule="nonzero" fill-opacity="1"/><path d="M3067.51 2594.74C3067.51 2600.82 3062.58 2605.74 3056.51 2605.74 3050.43 2605.74 3045.51 2600.82 3045.51 2594.74 3045.51 2588.67 3050.43 2583.74 3056.51 2583.74 3062.58 2583.74 3067.51 2588.67 3067.51 2594.74Z" stroke="#FF00FF" stroke-width="4.58333" stroke-linecap="butt" stroke-linejoin="round" stroke-miterlimit="10" stroke-opacity="1" fill="#FF00FF" fill-rule="nonzero" fill-opacity="1"/></g><g clip-path="url(#clip13)"><text fill="#595959" fill-opacity="1" font-family="Calibri,Calibri_MSFontService,sans-serif" font-style="normal" font-variant="normal" font-weight="400" font-stretch="normal" font-size="41" text-anchor="start" direction="ltr" writing-mode="lr-tb" unicode-bidi="normal" text-decoration="none" transform="matrix(1 0 0 1 3175.38 3540)">0,00</text></g><g clip-path="url(#clip14)"><text fill="#595959" fill-opacity="1" font-family="Calibri,Calibri_MSFontService,sans-serif" font-style="normal" font-variant="normal" font-weight="400" font-stretch="normal" font-size="41" text-anchor="start" direction="ltr" writing-mode="lr-tb" unicode-bidi="normal" text-decoration="none" transform="matrix(1 0 0 1 3175.38 3360)">5,00</text></g><g clip-path="url(#clip15)"><text fill="#595959" fill-opacity="1" font-family="Calibri,Calibri_MSFontService,sans-serif" font-style="normal" font-variant="normal" font-weight="400" font-stretch="normal" font-size="41" text-anchor="start" direction="ltr" writing-mode="lr-tb" unicode-bidi="normal" text-decoration="none" transform="matrix(1 0 0 1 3175.38 3180)">10,00</text></g><g clip-path="url(#clip16)"><text fill="#595959" fill-opacity="1" font-family="Calibri,Calibri_MSFontService,sans-serif" font-style="normal" font-variant="normal" font-weight="400" font-stretch="normal" font-size="41" text-anchor="start" direction="ltr" writing-mode="lr-tb" unicode-bidi="normal" text-decoration="none" transform="matrix(1 0 0 1 3175.38 3000)">15,00</text></g><g clip-path="url(#clip17)"><text fill="#595959" fill-opacity="1" font-family="Calibri,Calibri_MSFontService,sans-serif" font-style="normal" font-variant="normal" font-weight="400" font-stretch="normal" font-size="41" text-anchor="start" direction="ltr" writing-mode="lr-tb" unicode-bidi="normal" text-decoration="none" transform="matrix(1 0 0 1 3175.38 2820)">20,00</text></g><g clip-path="url(#clip18)"><text fill="#595959" fill-opacity="1" font-family="Calibri,Calibri_MSFontService,sans-serif" font-style="normal" font-variant="normal" font-weight="400" font-stretch="normal" font-size="41" text-anchor="start" direction="ltr" writing-mode="lr-tb" unicode-bidi="normal" text-decoration="none" transform="matrix(1 0 0 1 3175.38 2640)">25,00</text></g><g clip-path="url(#clip19)"><text fill="#595959" fill-opacity="1" font-family="Calibri,Calibri_MSFontService,sans-serif" font-style="normal" font-variant="normal" font-weight="400" font-stretch="normal" font-size="41" text-anchor="start" direction="ltr" writing-mode="lr-tb" unicode-bidi="normal" text-decoration="none" transform="matrix(1 0 0 1 3175.38 2460)">30,00</text></g><g clip-path="url(#clip20)"><text fill="#595959" fill-opacity="1" font-family="Calibri,Calibri_MSFontService,sans-serif" font-style="normal" font-variant="normal" font-weight="400" font-stretch="normal" font-size="41" text-anchor="start" direction="ltr" writing-mode="lr-tb" unicode-bidi="normal" text-decoration="none" transform="matrix(1 0 0 1 969.788 3540)">1</text></g><g clip-path="url(#clip21)"><text fill="#595959" fill-opacity="1" font-family="Calibri,Calibri_MSFontService,sans-serif" font-style="normal" font-variant="normal" font-weight="400" font-stretch="normal" font-size="41" text-anchor="start" direction="ltr" writing-mode="lr-tb" unicode-bidi="normal" text-decoration="none" transform="matrix(1 0 0 1 948.888 3000)">10</text></g><g clip-path="url(#clip22)"><text fill="#595959" fill-opacity="1" font-family="Calibri,Calibri_MSFontService,sans-serif" font-style="normal" font-variant="normal" font-weight="400" font-stretch="normal" font-size="41" text-anchor="start" direction="ltr" writing-mode="lr-tb" unicode-bidi="normal" text-decoration="none" transform="matrix(1 0 0 1 927.988 2460)">100</text></g><g clip-path="url(#clip23)"><text fill="#595959" fill-opacity="1" font-family="Calibri,Calibri_MSFontService,sans-serif" font-style="normal" font-variant="normal" font-weight="400" font-stretch="normal" font-size="41" text-anchor="start" direction="ltr" writing-mode="lr-tb" unicode-bidi="normal" text-decoration="none" transform="matrix(1 0 0 1 1055.53 3595)">Jan-18</text></g><g clip-path="url(#clip24)"><text fill="#595959" fill-opacity="1" font-family="Calibri,Calibri_MSFontService,sans-serif" font-style="normal" font-variant="normal" font-weight="400" font-stretch="normal" font-size="41" text-anchor="start" direction="ltr" writing-mode="lr-tb" unicode-bidi="normal" text-decoration="none" transform="matrix(1 0 0 1 1210.28 3595)">Mar-18</text></g><g clip-path="url(#clip25)"><text fill="#595959" fill-opacity="1" font-family="Calibri,Calibri_MSFontService,sans-serif" font-style="normal" font-variant="normal" font-weight="400" font-stretch="normal" font-size="41" text-anchor="start" direction="ltr" writing-mode="lr-tb" unicode-bidi="normal" text-decoration="none" transform="matrix(1 0 0 1 1370.31 3595)">May-18</text></g><g clip-path="url(#clip26)"><text fill="#595959" fill-opacity="1" font-family="Calibri,Calibri_MSFontService,sans-serif" font-style="normal" font-variant="normal" font-weight="400" font-stretch="normal" font-size="41" text-anchor="start" direction="ltr" writing-mode="lr-tb" unicode-bidi="normal" text-decoration="none" transform="matrix(1 0 0 1 1547.17 3595)">Jul-18</text></g><g clip-path="url(#clip27)"><text fill="#595959" fill-opacity="1" font-family="Calibri,Calibri_MSFontService,sans-serif" font-style="normal" font-variant="normal" font-weight="400" font-stretch="normal" font-size="41" text-anchor="start" direction="ltr" writing-mode="lr-tb" unicode-bidi="normal" text-decoration="none" transform="matrix(1 0 0 1 1700.91 3595)">Sep-18</text></g><g clip-path="url(#clip28)"><text fill="#595959" fill-opacity="1" font-family="Calibri,Calibri_MSFontService,sans-serif" font-style="normal" font-variant="normal" font-weight="400" font-stretch="normal" font-size="41" text-anchor="start" direction="ltr" writing-mode="lr-tb" unicode-bidi="normal" text-decoration="none" transform="matrix(1 0 0 1 1860.15 3595)">Nov-18</text></g><g clip-path="url(#clip29)"><text fill="#595959" fill-opacity="1" font-family="Calibri,Calibri_MSFontService,sans-serif" font-style="normal" font-variant="normal" font-weight="400" font-stretch="normal" font-size="41" text-anchor="start" direction="ltr" writing-mode="lr-tb" unicode-bidi="normal" text-decoration="none" transform="matrix(1 0 0 1 2028.53 3595)">Jan-19</text></g><g clip-path="url(#clip30)"><text fill="#595959" fill-opacity="1" font-family="Calibri,Calibri_MSFontService,sans-serif" font-style="normal" font-variant="normal" font-weight="400" font-stretch="normal" font-size="41" text-anchor="start" direction="ltr" writing-mode="lr-tb" unicode-bidi="normal" text-decoration="none" transform="matrix(1 0 0 1 2183.28 3595)">Mar-19</text></g><g clip-path="url(#clip31)"><text fill="#595959" fill-opacity="1" font-family="Calibri,Calibri_MSFontService,sans-serif" font-style="normal" font-variant="normal" font-weight="400" font-stretch="normal" font-size="41" text-anchor="start" direction="ltr" writing-mode="lr-tb" unicode-bidi="normal" text-decoration="none" transform="matrix(1 0 0 1 2343.31 3595)">May-19</text></g><g clip-path="url(#clip32)"><text fill="#595959" fill-opacity="1" font-family="Calibri,Calibri_MSFontService,sans-serif" font-style="normal" font-variant="normal" font-weight="400" font-stretch="normal" font-size="41" text-anchor="start" direction="ltr" writing-mode="lr-tb" unicode-bidi="normal" text-decoration="none" transform="matrix(1 0 0 1 2520.17 3595)">Jul-19</text></g><g clip-path="url(#clip33)"><text fill="#595959" fill-opacity="1" font-family="Calibri,Calibri_MSFontService,sans-serif" font-style="normal" font-variant="normal" font-weight="400" font-stretch="normal" font-size="41" text-anchor="start" direction="ltr" writing-mode="lr-tb" unicode-bidi="normal" text-decoration="none" transform="matrix(1 0 0 1 2673.91 3595)">Sep-19</text></g><g clip-path="url(#clip34)"><text fill="#595959" fill-opacity="1" font-family="Calibri,Calibri_MSFontService,sans-serif" font-style="normal" font-variant="normal" font-weight="400" font-stretch="normal" font-size="41" text-anchor="start" direction="ltr" writing-mode="lr-tb" unicode-bidi="normal" text-decoration="none" transform="matrix(1 0 0 1 2833.15 3595)">Nov-19</text></g><g clip-path="url(#clip35)"><text fill="#595959" fill-opacity="1" font-family="Calibri,Calibri_MSFontService,sans-serif" font-style="normal" font-variant="normal" font-weight="400" font-stretch="normal" font-size="41" text-anchor="start" direction="ltr" writing-mode="lr-tb" unicode-bidi="normal" text-decoration="none" transform="matrix(1 0 0 1 2998.24 3595)">Feb-20</text></g><g clip-path="url(#clip36)"><text fill="#595959" fill-opacity="1" font-family="Calibri,Calibri_MSFontService,sans-serif" font-style="normal" font-variant="normal" font-weight="400" font-stretch="normal" font-size="46" text-anchor="start" direction="ltr" writing-mode="lr-tb" unicode-bidi="normal" text-decoration="none" transform="matrix(6.12323e-17 -1 1 6.12323e-17 3327.02 3094)">Valor de Qi</text></g><g clip-path="url(#clip37)"><text fill="#595959" fill-opacity="1" font-family="Calibri,Calibri_MSFontService,sans-serif" font-style="normal" font-variant="normal" font-weight="400" font-stretch="normal" font-size="46" text-anchor="start" direction="ltr" writing-mode="lr-tb" unicode-bidi="normal" text-decoration="none" transform="matrix(6.12323e-17 -1 1 6.12323e-17 902.298 3099)">DBO (mg/L)</text></g><g clip-path="url(#clip38)"><text fill="#595959" fill-opacity="1" font-family="Calibri,Calibri_MSFontService,sans-serif" font-style="normal" font-variant="normal" font-weight="700" font-stretch="normal" font-size="64" text-anchor="start" direction="ltr" writing-mode="lr-tb" unicode-bidi="normal" text-decoration="none" transform="matrix(1 0 0 1 1822.78 2376)">DBO (mg/L) x Tempo</text></g><g clip-path="url(#clip39)"><rect x="1204" y="3664" width="88" height="23" fill="#00B050" fill-opacity="0.301961"/></g><g clip-path="url(#clip40)"><text fill="#595959" fill-opacity="1" font-family="Calibri,Calibri_MSFontService,sans-serif" font-style="normal" font-variant="normal" font-weight="400" font-stretch="normal" font-size="41" text-anchor="start" direction="ltr" writing-mode="lr-tb" unicode-bidi="normal" text-decoration="none" transform="matrix(1 0 0 1 1300.88 3685)">Classe I</text></g><g clip-path="url(#clip41)"><rect x="1483" y="3664" width="88" height="23" fill="#FFC000" fill-opacity="0.301961"/></g><g clip-path="url(#clip42)"><text fill="#595959" fill-opacity="1" font-family="Calibri,Calibri_MSFontService,sans-serif" font-style="normal" font-variant="normal" font-weight="400" font-stretch="normal" font-size="41" text-anchor="start" direction="ltr" writing-mode="lr-tb" unicode-bidi="normal" text-decoration="none" transform="matrix(1 0 0 1 1580.11 3685)">Classe II</text></g><g clip-path="url(#clip43)"><rect x="1772" y="3664" width="88" height="23" fill="#4472C4" fill-opacity="0.301961"/></g><g clip-path="url(#clip44)"><text fill="#595959" fill-opacity="1" font-family="Calibri,Calibri_MSFontService,sans-serif" font-style="normal" font-variant="normal" font-weight="400" font-stretch="normal" font-size="41" text-anchor="start" direction="ltr" writing-mode="lr-tb" unicode-bidi="normal" text-decoration="none" transform="matrix(1 0 0 1 1869.73 3685)">Classe III</text></g><g clip-path="url(#clip45)"><rect x="2072" y="3664" width="88" height="23" fill="#FF0000" fill-opacity="0.301961"/></g><g clip-path="url(#clip46)"><text fill="#595959" fill-opacity="1" font-family="Calibri,Calibri_MSFontService,sans-serif" font-style="normal" font-variant="normal" font-weight="400" font-stretch="normal" font-size="41" text-anchor="start" direction="ltr" writing-mode="lr-tb" unicode-bidi="normal" text-decoration="none" transform="matrix(1 0 0 1 2169.77 3685)">Classe IV</text></g><g clip-path="url(#clip47)"><path d="M2375 3675 2463 3675" stroke="#000000" stroke-width="10.3125" stroke-linecap="round" stroke-linejoin="round" stroke-miterlimit="10" stroke-opacity="1" fill="none" fill-rule="evenodd"/></g><g clip-path="url(#clip48)"><path d="M2430 3675C2430 3681.07 2425.08 3686 2419 3686 2412.93 3686 2408 3681.07 2408 3675 2408 3668.92 2412.93 3664 2419 3664 2425.08 3664 2430 3668.92 2430 3675Z" stroke="#000000" stroke-width="4.58333" stroke-linecap="butt" stroke-linejoin="round" stroke-miterlimit="10" stroke-opacity="1" fill="#000000" fill-rule="nonzero" fill-opacity="1"/></g><g clip-path="url(#clip49)"><text fill="#595959" fill-opacity="1" font-family="Calibri,Calibri_MSFontService,sans-serif" font-style="normal" font-variant="normal" font-weight="400" font-stretch="normal" font-size="41" text-anchor="start" direction="ltr" writing-mode="lr-tb" unicode-bidi="normal" text-decoration="none" transform="matrix(1 0 0 1 2472.39 3685)">DBO (mg/L)</text></g><g clip-path="url(#clip50)"><path d="M2726 3675 2814 3675" stroke="#FF00FF" stroke-width="10.3125" stroke-linecap="round" stroke-linejoin="round" stroke-miterlimit="10" stroke-opacity="1" fill="none" fill-rule="evenodd"/></g><g clip-path="url(#clip51)"><path d="M2780 3675C2780 3681.07 2775.07 3686 2769 3686 2762.93 3686 2758 3681.07 2758 3675 2758 3668.92 2762.93 3664 2769 3664 2775.07 3664 2780 3668.92 2780 3675Z" stroke="#FF00FF" stroke-width="4.58333" stroke-linecap="butt" stroke-linejoin="round" stroke-miterlimit="10" stroke-opacity="1" fill="#FF00FF" fill-rule="nonzero" fill-opacity="1"/></g><g clip-path="url(#clip52)"><text fill="#595959" fill-opacity="1" font-family="Calibri,Calibri_MSFontService,sans-serif" font-style="normal" font-variant="normal" font-weight="400" font-stretch="normal" font-size="41" text-anchor="start" direction="ltr" writing-mode="lr-tb" unicode-bidi="normal" text-decoration="none" transform="matrix(1 0 0 1 2822.97 3685)">Valor de Qi</text></g><rect x="801.5" y="2280.5" width="2595" height="1461" stroke="#D9D9D9" stroke-width="3.4375" stroke-linecap="butt" stroke-linejoin="round" stroke-miterlimit="10" stroke-opacity="1" fill="none"/></g></svg>