<svg width="2599" height="1467" xmlns="http://www.w3.org/2000/svg" xmlns:xlink="http://www.w3.org/1999/xlink" xml:space="preserve" overflow="hidden"><defs><clipPath id="clip0"><rect x="6187" y="2277" width="2599" height="1467"/></clipPath><clipPath id="clip1"><rect x="6190" y="2278" width="2590" height="1461"/></clipPath><clipPath id="clip2"><rect x="6190" y="2278" width="2590" height="1461"/></clipPath><clipPath id="clip3"><rect x="6470" y="2448" width="2033" height="1084"/></clipPath><clipPath id="clip4"><rect x="6470" y="2448" width="2033" height="1084"/></clipPath><clipPath id="clip5"><rect x="6470" y="2448" width="2033" height="1084"/></clipPath><clipPath id="clip6"><rect x="6190" y="2278" width="2590" height="1461"/></clipPath><clipPath id="clip7"><rect x="6190" y="2278" width="2590" height="1461"/></clipPath><clipPath id="clip8"><rect x="6190" y="2278" width="2590" height="1461"/></clipPath><clipPath id="clip9"><rect x="6470" y="2448" width="2033" height="1084"/></clipPath><clipPath id="clip10"><rect x="6190" y="2278" width="2590" height="1461"/></clipPath><clipPath id="clip11"><rect x="6470" y="2448" width="2033" height="1084"/></clipPath><clipPath id="clip12"><rect x="6190" y="2278" width="2590" height="1461"/></clipPath><clipPath id="clip13"><rect x="6190" y="2278" width="2590" height="1461"/></clipPath><clipPath id="clip14"><rect x="6190" y="2278" width="2590" height="1461"/></clipPath><clipPath id="clip15"><rect x="6190" y="2278" width="2590" height="1461"/></clipPath><clipPath id="clip16"><rect x="6190" y="2278" width="2590" height="1461"/></clipPath><clipPath id="clip17"><rect x="6190" y="2278" width="2590" height="1461"/></clipPath><clipPath id="clip18"><rect x="6190" y="2278" width="2590" height="1461"/></clipPath><clipPath id="clip19"><rect x="6190" y="2278" width="2590" height="1461"/></clipPath><clipPath id="clip20"><rect x="6190" y="2278" width="2590" height="1461"/></clipPath><clipPath id="clip21"><rect x="6190" y="2278" width="2590" height="1461"/></clipPath><clipPath id="clip22"><rect x="6190" y="2278" width="2590" height="1461"/></clipPath><clipPath id="clip23"><rect x="6190" y="2278" width="2590" height="1461"/></clipPath><clipPath id="clip24"><rect x="6190" y="2278" width="2590" height="1461"/></clipPath><clipPath id="clip25"><rect x="6190" y="2278" width="2590" height="1461"/></clipPath><clipPath id="clip26"><rect x="6190" y="2278" width="2590" height="1461"/></clipPath><clipPath id="clip27"><rect x="6190" y="2278" width="2590" height="1461"/></clipPath><clipPath id="clip28"><rect x="6190" y="2278" width="2590" height="1461"/></clipPath><clipPath id="clip29"><rect x="6190" y="2278" width="2590" height="1461"/></clipPath><clipPath id="clip30"><rect x="6190" y="2278" width="2590" height="1461"/></clipPath><clipPath id="clip31"><rect x="6190" y="2278" width="2590" height="1461"/></clipPath><clipPath id="clip32"><rect x="6190" y="2278" width="2590" height="1461"/></clipPath><clipPath id="clip33"><rect x="6190" y="2278" width="2590" height="1461"/></clipPath><clipPath id="clip34"><rect x="6190" y="2278" width="2590" height="1461"/></clipPath><clipPath id="clip35"><rect x="6190" y="2278" width="2590" height="1461"/></clipPath><clipPath id="clip36"><rect x="6190" y="2278" width="2590" height="1461"/></clipPath><clipPath id="clip37"><rect x="6190" y="2278" width="2590" height="1461"/></clipPath><clipPath id="clip38"><rect x="6190" y="2278" width="2590" height="1461"/></clipPath><clipPath id="clip39"><rect x="6190" y="2278" width="2590" height="1461"/></clipPath><clipPath id="clip40"><rect x="6190" y="2278" width="2590" height="1461"/></clipPath><clipPath id="clip41"><rect x="6190" y="2278" width="2590" height="1461"/></clipPath><clipPath id="clip42"><rect x="6190" y="2278" width="2590" height="1461"/></clipPath><clipPath id="clip43"><rect x="6190" y="2278" width="2590" height="1461"/></clipPath><clipPath id="clip44"><rect x="6190" y="2278" width="2590" height="1461"/></clipPath><clipPath id="clip45"><rect x="6190" y="2278" width="2590" height="1461"/></clipPath><clipPath id="clip46"><rect x="6190" y="2278" width="2590" height="1461"/></clipPath><clipPath id="clip47"><rect x="6190" y="2278" width="2590" height="1461"/></clipPath><clipPath id="clip48"><rect x="6190" y="2278" width="2590" height="1461"/></clipPath><clipPath id="clip49"><rect x="6190" y="2278" width="2590" height="1461"/></clipPath><clipPath id="clip50"><rect x="6190" y="2278" width="2590" height="1461"/></clipPath><clipPath id="clip51"><rect x="6190" y="2278" width="2590" height="1461"/></clipPath><clipPath id="clip52"><rect x="6190" y="2278" width="2590" height="1461"/></clipPath><clipPath id="clip53"><rect x="6190" y="2278" width="2590" height="1461"/></clipPath><clipPath id="clip54"><rect x="6190" y="2278" width="2590" height="1461"/></clipPath><clipPath id="clip55"><rect x="6190" y="2278" width="2590" height="1461"/></clipPath><clipPath id="clip56"><rect x="6190" y="2278" width="2590" height="1461"/></clipPath><clipPath id="clip57"><rect x="6190" y="2278" width="2590" height="1461"/></clipPath><clipPath id="clip58"><rect x="6190" y="2278" width="2590" height="1461"/></clipPath><clipPath id="clip59"><rect x="6190" y="2278" width="2590" height="1461"/></clipPath><clipPath id="clip60"><rect x="6190" y="2278" width="2590" height="1461"/></clipPath></defs><g clip-path="url(#clip0)" transform="translate(-6187 -2277)"><rect x="6191" y="2279" width="2589" height="1461" fill="#FFFFFF" fill-opacity="1"/><g clip-path="url(#clip1)"><path d="M6470.5 3528.5 8500.5 3528.5M6470.5 3381.61 8500.5 3381.61M6470.5 3233.61 8500.5 3233.61M6470.5 3086.6 8500.5 3086.6M6470.5 2791.59 8500.5 2791.59M6470.5 2643.59 8500.5 2643.59M6470.5 2496.5 8500.5 2496.5" stroke="#D9D9D9" stroke-width="3.4375" stroke-linecap="butt" stroke-linejoin="round" stroke-miterlimit="10" stroke-opacity="1" fill="none" fill-rule="nonzero"/></g><g clip-path="url(#clip2)"><path d="M6470.5 2448.5 6470.5 3528.5M6626.72 2448.5 6626.72 3528.5M6782.72 2448.5 6782.72 3528.5M6938.73 2448.5 6938.73 3528.5M7094.73 2448.5 7094.73 3528.5M7251.74 2448.5 7251.74 3528.5M7407.74 2448.5 7407.74 3528.5M7563.75 2448.5 7563.75 3528.5M7719.75 2448.5 7719.75 3528.5M7875.76 2448.5 7875.76 3528.5M8031.76 2448.5 8031.76 3528.5M8187.77 2448.5 8187.77 3528.5M8344.77 2448.5 8344.77 3528.5M8500.5 2448.5 8500.5 3528.5" stroke="#D9D9D9" stroke-width="3.4375" stroke-linecap="butt" stroke-linejoin="round" stroke-miterlimit="10" stroke-opacity="1" fill="none" fill-rule="nonzero"/></g><g clip-path="url(#clip3)"><path d="M6471 3429.11 6627.22 3429.11 6627.22 3529 6471 3529ZM6627.22 3429.11 6783.22 3429.11 6783.22 3529 6627.22 3529ZM6783.22 3429.11 6939.23 3429.11 6939.23 3529 6783.22 3529ZM6939.23 3429.11 7095.23 3429.11 7095.23 3529 6939.23 3529ZM7095.23 3429.11 7251.24 3429.11 7251.24 3529 7095.23 3529ZM7251.24 3429.11 7407.24 3429.11 7407.24 3529 7251.24 3529ZM7407.24 3429.11 7563.25 3429.11 7563.25 3529 7407.24 3529ZM7563.25 3429.11 7719.25 3429.11 7719.25 3529 7563.25 3529ZM7719.25 3429.11 7876.26 3429.11 7876.26 3529 7719.25 3529ZM7876.26 3429.11 8032.26 3429.11 8032.26 3529 7876.26 3529ZM8032.26 3429.11 8188.27 3429.11 8188.27 3529 8032.26 3529ZM8188.27 3429.11 8344.27 3429.11 8344.27 3529 8188.27 3529ZM8344.27 3429.11 8500 3429.11 8500 3529 8344.27 3529Z" fill="#00B050" fill-rule="nonzero" fill-opacity="0.301961"/></g><g clip-path="url(#clip4)"><path d="M6471 3342.11 6627.22 3342.11 6627.22 3429.11 6471 3429.11ZM6627.22 3342.11 6783.22 3342.11 6783.22 3429.11 6627.22 3429.11ZM6783.22 3342.11 6939.23 3342.11 6939.23 3429.11 6783.22 3429.11ZM6939.23 3342.11 7095.23 3342.11 7095.23 3429.11 6939.23 3429.11ZM7095.23 3342.11 7251.24 3342.11 7251.24 3429.11 7095.23 3429.11ZM7251.24 3342.11 7407.24 3342.11 7407.24 3429.11 7251.24 3429.11ZM7407.24 3342.11 7563.25 3342.11 7563.25 3429.11 7407.24 3429.11ZM7563.25 3342.11 7719.25 3342.11 7719.25 3429.11 7563.25 3429.11ZM7719.25 3342.11 7876.26 3342.11 7876.26 3429.11 7719.25 3429.11ZM7876.26 3342.11 8032.26 3342.11 8032.26 3429.11 7876.26 3429.11ZM8032.26 3342.11 8188.27 3342.11 8188.27 3429.11 8032.26 3429.11ZM8188.27 3342.11 8344.27 3342.11 8344.27 3429.11 8188.27 3429.11ZM8344.27 3342.11 8500 3342.11 8500 3429.11 8344.27 3429.11Z" fill="#4472C4" fill-rule="nonzero" fill-opacity="0.301961"/></g><g clip-path="url(#clip5)"><path d="M6471 2446 6627.22 2446 6627.22 3342.11 6471 3342.11ZM6627.22 2446 6783.22 2446 6783.22 3342.11 6627.22 3342.11ZM6783.22 2446 6939.23 2446 6939.23 3342.11 6783.22 3342.11ZM6939.23 2446 7095.23 2446 7095.23 3342.11 6939.23 3342.11ZM7095.23 2446 7251.24 2446 7251.24 3342.11 7095.23 3342.11ZM7251.24 2446 7407.24 2446 7407.24 3342.11 7251.24 3342.11ZM7407.24 2446 7563.25 2446 7563.25 3342.11 7407.24 3342.11ZM7563.25 2446 7719.25 2446 7719.25 3342.11 7563.25 3342.11ZM7719.25 2446 7876.26 2446 7876.26 3342.11 7719.25 3342.11ZM7876.26 2446 8032.26 2446 8032.26 3342.11 7876.26 3342.11ZM8032.26 2446 8188.27 2446 8188.27 3342.11 8032.26 3342.11ZM8188.27 2446 8344.27 2446 8344.27 3342.11 8188.27 3342.11ZM8344.27 2446 8500 2446 8500 3342.11 8344.27 3342.11Z" fill="#FF0000" fill-rule="nonzero" fill-opacity="0.301961"/></g><g clip-path="url(#clip6)"><path d="M0 0 0.000360892 1080" stroke="#D9D9D9" stroke-width="3.4375" stroke-linecap="butt" stroke-linejoin="round" stroke-miterlimit="10" stroke-opacity="0" fill="none" fill-rule="evenodd" transform="matrix(1 0 0 -1 6470.5 3528.5)"/></g><g clip-path="url(#clip7)"><path d="M6470.5 2938.5 8500.5 2938.5" stroke="#D9D9D9" stroke-width="3.4375" stroke-linecap="butt" stroke-linejoin="round" stroke-miterlimit="10" stroke-opacity="1" fill="none" fill-rule="evenodd"/></g><g clip-path="url(#clip8)"><path d="M6470.5 2938.5 6470.5 2951.5M6626.72 2938.5 6626.72 2951.5M6782.72 2938.5 6782.72 2951.5M6938.73 2938.5 6938.73 2951.5M7094.73 2938.5 7094.73 2951.5M7251.74 2938.5 7251.74 2951.5M7407.74 2938.5 7407.74 2951.5M7563.75 2938.5 7563.75 2951.5M7719.75 2938.5 7719.75 2951.5M7875.76 2938.5 7875.76 2951.5M8031.76 2938.5 8031.76 2951.5M8187.77 2938.5 8187.77 2951.5M8344.77 2938.5 8344.77 2951.5M8500.5 2938.5 8500.5 2951.5" stroke="#D9D9D9" stroke-width="3.4375" stroke-linecap="butt" stroke-linejoin="round" stroke-miterlimit="10" stroke-opacity="1" fill="none" fill-rule="nonzero"/></g><g clip-path="url(#clip9)"><path d="M6549 3006.1 6705.22 2939.1 6861.23 2730.09 7017.23 2709 7173.24 2723.09 7329.24 2893.09 7485.25 2918.1 7641.25 3037 7798.26 2840.09 7954.26 2860.09 8110.27 2840.09 8266.27 2723.09 8422 2997.1" stroke="#000000" stroke-width="10.3125" stroke-linecap="round" stroke-linejoin="round" stroke-miterlimit="10" stroke-opacity="1" fill="none" fill-rule="nonzero"/></g><g clip-path="url(#clip10)"><path d="M6559.06 3005.18C6559.06 3011.26 6554.13 3016.18 6548.06 3016.18 6541.98 3016.18 6537.06 3011.26 6537.06 3005.18 6537.06 2999.11 6541.98 2994.18 6548.06 2994.18 6554.13 2994.18 6559.06 2999.11 6559.06 3005.18Z" stroke="#000000" stroke-width="4.58333" stroke-linecap="butt" stroke-linejoin="round" stroke-miterlimit="10" stroke-opacity="1" fill="#000000" fill-rule="nonzero" fill-opacity="1"/><path d="M6715.06 2938.18C6715.06 2944.25 6710.13 2949.18 6704.06 2949.18 6697.98 2949.18 6693.06 2944.25 6693.06 2938.18 6693.06 2932.1 6697.98 2927.18 6704.06 2927.18 6710.13 2927.18 6715.06 2932.1 6715.06 2938.18Z" stroke="#000000" stroke-width="4.58333" stroke-linecap="butt" stroke-linejoin="round" stroke-miterlimit="10" stroke-opacity="1" fill="#000000" fill-rule="nonzero" fill-opacity="1"/><path d="M6871.06 2729.18C6871.06 2735.25 6866.13 2740.18 6860.06 2740.18 6853.98 2740.18 6849.06 2735.25 6849.06 2729.18 6849.06 2723.1 6853.98 2718.18 6860.06 2718.18 6866.13 2718.18 6871.06 2723.1 6871.06 2729.18Z" stroke="#000000" stroke-width="4.58333" stroke-linecap="butt" stroke-linejoin="round" stroke-miterlimit="10" stroke-opacity="1" fill="#000000" fill-rule="nonzero" fill-opacity="1"/><path d="M7028.06 2709.18C7028.06 2715.26 7023.13 2720.18 7017.06 2720.18 7010.98 2720.18 7006.06 2715.26 7006.06 2709.18 7006.06 2703.11 7010.98 2698.18 7017.06 2698.18 7023.13 2698.18 7028.06 2703.11 7028.06 2709.18Z" stroke="#000000" stroke-width="4.58333" stroke-linecap="butt" stroke-linejoin="round" stroke-miterlimit="10" stroke-opacity="1" fill="#000000" fill-rule="nonzero" fill-opacity="1"/><path d="M7184.05 2722.18C7184.05 2728.26 7179.13 2733.18 7173.06 2733.18 7166.98 2733.18 7162.06 2728.26 7162.06 2722.18 7162.06 2716.11 7166.98 2711.18 7173.06 2711.18 7179.13 2711.18 7184.05 2716.11 7184.05 2722.18Z" stroke="#000000" stroke-width="4.58333" stroke-linecap="butt" stroke-linejoin="round" stroke-miterlimit="10" stroke-opacity="1" fill="#000000" fill-rule="nonzero" fill-opacity="1"/><path d="M7340.06 2892.18C7340.06 2898.26 7335.13 2903.18 7329.06 2903.18 7322.98 2903.18 7318.06 2898.26 7318.06 2892.18 7318.06 2886.11 7322.98 2881.18 7329.06 2881.18 7335.13 2881.18 7340.06 2886.11 7340.06 2892.18Z" stroke="#000000" stroke-width="4.58333" stroke-linecap="butt" stroke-linejoin="round" stroke-miterlimit="10" stroke-opacity="1" fill="#000000" fill-rule="nonzero" fill-opacity="1"/><path d="M7496.06 2918.18C7496.06 2924.26 7491.13 2929.18 7485.06 2929.18 7478.98 2929.18 7474.06 2924.26 7474.06 2918.18 7474.06 2912.11 7478.98 2907.18 7485.06 2907.18 7491.13 2907.18 7496.06 2912.11 7496.06 2918.18Z" stroke="#000000" stroke-width="4.58333" stroke-linecap="butt" stroke-linejoin="round" stroke-miterlimit="10" stroke-opacity="1" fill="#000000" fill-rule="nonzero" fill-opacity="1"/><path d="M7652.06 3037.18C7652.06 3043.25 7647.13 3048.18 7641.06 3048.18 7634.98 3048.18 7630.06 3043.25 7630.06 3037.18 7630.06 3031.1 7634.98 3026.18 7641.06 3026.18 7647.13 3026.18 7652.06 3031.1 7652.06 3037.18Z" stroke="#000000" stroke-width="4.58333" stroke-linecap="butt" stroke-linejoin="round" stroke-miterlimit="10" stroke-opacity="1" fill="#000000" fill-rule="nonzero" fill-opacity="1"/><path d="M7808.06 2840.18C7808.06 2846.26 7803.13 2851.18 7797.06 2851.18 7790.98 2851.18 7786.06 2846.26 7786.06 2840.18 7786.06 2834.11 7790.98 2829.18 7797.06 2829.18 7803.13 2829.18 7808.06 2834.11 7808.06 2840.18Z" stroke="#000000" stroke-width="4.58333" stroke-linecap="butt" stroke-linejoin="round" stroke-miterlimit="10" stroke-opacity="1" fill="#000000" fill-rule="nonzero" fill-opacity="1"/><path d="M7964.06 2859.18C7964.06 2865.26 7959.13 2870.18 7953.06 2870.18 7946.98 2870.18 7942.06 2865.26 7942.06 2859.18 7942.06 2853.11 7946.98 2848.18 7953.06 2848.18 7959.13 2848.18 7964.06 2853.11 7964.06 2859.18Z" stroke="#000000" stroke-width="4.58333" stroke-linecap="butt" stroke-linejoin="round" stroke-miterlimit="10" stroke-opacity="1" fill="#000000" fill-rule="nonzero" fill-opacity="1"/><path d="M8121.06 2840.18C8121.06 2846.26 8116.13 2851.18 8110.06 2851.18 8103.98 2851.18 8099.06 2846.26 8099.06 2840.18 8099.06 2834.11 8103.98 2829.18 8110.06 2829.18 8116.13 2829.18 8121.06 2834.11 8121.06 2840.18Z" stroke="#000000" stroke-width="4.58333" stroke-linecap="butt" stroke-linejoin="round" stroke-miterlimit="10" stroke-opacity="1" fill="#000000" fill-rule="nonzero" fill-opacity="1"/><path d="M8277.05 2722.18C8277.05 2728.26 8272.13 2733.18 8266.06 2733.18 8259.98 2733.18 8255.06 2728.26 8255.06 2722.18 8255.06 2716.11 8259.98 2711.18 8266.06 2711.18 8272.13 2711.18 8277.05 2716.11 8277.05 2722.18Z" stroke="#000000" stroke-width="4.58333" stroke-linecap="butt" stroke-linejoin="round" stroke-miterlimit="10" stroke-opacity="1" fill="#000000" fill-rule="nonzero" fill-opacity="1"/><path d="M8433.05 2997.18C8433.05 3003.26 8428.13 3008.18 8422.06 3008.18 8415.98 3008.18 8411.06 3003.26 8411.06 2997.18 8411.06 2991.11 8415.98 2986.18 8422.06 2986.18 8428.13 2986.18 8433.05 2991.11 8433.05 2997.18Z" stroke="#000000" stroke-width="4.58333" stroke-linecap="butt" stroke-linejoin="round" stroke-miterlimit="10" stroke-opacity="1" fill="#000000" fill-rule="nonzero" fill-opacity="1"/></g><g clip-path="url(#clip11)"><path d="M6549 3043.1 6705.22 3097.1 6861.23 3313.11 7017.23 3334 7173.24 3318.11 7329.24 3140.1 7485.25 3118.1 7641.25 2967 7798.26 3183.1 7954.26 3172.1 8110.27 3183.1 8266.27 3318.11 8422 3010.1" stroke="#FF00FF" stroke-width="10.3125" stroke-linecap="round" stroke-linejoin="round" stroke-miterlimit="10" stroke-opacity="1" fill="none" fill-rule="nonzero"/></g><g clip-path="url(#clip12)"><path d="M6559.06 3042.18C6559.06 3048.26 6554.13 3053.18 6548.06 3053.18 6541.98 3053.18 6537.06 3048.26 6537.06 3042.18 6537.06 3036.11 6541.98 3031.18 6548.06 3031.18 6554.13 3031.18 6559.06 3036.11 6559.06 3042.18Z" stroke="#FF00FF" stroke-width="3.4375" stroke-linecap="butt" stroke-linejoin="round" stroke-miterlimit="10" stroke-opacity="1" fill="#FF00FF" fill-rule="nonzero" fill-opacity="1"/><path d="M6715.06 3096.18C6715.06 3102.26 6710.13 3107.18 6704.06 3107.18 6697.98 3107.18 6693.06 3102.26 6693.06 3096.18 6693.06 3090.11 6697.98 3085.18 6704.06 3085.18 6710.13 3085.18 6715.06 3090.11 6715.06 3096.18Z" stroke="#FF00FF" stroke-width="3.4375" stroke-linecap="butt" stroke-linejoin="round" stroke-miterlimit="10" stroke-opacity="1" fill="#FF00FF" fill-rule="nonzero" fill-opacity="1"/><path d="M6871.06 3312.18C6871.06 3318.25 6866.13 3323.18 6860.06 3323.18 6853.98 3323.18 6849.06 3318.25 6849.06 3312.18 6849.06 3306.1 6853.98 3301.18 6860.06 3301.18 6866.13 3301.18 6871.06 3306.1 6871.06 3312.18Z" stroke="#FF00FF" stroke-width="3.4375" stroke-linecap="butt" stroke-linejoin="round" stroke-miterlimit="10" stroke-opacity="1" fill="#FF00FF" fill-rule="nonzero" fill-opacity="1"/><path d="M7028.06 3334.18C7028.06 3340.25 7023.13 3345.18 7017.06 3345.18 7010.98 3345.18 7006.06 3340.25 7006.06 3334.18 7006.06 3328.1 7010.98 3323.18 7017.06 3323.18 7023.13 3323.18 7028.06 3328.1 7028.06 3334.18Z" stroke="#FF00FF" stroke-width="3.4375" stroke-linecap="butt" stroke-linejoin="round" stroke-miterlimit="10" stroke-opacity="1" fill="#FF00FF" fill-rule="nonzero" fill-opacity="1"/><path d="M7184.05 3318.18C7184.05 3324.26 7179.13 3329.18 7173.06 3329.18 7166.98 3329.18 7162.06 3324.26 7162.06 3318.18 7162.06 3312.11 7166.98 3307.18 7173.06 3307.18 7179.13 3307.18 7184.05 3312.11 7184.05 3318.18Z" stroke="#FF00FF" stroke-width="3.4375" stroke-linecap="butt" stroke-linejoin="round" stroke-miterlimit="10" stroke-opacity="1" fill="#FF00FF" fill-rule="nonzero" fill-opacity="1"/><path d="M7340.06 3139.18C7340.06 3145.26 7335.13 3150.18 7329.06 3150.18 7322.98 3150.18 7318.06 3145.26 7318.06 3139.18 7318.06 3133.11 7322.98 3128.18 7329.06 3128.18 7335.13 3128.18 7340.06 3133.11 7340.06 3139.18Z" stroke="#FF00FF" stroke-width="3.4375" stroke-linecap="butt" stroke-linejoin="round" stroke-miterlimit="10" stroke-opacity="1" fill="#FF00FF" fill-rule="nonzero" fill-opacity="1"/><path d="M7496.06 3118.18C7496.06 3124.26 7491.13 3129.18 7485.06 3129.18 7478.98 3129.18 7474.06 3124.26 7474.06 3118.18 7474.06 3112.11 7478.98 3107.18 7485.06 3107.18 7491.13 3107.18 7496.06 3112.11 7496.06 3118.18Z" stroke="#FF00FF" stroke-width="3.4375" stroke-linecap="butt" stroke-linejoin="round" stroke-miterlimit="10" stroke-opacity="1" fill="#FF00FF" fill-rule="nonzero" fill-opacity="1"/><path d="M7652.06 2967.18C7652.06 2973.26 7647.13 2978.18 7641.06 2978.18 7634.98 2978.18 7630.06 2973.26 7630.06 2967.18 7630.06 2961.11 7634.98 2956.18 7641.06 2956.18 7647.13 2956.18 7652.06 2961.11 7652.06 2967.18Z" stroke="#FF00FF" stroke-width="3.4375" stroke-linecap="butt" stroke-linejoin="round" stroke-miterlimit="10" stroke-opacity="1" fill="#FF00FF" fill-rule="nonzero" fill-opacity="1"/><path d="M7808.06 3183.18C7808.06 3189.26 7803.13 3194.18 7797.06 3194.18 7790.98 3194.18 7786.06 3189.26 7786.06 3183.18 7786.06 3177.11 7790.98 3172.18 7797.06 3172.18 7803.13 3172.18 7808.06 3177.11 7808.06 3183.18Z" stroke="#FF00FF" stroke-width="3.4375" stroke-linecap="butt" stroke-linejoin="round" stroke-miterlimit="10" stroke-opacity="1" fill="#FF00FF" fill-rule="nonzero" fill-opacity="1"/><path d="M7964.06 3172.18C7964.06 3178.26 7959.13 3183.18 7953.06 3183.18 7946.98 3183.18 7942.06 3178.26 7942.06 3172.18 7942.06 3166.11 7946.98 3161.18 7953.06 3161.18 7959.13 3161.18 7964.06 3166.11 7964.06 3172.18Z" stroke="#FF00FF" stroke-width="3.4375" stroke-linecap="butt" stroke-linejoin="round" stroke-miterlimit="10" stroke-opacity="1" fill="#FF00FF" fill-rule="nonzero" fill-opacity="1"/><path d="M8121.06 3183.18C8121.06 3189.26 8116.13 3194.18 8110.06 3194.18 8103.98 3194.18 8099.06 3189.26 8099.06 3183.18 8099.06 3177.11 8103.98 3172.18 8110.06 3172.18 8116.13 3172.18 8121.06 3177.11 8121.06 3183.18Z" stroke="#FF00FF" stroke-width="3.4375" stroke-linecap="butt" stroke-linejoin="round" stroke-miterlimit="10" stroke-opacity="1" fill="#FF00FF" fill-rule="nonzero" fill-opacity="1"/><path d="M8277.05 3318.18C8277.05 3324.26 8272.13 3329.18 8266.06 3329.18 8259.98 3329.18 8255.06 3324.26 8255.06 3318.18 8255.06 3312.11 8259.98 3307.18 8266.06 3307.18 8272.13 3307.18 8277.05 3312.11 8277.05 3318.18Z" stroke="#FF00FF" stroke-width="3.4375" stroke-linecap="butt" stroke-linejoin="round" stroke-miterlimit="10" stroke-opacity="1" fill="#FF00FF" fill-rule="nonzero" fill-opacity="1"/><path d="M8433.05 3010.18C8433.05 3016.26 8428.13 3021.18 8422.06 3021.18 8415.98 3021.18 8411.06 3016.26 8411.06 3010.18 8411.06 3004.11 8415.98 2999.18 8422.06 2999.18 8428.13 2999.18 8433.05 3004.11 8433.05 3010.18Z" stroke="#FF00FF" stroke-width="3.4375" stroke-linecap="butt" stroke-linejoin="round" stroke-miterlimit="10" stroke-opacity="1" fill="#FF00FF" fill-rule="nonzero" fill-opacity="1"/></g><g clip-path="url(#clip13)"><text fill="#595959" fill-opacity="1" font-family="Calibri,Calibri_MSFontService,sans-serif" font-style="normal" font-variant="normal" font-weight="400" font-stretch="normal" font-size="41" text-anchor="start" direction="ltr" writing-mode="lr-tb" unicode-bidi="normal" text-decoration="none" transform="matrix(1 0 0 1 8538.69 3539)">0,00</text></g><g clip-path="url(#clip14)"><text fill="#595959" fill-opacity="1" font-family="Calibri,Calibri_MSFontService,sans-serif" font-style="normal" font-variant="normal" font-weight="400" font-stretch="normal" font-size="41" text-anchor="start" direction="ltr" writing-mode="lr-tb" unicode-bidi="normal" text-decoration="none" transform="matrix(1 0 0 1 8538.69 3431)">10,00</text></g><g clip-path="url(#clip15)"><text fill="#595959" fill-opacity="1" font-family="Calibri,Calibri_MSFontService,sans-serif" font-style="normal" font-variant="normal" font-weight="400" font-stretch="normal" font-size="41" text-anchor="start" direction="ltr" writing-mode="lr-tb" unicode-bidi="normal" text-decoration="none" transform="matrix(1 0 0 1 8538.69 3323)">20,00</text></g><g clip-path="url(#clip16)"><text fill="#595959" fill-opacity="1" font-family="Calibri,Calibri_MSFontService,sans-serif" font-style="normal" font-variant="normal" font-weight="400" font-stretch="normal" font-size="41" text-anchor="start" direction="ltr" writing-mode="lr-tb" unicode-bidi="normal" text-decoration="none" transform="matrix(1 0 0 1 8538.69 3215)">30,00</text></g><g clip-path="url(#clip17)"><text fill="#595959" fill-opacity="1" font-family="Calibri,Calibri_MSFontService,sans-serif" font-style="normal" font-variant="normal" font-weight="400" font-stretch="normal" font-size="41" text-anchor="start" direction="ltr" writing-mode="lr-tb" unicode-bidi="normal" text-decoration="none" transform="matrix(1 0 0 1 8538.69 3107)">40,00</text></g><g clip-path="url(#clip18)"><text fill="#595959" fill-opacity="1" font-family="Calibri,Calibri_MSFontService,sans-serif" font-style="normal" font-variant="normal" font-weight="400" font-stretch="normal" font-size="41" text-anchor="start" direction="ltr" writing-mode="lr-tb" unicode-bidi="normal" text-decoration="none" transform="matrix(1 0 0 1 8538.69 2999)">50,00</text></g><g clip-path="url(#clip19)"><text fill="#595959" fill-opacity="1" font-family="Calibri,Calibri_MSFontService,sans-serif" font-style="normal" font-variant="normal" font-weight="400" font-stretch="normal" font-size="41" text-anchor="start" direction="ltr" writing-mode="lr-tb" unicode-bidi="normal" text-decoration="none" transform="matrix(1 0 0 1 8538.69 2891)">60,00</text></g><g clip-path="url(#clip20)"><text fill="#595959" fill-opacity="1" font-family="Calibri,Calibri_MSFontService,sans-serif" font-style="normal" font-variant="normal" font-weight="400" font-stretch="normal" font-size="41" text-anchor="start" direction="ltr" writing-mode="lr-tb" unicode-bidi="normal" text-decoration="none" transform="matrix(1 0 0 1 8538.69 2783)">70,00</text></g><g clip-path="url(#clip21)"><text fill="#595959" fill-opacity="1" font-family="Calibri,Calibri_MSFontService,sans-serif" font-style="normal" font-variant="normal" font-weight="400" font-stretch="normal" font-size="41" text-anchor="start" direction="ltr" writing-mode="lr-tb" unicode-bidi="normal" text-decoration="none" transform="matrix(1 0 0 1 8538.69 2675)">80,00</text></g><g clip-path="url(#clip22)"><text fill="#595959" fill-opacity="1" font-family="Calibri,Calibri_MSFontService,sans-serif" font-style="normal" font-variant="normal" font-weight="400" font-stretch="normal" font-size="41" text-anchor="start" direction="ltr" writing-mode="lr-tb" unicode-bidi="normal" text-decoration="none" transform="matrix(1 0 0 1 8538.69 2567)">90,00</text></g><g clip-path="url(#clip23)"><text fill="#595959" fill-opacity="1" font-family="Calibri,Calibri_MSFontService,sans-serif" font-style="normal" font-variant="normal" font-weight="400" font-stretch="normal" font-size="41" text-anchor="start" direction="ltr" writing-mode="lr-tb" unicode-bidi="normal" text-decoration="none" transform="matrix(1 0 0 1 8538.69 2459)">100,00</text></g><g clip-path="url(#clip24)"><text fill="#595959" fill-opacity="1" font-family="Calibri,Calibri_MSFontService,sans-serif" font-style="normal" font-variant="normal" font-weight="400" font-stretch="normal" font-size="41" text-anchor="start" direction="ltr" writing-mode="lr-tb" unicode-bidi="normal" text-decoration="none" transform="matrix(1 0 0 1 6317.54 3539)">0,0625</text></g><g clip-path="url(#clip25)"><text fill="#595959" fill-opacity="1" font-family="Calibri,Calibri_MSFontService,sans-serif" font-style="normal" font-variant="normal" font-weight="400" font-stretch="normal" font-size="41" text-anchor="start" direction="ltr" writing-mode="lr-tb" unicode-bidi="normal" text-decoration="none" transform="matrix(1 0 0 1 6338.44 3391)">0,125</text></g><g clip-path="url(#clip26)"><text fill="#595959" fill-opacity="1" font-family="Calibri,Calibri_MSFontService,sans-serif" font-style="normal" font-variant="normal" font-weight="400" font-stretch="normal" font-size="41" text-anchor="start" direction="ltr" writing-mode="lr-tb" unicode-bidi="normal" text-decoration="none" transform="matrix(1 0 0 1 6359.34 3244)">0,25</text></g><g clip-path="url(#clip27)"><text fill="#595959" fill-opacity="1" font-family="Calibri,Calibri_MSFontService,sans-serif" font-style="normal" font-variant="normal" font-weight="400" font-stretch="normal" font-size="41" text-anchor="start" direction="ltr" writing-mode="lr-tb" unicode-bidi="normal" text-decoration="none" transform="matrix(1 0 0 1 6380.24 3096)">0,5</text></g><g clip-path="url(#clip28)"><text fill="#595959" fill-opacity="1" font-family="Calibri,Calibri_MSFontService,sans-serif" font-style="normal" font-variant="normal" font-weight="400" font-stretch="normal" font-size="41" text-anchor="start" direction="ltr" writing-mode="lr-tb" unicode-bidi="normal" text-decoration="none" transform="matrix(1 0 0 1 6411.43 2949)">1</text></g><g clip-path="url(#clip29)"><text fill="#595959" fill-opacity="1" font-family="Calibri,Calibri_MSFontService,sans-serif" font-style="normal" font-variant="normal" font-weight="400" font-stretch="normal" font-size="41" text-anchor="start" direction="ltr" writing-mode="lr-tb" unicode-bidi="normal" text-decoration="none" transform="matrix(1 0 0 1 6411.43 2801)">2</text></g><g clip-path="url(#clip30)"><text fill="#595959" fill-opacity="1" font-family="Calibri,Calibri_MSFontService,sans-serif" font-style="normal" font-variant="normal" font-weight="400" font-stretch="normal" font-size="41" text-anchor="start" direction="ltr" writing-mode="lr-tb" unicode-bidi="normal" text-decoration="none" transform="matrix(1 0 0 1 6411.43 2654)">4</text></g><g clip-path="url(#clip31)"><text fill="#595959" fill-opacity="1" font-family="Calibri,Calibri_MSFontService,sans-serif" font-style="normal" font-variant="normal" font-weight="400" font-stretch="normal" font-size="41" text-anchor="start" direction="ltr" writing-mode="lr-tb" unicode-bidi="normal" text-decoration="none" transform="matrix(1 0 0 1 6411.43 2506)">8</text></g><g clip-path="url(#clip32)"><text fill="#595959" fill-opacity="1" font-family="Calibri,Calibri_MSFontService,sans-serif" font-style="normal" font-variant="normal" font-weight="400" font-stretch="normal" font-size="41" text-anchor="start" direction="ltr" writing-mode="lr-tb" unicode-bidi="normal" text-decoration="none" transform="matrix(1 0 0 1 6494.16 3594)">Jan-18</text></g><g clip-path="url(#clip33)"><text fill="#595959" fill-opacity="1" font-family="Calibri,Calibri_MSFontService,sans-serif" font-style="normal" font-variant="normal" font-weight="400" font-stretch="normal" font-size="41" text-anchor="start" direction="ltr" writing-mode="lr-tb" unicode-bidi="normal" text-decoration="none" transform="matrix(1 0 0 1 6642.88 3594)">Mar-18</text></g><g clip-path="url(#clip34)"><text fill="#595959" fill-opacity="1" font-family="Calibri,Calibri_MSFontService,sans-serif" font-style="normal" font-variant="normal" font-weight="400" font-stretch="normal" font-size="41" text-anchor="start" direction="ltr" writing-mode="lr-tb" unicode-bidi="normal" text-decoration="none" transform="matrix(1 0 0 1 6796.88 3594)">May-18</text></g><g clip-path="url(#clip35)"><text fill="#595959" fill-opacity="1" font-family="Calibri,Calibri_MSFontService,sans-serif" font-style="normal" font-variant="normal" font-weight="400" font-stretch="normal" font-size="41" text-anchor="start" direction="ltr" writing-mode="lr-tb" unicode-bidi="normal" text-decoration="none" transform="matrix(1 0 0 1 6967.72 3594)">Jul-18</text></g><g clip-path="url(#clip36)"><text fill="#595959" fill-opacity="1" font-family="Calibri,Calibri_MSFontService,sans-serif" font-style="normal" font-variant="normal" font-weight="400" font-stretch="normal" font-size="41" text-anchor="start" direction="ltr" writing-mode="lr-tb" unicode-bidi="normal" text-decoration="none" transform="matrix(1 0 0 1 7115.43 3594)">Sep-18</text></g><g clip-path="url(#clip37)"><text fill="#595959" fill-opacity="1" font-family="Calibri,Calibri_MSFontService,sans-serif" font-style="normal" font-variant="normal" font-weight="400" font-stretch="normal" font-size="41" text-anchor="start" direction="ltr" writing-mode="lr-tb" unicode-bidi="normal" text-decoration="none" transform="matrix(1 0 0 1 7268.65 3594)">Nov-18</text></g><g clip-path="url(#clip38)"><text fill="#595959" fill-opacity="1" font-family="Calibri,Calibri_MSFontService,sans-serif" font-style="normal" font-variant="normal" font-weight="400" font-stretch="normal" font-size="41" text-anchor="start" direction="ltr" writing-mode="lr-tb" unicode-bidi="normal" text-decoration="none" transform="matrix(1 0 0 1 7431 3594)">Jan-19</text></g><g clip-path="url(#clip39)"><text fill="#595959" fill-opacity="1" font-family="Calibri,Calibri_MSFontService,sans-serif" font-style="normal" font-variant="normal" font-weight="400" font-stretch="normal" font-size="41" text-anchor="start" direction="ltr" writing-mode="lr-tb" unicode-bidi="normal" text-decoration="none" transform="matrix(1 0 0 1 7579.73 3594)">Mar-19</text></g><g clip-path="url(#clip40)"><text fill="#595959" fill-opacity="1" font-family="Calibri,Calibri_MSFontService,sans-serif" font-style="normal" font-variant="normal" font-weight="400" font-stretch="normal" font-size="41" text-anchor="start" direction="ltr" writing-mode="lr-tb" unicode-bidi="normal" text-decoration="none" transform="matrix(1 0 0 1 7733.72 3594)">May-19</text></g><g clip-path="url(#clip41)"><text fill="#595959" fill-opacity="1" font-family="Calibri,Calibri_MSFontService,sans-serif" font-style="normal" font-variant="normal" font-weight="400" font-stretch="normal" font-size="41" text-anchor="start" direction="ltr" writing-mode="lr-tb" unicode-bidi="normal" text-decoration="none" transform="matrix(1 0 0 1 7904.56 3594)">Jul-19</text></g><g clip-path="url(#clip42)"><text fill="#595959" fill-opacity="1" font-family="Calibri,Calibri_MSFontService,sans-serif" font-style="normal" font-variant="normal" font-weight="400" font-stretch="normal" font-size="41" text-anchor="start" direction="ltr" writing-mode="lr-tb" unicode-bidi="normal" text-decoration="none" transform="matrix(1 0 0 1 8052.27 3594)">Sep-19</text></g><g clip-path="url(#clip43)"><text fill="#595959" fill-opacity="1" font-family="Calibri,Calibri_MSFontService,sans-serif" font-style="normal" font-variant="normal" font-weight="400" font-stretch="normal" font-size="41" text-anchor="start" direction="ltr" writing-mode="lr-tb" unicode-bidi="normal" text-decoration="none" transform="matrix(1 0 0 1 8205.49 3594)">Nov-19</text></g><g clip-path="url(#clip44)"><text fill="#595959" fill-opacity="1" font-family="Calibri,Calibri_MSFontService,sans-serif" font-style="normal" font-variant="normal" font-weight="400" font-stretch="normal" font-size="41" text-anchor="start" direction="ltr" writing-mode="lr-tb" unicode-bidi="normal" text-decoration="none" transform="matrix(1 0 0 1 8364.55 3594)">Feb-20</text></g><g clip-path="url(#clip45)"><text fill="#595959" fill-opacity="1" font-family="Calibri,Calibri_MSFontService,sans-serif" font-style="normal" font-variant="normal" font-weight="400" font-stretch="normal" font-size="46" text-anchor="start" direction="ltr" writing-mode="lr-tb" unicode-bidi="normal" text-decoration="none" transform="matrix(6.12323e-17 -1 1 6.12323e-17 8711.23 3093)">Valor de Qi</text></g><g clip-path="url(#clip46)"><text fill="#595959" fill-opacity="1" font-family="Calibri,Calibri_MSFontService,sans-serif" font-style="normal" font-variant="normal" font-weight="700" font-stretch="normal" font-size="46" text-anchor="start" direction="ltr" writing-mode="lr-tb" unicode-bidi="normal" text-decoration="none" transform="matrix(6.12323e-17 -1 1 6.12323e-17 6291.85 3138)">Fósforos (mg/L)</text></g><g clip-path="url(#clip47)"><text fill="#595959" fill-opacity="1" font-family="Calibri,Calibri_MSFontService,sans-serif" font-style="normal" font-variant="normal" font-weight="700" font-stretch="normal" font-size="64" text-anchor="start" direction="ltr" writing-mode="lr-tb" unicode-bidi="normal" text-decoration="none" transform="matrix(1 0 0 1 7113.97 2374)">Fósforos (mg/L)</text></g><g clip-path="url(#clip48)"><text fill="#595959" fill-opacity="1" font-family="Calibri,Calibri_MSFontService,sans-serif" font-style="normal" font-variant="normal" font-weight="700" font-stretch="normal" font-size="64" text-anchor="start" direction="ltr" writing-mode="lr-tb" unicode-bidi="normal" text-decoration="none" transform="matrix(1 0 0 1 7633.38 2374)">x Tempo</text></g><g clip-path="url(#clip49)"><rect x="6688" y="3662" width="88" height="23" fill="#00B050" fill-opacity="0.301961"/></g><g clip-path="url(#clip50)"><text fill="#595959" fill-opacity="1" font-family="Calibri,Calibri_MSFontService,sans-serif" font-style="normal" font-variant="normal" font-weight="400" font-stretch="normal" font-size="41" text-anchor="start" direction="ltr" writing-mode="lr-tb" unicode-bidi="normal" text-decoration="none" transform="matrix(1 0 0 1 6785.17 3684)">Classe I-II</text></g><g clip-path="url(#clip51)"><rect x="7003" y="3662" width="88" height="23" fill="#4472C4" fill-opacity="0.301961"/></g><g clip-path="url(#clip52)"><text fill="#595959" fill-opacity="1" font-family="Calibri,Calibri_MSFontService,sans-serif" font-style="normal" font-variant="normal" font-weight="400" font-stretch="normal" font-size="41" text-anchor="start" direction="ltr" writing-mode="lr-tb" unicode-bidi="normal" text-decoration="none" transform="matrix(1 0 0 1 7100.13 3684)">Classe III</text></g><g clip-path="url(#clip53)"><rect x="7305" y="3662" width="88" height="23" fill="#FF0000" fill-opacity="0.301961"/></g><g clip-path="url(#clip54)"><text fill="#595959" fill-opacity="1" font-family="Calibri,Calibri_MSFontService,sans-serif" font-style="normal" font-variant="normal" font-weight="400" font-stretch="normal" font-size="41" text-anchor="start" direction="ltr" writing-mode="lr-tb" unicode-bidi="normal" text-decoration="none" transform="matrix(1 0 0 1 7402.45 3684)">Classe IV</text></g><g clip-path="url(#clip55)"><path d="M7610 3674 7698 3674" stroke="#000000" stroke-width="10.3125" stroke-linecap="round" stroke-linejoin="round" stroke-miterlimit="10" stroke-opacity="1" fill="none" fill-rule="evenodd"/></g><g clip-path="url(#clip56)"><path d="M7665 3673C7665 3679.07 7660.08 3684 7654 3684 7647.92 3684 7643 3679.07 7643 3673 7643 3666.92 7647.92 3662 7654 3662 7660.08 3662 7665 3666.92 7665 3673Z" stroke="#000000" stroke-width="4.58333" stroke-linecap="butt" stroke-linejoin="round" stroke-miterlimit="10" stroke-opacity="1" fill="#000000" fill-rule="nonzero" fill-opacity="1"/></g><g clip-path="url(#clip57)"><text fill="#595959" fill-opacity="1" font-family="Calibri,Calibri_MSFontService,sans-serif" font-style="normal" font-variant="normal" font-weight="400" font-stretch="normal" font-size="41" text-anchor="start" direction="ltr" writing-mode="lr-tb" unicode-bidi="normal" text-decoration="none" transform="matrix(1 0 0 1 7707.37 3684)">Fósforo (mg/L)</text></g><g clip-path="url(#clip58)"><path d="M8015 3674 8103 3674" stroke="#FF00FF" stroke-width="10.3125" stroke-linecap="round" stroke-linejoin="round" stroke-miterlimit="10" stroke-opacity="1" fill="none" fill-rule="evenodd"/></g><g clip-path="url(#clip59)"><path d="M8070 3673C8070 3679.07 8065.08 3684 8059 3684 8052.92 3684 8048 3679.07 8048 3673 8048 3666.92 8052.92 3662 8059 3662 8065.08 3662 8070 3666.92 8070 3673Z" stroke="#FF00FF" stroke-width="3.4375" stroke-linecap="butt" stroke-linejoin="round" stroke-miterlimit="10" stroke-opacity="1" fill="#FF00FF" fill-rule="nonzero" fill-opacity="1"/></g><g clip-path="url(#clip60)"><text fill="#595959" fill-opacity="1" font-family="Calibri,Calibri_MSFontService,sans-serif" font-style="normal" font-variant="normal" font-weight="400" font-stretch="normal" font-size="41" text-anchor="start" direction="ltr" writing-mode="lr-tb" unicode-bidi="normal" text-decoration="none" transform="matrix(1 0 0 1 8112.43 3684)">Valor de Qi</text></g><rect x="6191.5" y="2279.5" width="2589" height="1461" stroke="#D9D9D9" stroke-width="3.4375" stroke-linecap="butt" stroke-linejoin="round" stroke-miterlimit="10" stroke-opacity="1" fill="none"/></g></svg>