<svg width="2604" height="1467" xmlns="http://www.w3.org/2000/svg" xmlns:xlink="http://www.w3.org/1999/xlink" xml:space="preserve" overflow="hidden"><defs><clipPath id="clip0"><rect x="783" y="5325" width="2604" height="1467"/></clipPath><clipPath id="clip1"><rect x="786" y="5327" width="2595" height="1461"/></clipPath><clipPath id="clip2"><rect x="786" y="5327" width="2595" height="1461"/></clipPath><clipPath id="clip3"><rect x="1014" y="5497" width="2320" height="1083"/></clipPath><clipPath id="clip4"><rect x="1014" y="5497" width="2320" height="1083"/></clipPath><clipPath id="clip5"><rect x="1014" y="5497" width="2320" height="1083"/></clipPath><clipPath id="clip6"><rect x="1014" y="5497" width="2320" height="1083"/></clipPath><clipPath id="clip7"><rect x="1014" y="5497" width="2320" height="1083"/></clipPath><clipPath id="clip8"><rect x="786" y="5327" width="2595" height="1461"/></clipPath><clipPath id="clip9"><rect x="786" y="5327" width="2595" height="1461"/></clipPath><clipPath id="clip10"><rect x="1014" y="5497" width="2320" height="1083"/></clipPath><clipPath id="clip11"><rect x="786" y="5327" width="2595" height="1461"/></clipPath><clipPath id="clip12"><rect x="786" y="5327" width="2595" height="1461"/></clipPath><clipPath id="clip13"><rect x="786" y="5327" width="2595" height="1461"/></clipPath><clipPath id="clip14"><rect x="786" y="5327" width="2595" height="1461"/></clipPath><clipPath id="clip15"><rect x="786" y="5327" width="2595" height="1461"/></clipPath><clipPath id="clip16"><rect x="786" y="5327" width="2595" height="1461"/></clipPath><clipPath id="clip17"><rect x="786" y="5327" width="2595" height="1461"/></clipPath><clipPath id="clip18"><rect x="786" y="5327" width="2595" height="1461"/></clipPath><clipPath id="clip19"><rect x="786" y="5327" width="2595" height="1461"/></clipPath><clipPath id="clip20"><rect x="786" y="5327" width="2595" height="1461"/></clipPath><clipPath id="clip21"><rect x="786" y="5327" width="2595" height="1461"/></clipPath><clipPath id="clip22"><rect x="786" y="5327" width="2595" height="1461"/></clipPath><clipPath id="clip23"><rect x="786" y="5327" width="2595" height="1461"/></clipPath><clipPath id="clip24"><rect x="786" y="5327" width="2595" height="1461"/></clipPath><clipPath id="clip25"><rect x="786" y="5327" width="2595" height="1461"/></clipPath><clipPath id="clip26"><rect x="786" y="5327" width="2595" height="1461"/></clipPath><clipPath id="clip27"><rect x="786" y="5327" width="2595" height="1461"/></clipPath><clipPath id="clip28"><rect x="786" y="5327" width="2595" height="1461"/></clipPath><clipPath id="clip29"><rect x="786" y="5327" width="2595" height="1461"/></clipPath><clipPath id="clip30"><rect x="786" y="5327" width="2595" height="1461"/></clipPath><clipPath id="clip31"><rect x="786" y="5327" width="2595" height="1461"/></clipPath><clipPath id="clip32"><rect x="786" y="5327" width="2595" height="1461"/></clipPath><clipPath id="clip33"><rect x="786" y="5327" width="2595" height="1461"/></clipPath><clipPath id="clip34"><rect x="786" y="5327" width="2595" height="1461"/></clipPath><clipPath id="clip35"><rect x="786" y="5327" width="2595" height="1461"/></clipPath><clipPath id="clip36"><rect x="786" y="5327" width="2595" height="1461"/></clipPath><clipPath id="clip37"><rect x="786" y="5327" width="2595" height="1461"/></clipPath><clipPath id="clip38"><rect x="786" y="5327" width="2595" height="1461"/></clipPath><clipPath id="clip39"><rect x="786" y="5327" width="2595" height="1461"/></clipPath><clipPath id="clip40"><rect x="786" y="5327" width="2595" height="1461"/></clipPath><clipPath id="clip41"><rect x="786" y="5327" width="2595" height="1461"/></clipPath><clipPath id="clip42"><rect x="786" y="5327" width="2595" height="1461"/></clipPath><clipPath id="clip43"><rect x="786" y="5327" width="2595" height="1461"/></clipPath><clipPath id="clip44"><rect x="786" y="5327" width="2595" height="1461"/></clipPath><clipPath id="clip45"><rect x="786" y="5327" width="2595" height="1461"/></clipPath><clipPath id="clip46"><rect x="786" y="5327" width="2595" height="1461"/></clipPath><clipPath id="clip47"><rect x="786" y="5327" width="2595" height="1461"/></clipPath><clipPath id="clip48"><rect x="786" y="5327" width="2595" height="1461"/></clipPath><clipPath id="clip49"><rect x="786" y="5327" width="2595" height="1461"/></clipPath><clipPath id="clip50"><rect x="786" y="5327" width="2595" height="1461"/></clipPath></defs><g clip-path="url(#clip0)" transform="translate(-783 -5325)"><rect x="787" y="5327" width="2595" height="1461" fill="#FFFFFF" fill-opacity="1"/><g clip-path="url(#clip1)"><path d="M1014.5 6468.71 3331.5 6468.71M1014.5 6360.71 3331.5 6360.71M1014.5 6252.71 3331.5 6252.71M1014.5 6144.7 3331.5 6144.7M1014.5 6036.7 3331.5 6036.7M1014.5 5928.69 3331.5 5928.69M1014.5 5820.69 3331.5 5820.69M1014.5 5712.69 3331.5 5712.69M1014.5 5604.68 3331.5 5604.68M1014.5 5497.5 3331.5 5497.5" stroke="#D9D9D9" stroke-width="3.4375" stroke-linecap="butt" stroke-linejoin="round" stroke-miterlimit="10" stroke-opacity="1" fill="none" fill-rule="nonzero"/></g><g clip-path="url(#clip2)"><path d="M1014.5 5497.5 1014.5 6577.5M1192.54 5497.5 1192.54 6577.5M1370.55 5497.5 1370.55 6577.5M1549.55 5497.5 1549.55 6577.5M1727.56 5497.5 1727.56 6577.5M1905.56 5497.5 1905.56 6577.5M2083.57 5497.5 2083.57 6577.5M2262.57 5497.5 2262.57 6577.5M2440.58 5497.5 2440.58 6577.5M2618.59 5497.5 2618.59 6577.5M2796.59 5497.5 2796.59 6577.5M2974.6 5497.5 2974.6 6577.5M3153.6 5497.5 3153.6 6577.5M3331.5 5497.5 3331.5 6577.5" stroke="#D9D9D9" stroke-width="3.4375" stroke-linecap="butt" stroke-linejoin="round" stroke-miterlimit="10" stroke-opacity="1" fill="none" fill-rule="nonzero"/></g><g clip-path="url(#clip3)"><path d="M1015 6372.21 1193.04 6372.21 1193.04 6577 1015 6577ZM1193.04 6372.21 1371.05 6372.21 1371.05 6577 1193.04 6577ZM1371.05 6372.21 1549.05 6372.21 1549.05 6577 1371.05 6577ZM1549.05 6372.21 1727.06 6372.21 1727.06 6577 1549.05 6577ZM1727.06 6372.21 1906.06 6372.21 1906.06 6577 1727.06 6577ZM1906.06 6372.21 2084.07 6372.21 2084.07 6577 1906.06 6577ZM2084.07 6372.21 2262.07 6372.21 2262.07 6577 2084.07 6577ZM2262.07 6372.21 2440.08 6372.21 2440.08 6577 2262.07 6577ZM2440.08 6372.21 2618.09 6372.21 2618.09 6577 2440.08 6577ZM2618.09 6372.21 2797.09 6372.21 2797.09 6577 2618.09 6577ZM2797.09 6372.21 2975.1 6372.21 2975.1 6577 2797.09 6577ZM2975.1 6372.21 3153.1 6372.21 3153.1 6577 2975.1 6577ZM3153.1 6372.21 3331 6372.21 3331 6577 3153.1 6577Z" fill="#7030A0" fill-rule="nonzero" fill-opacity="0.301961"/></g><g clip-path="url(#clip4)"><path d="M1015 6188.2 1193.04 6188.2 1193.04 6372.21 1015 6372.21ZM1193.04 6188.2 1371.05 6188.2 1371.05 6372.21 1193.04 6372.21ZM1371.05 6188.2 1549.05 6188.2 1549.05 6372.21 1371.05 6372.21ZM1549.05 6188.2 1727.06 6188.2 1727.06 6372.21 1549.05 6372.21ZM1727.06 6188.2 1906.06 6188.2 1906.06 6372.21 1727.06 6372.21ZM1906.06 6188.2 2084.07 6188.2 2084.07 6372.21 1906.06 6372.21ZM2084.07 6188.2 2262.07 6188.2 2262.07 6372.21 2084.07 6372.21ZM2262.07 6188.2 2440.08 6188.2 2440.08 6372.21 2262.07 6372.21ZM2440.08 6188.2 2618.09 6188.2 2618.09 6372.21 2440.08 6372.21ZM2618.09 6188.2 2797.09 6188.2 2797.09 6372.21 2618.09 6372.21ZM2797.09 6188.2 2975.1 6188.2 2975.1 6372.21 2797.09 6372.21ZM2975.1 6188.2 3153.1 6188.2 3153.1 6372.21 2975.1 6372.21ZM3153.1 6188.2 3331 6188.2 3331 6372.21 3153.1 6372.21Z" fill="#FF0000" fill-rule="nonzero" fill-opacity="0.301961"/></g><g clip-path="url(#clip5)"><path d="M1015 6026.2 1193.04 6026.2 1193.04 6188.2 1015 6188.2ZM1193.04 6026.2 1371.05 6026.2 1371.05 6188.2 1193.04 6188.2ZM1371.05 6026.2 1549.05 6026.2 1549.05 6188.2 1371.05 6188.2ZM1549.05 6026.2 1727.06 6026.2 1727.06 6188.2 1549.05 6188.2ZM1727.06 6026.2 1906.06 6026.2 1906.06 6188.2 1727.06 6188.2ZM1906.06 6026.2 2084.07 6026.2 2084.07 6188.2 1906.06 6188.2ZM2084.07 6026.2 2262.07 6026.2 2262.07 6188.2 2084.07 6188.2ZM2262.07 6026.2 2440.08 6026.2 2440.08 6188.2 2262.07 6188.2ZM2440.08 6026.2 2618.09 6026.2 2618.09 6188.2 2440.08 6188.2ZM2618.09 6026.2 2797.09 6026.2 2797.09 6188.2 2618.09 6188.2ZM2797.09 6026.2 2975.1 6026.2 2975.1 6188.2 2797.09 6188.2ZM2975.1 6026.2 3153.1 6026.2 3153.1 6188.2 2975.1 6188.2ZM3153.1 6026.2 3331 6026.2 3331 6188.2 3153.1 6188.2Z" fill="#FFFF00" fill-rule="nonzero" fill-opacity="0.301961"/></g><g clip-path="url(#clip6)"><path d="M1015 5724.19 1193.04 5724.19 1193.04 6026.2 1015 6026.2ZM1193.04 5724.19 1371.05 5724.19 1371.05 6026.2 1193.04 6026.2ZM1371.05 5724.19 1549.05 5724.19 1549.05 6026.2 1371.05 6026.2ZM1549.05 5724.19 1727.06 5724.19 1727.06 6026.2 1549.05 6026.2ZM1727.06 5724.19 1906.06 5724.19 1906.06 6026.2 1727.06 6026.2ZM1906.06 5724.19 2084.07 5724.19 2084.07 6026.2 1906.06 6026.2ZM2084.07 5724.19 2262.07 5724.19 2262.07 6026.2 2084.07 6026.2ZM2262.07 5724.19 2440.08 5724.19 2440.08 6026.2 2262.07 6026.2ZM2440.08 5724.19 2618.09 5724.19 2618.09 6026.2 2440.08 6026.2ZM2618.09 5724.19 2797.09 5724.19 2797.09 6026.2 2618.09 6026.2ZM2797.09 5724.19 2975.1 5724.19 2975.1 6026.2 2797.09 6026.2ZM2975.1 5724.19 3153.1 5724.19 3153.1 6026.2 2975.1 6026.2ZM3153.1 5724.19 3331 5724.19 3331 6026.2 3153.1 6026.2Z" fill="#00B050" fill-rule="nonzero" fill-opacity="0.301961"/></g><g clip-path="url(#clip7)"><path d="M1014.5 5497.5 1192.54 5497.5 1192.54 5723.69 1014.5 5723.69ZM1192.54 5497.5 1370.55 5497.5 1370.55 5723.69 1192.54 5723.69ZM1370.55 5497.5 1549.55 5497.5 1549.55 5723.69 1370.55 5723.69ZM1549.55 5497.5 1727.56 5497.5 1727.56 5723.69 1549.55 5723.69ZM1727.56 5497.5 1905.56 5497.5 1905.56 5723.69 1727.56 5723.69ZM1905.56 5497.5 2083.57 5497.5 2083.57 5723.69 1905.56 5723.69ZM2083.57 5497.5 2262.57 5497.5 2262.57 5723.69 2083.57 5723.69ZM2262.57 5497.5 2440.58 5497.5 2440.58 5723.69 2262.57 5723.69ZM2440.58 5497.5 2618.59 5497.5 2618.59 5723.69 2440.58 5723.69ZM2618.59 5497.5 2796.59 5497.5 2796.59 5723.69 2618.59 5723.69ZM2796.59 5497.5 2974.6 5497.5 2974.6 5723.69 2796.59 5723.69ZM2974.6 5497.5 3153.6 5497.5 3153.6 5723.69 2974.6 5723.69ZM3153.6 5497.5 3331.5 5497.5 3331.5 5723.69 3153.6 5723.69Z" stroke="#0070C0" stroke-width="3.4375" stroke-linecap="butt" stroke-linejoin="round" stroke-miterlimit="10" stroke-opacity="0.301961" fill="#0070C0" fill-rule="nonzero" fill-opacity="0.301961"/></g><g clip-path="url(#clip8)"><path d="M0 0 0.000360892 1080" stroke="#D9D9D9" stroke-width="3.4375" stroke-linecap="butt" stroke-linejoin="round" stroke-miterlimit="10" stroke-opacity="0" fill="none" fill-rule="evenodd" transform="matrix(1 0 0 -1 1014.5 6577.5)"/></g><g clip-path="url(#clip9)"><path d="M1014.5 6577.5 3331.5 6577.5" stroke="#D9D9D9" stroke-width="3.4375" stroke-linecap="butt" stroke-linejoin="round" stroke-miterlimit="10" stroke-opacity="1" fill="none" fill-rule="evenodd"/></g><g clip-path="url(#clip10)"><path d="M1104 6357.21 1282.04 6354.21 1460.05 6406.21 1638.05 6414.21 1816.06 6410.21 1995.07 6316.21 2173.07 6378.21 2351.08 6163 2529.08 6372.21 2708.09 6341.21 2886.09 6390.21 3064.1 6423 3242 6276.21" stroke="#000000" stroke-width="10.3125" stroke-linecap="round" stroke-linejoin="round" stroke-miterlimit="10" stroke-opacity="1" fill="none" fill-rule="nonzero"/></g><g clip-path="url(#clip11)"><path d="M1114.09 6357.64C1114.09 6363.72 1109.16 6368.64 1103.09 6368.64 1097.01 6368.64 1092.09 6363.72 1092.09 6357.64 1092.09 6351.57 1097.01 6346.64 1103.09 6346.64 1109.16 6346.64 1114.09 6351.57 1114.09 6357.64Z" stroke="#000000" stroke-width="4.58333" stroke-linecap="butt" stroke-linejoin="round" stroke-miterlimit="10" stroke-opacity="1" fill="#000000" fill-rule="nonzero" fill-opacity="1"/><path d="M1292.09 6353.64C1292.09 6359.72 1287.16 6364.64 1281.09 6364.64 1275.01 6364.64 1270.09 6359.72 1270.09 6353.64 1270.09 6347.57 1275.01 6342.64 1281.09 6342.64 1287.16 6342.64 1292.09 6347.57 1292.09 6353.64Z" stroke="#000000" stroke-width="4.58333" stroke-linecap="butt" stroke-linejoin="round" stroke-miterlimit="10" stroke-opacity="1" fill="#000000" fill-rule="nonzero" fill-opacity="1"/><path d="M1471.09 6406.64C1471.09 6412.72 1466.16 6417.64 1460.09 6417.64 1454.01 6417.64 1449.09 6412.72 1449.09 6406.64 1449.09 6400.57 1454.01 6395.64 1460.09 6395.64 1466.16 6395.64 1471.09 6400.57 1471.09 6406.64Z" stroke="#000000" stroke-width="4.58333" stroke-linecap="butt" stroke-linejoin="round" stroke-miterlimit="10" stroke-opacity="1" fill="#000000" fill-rule="nonzero" fill-opacity="1"/><path d="M1649.09 6414.64C1649.09 6420.72 1644.16 6425.64 1638.09 6425.64 1632.01 6425.64 1627.09 6420.72 1627.09 6414.64 1627.09 6408.57 1632.01 6403.64 1638.09 6403.64 1644.16 6403.64 1649.09 6408.57 1649.09 6414.64Z" stroke="#000000" stroke-width="4.58333" stroke-linecap="butt" stroke-linejoin="round" stroke-miterlimit="10" stroke-opacity="1" fill="#000000" fill-rule="nonzero" fill-opacity="1"/><path d="M1827.09 6410.64C1827.09 6416.72 1822.16 6421.64 1816.09 6421.64 1810.01 6421.64 1805.09 6416.72 1805.09 6410.64 1805.09 6404.57 1810.01 6399.64 1816.09 6399.64 1822.16 6399.64 1827.09 6404.57 1827.09 6410.64Z" stroke="#000000" stroke-width="4.58333" stroke-linecap="butt" stroke-linejoin="round" stroke-miterlimit="10" stroke-opacity="1" fill="#000000" fill-rule="nonzero" fill-opacity="1"/><path d="M2005.09 6316.64C2005.09 6322.72 2000.16 6327.64 1994.09 6327.64 1988.01 6327.64 1983.09 6322.72 1983.09 6316.64 1983.09 6310.57 1988.01 6305.64 1994.09 6305.64 2000.16 6305.64 2005.09 6310.57 2005.09 6316.64Z" stroke="#000000" stroke-width="4.58333" stroke-linecap="butt" stroke-linejoin="round" stroke-miterlimit="10" stroke-opacity="1" fill="#000000" fill-rule="nonzero" fill-opacity="1"/><path d="M2183.09 6378.64C2183.09 6384.72 2178.16 6389.64 2172.09 6389.64 2166.01 6389.64 2161.09 6384.72 2161.09 6378.64 2161.09 6372.57 2166.01 6367.64 2172.09 6367.64 2178.16 6367.64 2183.09 6372.57 2183.09 6378.64Z" stroke="#000000" stroke-width="4.58333" stroke-linecap="butt" stroke-linejoin="round" stroke-miterlimit="10" stroke-opacity="1" fill="#000000" fill-rule="nonzero" fill-opacity="1"/><path d="M2362.09 6162.64C2362.09 6168.72 2357.16 6173.64 2351.09 6173.64 2345.01 6173.64 2340.09 6168.72 2340.09 6162.64 2340.09 6156.57 2345.01 6151.64 2351.09 6151.64 2357.16 6151.64 2362.09 6156.57 2362.09 6162.64Z" stroke="#000000" stroke-width="4.58333" stroke-linecap="butt" stroke-linejoin="round" stroke-miterlimit="10" stroke-opacity="1" fill="#000000" fill-rule="nonzero" fill-opacity="1"/><path d="M2540.09 6372.64C2540.09 6378.72 2535.16 6383.64 2529.09 6383.64 2523.01 6383.64 2518.09 6378.72 2518.09 6372.64 2518.09 6366.57 2523.01 6361.64 2529.09 6361.64 2535.16 6361.64 2540.09 6366.57 2540.09 6372.64Z" stroke="#000000" stroke-width="4.58333" stroke-linecap="butt" stroke-linejoin="round" stroke-miterlimit="10" stroke-opacity="1" fill="#000000" fill-rule="nonzero" fill-opacity="1"/><path d="M2718.09 6341.64C2718.09 6347.72 2713.16 6352.64 2707.09 6352.64 2701.01 6352.64 2696.09 6347.72 2696.09 6341.64 2696.09 6335.57 2701.01 6330.64 2707.09 6330.64 2713.16 6330.64 2718.09 6335.57 2718.09 6341.64Z" stroke="#000000" stroke-width="4.58333" stroke-linecap="butt" stroke-linejoin="round" stroke-miterlimit="10" stroke-opacity="1" fill="#000000" fill-rule="nonzero" fill-opacity="1"/><path d="M2896.09 6390.64C2896.09 6396.72 2891.16 6401.64 2885.09 6401.64 2879.01 6401.64 2874.09 6396.72 2874.09 6390.64 2874.09 6384.57 2879.01 6379.64 2885.09 6379.64 2891.16 6379.64 2896.09 6384.57 2896.09 6390.64Z" stroke="#000000" stroke-width="4.58333" stroke-linecap="butt" stroke-linejoin="round" stroke-miterlimit="10" stroke-opacity="1" fill="#000000" fill-rule="nonzero" fill-opacity="1"/><path d="M3075.09 6422.64C3075.09 6428.72 3070.16 6433.64 3064.09 6433.64 3058.01 6433.64 3053.09 6428.72 3053.09 6422.64 3053.09 6416.57 3058.01 6411.64 3064.09 6411.64 3070.16 6411.64 3075.09 6416.57 3075.09 6422.64Z" stroke="#000000" stroke-width="4.58333" stroke-linecap="butt" stroke-linejoin="round" stroke-miterlimit="10" stroke-opacity="1" fill="#000000" fill-rule="nonzero" fill-opacity="1"/><path d="M3253.09 6276.64C3253.09 6282.72 3248.16 6287.64 3242.09 6287.64 3236.01 6287.64 3231.09 6282.72 3231.09 6276.64 3231.09 6270.57 3236.01 6265.64 3242.09 6265.64 3248.16 6265.64 3253.09 6270.57 3253.09 6276.64Z" stroke="#000000" stroke-width="4.58333" stroke-linecap="butt" stroke-linejoin="round" stroke-miterlimit="10" stroke-opacity="1" fill="#000000" fill-rule="nonzero" fill-opacity="1"/></g><g clip-path="url(#clip12)"><text fill="#595959" fill-opacity="1" font-family="Calibri,Calibri_MSFontService,sans-serif" font-style="normal" font-variant="normal" font-weight="400" font-stretch="normal" font-size="41" text-anchor="start" direction="ltr" writing-mode="lr-tb" unicode-bidi="normal" text-decoration="none" transform="matrix(1 0 0 1 955.368 6587)">0</text></g><g clip-path="url(#clip13)"><text fill="#595959" fill-opacity="1" font-family="Calibri,Calibri_MSFontService,sans-serif" font-style="normal" font-variant="normal" font-weight="400" font-stretch="normal" font-size="41" text-anchor="start" direction="ltr" writing-mode="lr-tb" unicode-bidi="normal" text-decoration="none" transform="matrix(1 0 0 1 934.468 6479)">10</text></g><g clip-path="url(#clip14)"><text fill="#595959" fill-opacity="1" font-family="Calibri,Calibri_MSFontService,sans-serif" font-style="normal" font-variant="normal" font-weight="400" font-stretch="normal" font-size="41" text-anchor="start" direction="ltr" writing-mode="lr-tb" unicode-bidi="normal" text-decoration="none" transform="matrix(1 0 0 1 934.468 6371)">20</text></g><g clip-path="url(#clip15)"><text fill="#595959" fill-opacity="1" font-family="Calibri,Calibri_MSFontService,sans-serif" font-style="normal" font-variant="normal" font-weight="400" font-stretch="normal" font-size="41" text-anchor="start" direction="ltr" writing-mode="lr-tb" unicode-bidi="normal" text-decoration="none" transform="matrix(1 0 0 1 934.468 6263)">30</text></g><g clip-path="url(#clip16)"><text fill="#595959" fill-opacity="1" font-family="Calibri,Calibri_MSFontService,sans-serif" font-style="normal" font-variant="normal" font-weight="400" font-stretch="normal" font-size="41" text-anchor="start" direction="ltr" writing-mode="lr-tb" unicode-bidi="normal" text-decoration="none" transform="matrix(1 0 0 1 934.468 6155)">40</text></g><g clip-path="url(#clip17)"><text fill="#595959" fill-opacity="1" font-family="Calibri,Calibri_MSFontService,sans-serif" font-style="normal" font-variant="normal" font-weight="400" font-stretch="normal" font-size="41" text-anchor="start" direction="ltr" writing-mode="lr-tb" unicode-bidi="normal" text-decoration="none" transform="matrix(1 0 0 1 934.468 6047)">50</text></g><g clip-path="url(#clip18)"><text fill="#595959" fill-opacity="1" font-family="Calibri,Calibri_MSFontService,sans-serif" font-style="normal" font-variant="normal" font-weight="400" font-stretch="normal" font-size="41" text-anchor="start" direction="ltr" writing-mode="lr-tb" unicode-bidi="normal" text-decoration="none" transform="matrix(1 0 0 1 934.468 5939)">60</text></g><g clip-path="url(#clip19)"><text fill="#595959" fill-opacity="1" font-family="Calibri,Calibri_MSFontService,sans-serif" font-style="normal" font-variant="normal" font-weight="400" font-stretch="normal" font-size="41" text-anchor="start" direction="ltr" writing-mode="lr-tb" unicode-bidi="normal" text-decoration="none" transform="matrix(1 0 0 1 934.468 5831)">70</text></g><g clip-path="url(#clip20)"><text fill="#595959" fill-opacity="1" font-family="Calibri,Calibri_MSFontService,sans-serif" font-style="normal" font-variant="normal" font-weight="400" font-stretch="normal" font-size="41" text-anchor="start" direction="ltr" writing-mode="lr-tb" unicode-bidi="normal" text-decoration="none" transform="matrix(1 0 0 1 934.468 5723)">80</text></g><g clip-path="url(#clip21)"><text fill="#595959" fill-opacity="1" font-family="Calibri,Calibri_MSFontService,sans-serif" font-style="normal" font-variant="normal" font-weight="400" font-stretch="normal" font-size="41" text-anchor="start" direction="ltr" writing-mode="lr-tb" unicode-bidi="normal" text-decoration="none" transform="matrix(1 0 0 1 934.468 5615)">90</text></g><g clip-path="url(#clip22)"><text fill="#595959" fill-opacity="1" font-family="Calibri,Calibri_MSFontService,sans-serif" font-style="normal" font-variant="normal" font-weight="400" font-stretch="normal" font-size="41" text-anchor="start" direction="ltr" writing-mode="lr-tb" unicode-bidi="normal" text-decoration="none" transform="matrix(1 0 0 1 913.568 5507)">100</text></g><g clip-path="url(#clip23)"><text fill="#595959" fill-opacity="1" font-family="Calibri,Calibri_MSFontService,sans-serif" font-style="normal" font-variant="normal" font-weight="400" font-stretch="normal" font-size="41" text-anchor="start" direction="ltr" writing-mode="lr-tb" unicode-bidi="normal" text-decoration="none" transform="matrix(1 0 0 1 1049.14 6642)">Jan-18</text></g><g clip-path="url(#clip24)"><text fill="#595959" fill-opacity="1" font-family="Calibri,Calibri_MSFontService,sans-serif" font-style="normal" font-variant="normal" font-weight="400" font-stretch="normal" font-size="41" text-anchor="start" direction="ltr" writing-mode="lr-tb" unicode-bidi="normal" text-decoration="none" transform="matrix(1 0 0 1 1219.95 6642)">Mar-18</text></g><g clip-path="url(#clip25)"><text fill="#595959" fill-opacity="1" font-family="Calibri,Calibri_MSFontService,sans-serif" font-style="normal" font-variant="normal" font-weight="400" font-stretch="normal" font-size="41" text-anchor="start" direction="ltr" writing-mode="lr-tb" unicode-bidi="normal" text-decoration="none" transform="matrix(1 0 0 1 1396.03 6642)">May-18</text></g><g clip-path="url(#clip26)"><text fill="#595959" fill-opacity="1" font-family="Calibri,Calibri_MSFontService,sans-serif" font-style="normal" font-variant="normal" font-weight="400" font-stretch="normal" font-size="41" text-anchor="start" direction="ltr" writing-mode="lr-tb" unicode-bidi="normal" text-decoration="none" transform="matrix(1 0 0 1 1588.95 6642)">Jul-18</text></g><g clip-path="url(#clip27)"><text fill="#595959" fill-opacity="1" font-family="Calibri,Calibri_MSFontService,sans-serif" font-style="normal" font-variant="normal" font-weight="400" font-stretch="normal" font-size="41" text-anchor="start" direction="ltr" writing-mode="lr-tb" unicode-bidi="normal" text-decoration="none" transform="matrix(1 0 0 1 1758.74 6642)">Sep-18</text></g><g clip-path="url(#clip28)"><text fill="#595959" fill-opacity="1" font-family="Calibri,Calibri_MSFontService,sans-serif" font-style="normal" font-variant="normal" font-weight="400" font-stretch="normal" font-size="41" text-anchor="start" direction="ltr" writing-mode="lr-tb" unicode-bidi="normal" text-decoration="none" transform="matrix(1 0 0 1 1934.04 6642)">Nov-18</text></g><g clip-path="url(#clip29)"><text fill="#595959" fill-opacity="1" font-family="Calibri,Calibri_MSFontService,sans-serif" font-style="normal" font-variant="normal" font-weight="400" font-stretch="normal" font-size="41" text-anchor="start" direction="ltr" writing-mode="lr-tb" unicode-bidi="normal" text-decoration="none" transform="matrix(1 0 0 1 2118.47 6642)">Jan-19</text></g><g clip-path="url(#clip30)"><text fill="#595959" fill-opacity="1" font-family="Calibri,Calibri_MSFontService,sans-serif" font-style="normal" font-variant="normal" font-weight="400" font-stretch="normal" font-size="41" text-anchor="start" direction="ltr" writing-mode="lr-tb" unicode-bidi="normal" text-decoration="none" transform="matrix(1 0 0 1 2289.28 6642)">Mar-19</text></g><g clip-path="url(#clip31)"><text fill="#595959" fill-opacity="1" font-family="Calibri,Calibri_MSFontService,sans-serif" font-style="normal" font-variant="normal" font-weight="400" font-stretch="normal" font-size="41" text-anchor="start" direction="ltr" writing-mode="lr-tb" unicode-bidi="normal" text-decoration="none" transform="matrix(1 0 0 1 2465.36 6642)">May-19</text></g><g clip-path="url(#clip32)"><text fill="#595959" fill-opacity="1" font-family="Calibri,Calibri_MSFontService,sans-serif" font-style="normal" font-variant="normal" font-weight="400" font-stretch="normal" font-size="41" text-anchor="start" direction="ltr" writing-mode="lr-tb" unicode-bidi="normal" text-decoration="none" transform="matrix(1 0 0 1 2658.28 6642)">Jul-19</text></g><g clip-path="url(#clip33)"><text fill="#595959" fill-opacity="1" font-family="Calibri,Calibri_MSFontService,sans-serif" font-style="normal" font-variant="normal" font-weight="400" font-stretch="normal" font-size="41" text-anchor="start" direction="ltr" writing-mode="lr-tb" unicode-bidi="normal" text-decoration="none" transform="matrix(1 0 0 1 2828.07 6642)">Sep-19</text></g><g clip-path="url(#clip34)"><text fill="#595959" fill-opacity="1" font-family="Calibri,Calibri_MSFontService,sans-serif" font-style="normal" font-variant="normal" font-weight="400" font-stretch="normal" font-size="41" text-anchor="start" direction="ltr" writing-mode="lr-tb" unicode-bidi="normal" text-decoration="none" transform="matrix(1 0 0 1 3003.37 6642)">Nov-19</text></g><g clip-path="url(#clip35)"><text fill="#595959" fill-opacity="1" font-family="Calibri,Calibri_MSFontService,sans-serif" font-style="normal" font-variant="normal" font-weight="400" font-stretch="normal" font-size="41" text-anchor="start" direction="ltr" writing-mode="lr-tb" unicode-bidi="normal" text-decoration="none" transform="matrix(1 0 0 1 3184.51 6642)">Feb-20</text></g><g clip-path="url(#clip36)"><text fill="#595959" fill-opacity="1" font-family="Calibri,Calibri_MSFontService,sans-serif" font-style="normal" font-variant="normal" font-weight="400" font-stretch="normal" font-size="46" text-anchor="start" direction="ltr" writing-mode="lr-tb" unicode-bidi="normal" text-decoration="none" transform="matrix(6.12323e-17 -1 1 6.12323e-17 887.879 6072)">IQA</text></g><g clip-path="url(#clip37)"><text fill="#595959" fill-opacity="1" font-family="Calibri,Calibri_MSFontService,sans-serif" font-style="normal" font-variant="normal" font-weight="700" font-stretch="normal" font-size="64" text-anchor="start" direction="ltr" writing-mode="lr-tb" unicode-bidi="normal" text-decoration="none" transform="matrix(1 0 0 1 1915.12 5423)">IQA x Tempo</text></g><g clip-path="url(#clip38)"><rect x="1390" y="6711" width="88" height="23" fill="#7030A0" fill-opacity="0.301961"/></g><g clip-path="url(#clip39)"><text fill="#595959" fill-opacity="1" font-family="Calibri,Calibri_MSFontService,sans-serif" font-style="normal" font-variant="normal" font-weight="400" font-stretch="normal" font-size="41" text-anchor="start" direction="ltr" writing-mode="lr-tb" unicode-bidi="normal" text-decoration="none" transform="matrix(1 0 0 1 1487.54 6732)">Péssima</text></g><g clip-path="url(#clip40)"><rect x="1672" y="6711" width="88" height="23" fill="#FF0000" fill-opacity="0.301961"/></g><g clip-path="url(#clip41)"><text fill="#595959" fill-opacity="1" font-family="Calibri,Calibri_MSFontService,sans-serif" font-style="normal" font-variant="normal" font-weight="400" font-stretch="normal" font-size="41" text-anchor="start" direction="ltr" writing-mode="lr-tb" unicode-bidi="normal" text-decoration="none" transform="matrix(1 0 0 1 1769.25 6732)">Ruim</text></g><g clip-path="url(#clip42)"><rect x="1904" y="6711" width="88" height="23" fill="#FFFF00" fill-opacity="0.301961"/></g><g clip-path="url(#clip43)"><text fill="#595959" fill-opacity="1" font-family="Calibri,Calibri_MSFontService,sans-serif" font-style="normal" font-variant="normal" font-weight="400" font-stretch="normal" font-size="41" text-anchor="start" direction="ltr" writing-mode="lr-tb" unicode-bidi="normal" text-decoration="none" transform="matrix(1 0 0 1 2001.15 6732)">Regular</text></g><g clip-path="url(#clip44)"><rect x="2177" y="6711" width="88" height="23" fill="#00B050" fill-opacity="0.301961"/></g><g clip-path="url(#clip45)"><text fill="#595959" fill-opacity="1" font-family="Calibri,Calibri_MSFontService,sans-serif" font-style="normal" font-variant="normal" font-weight="400" font-stretch="normal" font-size="41" text-anchor="start" direction="ltr" writing-mode="lr-tb" unicode-bidi="normal" text-decoration="none" transform="matrix(1 0 0 1 2274.19 6732)">Boa</text></g><g clip-path="url(#clip46)"><rect x="2386.5" y="6710.5" width="88" height="23" stroke="#0070C0" stroke-width="3.4375" stroke-linecap="butt" stroke-linejoin="round" stroke-miterlimit="10" stroke-opacity="0.301961" fill="#0070C0" fill-opacity="0.301961"/></g><g clip-path="url(#clip47)"><text fill="#595959" fill-opacity="1" font-family="Calibri,Calibri_MSFontService,sans-serif" font-style="normal" font-variant="normal" font-weight="400" font-stretch="normal" font-size="41" text-anchor="start" direction="ltr" writing-mode="lr-tb" unicode-bidi="normal" text-decoration="none" transform="matrix(1 0 0 1 2483.55 6732)">Ótima</text></g><g clip-path="url(#clip48)"><path d="M2635 6722 2723 6722" stroke="#000000" stroke-width="10.3125" stroke-linecap="round" stroke-linejoin="round" stroke-miterlimit="10" stroke-opacity="1" fill="none" fill-rule="evenodd"/></g><g clip-path="url(#clip49)"><path d="M2689 6722C2689 6728.07 2684.07 6733 2678 6733 2671.93 6733 2667 6728.07 2667 6722 2667 6715.92 2671.93 6711 2678 6711 2684.07 6711 2689 6715.92 2689 6722Z" stroke="#000000" stroke-width="4.58333" stroke-linecap="butt" stroke-linejoin="round" stroke-miterlimit="10" stroke-opacity="1" fill="#000000" fill-rule="nonzero" fill-opacity="1"/></g><g clip-path="url(#clip50)"><text fill="#595959" fill-opacity="1" font-family="Calibri,Calibri_MSFontService,sans-serif" font-style="normal" font-variant="normal" font-weight="400" font-stretch="normal" font-size="41" text-anchor="start" direction="ltr" writing-mode="lr-tb" unicode-bidi="normal" text-decoration="none" transform="matrix(1 0 0 1 2732.28 6732)">IQA</text></g><rect x="787.5" y="5327.5" width="2595" height="1461" stroke="#D9D9D9" stroke-width="3.4375" stroke-linecap="butt" stroke-linejoin="round" stroke-miterlimit="10" stroke-opacity="1" fill="none"/></g></svg>