<svg width="2594" height="1467" xmlns="http://www.w3.org/2000/svg" xmlns:xlink="http://www.w3.org/1999/xlink" xml:space="preserve" overflow="hidden"><defs><clipPath id="clip0"><rect x="3497" y="2277" width="2594" height="1467"/></clipPath><clipPath id="clip1"><rect x="3498" y="2278" width="2590" height="1461"/></clipPath><clipPath id="clip2"><rect x="3498" y="2278" width="2590" height="1461"/></clipPath><clipPath id="clip3"><rect x="3726" y="2448" width="2085" height="1084"/></clipPath><clipPath id="clip4"><rect x="3726" y="2448" width="2085" height="1084"/></clipPath><clipPath id="clip5"><rect x="3726" y="2448" width="2085" height="1084"/></clipPath><clipPath id="clip6"><rect x="3498" y="2278" width="2590" height="1461"/></clipPath><clipPath id="clip7"><rect x="3498" y="2278" width="2590" height="1461"/></clipPath><clipPath id="clip8"><rect x="3726" y="2448" width="2085" height="1084"/></clipPath><clipPath id="clip9"><rect x="3498" y="2278" width="2590" height="1461"/></clipPath><clipPath id="clip10"><rect x="3726" y="2448" width="2085" height="1084"/></clipPath><clipPath id="clip11"><rect x="3498" y="2278" width="2590" height="1461"/></clipPath><clipPath id="clip12"><rect x="3498" y="2278" width="2590" height="1461"/></clipPath><clipPath id="clip13"><rect x="3498" y="2278" width="2590" height="1461"/></clipPath><clipPath id="clip14"><rect x="3498" y="2278" width="2590" height="1461"/></clipPath><clipPath id="clip15"><rect x="3498" y="2278" width="2590" height="1461"/></clipPath><clipPath id="clip16"><rect x="3498" y="2278" width="2590" height="1461"/></clipPath><clipPath id="clip17"><rect x="3498" y="2278" width="2590" height="1461"/></clipPath><clipPath id="clip18"><rect x="3498" y="2278" width="2590" height="1461"/></clipPath><clipPath id="clip19"><rect x="3498" y="2278" width="2590" height="1461"/></clipPath><clipPath id="clip20"><rect x="3498" y="2278" width="2590" height="1461"/></clipPath><clipPath id="clip21"><rect x="3498" y="2278" width="2590" height="1461"/></clipPath><clipPath id="clip22"><rect x="3498" y="2278" width="2590" height="1461"/></clipPath><clipPath id="clip23"><rect x="3498" y="2278" width="2590" height="1461"/></clipPath><clipPath id="clip24"><rect x="3498" y="2278" width="2590" height="1461"/></clipPath><clipPath id="clip25"><rect x="3498" y="2278" width="2590" height="1461"/></clipPath><clipPath id="clip26"><rect x="3498" y="2278" width="2590" height="1461"/></clipPath><clipPath id="clip27"><rect x="3498" y="2278" width="2590" height="1461"/></clipPath><clipPath id="clip28"><rect x="3498" y="2278" width="2590" height="1461"/></clipPath><clipPath id="clip29"><rect x="3498" y="2278" width="2590" height="1461"/></clipPath><clipPath id="clip30"><rect x="3498" y="2278" width="2590" height="1461"/></clipPath><clipPath id="clip31"><rect x="3498" y="2278" width="2590" height="1461"/></clipPath><clipPath id="clip32"><rect x="3498" y="2278" width="2590" height="1461"/></clipPath><clipPath id="clip33"><rect x="3498" y="2278" width="2590" height="1461"/></clipPath><clipPath id="clip34"><rect x="3498" y="2278" width="2590" height="1461"/></clipPath><clipPath id="clip35"><rect x="3498" y="2278" width="2590" height="1461"/></clipPath><clipPath id="clip36"><rect x="3498" y="2278" width="2590" height="1461"/></clipPath><clipPath id="clip37"><rect x="3498" y="2278" width="2590" height="1461"/></clipPath><clipPath id="clip38"><rect x="3498" y="2278" width="2590" height="1461"/></clipPath><clipPath id="clip39"><rect x="3498" y="2278" width="2590" height="1461"/></clipPath><clipPath id="clip40"><rect x="3498" y="2278" width="2590" height="1461"/></clipPath><clipPath id="clip41"><rect x="3498" y="2278" width="2590" height="1461"/></clipPath><clipPath id="clip42"><rect x="3498" y="2278" width="2590" height="1461"/></clipPath><clipPath id="clip43"><rect x="3498" y="2278" width="2590" height="1461"/></clipPath><clipPath id="clip44"><rect x="3498" y="2278" width="2590" height="1461"/></clipPath><clipPath id="clip45"><rect x="3498" y="2278" width="2590" height="1461"/></clipPath><clipPath id="clip46"><rect x="3498" y="2278" width="2590" height="1461"/></clipPath><clipPath id="clip47"><rect x="3498" y="2278" width="2590" height="1461"/></clipPath><clipPath id="clip48"><rect x="3498" y="2278" width="2590" height="1461"/></clipPath><clipPath id="clip49"><rect x="3498" y="2278" width="2590" height="1461"/></clipPath><clipPath id="clip50"><rect x="3498" y="2278" width="2590" height="1461"/></clipPath><clipPath id="clip51"><rect x="3498" y="2278" width="2590" height="1461"/></clipPath><clipPath id="clip52"><rect x="3498" y="2278" width="2590" height="1461"/></clipPath><clipPath id="clip53"><rect x="3498" y="2278" width="2590" height="1461"/></clipPath><clipPath id="clip54"><rect x="3498" y="2278" width="2590" height="1461"/></clipPath></defs><g clip-path="url(#clip0)" transform="translate(-3497 -2277)"><rect x="3499" y="2279" width="2590" height="1461" fill="#FFFFFF" fill-opacity="1"/><g clip-path="url(#clip1)"><path d="M3726.5 2988.6 5808.5 2988.6M3726.5 2448.5 5808.5 2448.5" stroke="#D9D9D9" stroke-width="3.4375" stroke-linecap="butt" stroke-linejoin="round" stroke-miterlimit="10" stroke-opacity="1" fill="none" fill-rule="nonzero"/></g><g clip-path="url(#clip2)"><path d="M3726.5 2448.5 3726.5 3528.5M3886.63 2448.5 3886.63 3528.5M4046.63 2448.5 4046.63 3528.5M4206.64 2448.5 4206.64 3528.5M4367.64 2448.5 4367.64 3528.5M4527.65 2448.5 4527.65 3528.5M4687.65 2448.5 4687.65 3528.5M4847.66 2448.5 4847.66 3528.5M5007.66 2448.5 5007.66 3528.5M5167.67 2448.5 5167.67 3528.5M5327.67 2448.5 5327.67 3528.5M5488.68 2448.5 5488.68 3528.5M5648.69 2448.5 5648.69 3528.5M5808.5 2448.5 5808.5 3528.5" stroke="#D9D9D9" stroke-width="3.4375" stroke-linecap="butt" stroke-linejoin="round" stroke-miterlimit="10" stroke-opacity="1" fill="none" fill-rule="nonzero"/></g><g clip-path="url(#clip3)"><path d="M3727 3222.11 3887.13 3222.11 3887.13 3529 3727 3529ZM3887.13 3222.11 4047.13 3222.11 4047.13 3529 3887.13 3529ZM4047.13 3222.11 4207.14 3222.11 4207.14 3529 4047.13 3529ZM4207.14 3222.11 4367.14 3222.11 4367.14 3529 4207.14 3529ZM4367.14 3222.11 4527.15 3222.11 4527.15 3529 4367.14 3529ZM4527.15 3222.11 4687.15 3222.11 4687.15 3529 4527.15 3529ZM4687.15 3222.11 4847.16 3222.11 4847.16 3529 4687.15 3529ZM4847.16 3222.11 5008.16 3222.11 5008.16 3529 4847.16 3529ZM5008.16 3222.11 5168.17 3222.11 5168.17 3529 5008.16 3529ZM5168.17 3222.11 5328.17 3222.11 5328.17 3529 5168.17 3529ZM5328.17 3222.11 5488.18 3222.11 5488.18 3529 5328.17 3529ZM5488.18 3222.11 5648.19 3222.11 5648.19 3529 5488.18 3529ZM5648.19 3222.11 5808 3222.11 5808 3529 5648.19 3529Z" fill="#00B050" fill-rule="nonzero" fill-opacity="0.301961"/></g><g clip-path="url(#clip4)"><path d="M3727 2922.1 3887.13 2922.1 3887.13 3222.11 3727 3222.11ZM3887.13 2922.1 4047.13 2922.1 4047.13 3222.11 3887.13 3222.11ZM4047.13 2922.1 4207.14 2922.1 4207.14 3222.11 4047.13 3222.11ZM4207.14 2922.1 4367.14 2922.1 4367.14 3222.11 4207.14 3222.11ZM4367.14 2922.1 4527.15 2922.1 4527.15 3222.11 4367.14 3222.11ZM4527.15 2922.1 4687.15 2922.1 4687.15 3222.11 4527.15 3222.11ZM4687.15 2922.1 4847.16 2922.1 4847.16 3222.11 4687.15 3222.11ZM4847.16 2922.1 5008.16 2922.1 5008.16 3222.11 4847.16 3222.11ZM5008.16 2922.1 5168.17 2922.1 5168.17 3222.11 5008.16 3222.11ZM5168.17 2922.1 5328.17 2922.1 5328.17 3222.11 5168.17 3222.11ZM5328.17 2922.1 5488.18 2922.1 5488.18 3222.11 5328.17 3222.11ZM5488.18 2922.1 5648.19 2922.1 5648.19 3222.11 5488.18 3222.11ZM5648.19 2922.1 5808 2922.1 5808 3222.11 5648.19 3222.11Z" fill="#4472C4" fill-rule="nonzero" fill-opacity="0.301961"/></g><g clip-path="url(#clip5)"><path d="M3727 2419 3887.13 2419 3887.13 2922.1 3727 2922.1ZM3887.13 2419 4047.13 2419 4047.13 2922.1 3887.13 2922.1ZM4047.13 2419 4207.14 2419 4207.14 2922.1 4047.13 2922.1ZM4207.14 2419 4367.14 2419 4367.14 2922.1 4207.14 2922.1ZM4367.14 2419 4527.15 2419 4527.15 2922.1 4367.14 2922.1ZM4527.15 2419 4687.15 2419 4687.15 2922.1 4527.15 2922.1ZM4687.15 2419 4847.16 2419 4847.16 2922.1 4687.15 2922.1ZM4847.16 2419 5008.16 2419 5008.16 2922.1 4847.16 2922.1ZM5008.16 2419 5168.17 2419 5168.17 2922.1 5008.16 2922.1ZM5168.17 2419 5328.17 2419 5328.17 2922.1 5168.17 2922.1ZM5328.17 2419 5488.18 2419 5488.18 2922.1 5328.17 2922.1ZM5488.18 2419 5648.19 2419 5648.19 2922.1 5488.18 2922.1ZM5648.19 2419 5808 2419 5808 2922.1 5648.19 2922.1Z" fill="#FF0000" fill-rule="nonzero" fill-opacity="0.301961"/></g><g clip-path="url(#clip6)"><path d="M0 0 0.000360892 1080" stroke="#D9D9D9" stroke-width="3.4375" stroke-linecap="butt" stroke-linejoin="round" stroke-miterlimit="10" stroke-opacity="0" fill="none" fill-rule="evenodd" transform="matrix(1 0 0 -1 3726.5 3528.5)"/></g><g clip-path="url(#clip7)"><path d="M3726.5 3528.5 5808.5 3528.5" stroke="#D9D9D9" stroke-width="3.4375" stroke-linecap="butt" stroke-linejoin="round" stroke-miterlimit="10" stroke-opacity="1" fill="none" fill-rule="evenodd"/></g><g clip-path="url(#clip8)"><path d="M3807 3021 3967.13 2952.1 4127.14 2767.09 4287.14 2732.09 4447.15 2748.09 4607.15 2826.09 4767.16 3009.1 4928.16 3002.1 5088.17 2711.09 5248.17 2726.09 5408.18 2695.09 5568.18 2607 5728 2785.09" stroke="#000000" stroke-width="10.3125" stroke-linecap="round" stroke-linejoin="round" stroke-miterlimit="10" stroke-opacity="1" fill="none" fill-rule="nonzero"/></g><g clip-path="url(#clip9)"><path d="M3817.11 3020.18C3817.11 3026.26 3812.19 3031.18 3806.11 3031.18 3800.04 3031.18 3795.11 3026.26 3795.11 3020.18 3795.11 3014.11 3800.04 3009.18 3806.11 3009.18 3812.19 3009.18 3817.11 3014.11 3817.11 3020.18Z" stroke="#000000" stroke-width="4.58333" stroke-linecap="butt" stroke-linejoin="round" stroke-miterlimit="10" stroke-opacity="1" fill="#000000" fill-rule="nonzero" fill-opacity="1"/><path d="M3977.11 2951.18C3977.11 2957.26 3972.19 2962.18 3966.11 2962.18 3960.04 2962.18 3955.11 2957.26 3955.11 2951.18 3955.11 2945.11 3960.04 2940.18 3966.11 2940.18 3972.19 2940.18 3977.11 2945.11 3977.11 2951.18Z" stroke="#000000" stroke-width="4.58333" stroke-linecap="butt" stroke-linejoin="round" stroke-miterlimit="10" stroke-opacity="1" fill="#000000" fill-rule="nonzero" fill-opacity="1"/><path d="M4137.11 2767.18C4137.11 2773.26 4132.19 2778.18 4126.11 2778.18 4120.04 2778.18 4115.11 2773.26 4115.11 2767.18 4115.11 2761.11 4120.04 2756.18 4126.11 2756.18 4132.19 2756.18 4137.11 2761.11 4137.11 2767.18Z" stroke="#000000" stroke-width="4.58333" stroke-linecap="butt" stroke-linejoin="round" stroke-miterlimit="10" stroke-opacity="1" fill="#000000" fill-rule="nonzero" fill-opacity="1"/><path d="M4298.11 2731.18C4298.11 2737.26 4293.19 2742.18 4287.11 2742.18 4281.04 2742.18 4276.11 2737.26 4276.11 2731.18 4276.11 2725.11 4281.04 2720.18 4287.11 2720.18 4293.19 2720.18 4298.11 2725.11 4298.11 2731.18Z" stroke="#000000" stroke-width="4.58333" stroke-linecap="butt" stroke-linejoin="round" stroke-miterlimit="10" stroke-opacity="1" fill="#000000" fill-rule="nonzero" fill-opacity="1"/><path d="M4458.11 2748.18C4458.11 2754.26 4453.19 2759.18 4447.11 2759.18 4441.04 2759.18 4436.11 2754.26 4436.11 2748.18 4436.11 2742.11 4441.04 2737.18 4447.11 2737.18 4453.19 2737.18 4458.11 2742.11 4458.11 2748.18Z" stroke="#000000" stroke-width="4.58333" stroke-linecap="butt" stroke-linejoin="round" stroke-miterlimit="10" stroke-opacity="1" fill="#000000" fill-rule="nonzero" fill-opacity="1"/><path d="M4618.11 2826.18C4618.11 2832.26 4613.19 2837.18 4607.11 2837.18 4601.04 2837.18 4596.11 2832.26 4596.11 2826.18 4596.11 2820.11 4601.04 2815.18 4607.11 2815.18 4613.19 2815.18 4618.11 2820.11 4618.11 2826.18Z" stroke="#000000" stroke-width="4.58333" stroke-linecap="butt" stroke-linejoin="round" stroke-miterlimit="10" stroke-opacity="1" fill="#000000" fill-rule="nonzero" fill-opacity="1"/><path d="M4778.11 3009.18C4778.11 3015.26 4773.19 3020.18 4767.11 3020.18 4761.04 3020.18 4756.11 3015.26 4756.11 3009.18 4756.11 3003.11 4761.04 2998.18 4767.11 2998.18 4773.19 2998.18 4778.11 3003.11 4778.11 3009.18Z" stroke="#000000" stroke-width="4.58333" stroke-linecap="butt" stroke-linejoin="round" stroke-miterlimit="10" stroke-opacity="1" fill="#000000" fill-rule="nonzero" fill-opacity="1"/><path d="M4938.11 3001.18C4938.11 3007.26 4933.19 3012.18 4927.11 3012.18 4921.04 3012.18 4916.11 3007.26 4916.11 3001.18 4916.11 2995.11 4921.04 2990.18 4927.11 2990.18 4933.19 2990.18 4938.11 2995.11 4938.11 3001.18Z" stroke="#000000" stroke-width="4.58333" stroke-linecap="butt" stroke-linejoin="round" stroke-miterlimit="10" stroke-opacity="1" fill="#000000" fill-rule="nonzero" fill-opacity="1"/><path d="M5098.11 2711.18C5098.11 2717.26 5093.19 2722.18 5087.11 2722.18 5081.04 2722.18 5076.11 2717.26 5076.11 2711.18 5076.11 2705.11 5081.04 2700.18 5087.11 2700.18 5093.19 2700.18 5098.11 2705.11 5098.11 2711.18Z" stroke="#000000" stroke-width="4.58333" stroke-linecap="butt" stroke-linejoin="round" stroke-miterlimit="10" stroke-opacity="1" fill="#000000" fill-rule="nonzero" fill-opacity="1"/><path d="M5258.11 2725.18C5258.11 2731.26 5253.19 2736.18 5247.11 2736.18 5241.04 2736.18 5236.11 2731.26 5236.11 2725.18 5236.11 2719.11 5241.04 2714.18 5247.11 2714.18 5253.19 2714.18 5258.11 2719.11 5258.11 2725.18Z" stroke="#000000" stroke-width="4.58333" stroke-linecap="butt" stroke-linejoin="round" stroke-miterlimit="10" stroke-opacity="1" fill="#000000" fill-rule="nonzero" fill-opacity="1"/><path d="M5419.11 2694.18C5419.11 2700.26 5414.19 2705.18 5408.11 2705.18 5402.04 2705.18 5397.11 2700.26 5397.11 2694.18 5397.11 2688.11 5402.04 2683.18 5408.11 2683.18 5414.19 2683.18 5419.11 2688.11 5419.11 2694.18Z" stroke="#000000" stroke-width="4.58333" stroke-linecap="butt" stroke-linejoin="round" stroke-miterlimit="10" stroke-opacity="1" fill="#000000" fill-rule="nonzero" fill-opacity="1"/><path d="M5579.11 2606.18C5579.11 2612.26 5574.19 2617.18 5568.11 2617.18 5562.04 2617.18 5557.11 2612.26 5557.11 2606.18 5557.11 2600.11 5562.04 2595.18 5568.11 2595.18 5574.19 2595.18 5579.11 2600.11 5579.11 2606.18Z" stroke="#000000" stroke-width="4.58333" stroke-linecap="butt" stroke-linejoin="round" stroke-miterlimit="10" stroke-opacity="1" fill="#000000" fill-rule="nonzero" fill-opacity="1"/><path d="M5739.11 2784.18C5739.11 2790.25 5734.19 2795.18 5728.11 2795.18 5722.04 2795.18 5717.11 2790.25 5717.11 2784.18 5717.11 2778.1 5722.04 2773.18 5728.11 2773.18 5734.19 2773.18 5739.11 2778.1 5739.11 2784.18Z" stroke="#000000" stroke-width="4.58333" stroke-linecap="butt" stroke-linejoin="round" stroke-miterlimit="10" stroke-opacity="1" fill="#000000" fill-rule="nonzero" fill-opacity="1"/></g><g clip-path="url(#clip10)"><path d="M3807 2902 3967.13 3010.1 4127.14 3205.11 4287.14 3259.11 4447.15 3269.11 4607.15 3161.1 4767.16 2956.1 4928.16 2967.1 5088.17 3280.11 5248.17 3248.11 5408.18 3302.11 5568.18 3410 5728 3194.1" stroke="#FF00FF" stroke-width="10.3125" stroke-linecap="round" stroke-linejoin="round" stroke-miterlimit="10" stroke-opacity="1" fill="none" fill-rule="nonzero"/></g><g clip-path="url(#clip11)"><path d="M3817.11 2902.18C3817.11 2908.26 3812.19 2913.18 3806.11 2913.18 3800.04 2913.18 3795.11 2908.26 3795.11 2902.18 3795.11 2896.11 3800.04 2891.18 3806.11 2891.18 3812.19 2891.18 3817.11 2896.11 3817.11 2902.18Z" stroke="#FF00FF" stroke-width="4.58333" stroke-linecap="butt" stroke-linejoin="round" stroke-miterlimit="10" stroke-opacity="1" fill="#FF00FF" fill-rule="nonzero" fill-opacity="1"/><path d="M3977.11 3010.18C3977.11 3016.26 3972.19 3021.18 3966.11 3021.18 3960.04 3021.18 3955.11 3016.26 3955.11 3010.18 3955.11 3004.11 3960.04 2999.18 3966.11 2999.18 3972.19 2999.18 3977.11 3004.11 3977.11 3010.18Z" stroke="#FF00FF" stroke-width="4.58333" stroke-linecap="butt" stroke-linejoin="round" stroke-miterlimit="10" stroke-opacity="1" fill="#FF00FF" fill-rule="nonzero" fill-opacity="1"/><path d="M4137.11 3204.18C4137.11 3210.26 4132.19 3215.18 4126.11 3215.18 4120.04 3215.18 4115.11 3210.26 4115.11 3204.18 4115.11 3198.11 4120.04 3193.18 4126.11 3193.18 4132.19 3193.18 4137.11 3198.11 4137.11 3204.18Z" stroke="#FF00FF" stroke-width="4.58333" stroke-linecap="butt" stroke-linejoin="round" stroke-miterlimit="10" stroke-opacity="1" fill="#FF00FF" fill-rule="nonzero" fill-opacity="1"/><path d="M4298.11 3258.18C4298.11 3264.26 4293.19 3269.18 4287.11 3269.18 4281.04 3269.18 4276.11 3264.26 4276.11 3258.18 4276.11 3252.11 4281.04 3247.18 4287.11 3247.18 4293.19 3247.18 4298.11 3252.11 4298.11 3258.18Z" stroke="#FF00FF" stroke-width="4.58333" stroke-linecap="butt" stroke-linejoin="round" stroke-miterlimit="10" stroke-opacity="1" fill="#FF00FF" fill-rule="nonzero" fill-opacity="1"/><path d="M4458.11 3269.18C4458.11 3275.26 4453.19 3280.18 4447.11 3280.18 4441.04 3280.18 4436.11 3275.26 4436.11 3269.18 4436.11 3263.11 4441.04 3258.18 4447.11 3258.18 4453.19 3258.18 4458.11 3263.11 4458.11 3269.18Z" stroke="#FF00FF" stroke-width="4.58333" stroke-linecap="butt" stroke-linejoin="round" stroke-miterlimit="10" stroke-opacity="1" fill="#FF00FF" fill-rule="nonzero" fill-opacity="1"/><path d="M4618.11 3161.18C4618.11 3167.26 4613.19 3172.18 4607.11 3172.18 4601.04 3172.18 4596.11 3167.26 4596.11 3161.18 4596.11 3155.11 4601.04 3150.18 4607.11 3150.18 4613.19 3150.18 4618.11 3155.11 4618.11 3161.18Z" stroke="#FF00FF" stroke-width="4.58333" stroke-linecap="butt" stroke-linejoin="round" stroke-miterlimit="10" stroke-opacity="1" fill="#FF00FF" fill-rule="nonzero" fill-opacity="1"/><path d="M4778.11 2956.18C4778.11 2962.26 4773.19 2967.18 4767.11 2967.18 4761.04 2967.18 4756.11 2962.26 4756.11 2956.18 4756.11 2950.11 4761.04 2945.18 4767.11 2945.18 4773.19 2945.18 4778.11 2950.11 4778.11 2956.18Z" stroke="#FF00FF" stroke-width="4.58333" stroke-linecap="butt" stroke-linejoin="round" stroke-miterlimit="10" stroke-opacity="1" fill="#FF00FF" fill-rule="nonzero" fill-opacity="1"/><path d="M4938.11 2967.18C4938.11 2973.26 4933.19 2978.18 4927.11 2978.18 4921.04 2978.18 4916.11 2973.26 4916.11 2967.18 4916.11 2961.11 4921.04 2956.18 4927.11 2956.18 4933.19 2956.18 4938.11 2961.11 4938.11 2967.18Z" stroke="#FF00FF" stroke-width="4.58333" stroke-linecap="butt" stroke-linejoin="round" stroke-miterlimit="10" stroke-opacity="1" fill="#FF00FF" fill-rule="nonzero" fill-opacity="1"/><path d="M5098.11 3280.18C5098.11 3286.26 5093.19 3291.18 5087.11 3291.18 5081.04 3291.18 5076.11 3286.26 5076.11 3280.18 5076.11 3274.11 5081.04 3269.18 5087.11 3269.18 5093.19 3269.18 5098.11 3274.11 5098.11 3280.18Z" stroke="#FF00FF" stroke-width="4.58333" stroke-linecap="butt" stroke-linejoin="round" stroke-miterlimit="10" stroke-opacity="1" fill="#FF00FF" fill-rule="nonzero" fill-opacity="1"/><path d="M5258.11 3247.18C5258.11 3253.26 5253.19 3258.18 5247.11 3258.18 5241.04 3258.18 5236.11 3253.26 5236.11 3247.18 5236.11 3241.11 5241.04 3236.18 5247.11 3236.18 5253.19 3236.18 5258.11 3241.11 5258.11 3247.18Z" stroke="#FF00FF" stroke-width="4.58333" stroke-linecap="butt" stroke-linejoin="round" stroke-miterlimit="10" stroke-opacity="1" fill="#FF00FF" fill-rule="nonzero" fill-opacity="1"/><path d="M5419.11 3301.18C5419.11 3307.25 5414.19 3312.18 5408.11 3312.18 5402.04 3312.18 5397.11 3307.25 5397.11 3301.18 5397.11 3295.1 5402.04 3290.18 5408.11 3290.18 5414.19 3290.18 5419.11 3295.1 5419.11 3301.18Z" stroke="#FF00FF" stroke-width="4.58333" stroke-linecap="butt" stroke-linejoin="round" stroke-miterlimit="10" stroke-opacity="1" fill="#FF00FF" fill-rule="nonzero" fill-opacity="1"/><path d="M5579.11 3409.18C5579.11 3415.26 5574.19 3420.18 5568.11 3420.18 5562.04 3420.18 5557.11 3415.26 5557.11 3409.18 5557.11 3403.11 5562.04 3398.18 5568.11 3398.18 5574.19 3398.18 5579.11 3403.11 5579.11 3409.18Z" stroke="#FF00FF" stroke-width="4.58333" stroke-linecap="butt" stroke-linejoin="round" stroke-miterlimit="10" stroke-opacity="1" fill="#FF00FF" fill-rule="nonzero" fill-opacity="1"/><path d="M5739.11 3193.18C5739.11 3199.26 5734.19 3204.18 5728.11 3204.18 5722.04 3204.18 5717.11 3199.26 5717.11 3193.18 5717.11 3187.11 5722.04 3182.18 5728.11 3182.18 5734.19 3182.18 5739.11 3187.11 5739.11 3193.18Z" stroke="#FF00FF" stroke-width="4.58333" stroke-linecap="butt" stroke-linejoin="round" stroke-miterlimit="10" stroke-opacity="1" fill="#FF00FF" fill-rule="nonzero" fill-opacity="1"/></g><g clip-path="url(#clip12)"><text fill="#595959" fill-opacity="1" font-family="Calibri,Calibri_MSFontService,sans-serif" font-style="normal" font-variant="normal" font-weight="400" font-stretch="normal" font-size="41" text-anchor="start" direction="ltr" writing-mode="lr-tb" unicode-bidi="normal" text-decoration="none" transform="matrix(1 0 0 1 5846.74 3539)">0,00</text></g><g clip-path="url(#clip13)"><text fill="#595959" fill-opacity="1" font-family="Calibri,Calibri_MSFontService,sans-serif" font-style="normal" font-variant="normal" font-weight="400" font-stretch="normal" font-size="41" text-anchor="start" direction="ltr" writing-mode="lr-tb" unicode-bidi="normal" text-decoration="none" transform="matrix(1 0 0 1 5846.74 3431)">10,00</text></g><g clip-path="url(#clip14)"><text fill="#595959" fill-opacity="1" font-family="Calibri,Calibri_MSFontService,sans-serif" font-style="normal" font-variant="normal" font-weight="400" font-stretch="normal" font-size="41" text-anchor="start" direction="ltr" writing-mode="lr-tb" unicode-bidi="normal" text-decoration="none" transform="matrix(1 0 0 1 5846.74 3323)">20,00</text></g><g clip-path="url(#clip15)"><text fill="#595959" fill-opacity="1" font-family="Calibri,Calibri_MSFontService,sans-serif" font-style="normal" font-variant="normal" font-weight="400" font-stretch="normal" font-size="41" text-anchor="start" direction="ltr" writing-mode="lr-tb" unicode-bidi="normal" text-decoration="none" transform="matrix(1 0 0 1 5846.74 3215)">30,00</text></g><g clip-path="url(#clip16)"><text fill="#595959" fill-opacity="1" font-family="Calibri,Calibri_MSFontService,sans-serif" font-style="normal" font-variant="normal" font-weight="400" font-stretch="normal" font-size="41" text-anchor="start" direction="ltr" writing-mode="lr-tb" unicode-bidi="normal" text-decoration="none" transform="matrix(1 0 0 1 5846.74 3107)">40,00</text></g><g clip-path="url(#clip17)"><text fill="#595959" fill-opacity="1" font-family="Calibri,Calibri_MSFontService,sans-serif" font-style="normal" font-variant="normal" font-weight="400" font-stretch="normal" font-size="41" text-anchor="start" direction="ltr" writing-mode="lr-tb" unicode-bidi="normal" text-decoration="none" transform="matrix(1 0 0 1 5846.74 2999)">50,00</text></g><g clip-path="url(#clip18)"><text fill="#595959" fill-opacity="1" font-family="Calibri,Calibri_MSFontService,sans-serif" font-style="normal" font-variant="normal" font-weight="400" font-stretch="normal" font-size="41" text-anchor="start" direction="ltr" writing-mode="lr-tb" unicode-bidi="normal" text-decoration="none" transform="matrix(1 0 0 1 5846.74 2891)">60,00</text></g><g clip-path="url(#clip19)"><text fill="#595959" fill-opacity="1" font-family="Calibri,Calibri_MSFontService,sans-serif" font-style="normal" font-variant="normal" font-weight="400" font-stretch="normal" font-size="41" text-anchor="start" direction="ltr" writing-mode="lr-tb" unicode-bidi="normal" text-decoration="none" transform="matrix(1 0 0 1 5846.74 2783)">70,00</text></g><g clip-path="url(#clip20)"><text fill="#595959" fill-opacity="1" font-family="Calibri,Calibri_MSFontService,sans-serif" font-style="normal" font-variant="normal" font-weight="400" font-stretch="normal" font-size="41" text-anchor="start" direction="ltr" writing-mode="lr-tb" unicode-bidi="normal" text-decoration="none" transform="matrix(1 0 0 1 5846.74 2675)">80,00</text></g><g clip-path="url(#clip21)"><text fill="#595959" fill-opacity="1" font-family="Calibri,Calibri_MSFontService,sans-serif" font-style="normal" font-variant="normal" font-weight="400" font-stretch="normal" font-size="41" text-anchor="start" direction="ltr" writing-mode="lr-tb" unicode-bidi="normal" text-decoration="none" transform="matrix(1 0 0 1 5846.74 2567)">90,00</text></g><g clip-path="url(#clip22)"><text fill="#595959" fill-opacity="1" font-family="Calibri,Calibri_MSFontService,sans-serif" font-style="normal" font-variant="normal" font-weight="400" font-stretch="normal" font-size="41" text-anchor="start" direction="ltr" writing-mode="lr-tb" unicode-bidi="normal" text-decoration="none" transform="matrix(1 0 0 1 5846.74 2459)">100,00</text></g><g clip-path="url(#clip23)"><text fill="#595959" fill-opacity="1" font-family="Calibri,Calibri_MSFontService,sans-serif" font-style="normal" font-variant="normal" font-weight="400" font-stretch="normal" font-size="41" text-anchor="start" direction="ltr" writing-mode="lr-tb" unicode-bidi="normal" text-decoration="none" transform="matrix(1 0 0 1 3667.39 3539)">1</text></g><g clip-path="url(#clip24)"><text fill="#595959" fill-opacity="1" font-family="Calibri,Calibri_MSFontService,sans-serif" font-style="normal" font-variant="normal" font-weight="400" font-stretch="normal" font-size="41" text-anchor="start" direction="ltr" writing-mode="lr-tb" unicode-bidi="normal" text-decoration="none" transform="matrix(1 0 0 1 3646.49 2999)">10</text></g><g clip-path="url(#clip25)"><text fill="#595959" fill-opacity="1" font-family="Calibri,Calibri_MSFontService,sans-serif" font-style="normal" font-variant="normal" font-weight="400" font-stretch="normal" font-size="41" text-anchor="start" direction="ltr" writing-mode="lr-tb" unicode-bidi="normal" text-decoration="none" transform="matrix(1 0 0 1 3625.59 2459)">100</text></g><g clip-path="url(#clip26)"><text fill="#595959" fill-opacity="1" font-family="Calibri,Calibri_MSFontService,sans-serif" font-style="normal" font-variant="normal" font-weight="400" font-stretch="normal" font-size="41" text-anchor="start" direction="ltr" writing-mode="lr-tb" unicode-bidi="normal" text-decoration="none" transform="matrix(1 0 0 1 3752.13 3594)">Jan-18</text></g><g clip-path="url(#clip27)"><text fill="#595959" fill-opacity="1" font-family="Calibri,Calibri_MSFontService,sans-serif" font-style="normal" font-variant="normal" font-weight="400" font-stretch="normal" font-size="41" text-anchor="start" direction="ltr" writing-mode="lr-tb" unicode-bidi="normal" text-decoration="none" transform="matrix(1 0 0 1 3904.86 3594)">Mar-18</text></g><g clip-path="url(#clip28)"><text fill="#595959" fill-opacity="1" font-family="Calibri,Calibri_MSFontService,sans-serif" font-style="normal" font-variant="normal" font-weight="400" font-stretch="normal" font-size="41" text-anchor="start" direction="ltr" writing-mode="lr-tb" unicode-bidi="normal" text-decoration="none" transform="matrix(1 0 0 1 4062.86 3594)">May-18</text></g><g clip-path="url(#clip29)"><text fill="#595959" fill-opacity="1" font-family="Calibri,Calibri_MSFontService,sans-serif" font-style="normal" font-variant="normal" font-weight="400" font-stretch="normal" font-size="41" text-anchor="start" direction="ltr" writing-mode="lr-tb" unicode-bidi="normal" text-decoration="none" transform="matrix(1 0 0 1 4237.71 3594)">Jul-18</text></g><g clip-path="url(#clip30)"><text fill="#595959" fill-opacity="1" font-family="Calibri,Calibri_MSFontService,sans-serif" font-style="normal" font-variant="normal" font-weight="400" font-stretch="normal" font-size="41" text-anchor="start" direction="ltr" writing-mode="lr-tb" unicode-bidi="normal" text-decoration="none" transform="matrix(1 0 0 1 4389.43 3594)">Sep-18</text></g><g clip-path="url(#clip31)"><text fill="#595959" fill-opacity="1" font-family="Calibri,Calibri_MSFontService,sans-serif" font-style="normal" font-variant="normal" font-weight="400" font-stretch="normal" font-size="41" text-anchor="start" direction="ltr" writing-mode="lr-tb" unicode-bidi="normal" text-decoration="none" transform="matrix(1 0 0 1 4546.65 3594)">Nov-18</text></g><g clip-path="url(#clip32)"><text fill="#595959" fill-opacity="1" font-family="Calibri,Calibri_MSFontService,sans-serif" font-style="normal" font-variant="normal" font-weight="400" font-stretch="normal" font-size="41" text-anchor="start" direction="ltr" writing-mode="lr-tb" unicode-bidi="normal" text-decoration="none" transform="matrix(1 0 0 1 4713.01 3594)">Jan-19</text></g><g clip-path="url(#clip33)"><text fill="#595959" fill-opacity="1" font-family="Calibri,Calibri_MSFontService,sans-serif" font-style="normal" font-variant="normal" font-weight="400" font-stretch="normal" font-size="41" text-anchor="start" direction="ltr" writing-mode="lr-tb" unicode-bidi="normal" text-decoration="none" transform="matrix(1 0 0 1 4865.74 3594)">Mar-19</text></g><g clip-path="url(#clip34)"><text fill="#595959" fill-opacity="1" font-family="Calibri,Calibri_MSFontService,sans-serif" font-style="normal" font-variant="normal" font-weight="400" font-stretch="normal" font-size="41" text-anchor="start" direction="ltr" writing-mode="lr-tb" unicode-bidi="normal" text-decoration="none" transform="matrix(1 0 0 1 5023.75 3594)">May-19</text></g><g clip-path="url(#clip35)"><text fill="#595959" fill-opacity="1" font-family="Calibri,Calibri_MSFontService,sans-serif" font-style="normal" font-variant="normal" font-weight="400" font-stretch="normal" font-size="41" text-anchor="start" direction="ltr" writing-mode="lr-tb" unicode-bidi="normal" text-decoration="none" transform="matrix(1 0 0 1 5198.6 3594)">Jul-19</text></g><g clip-path="url(#clip36)"><text fill="#595959" fill-opacity="1" font-family="Calibri,Calibri_MSFontService,sans-serif" font-style="normal" font-variant="normal" font-weight="400" font-stretch="normal" font-size="41" text-anchor="start" direction="ltr" writing-mode="lr-tb" unicode-bidi="normal" text-decoration="none" transform="matrix(1 0 0 1 5350.31 3594)">Sep-19</text></g><g clip-path="url(#clip37)"><text fill="#595959" fill-opacity="1" font-family="Calibri,Calibri_MSFontService,sans-serif" font-style="normal" font-variant="normal" font-weight="400" font-stretch="normal" font-size="41" text-anchor="start" direction="ltr" writing-mode="lr-tb" unicode-bidi="normal" text-decoration="none" transform="matrix(1 0 0 1 5507.54 3594)">Nov-19</text></g><g clip-path="url(#clip38)"><text fill="#595959" fill-opacity="1" font-family="Calibri,Calibri_MSFontService,sans-serif" font-style="normal" font-variant="normal" font-weight="400" font-stretch="normal" font-size="41" text-anchor="start" direction="ltr" writing-mode="lr-tb" unicode-bidi="normal" text-decoration="none" transform="matrix(1 0 0 1 5670.61 3594)">Feb-20</text></g><g clip-path="url(#clip39)"><text fill="#595959" fill-opacity="1" font-family="Calibri,Calibri_MSFontService,sans-serif" font-style="normal" font-variant="normal" font-weight="400" font-stretch="normal" font-size="46" text-anchor="start" direction="ltr" writing-mode="lr-tb" unicode-bidi="normal" text-decoration="none" transform="matrix(6.12323e-17 -1 1 6.12323e-17 6019.28 3090)">valor de Qi</text></g><g clip-path="url(#clip40)"><text fill="#595959" fill-opacity="1" font-family="Calibri,Calibri_MSFontService,sans-serif" font-style="normal" font-variant="normal" font-weight="700" font-stretch="normal" font-size="46" text-anchor="start" direction="ltr" writing-mode="lr-tb" unicode-bidi="normal" text-decoration="none" transform="matrix(6.12323e-17 -1 1 6.12323e-17 3599.9 3213)">Nitrogênio Total (mg/L)</text></g><g clip-path="url(#clip41)"><text fill="#595959" fill-opacity="1" font-family="Calibri,Calibri_MSFontService,sans-serif" font-style="normal" font-variant="normal" font-weight="700" font-stretch="normal" font-size="64" text-anchor="start" direction="ltr" writing-mode="lr-tb" unicode-bidi="normal" text-decoration="none" transform="matrix(1 0 0 1 4312.94 2374)">Nitrogênio Total (mg/L)      </text></g><g clip-path="url(#clip42)"><text fill="#595959" fill-opacity="1" font-family="Calibri,Calibri_MSFontService,sans-serif" font-style="normal" font-variant="normal" font-weight="700" font-stretch="normal" font-size="64" text-anchor="start" direction="ltr" writing-mode="lr-tb" unicode-bidi="normal" text-decoration="none" transform="matrix(1 0 0 1 5050.51 2374)">x Tempo</text></g><g clip-path="url(#clip43)"><rect x="3913" y="3662" width="88" height="23" fill="#00B050" fill-opacity="0.301961"/></g><g clip-path="url(#clip44)"><text fill="#595959" fill-opacity="1" font-family="Calibri,Calibri_MSFontService,sans-serif" font-style="normal" font-variant="normal" font-weight="400" font-stretch="normal" font-size="41" text-anchor="start" direction="ltr" writing-mode="lr-tb" unicode-bidi="normal" text-decoration="none" transform="matrix(1 0 0 1 4010.61 3684)">Classe I-II</text></g><g clip-path="url(#clip45)"><rect x="4233" y="3662" width="88" height="23" fill="#4472C4" fill-opacity="0.301961"/></g><g clip-path="url(#clip46)"><text fill="#595959" fill-opacity="1" font-family="Calibri,Calibri_MSFontService,sans-serif" font-style="normal" font-variant="normal" font-weight="400" font-stretch="normal" font-size="41" text-anchor="start" direction="ltr" writing-mode="lr-tb" unicode-bidi="normal" text-decoration="none" transform="matrix(1 0 0 1 4330.43 3684)">Classe III</text></g><g clip-path="url(#clip47)"><rect x="4540" y="3662" width="88" height="23" fill="#FF0000" fill-opacity="0.301961"/></g><g clip-path="url(#clip48)"><text fill="#595959" fill-opacity="1" font-family="Calibri,Calibri_MSFontService,sans-serif" font-style="normal" font-variant="normal" font-weight="400" font-stretch="normal" font-size="41" text-anchor="start" direction="ltr" writing-mode="lr-tb" unicode-bidi="normal" text-decoration="none" transform="matrix(1 0 0 1 4637.61 3684)">Classe IV</text></g><g clip-path="url(#clip49)"><path d="M4850 3674 4938 3674" stroke="#000000" stroke-width="10.3125" stroke-linecap="round" stroke-linejoin="round" stroke-miterlimit="10" stroke-opacity="1" fill="none" fill-rule="evenodd"/></g><g clip-path="url(#clip50)"><path d="M4905 3673C4905 3679.07 4900.08 3684 4894 3684 4887.92 3684 4883 3679.07 4883 3673 4883 3666.92 4887.92 3662 4894 3662 4900.08 3662 4905 3666.92 4905 3673Z" stroke="#000000" stroke-width="4.58333" stroke-linecap="butt" stroke-linejoin="round" stroke-miterlimit="10" stroke-opacity="1" fill="#000000" fill-rule="nonzero" fill-opacity="1"/></g><g clip-path="url(#clip51)"><text fill="#595959" fill-opacity="1" font-family="Calibri,Calibri_MSFontService,sans-serif" font-style="normal" font-variant="normal" font-weight="400" font-stretch="normal" font-size="41" text-anchor="start" direction="ltr" writing-mode="lr-tb" unicode-bidi="normal" text-decoration="none" transform="matrix(1 0 0 1 4947.39 3684)">Nitrogênio Total (mg/L)</text></g><g clip-path="url(#clip52)"><path d="M5406 3674 5494 3674" stroke="#FF00FF" stroke-width="10.3125" stroke-linecap="round" stroke-linejoin="round" stroke-miterlimit="10" stroke-opacity="1" fill="none" fill-rule="evenodd"/></g><g clip-path="url(#clip53)"><path d="M5460 3673C5460 3679.07 5455.08 3684 5449 3684 5442.92 3684 5438 3679.07 5438 3673 5438 3666.92 5442.92 3662 5449 3662 5455.08 3662 5460 3666.92 5460 3673Z" stroke="#FF00FF" stroke-width="4.58333" stroke-linecap="butt" stroke-linejoin="round" stroke-miterlimit="10" stroke-opacity="1" fill="#FF00FF" fill-rule="nonzero" fill-opacity="1"/></g><g clip-path="url(#clip54)"><text fill="#595959" fill-opacity="1" font-family="Calibri,Calibri_MSFontService,sans-serif" font-style="normal" font-variant="normal" font-weight="400" font-stretch="normal" font-size="41" text-anchor="start" direction="ltr" writing-mode="lr-tb" unicode-bidi="normal" text-decoration="none" transform="matrix(1 0 0 1 5503.11 3684)">Valor de Qi</text></g><rect x="3499.5" y="2279.5" width="2590" height="1461" stroke="#D9D9D9" stroke-width="3.4375" stroke-linecap="butt" stroke-linejoin="round" stroke-miterlimit="10" stroke-opacity="1" fill="none"/></g></svg>