<svg width="2562" height="1467" xmlns="http://www.w3.org/2000/svg" xmlns:xlink="http://www.w3.org/1999/xlink" xml:space="preserve" overflow="hidden"><defs><clipPath id="clip0"><rect x="8896" y="3785" width="2562" height="1467"/></clipPath><clipPath id="clip1"><rect x="8897" y="3788" width="2554" height="1462"/></clipPath><clipPath id="clip2"><rect x="8897" y="3788" width="2554" height="1462"/></clipPath><clipPath id="clip3"><rect x="9115" y="3958" width="2060" height="1084"/></clipPath><clipPath id="clip4"><rect x="9115" y="3958" width="2060" height="1084"/></clipPath><clipPath id="clip5"><rect x="9115" y="3958" width="2060" height="1084"/></clipPath><clipPath id="clip6"><rect x="9115" y="3958" width="2060" height="1084"/></clipPath><clipPath id="clip7"><rect x="8897" y="3788" width="2554" height="1462"/></clipPath><clipPath id="clip8"><rect x="8897" y="3788" width="2554" height="1462"/></clipPath><clipPath id="clip9"><rect x="9115" y="3958" width="2060" height="1084"/></clipPath><clipPath id="clip10"><rect x="8897" y="3788" width="2554" height="1462"/></clipPath><clipPath id="clip11"><rect x="9115" y="3958" width="2060" height="1084"/></clipPath><clipPath id="clip12"><rect x="8897" y="3788" width="2554" height="1462"/></clipPath><clipPath id="clip13"><rect x="8897" y="3788" width="2554" height="1462"/></clipPath><clipPath id="clip14"><rect x="8897" y="3788" width="2554" height="1462"/></clipPath><clipPath id="clip15"><rect x="8897" y="3788" width="2554" height="1462"/></clipPath><clipPath id="clip16"><rect x="8897" y="3788" width="2554" height="1462"/></clipPath><clipPath id="clip17"><rect x="8897" y="3788" width="2554" height="1462"/></clipPath><clipPath id="clip18"><rect x="8897" y="3788" width="2554" height="1462"/></clipPath><clipPath id="clip19"><rect x="8897" y="3788" width="2554" height="1462"/></clipPath><clipPath id="clip20"><rect x="8897" y="3788" width="2554" height="1462"/></clipPath><clipPath id="clip21"><rect x="8897" y="3788" width="2554" height="1462"/></clipPath><clipPath id="clip22"><rect x="8897" y="3788" width="2554" height="1462"/></clipPath><clipPath id="clip23"><rect x="8897" y="3788" width="2554" height="1462"/></clipPath><clipPath id="clip24"><rect x="8897" y="3788" width="2554" height="1462"/></clipPath><clipPath id="clip25"><rect x="8897" y="3788" width="2554" height="1462"/></clipPath><clipPath id="clip26"><rect x="8897" y="3788" width="2554" height="1462"/></clipPath><clipPath id="clip27"><rect x="8897" y="3788" width="2554" height="1462"/></clipPath><clipPath id="clip28"><rect x="8897" y="3788" width="2554" height="1462"/></clipPath><clipPath id="clip29"><rect x="8897" y="3788" width="2554" height="1462"/></clipPath><clipPath id="clip30"><rect x="8897" y="3788" width="2554" height="1462"/></clipPath><clipPath id="clip31"><rect x="8897" y="3788" width="2554" height="1462"/></clipPath><clipPath id="clip32"><rect x="8897" y="3788" width="2554" height="1462"/></clipPath><clipPath id="clip33"><rect x="8897" y="3788" width="2554" height="1462"/></clipPath><clipPath id="clip34"><rect x="8897" y="3788" width="2554" height="1462"/></clipPath><clipPath id="clip35"><rect x="8897" y="3788" width="2554" height="1462"/></clipPath><clipPath id="clip36"><rect x="8897" y="3788" width="2554" height="1462"/></clipPath><clipPath id="clip37"><rect x="8897" y="3788" width="2554" height="1462"/></clipPath><clipPath id="clip38"><rect x="8897" y="3788" width="2554" height="1462"/></clipPath><clipPath id="clip39"><rect x="8897" y="3788" width="2554" height="1462"/></clipPath><clipPath id="clip40"><rect x="8897" y="3788" width="2554" height="1462"/></clipPath><clipPath id="clip41"><rect x="8897" y="3788" width="2554" height="1462"/></clipPath><clipPath id="clip42"><rect x="8897" y="3788" width="2554" height="1462"/></clipPath><clipPath id="clip43"><rect x="8897" y="3788" width="2554" height="1462"/></clipPath><clipPath id="clip44"><rect x="8897" y="3788" width="2554" height="1462"/></clipPath><clipPath id="clip45"><rect x="8897" y="3788" width="2554" height="1462"/></clipPath><clipPath id="clip46"><rect x="8897" y="3788" width="2554" height="1462"/></clipPath><clipPath id="clip47"><rect x="8897" y="3788" width="2554" height="1462"/></clipPath><clipPath id="clip48"><rect x="8897" y="3788" width="2554" height="1462"/></clipPath><clipPath id="clip49"><rect x="8897" y="3788" width="2554" height="1462"/></clipPath><clipPath id="clip50"><rect x="8897" y="3788" width="2554" height="1462"/></clipPath><clipPath id="clip51"><rect x="8897" y="3788" width="2554" height="1462"/></clipPath><clipPath id="clip52"><rect x="8897" y="3788" width="2554" height="1462"/></clipPath><clipPath id="clip53"><rect x="8897" y="3788" width="2554" height="1462"/></clipPath><clipPath id="clip54"><rect x="8897" y="3788" width="2554" height="1462"/></clipPath><clipPath id="clip55"><rect x="8897" y="3788" width="2554" height="1462"/></clipPath><clipPath id="clip56"><rect x="8897" y="3788" width="2554" height="1462"/></clipPath></defs><g clip-path="url(#clip0)" transform="translate(-8896 -3785)"><rect x="8898" y="3789" width="2554" height="1461" fill="#FFFFFF" fill-opacity="1"/><g clip-path="url(#clip1)"><path d="M9115.5 5038.5 11171.5 5038.5M9115.5 4150.5 11171.5 4150.5" stroke="#D9D9D9" stroke-width="3.4375" stroke-linecap="butt" stroke-linejoin="round" stroke-miterlimit="10" stroke-opacity="1" fill="none" fill-rule="nonzero"/></g><g clip-path="url(#clip2)"><path d="M9115.5 3958.5 9115.5 5038.5M9273.8 3958.5 9273.8 5038.5M9431.81 3958.5 9431.81 5038.5M9589.81 3958.5 9589.81 5038.5M9747.82 3958.5 9747.82 5038.5M9905.83 3958.5 9905.83 5038.5M10063.8 3958.5 10063.8 5038.5M10222.8 3958.5 10222.8 5038.5M10380.8 3958.5 10380.8 5038.5M10538.8 3958.5 10538.8 5038.5M10696.9 3958.5 10696.9 5038.5M10854.9 3958.5 10854.9 5038.5M11013.9 3958.5 11013.9 5038.5M11171.5 3958.5 11171.5 5038.5" stroke="#D9D9D9" stroke-width="3.4375" stroke-linecap="butt" stroke-linejoin="round" stroke-miterlimit="10" stroke-opacity="1" fill="none" fill-rule="nonzero"/></g><g clip-path="url(#clip3)"><path d="M9115 4403.14 9273.3 4403.14 9273.3 5039 9115 5039ZM9273.3 4403.14 9431.31 4403.14 9431.31 5039 9273.3 5039ZM9431.31 4403.14 9589.31 4403.14 9589.31 5039 9431.31 5039ZM9589.31 4403.14 9748.32 4403.14 9748.32 5039 9589.31 5039ZM9748.32 4403.14 9906.33 4403.14 9906.33 5039 9748.32 5039ZM9906.33 4403.14 10064.3 4403.14 10064.3 5039 9906.33 5039ZM10064.3 4403.14 10222.3 4403.14 10222.3 5039 10064.3 5039ZM10222.3 4403.14 10380.3 4403.14 10380.3 5039 10222.3 5039ZM10380.3 4403.14 10539.3 4403.14 10539.3 5039 10380.3 5039ZM10539.3 4403.14 10697.4 4403.14 10697.4 5039 10539.3 5039ZM10697.4 4403.14 10855.4 4403.14 10855.4 5039 10697.4 5039ZM10855.4 4403.14 11013.4 4403.14 11013.4 5039 10855.4 5039ZM11013.4 4403.14 11172 4403.14 11172 5039 11013.4 5039Z" fill="#FF0000" fill-rule="nonzero" fill-opacity="0.301961"/></g><g clip-path="url(#clip4)"><path d="M9115 4212.14 9273.3 4212.14 9273.3 4403.14 9115 4403.14ZM9273.3 4212.14 9431.31 4212.14 9431.31 4403.14 9273.3 4403.14ZM9431.31 4212.14 9589.31 4212.14 9589.31 4403.14 9431.31 4403.14ZM9589.31 4212.14 9748.32 4212.14 9748.32 4403.14 9589.31 4403.14ZM9748.32 4212.14 9906.33 4212.14 9906.33 4403.14 9748.32 4403.14ZM9906.33 4212.14 10064.3 4212.14 10064.3 4403.14 9906.33 4403.14ZM10064.3 4212.14 10222.3 4212.14 10222.3 4403.14 10064.3 4403.14ZM10222.3 4212.14 10380.3 4212.14 10380.3 4403.14 10222.3 4403.14ZM10380.3 4212.14 10539.3 4212.14 10539.3 4403.14 10380.3 4403.14ZM10539.3 4212.14 10697.4 4212.14 10697.4 4403.14 10539.3 4403.14ZM10697.4 4212.14 10855.4 4212.14 10855.4 4403.14 10697.4 4403.14ZM10855.4 4212.14 11013.4 4212.14 11013.4 4403.14 10855.4 4403.14ZM11013.4 4212.14 11172 4212.14 11172 4403.14 11013.4 4403.14Z" fill="#4472C4" fill-rule="nonzero" fill-opacity="0.301961"/></g><g clip-path="url(#clip5)"><path d="M9115 4150.14 9273.3 4150.14 9273.3 4212.14 9115 4212.14ZM9273.3 4150.14 9431.31 4150.14 9431.31 4212.14 9273.3 4212.14ZM9431.31 4150.14 9589.31 4150.14 9589.31 4212.14 9431.31 4212.14ZM9589.31 4150.14 9748.32 4150.14 9748.32 4212.14 9589.31 4212.14ZM9748.32 4150.14 9906.33 4150.14 9906.33 4212.14 9748.32 4212.14ZM9906.33 4150.14 10064.3 4150.14 10064.3 4212.14 9906.33 4212.14ZM10064.3 4150.14 10222.3 4150.14 10222.3 4212.14 10064.3 4212.14ZM10222.3 4150.14 10380.3 4150.14 10380.3 4212.14 10222.3 4212.14ZM10380.3 4150.14 10539.3 4150.14 10539.3 4212.14 10380.3 4212.14ZM10539.3 4150.14 10697.4 4150.14 10697.4 4212.14 10539.3 4212.14ZM10697.4 4150.14 10855.4 4150.14 10855.4 4212.14 10697.4 4212.14ZM10855.4 4150.14 11013.4 4150.14 11013.4 4212.14 10855.4 4212.14ZM11013.4 4150.14 11172 4150.14 11172 4212.14 11013.4 4212.14Z" fill="#FFC000" fill-rule="nonzero" fill-opacity="0.301961"/></g><g clip-path="url(#clip6)"><path d="M9115 3847 9273.3 3847 9273.3 4150.14 9115 4150.14ZM9273.3 3847 9431.31 3847 9431.31 4150.14 9273.3 4150.14ZM9431.31 3847 9589.31 3847 9589.31 4150.14 9431.31 4150.14ZM9589.31 3847 9748.32 3847 9748.32 4150.14 9589.31 4150.14ZM9748.32 3847 9906.33 3847 9906.33 4150.14 9748.32 4150.14ZM9906.33 3847 10064.3 3847 10064.3 4150.14 9906.33 4150.14ZM10064.3 3847 10222.3 3847 10222.3 4150.14 10064.3 4150.14ZM10222.3 3847 10380.3 3847 10380.3 4150.14 10222.3 4150.14ZM10380.3 3847 10539.3 3847 10539.3 4150.14 10380.3 4150.14ZM10539.3 3847 10697.4 3847 10697.4 4150.14 10539.3 4150.14ZM10697.4 3847 10855.4 3847 10855.4 4150.14 10697.4 4150.14ZM10855.4 3847 11013.4 3847 11013.4 4150.14 10855.4 4150.14ZM11013.4 3847 11172 3847 11172 4150.14 11013.4 4150.14Z" fill="#00B050" fill-rule="nonzero" fill-opacity="0.301961"/></g><g clip-path="url(#clip7)"><path d="M0 0 0.000360892 1080" stroke="#D9D9D9" stroke-width="3.4375" stroke-linecap="butt" stroke-linejoin="round" stroke-miterlimit="10" stroke-opacity="0" fill="none" fill-rule="evenodd" transform="matrix(1 0 0 -1 9115.5 5038.5)"/></g><g clip-path="url(#clip8)"><path d="M9115.5 4594.5 11171.5 4594.5" stroke="#D9D9D9" stroke-width="3.4375" stroke-linecap="butt" stroke-linejoin="round" stroke-miterlimit="10" stroke-opacity="1" fill="none" fill-rule="evenodd"/></g><g clip-path="url(#clip9)"><path d="M9194 4578.15 9352.31 5025 9510.31 4834.16 9669.32 4718.15 9827.32 5012.16 9985.33 4468.15 10143.3 4735.16 10301.3 4017 10459.3 4563.15 10618.3 4417.15 10776.4 4653.15 10934.4 4718.15 11093 4475.15" stroke="#000000" stroke-width="10.3125" stroke-linecap="round" stroke-linejoin="round" stroke-miterlimit="10" stroke-opacity="1" fill="none" fill-rule="nonzero"/></g><g clip-path="url(#clip10)"><path d="M9205.28 4578.39C9205.28 4584.46 9200.35 4589.39 9194.28 4589.39 9188.2 4589.39 9183.28 4584.46 9183.28 4578.39 9183.28 4572.31 9188.2 4567.39 9194.28 4567.39 9200.35 4567.39 9205.28 4572.31 9205.28 4578.39Z" stroke="#000000" stroke-width="4.58333" stroke-linecap="butt" stroke-linejoin="round" stroke-miterlimit="10" stroke-opacity="1" fill="#000000" fill-rule="nonzero" fill-opacity="1"/><path d="M9363.28 5025.39C9363.28 5031.46 9358.35 5036.39 9352.28 5036.39 9346.2 5036.39 9341.28 5031.46 9341.28 5025.39 9341.28 5019.31 9346.2 5014.39 9352.28 5014.39 9358.35 5014.39 9363.28 5019.31 9363.28 5025.39Z" stroke="#000000" stroke-width="4.58333" stroke-linecap="butt" stroke-linejoin="round" stroke-miterlimit="10" stroke-opacity="1" fill="#000000" fill-rule="nonzero" fill-opacity="1"/><path d="M9521.28 4834.39C9521.28 4840.46 9516.35 4845.39 9510.28 4845.39 9504.2 4845.39 9499.28 4840.46 9499.28 4834.39 9499.28 4828.31 9504.2 4823.39 9510.28 4823.39 9516.35 4823.39 9521.28 4828.31 9521.28 4834.39Z" stroke="#000000" stroke-width="4.58333" stroke-linecap="butt" stroke-linejoin="round" stroke-miterlimit="10" stroke-opacity="1" fill="#000000" fill-rule="nonzero" fill-opacity="1"/><path d="M9679.28 4717.39C9679.28 4723.46 9674.35 4728.39 9668.28 4728.39 9662.2 4728.39 9657.28 4723.46 9657.28 4717.39 9657.28 4711.31 9662.2 4706.39 9668.28 4706.39 9674.35 4706.39 9679.28 4711.31 9679.28 4717.39Z" stroke="#000000" stroke-width="4.58333" stroke-linecap="butt" stroke-linejoin="round" stroke-miterlimit="10" stroke-opacity="1" fill="#000000" fill-rule="nonzero" fill-opacity="1"/><path d="M9838.28 5012.39C9838.28 5018.46 9833.35 5023.39 9827.28 5023.39 9821.2 5023.39 9816.28 5018.46 9816.28 5012.39 9816.28 5006.31 9821.2 5001.39 9827.28 5001.39 9833.35 5001.39 9838.28 5006.31 9838.28 5012.39Z" stroke="#000000" stroke-width="4.58333" stroke-linecap="butt" stroke-linejoin="round" stroke-miterlimit="10" stroke-opacity="1" fill="#000000" fill-rule="nonzero" fill-opacity="1"/><path d="M9996.28 4468.39C9996.28 4474.46 9991.35 4479.39 9985.28 4479.39 9979.2 4479.39 9974.28 4474.46 9974.28 4468.39 9974.28 4462.31 9979.2 4457.39 9985.28 4457.39 9991.35 4457.39 9996.28 4462.31 9996.28 4468.39Z" stroke="#000000" stroke-width="4.58333" stroke-linecap="butt" stroke-linejoin="round" stroke-miterlimit="10" stroke-opacity="1" fill="#000000" fill-rule="nonzero" fill-opacity="1"/><path d="M10154.3 4735.39C10154.3 4741.46 10149.4 4746.39 10143.3 4746.39 10137.2 4746.39 10132.3 4741.46 10132.3 4735.39 10132.3 4729.31 10137.2 4724.39 10143.3 4724.39 10149.4 4724.39 10154.3 4729.31 10154.3 4735.39Z" stroke="#000000" stroke-width="4.58333" stroke-linecap="butt" stroke-linejoin="round" stroke-miterlimit="10" stroke-opacity="1" fill="#000000" fill-rule="nonzero" fill-opacity="1"/><path d="M10312.3 4016.39C10312.3 4022.46 10307.4 4027.39 10301.3 4027.39 10295.2 4027.39 10290.3 4022.46 10290.3 4016.39 10290.3 4010.31 10295.2 4005.39 10301.3 4005.39 10307.4 4005.39 10312.3 4010.31 10312.3 4016.39Z" stroke="#000000" stroke-width="4.58333" stroke-linecap="butt" stroke-linejoin="round" stroke-miterlimit="10" stroke-opacity="1" fill="#000000" fill-rule="nonzero" fill-opacity="1"/><path d="M10470.3 4563.39C10470.3 4569.46 10465.4 4574.39 10459.3 4574.39 10453.2 4574.39 10448.3 4569.46 10448.3 4563.39 10448.3 4557.31 10453.2 4552.39 10459.3 4552.39 10465.4 4552.39 10470.3 4557.31 10470.3 4563.39Z" stroke="#000000" stroke-width="4.58333" stroke-linecap="butt" stroke-linejoin="round" stroke-miterlimit="10" stroke-opacity="1" fill="#000000" fill-rule="nonzero" fill-opacity="1"/><path d="M10629.3 4417.39C10629.3 4423.46 10624.4 4428.39 10618.3 4428.39 10612.2 4428.39 10607.3 4423.46 10607.3 4417.39 10607.3 4411.31 10612.2 4406.39 10618.3 4406.39 10624.4 4406.39 10629.3 4411.31 10629.3 4417.39Z" stroke="#000000" stroke-width="4.58333" stroke-linecap="butt" stroke-linejoin="round" stroke-miterlimit="10" stroke-opacity="1" fill="#000000" fill-rule="nonzero" fill-opacity="1"/><path d="M10787.3 4652.39C10787.3 4658.46 10782.4 4663.39 10776.3 4663.39 10770.2 4663.39 10765.3 4658.46 10765.3 4652.39 10765.3 4646.31 10770.2 4641.39 10776.3 4641.39 10782.4 4641.39 10787.3 4646.31 10787.3 4652.39Z" stroke="#000000" stroke-width="4.58333" stroke-linecap="butt" stroke-linejoin="round" stroke-miterlimit="10" stroke-opacity="1" fill="#000000" fill-rule="nonzero" fill-opacity="1"/><path d="M10945.3 4717.39C10945.3 4723.46 10940.4 4728.39 10934.3 4728.39 10928.2 4728.39 10923.3 4723.46 10923.3 4717.39 10923.3 4711.31 10928.2 4706.39 10934.3 4706.39 10940.4 4706.39 10945.3 4711.31 10945.3 4717.39Z" stroke="#000000" stroke-width="4.58333" stroke-linecap="butt" stroke-linejoin="round" stroke-miterlimit="10" stroke-opacity="1" fill="#000000" fill-rule="nonzero" fill-opacity="1"/><path d="M11103.3 4475.39C11103.3 4481.46 11098.4 4486.39 11092.3 4486.39 11086.2 4486.39 11081.3 4481.46 11081.3 4475.39 11081.3 4469.31 11086.2 4464.39 11092.3 4464.39 11098.4 4464.39 11103.3 4469.31 11103.3 4475.39Z" stroke="#000000" stroke-width="4.58333" stroke-linecap="butt" stroke-linejoin="round" stroke-miterlimit="10" stroke-opacity="1" fill="#000000" fill-rule="nonzero" fill-opacity="1"/></g><g clip-path="url(#clip11)"><path d="M9194 4952.16 9352.31 4996 9510.31 4985.16 9669.32 4974.16 9827.32 4985.16 9985.33 4898.16 10143.3 4952.16 10301.3 3980 10459.3 4942.16 10618.3 4834.16 10776.4 4952.16 10934.4 4963.16 11093 4866.16" stroke="#FF00FF" stroke-width="10.3125" stroke-linecap="round" stroke-linejoin="round" stroke-miterlimit="10" stroke-opacity="1" fill="none" fill-rule="nonzero"/></g><g clip-path="url(#clip12)"><path d="M9205.28 4952.39C9205.28 4958.46 9200.35 4963.39 9194.28 4963.39 9188.2 4963.39 9183.28 4958.46 9183.28 4952.39 9183.28 4946.31 9188.2 4941.39 9194.28 4941.39 9200.35 4941.39 9205.28 4946.31 9205.28 4952.39Z" stroke="#FF00FF" stroke-width="4.58333" stroke-linecap="butt" stroke-linejoin="round" stroke-miterlimit="10" stroke-opacity="1" fill="#FF00FF" fill-rule="nonzero" fill-opacity="1"/><path d="M9363.28 4995.39C9363.28 5001.46 9358.35 5006.39 9352.28 5006.39 9346.2 5006.39 9341.28 5001.46 9341.28 4995.39 9341.28 4989.31 9346.2 4984.39 9352.28 4984.39 9358.35 4984.39 9363.28 4989.31 9363.28 4995.39Z" stroke="#FF00FF" stroke-width="4.58333" stroke-linecap="butt" stroke-linejoin="round" stroke-miterlimit="10" stroke-opacity="1" fill="#FF00FF" fill-rule="nonzero" fill-opacity="1"/><path d="M9521.28 4984.39C9521.28 4990.46 9516.35 4995.39 9510.28 4995.39 9504.2 4995.39 9499.28 4990.46 9499.28 4984.39 9499.28 4978.31 9504.2 4973.39 9510.28 4973.39 9516.35 4973.39 9521.28 4978.31 9521.28 4984.39Z" stroke="#FF00FF" stroke-width="4.58333" stroke-linecap="butt" stroke-linejoin="round" stroke-miterlimit="10" stroke-opacity="1" fill="#FF00FF" fill-rule="nonzero" fill-opacity="1"/><path d="M9679.28 4974.39C9679.28 4980.46 9674.35 4985.39 9668.28 4985.39 9662.2 4985.39 9657.28 4980.46 9657.28 4974.39 9657.28 4968.31 9662.2 4963.39 9668.28 4963.39 9674.35 4963.39 9679.28 4968.31 9679.28 4974.39Z" stroke="#FF00FF" stroke-width="4.58333" stroke-linecap="butt" stroke-linejoin="round" stroke-miterlimit="10" stroke-opacity="1" fill="#FF00FF" fill-rule="nonzero" fill-opacity="1"/><path d="M9838.28 4984.39C9838.28 4990.46 9833.35 4995.39 9827.28 4995.39 9821.2 4995.39 9816.28 4990.46 9816.28 4984.39 9816.28 4978.31 9821.2 4973.39 9827.28 4973.39 9833.35 4973.39 9838.28 4978.31 9838.28 4984.39Z" stroke="#FF00FF" stroke-width="4.58333" stroke-linecap="butt" stroke-linejoin="round" stroke-miterlimit="10" stroke-opacity="1" fill="#FF00FF" fill-rule="nonzero" fill-opacity="1"/><path d="M9996.28 4898.39C9996.28 4904.46 9991.35 4909.39 9985.28 4909.39 9979.2 4909.39 9974.28 4904.46 9974.28 4898.39 9974.28 4892.31 9979.2 4887.39 9985.28 4887.39 9991.35 4887.39 9996.28 4892.31 9996.28 4898.39Z" stroke="#FF00FF" stroke-width="4.58333" stroke-linecap="butt" stroke-linejoin="round" stroke-miterlimit="10" stroke-opacity="1" fill="#FF00FF" fill-rule="nonzero" fill-opacity="1"/><path d="M10154.3 4952.39C10154.3 4958.46 10149.4 4963.39 10143.3 4963.39 10137.2 4963.39 10132.3 4958.46 10132.3 4952.39 10132.3 4946.31 10137.2 4941.39 10143.3 4941.39 10149.4 4941.39 10154.3 4946.31 10154.3 4952.39Z" stroke="#FF00FF" stroke-width="4.58333" stroke-linecap="butt" stroke-linejoin="round" stroke-miterlimit="10" stroke-opacity="1" fill="#FF00FF" fill-rule="nonzero" fill-opacity="1"/><path d="M10312.3 3980.39C10312.3 3986.46 10307.4 3991.39 10301.3 3991.39 10295.2 3991.39 10290.3 3986.46 10290.3 3980.39 10290.3 3974.31 10295.2 3969.39 10301.3 3969.39 10307.4 3969.39 10312.3 3974.31 10312.3 3980.39Z" stroke="#FF00FF" stroke-width="4.58333" stroke-linecap="butt" stroke-linejoin="round" stroke-miterlimit="10" stroke-opacity="1" fill="#FF00FF" fill-rule="nonzero" fill-opacity="1"/><path d="M10470.3 4941.39C10470.3 4947.46 10465.4 4952.39 10459.3 4952.39 10453.2 4952.39 10448.3 4947.46 10448.3 4941.39 10448.3 4935.31 10453.2 4930.39 10459.3 4930.39 10465.4 4930.39 10470.3 4935.31 10470.3 4941.39Z" stroke="#FF00FF" stroke-width="4.58333" stroke-linecap="butt" stroke-linejoin="round" stroke-miterlimit="10" stroke-opacity="1" fill="#FF00FF" fill-rule="nonzero" fill-opacity="1"/><path d="M10629.3 4833.39C10629.3 4839.46 10624.4 4844.39 10618.3 4844.39 10612.2 4844.39 10607.3 4839.46 10607.3 4833.39 10607.3 4827.31 10612.2 4822.39 10618.3 4822.39 10624.4 4822.39 10629.3 4827.31 10629.3 4833.39Z" stroke="#FF00FF" stroke-width="4.58333" stroke-linecap="butt" stroke-linejoin="round" stroke-miterlimit="10" stroke-opacity="1" fill="#FF00FF" fill-rule="nonzero" fill-opacity="1"/><path d="M10787.3 4952.39C10787.3 4958.46 10782.4 4963.39 10776.3 4963.39 10770.2 4963.39 10765.3 4958.46 10765.3 4952.39 10765.3 4946.31 10770.2 4941.39 10776.3 4941.39 10782.4 4941.39 10787.3 4946.31 10787.3 4952.39Z" stroke="#FF00FF" stroke-width="4.58333" stroke-linecap="butt" stroke-linejoin="round" stroke-miterlimit="10" stroke-opacity="1" fill="#FF00FF" fill-rule="nonzero" fill-opacity="1"/><path d="M10945.3 4963.39C10945.3 4969.46 10940.4 4974.39 10934.3 4974.39 10928.2 4974.39 10923.3 4969.46 10923.3 4963.39 10923.3 4957.31 10928.2 4952.39 10934.3 4952.39 10940.4 4952.39 10945.3 4957.31 10945.3 4963.39Z" stroke="#FF00FF" stroke-width="4.58333" stroke-linecap="butt" stroke-linejoin="round" stroke-miterlimit="10" stroke-opacity="1" fill="#FF00FF" fill-rule="nonzero" fill-opacity="1"/><path d="M11103.3 4866.39C11103.3 4872.46 11098.4 4877.39 11092.3 4877.39 11086.2 4877.39 11081.3 4872.46 11081.3 4866.39 11081.3 4860.31 11086.2 4855.39 11092.3 4855.39 11098.4 4855.39 11103.3 4860.31 11103.3 4866.39Z" stroke="#FF00FF" stroke-width="4.58333" stroke-linecap="butt" stroke-linejoin="round" stroke-miterlimit="10" stroke-opacity="1" fill="#FF00FF" fill-rule="nonzero" fill-opacity="1"/></g><g clip-path="url(#clip13)"><text fill="#595959" fill-opacity="1" font-family="Calibri,Calibri_MSFontService,sans-serif" font-style="normal" font-variant="normal" font-weight="400" font-stretch="normal" font-size="41" text-anchor="start" direction="ltr" writing-mode="lr-tb" unicode-bidi="normal" text-decoration="none" transform="matrix(1 0 0 1 11210 5049)">0,00</text></g><g clip-path="url(#clip14)"><text fill="#595959" fill-opacity="1" font-family="Calibri,Calibri_MSFontService,sans-serif" font-style="normal" font-variant="normal" font-weight="400" font-stretch="normal" font-size="41" text-anchor="start" direction="ltr" writing-mode="lr-tb" unicode-bidi="normal" text-decoration="none" transform="matrix(1 0 0 1 11210 4941)">10,00</text></g><g clip-path="url(#clip15)"><text fill="#595959" fill-opacity="1" font-family="Calibri,Calibri_MSFontService,sans-serif" font-style="normal" font-variant="normal" font-weight="400" font-stretch="normal" font-size="41" text-anchor="start" direction="ltr" writing-mode="lr-tb" unicode-bidi="normal" text-decoration="none" transform="matrix(1 0 0 1 11210 4833)">20,00</text></g><g clip-path="url(#clip16)"><text fill="#595959" fill-opacity="1" font-family="Calibri,Calibri_MSFontService,sans-serif" font-style="normal" font-variant="normal" font-weight="400" font-stretch="normal" font-size="41" text-anchor="start" direction="ltr" writing-mode="lr-tb" unicode-bidi="normal" text-decoration="none" transform="matrix(1 0 0 1 11210 4725)">30,00</text></g><g clip-path="url(#clip17)"><text fill="#595959" fill-opacity="1" font-family="Calibri,Calibri_MSFontService,sans-serif" font-style="normal" font-variant="normal" font-weight="400" font-stretch="normal" font-size="41" text-anchor="start" direction="ltr" writing-mode="lr-tb" unicode-bidi="normal" text-decoration="none" transform="matrix(1 0 0 1 11210 4617)">40,00</text></g><g clip-path="url(#clip18)"><text fill="#595959" fill-opacity="1" font-family="Calibri,Calibri_MSFontService,sans-serif" font-style="normal" font-variant="normal" font-weight="400" font-stretch="normal" font-size="41" text-anchor="start" direction="ltr" writing-mode="lr-tb" unicode-bidi="normal" text-decoration="none" transform="matrix(1 0 0 1 11210 4509)">50,00</text></g><g clip-path="url(#clip19)"><text fill="#595959" fill-opacity="1" font-family="Calibri,Calibri_MSFontService,sans-serif" font-style="normal" font-variant="normal" font-weight="400" font-stretch="normal" font-size="41" text-anchor="start" direction="ltr" writing-mode="lr-tb" unicode-bidi="normal" text-decoration="none" transform="matrix(1 0 0 1 11210 4401)">60,00</text></g><g clip-path="url(#clip20)"><text fill="#595959" fill-opacity="1" font-family="Calibri,Calibri_MSFontService,sans-serif" font-style="normal" font-variant="normal" font-weight="400" font-stretch="normal" font-size="41" text-anchor="start" direction="ltr" writing-mode="lr-tb" unicode-bidi="normal" text-decoration="none" transform="matrix(1 0 0 1 11210 4293)">70,00</text></g><g clip-path="url(#clip21)"><text fill="#595959" fill-opacity="1" font-family="Calibri,Calibri_MSFontService,sans-serif" font-style="normal" font-variant="normal" font-weight="400" font-stretch="normal" font-size="41" text-anchor="start" direction="ltr" writing-mode="lr-tb" unicode-bidi="normal" text-decoration="none" transform="matrix(1 0 0 1 11210 4185)">80,00</text></g><g clip-path="url(#clip22)"><text fill="#595959" fill-opacity="1" font-family="Calibri,Calibri_MSFontService,sans-serif" font-style="normal" font-variant="normal" font-weight="400" font-stretch="normal" font-size="41" text-anchor="start" direction="ltr" writing-mode="lr-tb" unicode-bidi="normal" text-decoration="none" transform="matrix(1 0 0 1 11210 4077)">90,00</text></g><g clip-path="url(#clip23)"><text fill="#595959" fill-opacity="1" font-family="Calibri,Calibri_MSFontService,sans-serif" font-style="normal" font-variant="normal" font-weight="400" font-stretch="normal" font-size="41" text-anchor="start" direction="ltr" writing-mode="lr-tb" unicode-bidi="normal" text-decoration="none" transform="matrix(1 0 0 1 11210 3969)">100,00</text></g><g clip-path="url(#clip24)"><text fill="#595959" fill-opacity="1" font-family="Calibri,Calibri_MSFontService,sans-serif" font-style="normal" font-variant="normal" font-weight="400" font-stretch="normal" font-size="41" text-anchor="start" direction="ltr" writing-mode="lr-tb" unicode-bidi="normal" text-decoration="none" transform="matrix(1 0 0 1 9024.76 5049)">0,2</text></g><g clip-path="url(#clip25)"><text fill="#595959" fill-opacity="1" font-family="Calibri,Calibri_MSFontService,sans-serif" font-style="normal" font-variant="normal" font-weight="400" font-stretch="normal" font-size="41" text-anchor="start" direction="ltr" writing-mode="lr-tb" unicode-bidi="normal" text-decoration="none" transform="matrix(1 0 0 1 9055.95 4605)">1</text></g><g clip-path="url(#clip26)"><text fill="#595959" fill-opacity="1" font-family="Calibri,Calibri_MSFontService,sans-serif" font-style="normal" font-variant="normal" font-weight="400" font-stretch="normal" font-size="41" text-anchor="start" direction="ltr" writing-mode="lr-tb" unicode-bidi="normal" text-decoration="none" transform="matrix(1 0 0 1 9055.95 4160)">5</text></g><g clip-path="url(#clip27)"><text fill="#595959" fill-opacity="1" font-family="Calibri,Calibri_MSFontService,sans-serif" font-style="normal" font-variant="normal" font-weight="400" font-stretch="normal" font-size="41" text-anchor="start" direction="ltr" writing-mode="lr-tb" unicode-bidi="normal" text-decoration="none" transform="matrix(1 0 0 1 9139.71 5104)">Jan-18</text></g><g clip-path="url(#clip28)"><text fill="#595959" fill-opacity="1" font-family="Calibri,Calibri_MSFontService,sans-serif" font-style="normal" font-variant="normal" font-weight="400" font-stretch="normal" font-size="41" text-anchor="start" direction="ltr" writing-mode="lr-tb" unicode-bidi="normal" text-decoration="none" transform="matrix(1 0 0 1 9290.5 5104)">Mar-18</text></g><g clip-path="url(#clip29)"><text fill="#595959" fill-opacity="1" font-family="Calibri,Calibri_MSFontService,sans-serif" font-style="normal" font-variant="normal" font-weight="400" font-stretch="normal" font-size="41" text-anchor="start" direction="ltr" writing-mode="lr-tb" unicode-bidi="normal" text-decoration="none" transform="matrix(1 0 0 1 9446.56 5104)">May-18</text></g><g clip-path="url(#clip30)"><text fill="#595959" fill-opacity="1" font-family="Calibri,Calibri_MSFontService,sans-serif" font-style="normal" font-variant="normal" font-weight="400" font-stretch="normal" font-size="41" text-anchor="start" direction="ltr" writing-mode="lr-tb" unicode-bidi="normal" text-decoration="none" transform="matrix(1 0 0 1 9619.46 5104)">Jul-18</text></g><g clip-path="url(#clip31)"><text fill="#595959" fill-opacity="1" font-family="Calibri,Calibri_MSFontService,sans-serif" font-style="normal" font-variant="normal" font-weight="400" font-stretch="normal" font-size="41" text-anchor="start" direction="ltr" writing-mode="lr-tb" unicode-bidi="normal" text-decoration="none" transform="matrix(1 0 0 1 9769.23 5104)">Sep-18</text></g><g clip-path="url(#clip32)"><text fill="#595959" fill-opacity="1" font-family="Calibri,Calibri_MSFontService,sans-serif" font-style="normal" font-variant="normal" font-weight="400" font-stretch="normal" font-size="41" text-anchor="start" direction="ltr" writing-mode="lr-tb" unicode-bidi="normal" text-decoration="none" transform="matrix(1 0 0 1 9924.51 5104)">Nov-18</text></g><g clip-path="url(#clip33)"><text fill="#595959" fill-opacity="1" font-family="Calibri,Calibri_MSFontService,sans-serif" font-style="normal" font-variant="normal" font-weight="400" font-stretch="normal" font-size="41" text-anchor="start" direction="ltr" writing-mode="lr-tb" unicode-bidi="normal" text-decoration="none" transform="matrix(1 0 0 1 10088.9 5104)">Jan-19</text></g><g clip-path="url(#clip34)"><text fill="#595959" fill-opacity="1" font-family="Calibri,Calibri_MSFontService,sans-serif" font-style="normal" font-variant="normal" font-weight="400" font-stretch="normal" font-size="41" text-anchor="start" direction="ltr" writing-mode="lr-tb" unicode-bidi="normal" text-decoration="none" transform="matrix(1 0 0 1 10239.7 5104)">Mar-19</text></g><g clip-path="url(#clip35)"><text fill="#595959" fill-opacity="1" font-family="Calibri,Calibri_MSFontService,sans-serif" font-style="normal" font-variant="normal" font-weight="400" font-stretch="normal" font-size="41" text-anchor="start" direction="ltr" writing-mode="lr-tb" unicode-bidi="normal" text-decoration="none" transform="matrix(1 0 0 1 10395.8 5104)">May-19</text></g><g clip-path="url(#clip36)"><text fill="#595959" fill-opacity="1" font-family="Calibri,Calibri_MSFontService,sans-serif" font-style="normal" font-variant="normal" font-weight="400" font-stretch="normal" font-size="41" text-anchor="start" direction="ltr" writing-mode="lr-tb" unicode-bidi="normal" text-decoration="none" transform="matrix(1 0 0 1 10568.7 5104)">Jul-19</text></g><g clip-path="url(#clip37)"><text fill="#595959" fill-opacity="1" font-family="Calibri,Calibri_MSFontService,sans-serif" font-style="normal" font-variant="normal" font-weight="400" font-stretch="normal" font-size="41" text-anchor="start" direction="ltr" writing-mode="lr-tb" unicode-bidi="normal" text-decoration="none" transform="matrix(1 0 0 1 10718.4 5104)">Sep-19</text></g><g clip-path="url(#clip38)"><text fill="#595959" fill-opacity="1" font-family="Calibri,Calibri_MSFontService,sans-serif" font-style="normal" font-variant="normal" font-weight="400" font-stretch="normal" font-size="41" text-anchor="start" direction="ltr" writing-mode="lr-tb" unicode-bidi="normal" text-decoration="none" transform="matrix(1 0 0 1 10873.7 5104)">Nov-19</text></g><g clip-path="url(#clip39)"><text fill="#595959" fill-opacity="1" font-family="Calibri,Calibri_MSFontService,sans-serif" font-style="normal" font-variant="normal" font-weight="400" font-stretch="normal" font-size="41" text-anchor="start" direction="ltr" writing-mode="lr-tb" unicode-bidi="normal" text-decoration="none" transform="matrix(1 0 0 1 11034.8 5104)">Feb-20</text></g><g clip-path="url(#clip40)"><text fill="#595959" fill-opacity="1" font-family="Calibri,Calibri_MSFontService,sans-serif" font-style="normal" font-variant="normal" font-weight="400" font-stretch="normal" font-size="46" text-anchor="start" direction="ltr" writing-mode="lr-tb" unicode-bidi="normal" text-decoration="none" transform="matrix(6.12323e-17 -1 1 6.12323e-17 11382.5 4603)">Valor de Qi</text></g><g clip-path="url(#clip41)"><text fill="#595959" fill-opacity="1" font-family="Calibri,Calibri_MSFontService,sans-serif" font-style="normal" font-variant="normal" font-weight="400" font-stretch="normal" font-size="46" text-anchor="start" direction="ltr" writing-mode="lr-tb" unicode-bidi="normal" text-decoration="none" transform="matrix(6.12323e-17 -1 1 6.12323e-17 8999.07 4595)">OD (mg/L)</text></g><g clip-path="url(#clip42)"><text fill="#595959" fill-opacity="1" font-family="Calibri,Calibri_MSFontService,sans-serif" font-style="normal" font-variant="normal" font-weight="700" font-stretch="normal" font-size="64" text-anchor="start" direction="ltr" writing-mode="lr-tb" unicode-bidi="normal" text-decoration="none" transform="matrix(1 0 0 1 9916.92 3884)">OD (mg/L) x Tempo</text></g><g clip-path="url(#clip43)"><rect x="9087" y="5173" width="88" height="22" fill="#FF0000" fill-opacity="0.301961"/></g><g clip-path="url(#clip44)"><text fill="#595959" fill-opacity="1" font-family="Calibri,Calibri_MSFontService,sans-serif" font-style="normal" font-variant="normal" font-weight="400" font-stretch="normal" font-size="41" text-anchor="start" direction="ltr" writing-mode="lr-tb" unicode-bidi="normal" text-decoration="none" transform="matrix(1 0 0 1 9184.43 5194)">Classe I</text></g><g clip-path="url(#clip45)"><rect x="9368" y="5173" width="88" height="22" fill="#4472C4" fill-opacity="0.301961"/></g><g clip-path="url(#clip46)"><text fill="#595959" fill-opacity="1" font-family="Calibri,Calibri_MSFontService,sans-serif" font-style="normal" font-variant="normal" font-weight="400" font-stretch="normal" font-size="41" text-anchor="start" direction="ltr" writing-mode="lr-tb" unicode-bidi="normal" text-decoration="none" transform="matrix(1 0 0 1 9465.42 5194)">Classe II</text></g><g clip-path="url(#clip47)"><rect x="9660" y="5173" width="88" height="22" fill="#FFC000" fill-opacity="0.301961"/></g><g clip-path="url(#clip48)"><text fill="#595959" fill-opacity="1" font-family="Calibri,Calibri_MSFontService,sans-serif" font-style="normal" font-variant="normal" font-weight="400" font-stretch="normal" font-size="41" text-anchor="start" direction="ltr" writing-mode="lr-tb" unicode-bidi="normal" text-decoration="none" transform="matrix(1 0 0 1 9756.81 5194)">Classe III</text></g><g clip-path="url(#clip49)"><rect x="9961" y="5173" width="88" height="22" fill="#00B050" fill-opacity="0.301961"/></g><g clip-path="url(#clip50)"><text fill="#595959" fill-opacity="1" font-family="Calibri,Calibri_MSFontService,sans-serif" font-style="normal" font-variant="normal" font-weight="400" font-stretch="normal" font-size="41" text-anchor="start" direction="ltr" writing-mode="lr-tb" unicode-bidi="normal" text-decoration="none" transform="matrix(1 0 0 1 10058.6 5194)">Classe IV</text></g><g clip-path="url(#clip51)"><path d="M10266 5184 10354 5184" stroke="#000000" stroke-width="10.3125" stroke-linecap="round" stroke-linejoin="round" stroke-miterlimit="10" stroke-opacity="1" fill="none" fill-rule="evenodd"/></g><g clip-path="url(#clip52)"><path d="M10320 5183C10320 5189.07 10315.1 5194 10309 5194 10302.9 5194 10298 5189.07 10298 5183 10298 5176.92 10302.9 5172 10309 5172 10315.1 5172 10320 5176.92 10320 5183Z" stroke="#000000" stroke-width="4.58333" stroke-linecap="butt" stroke-linejoin="round" stroke-miterlimit="10" stroke-opacity="1" fill="#000000" fill-rule="nonzero" fill-opacity="1"/></g><g clip-path="url(#clip53)"><text fill="#595959" fill-opacity="1" font-family="Calibri,Calibri_MSFontService,sans-serif" font-style="normal" font-variant="normal" font-weight="400" font-stretch="normal" font-size="41" text-anchor="start" direction="ltr" writing-mode="lr-tb" unicode-bidi="normal" text-decoration="none" transform="matrix(1 0 0 1 10363 5194)">Oxigênio Dissolvido (OD em mg/L)</text></g><g clip-path="url(#clip54)"><path d="M10994 5184 11082 5184" stroke="#FF00FF" stroke-width="10.3125" stroke-linecap="round" stroke-linejoin="round" stroke-miterlimit="10" stroke-opacity="1" fill="none" fill-rule="evenodd"/></g><g clip-path="url(#clip55)"><path d="M11049 5183C11049 5189.07 11044.1 5194 11038 5194 11031.9 5194 11027 5189.07 11027 5183 11027 5176.92 11031.9 5172 11038 5172 11044.1 5172 11049 5176.92 11049 5183Z" stroke="#FF00FF" stroke-width="4.58333" stroke-linecap="butt" stroke-linejoin="round" stroke-miterlimit="10" stroke-opacity="1" fill="#FF00FF" fill-rule="nonzero" fill-opacity="1"/></g><g clip-path="url(#clip56)"><text fill="#595959" fill-opacity="1" font-family="Calibri,Calibri_MSFontService,sans-serif" font-style="normal" font-variant="normal" font-weight="400" font-stretch="normal" font-size="41" text-anchor="start" direction="ltr" writing-mode="lr-tb" unicode-bidi="normal" text-decoration="none" transform="matrix(1 0 0 1 11091.7 5194)">Valor de Qi</text></g><rect x="8898.5" y="3789.5" width="2554" height="1461" stroke="#D9D9D9" stroke-width="3.4375" stroke-linecap="butt" stroke-linejoin="round" stroke-miterlimit="10" stroke-opacity="1" fill="none"/></g></svg>