<svg width="2599" height="1467" xmlns="http://www.w3.org/2000/svg" xmlns:xlink="http://www.w3.org/1999/xlink" xml:space="preserve" overflow="hidden"><defs><clipPath id="clip0"><rect x="3487" y="3813" width="2599" height="1467"/></clipPath><clipPath id="clip1"><rect x="3491" y="3817" width="2590" height="1460"/></clipPath><clipPath id="clip2"><rect x="3491" y="3817" width="2590" height="1460"/></clipPath><clipPath id="clip3"><rect x="3698" y="3987" width="2159" height="1082"/></clipPath><clipPath id="clip4"><rect x="3698" y="3987" width="2159" height="1082"/></clipPath><clipPath id="clip5"><rect x="3698" y="3987" width="2159" height="1082"/></clipPath><clipPath id="clip6"><rect x="3491" y="3817" width="2590" height="1460"/></clipPath><clipPath id="clip7"><rect x="3491" y="3817" width="2590" height="1460"/></clipPath><clipPath id="clip8"><rect x="3698" y="3987" width="2159" height="1082"/></clipPath><clipPath id="clip9"><rect x="3491" y="3817" width="2590" height="1460"/></clipPath><clipPath id="clip10"><rect x="3698" y="3987" width="2159" height="1082"/></clipPath><clipPath id="clip11"><rect x="3491" y="3817" width="2590" height="1460"/></clipPath><clipPath id="clip12"><rect x="3491" y="3817" width="2590" height="1460"/></clipPath><clipPath id="clip13"><rect x="3491" y="3817" width="2590" height="1460"/></clipPath><clipPath id="clip14"><rect x="3491" y="3817" width="2590" height="1460"/></clipPath><clipPath id="clip15"><rect x="3491" y="3817" width="2590" height="1460"/></clipPath><clipPath id="clip16"><rect x="3491" y="3817" width="2590" height="1460"/></clipPath><clipPath id="clip17"><rect x="3491" y="3817" width="2590" height="1460"/></clipPath><clipPath id="clip18"><rect x="3491" y="3817" width="2590" height="1460"/></clipPath><clipPath id="clip19"><rect x="3491" y="3817" width="2590" height="1460"/></clipPath><clipPath id="clip20"><rect x="3491" y="3817" width="2590" height="1460"/></clipPath><clipPath id="clip21"><rect x="3491" y="3817" width="2590" height="1460"/></clipPath><clipPath id="clip22"><rect x="3491" y="3817" width="2590" height="1460"/></clipPath><clipPath id="clip23"><rect x="3491" y="3817" width="2590" height="1460"/></clipPath><clipPath id="clip24"><rect x="3491" y="3817" width="2590" height="1460"/></clipPath><clipPath id="clip25"><rect x="3491" y="3817" width="2590" height="1460"/></clipPath><clipPath id="clip26"><rect x="3491" y="3817" width="2590" height="1460"/></clipPath><clipPath id="clip27"><rect x="3491" y="3817" width="2590" height="1460"/></clipPath><clipPath id="clip28"><rect x="3491" y="3817" width="2590" height="1460"/></clipPath><clipPath id="clip29"><rect x="3491" y="3817" width="2590" height="1460"/></clipPath><clipPath id="clip30"><rect x="3491" y="3817" width="2590" height="1460"/></clipPath><clipPath id="clip31"><rect x="3491" y="3817" width="2590" height="1460"/></clipPath><clipPath id="clip32"><rect x="3491" y="3817" width="2590" height="1460"/></clipPath><clipPath id="clip33"><rect x="3491" y="3817" width="2590" height="1460"/></clipPath><clipPath id="clip34"><rect x="3491" y="3817" width="2590" height="1460"/></clipPath><clipPath id="clip35"><rect x="3491" y="3817" width="2590" height="1460"/></clipPath><clipPath id="clip36"><rect x="3491" y="3817" width="2590" height="1460"/></clipPath><clipPath id="clip37"><rect x="3491" y="3817" width="2590" height="1460"/></clipPath><clipPath id="clip38"><rect x="3491" y="3817" width="2590" height="1460"/></clipPath><clipPath id="clip39"><rect x="3491" y="3817" width="2590" height="1460"/></clipPath><clipPath id="clip40"><rect x="3491" y="3817" width="2590" height="1460"/></clipPath><clipPath id="clip41"><rect x="3491" y="3817" width="2590" height="1460"/></clipPath><clipPath id="clip42"><rect x="3491" y="3817" width="2590" height="1460"/></clipPath><clipPath id="clip43"><rect x="3491" y="3817" width="2590" height="1460"/></clipPath><clipPath id="clip44"><rect x="3491" y="3817" width="2590" height="1460"/></clipPath><clipPath id="clip45"><rect x="3491" y="3817" width="2590" height="1460"/></clipPath><clipPath id="clip46"><rect x="3491" y="3817" width="2590" height="1460"/></clipPath><clipPath id="clip47"><rect x="3491" y="3817" width="2590" height="1460"/></clipPath><clipPath id="clip48"><rect x="3491" y="3817" width="2590" height="1460"/></clipPath><clipPath id="clip49"><rect x="3491" y="3817" width="2590" height="1460"/></clipPath><clipPath id="clip50"><rect x="3491" y="3817" width="2590" height="1460"/></clipPath><clipPath id="clip51"><rect x="3491" y="3817" width="2590" height="1460"/></clipPath><clipPath id="clip52"><rect x="3491" y="3817" width="2590" height="1460"/></clipPath><clipPath id="clip53"><rect x="3491" y="3817" width="2590" height="1460"/></clipPath></defs><g clip-path="url(#clip0)" transform="translate(-3487 -3813)"><rect x="3492" y="3818" width="2590" height="1460" fill="#FFFFFF" fill-opacity="1"/><g clip-path="url(#clip1)"><path d="M3698.5 4125.5 5853.5 4125.5" stroke="#D9D9D9" stroke-width="3.4375" stroke-linecap="butt" stroke-linejoin="round" stroke-miterlimit="10" stroke-opacity="1" fill="none" fill-rule="nonzero"/></g><g clip-path="url(#clip2)"><path d="M3698.5 3987.5 3698.5 5066.5M3864.63 3987.5 3864.63 5066.5M4030.63 3987.5 4030.63 5066.5M4195.64 3987.5 4195.64 5066.5M4361.64 3987.5 4361.64 5066.5M4527.65 3987.5 4527.65 5066.5M4693.65 3987.5 4693.65 5066.5M4858.66 3987.5 4858.66 5066.5M5024.67 3987.5 5024.67 5066.5M5190.67 3987.5 5190.67 5066.5M5356.68 3987.5 5356.68 5066.5M5521.68 3987.5 5521.68 5066.5M5687.69 3987.5 5687.69 5066.5M5853.5 3987.5 5853.5 5066.5" stroke="#D9D9D9" stroke-width="3.4375" stroke-linecap="butt" stroke-linejoin="round" stroke-miterlimit="10" stroke-opacity="1" fill="none" fill-rule="nonzero"/></g><g clip-path="url(#clip3)"><path d="M3699 4409.14 3864.13 4409.14 3864.13 5066 3699 5066ZM3864.13 4409.14 4030.13 4409.14 4030.13 5066 3864.13 5066ZM4030.13 4409.14 4196.14 4409.14 4196.14 5066 4030.13 5066ZM4196.14 4409.14 4362.14 4409.14 4362.14 5066 4196.14 5066ZM4362.14 4409.14 4527.15 4409.14 4527.15 5066 4362.14 5066ZM4527.15 4409.14 4693.15 4409.14 4693.15 5066 4527.15 5066ZM4693.15 4409.14 4859.16 4409.14 4859.16 5066 4693.15 5066ZM4859.16 4409.14 5025.16 4409.14 5025.16 5066 4859.16 5066ZM5025.16 4409.14 5190.17 4409.14 5190.17 5066 5025.16 5066ZM5190.17 4409.14 5356.18 4409.14 5356.18 5066 5190.17 5066ZM5356.18 4409.14 5522.18 4409.14 5522.18 5066 5356.18 5066ZM5522.18 4409.14 5688.19 4409.14 5688.19 5066 5522.18 5066ZM5688.19 4409.14 5854 4409.14 5854 5066 5688.19 5066Z" fill="#FF0000" fill-rule="nonzero" fill-opacity="0.301961"/></g><g clip-path="url(#clip4)"><path d="M3699 4168.14 3864.13 4168.14 3864.13 4409.14 3699 4409.14ZM3864.13 4168.14 4030.13 4168.14 4030.13 4409.14 3864.13 4409.14ZM4030.13 4168.14 4196.14 4168.14 4196.14 4409.14 4030.13 4409.14ZM4196.14 4168.14 4362.14 4168.14 4362.14 4409.14 4196.14 4409.14ZM4362.14 4168.14 4527.15 4168.14 4527.15 4409.14 4362.14 4409.14ZM4527.15 4168.14 4693.15 4168.14 4693.15 4409.14 4527.15 4409.14ZM4693.15 4168.14 4859.16 4168.14 4859.16 4409.14 4693.15 4409.14ZM4859.16 4168.14 5025.16 4168.14 5025.16 4409.14 4859.16 4409.14ZM5025.16 4168.14 5190.17 4168.14 5190.17 4409.14 5025.16 4409.14ZM5190.17 4168.14 5356.18 4168.14 5356.18 4409.14 5190.17 4409.14ZM5356.18 4168.14 5522.18 4168.14 5522.18 4409.14 5356.18 4409.14ZM5522.18 4168.14 5688.19 4168.14 5688.19 4409.14 5522.18 4409.14ZM5688.19 4168.14 5854 4168.14 5854 4409.14 5688.19 4409.14Z" fill="#00B050" fill-rule="nonzero" fill-opacity="0.301961"/></g><g clip-path="url(#clip5)"><path d="M3699 3988 3864.13 3988 3864.13 4168.14 3699 4168.14ZM3864.13 3988 4030.13 3988 4030.13 4168.14 3864.13 4168.14ZM4030.13 3988 4196.14 3988 4196.14 4168.14 4030.13 4168.14ZM4196.14 3988 4362.14 3988 4362.14 4168.14 4196.14 4168.14ZM4362.14 3988 4527.15 3988 4527.15 4168.14 4362.14 4168.14ZM4527.15 3988 4693.15 3988 4693.15 4168.14 4527.15 4168.14ZM4693.15 3988 4859.16 3988 4859.16 4168.14 4693.15 4168.14ZM4859.16 3988 5025.16 3988 5025.16 4168.14 4859.16 4168.14ZM5025.16 3988 5190.17 3988 5190.17 4168.14 5025.16 4168.14ZM5190.17 3988 5356.18 3988 5356.18 4168.14 5190.17 4168.14ZM5356.18 3988 5522.18 3988 5522.18 4168.14 5356.18 4168.14ZM5522.18 3988 5688.19 3988 5688.19 4168.14 5522.18 4168.14ZM5688.19 3988 5854 3988 5854 4168.14 5688.19 4168.14Z" fill="#FF0000" fill-rule="nonzero" fill-opacity="0.301961"/></g><g clip-path="url(#clip6)"><path d="M0 0 0.000360892 1079" stroke="#D9D9D9" stroke-width="3.4375" stroke-linecap="butt" stroke-linejoin="round" stroke-miterlimit="10" stroke-opacity="0" fill="none" fill-rule="evenodd" transform="matrix(1 0 0 -1 3698.5 5066.5)"/></g><g clip-path="url(#clip7)"><path d="M3698.5 5066.5 5853.5 5066.5" stroke="#D9D9D9" stroke-width="3.4375" stroke-linecap="butt" stroke-linejoin="round" stroke-miterlimit="10" stroke-opacity="1" fill="none" fill-rule="evenodd"/></g><g clip-path="url(#clip8)"><path d="M3782 4257.14 3947.13 4257.14 4113.13 4262.14 4279.14 4248 4445.15 4258.14 4610.15 4264.14 4776.16 4271.14 4942.16 4284 5108.17 4261.14 5273.17 4272.14 5439.18 4258.14 5605.18 4254.14 5771 4265.14" stroke="#000000" stroke-width="10.3125" stroke-linecap="round" stroke-linejoin="round" stroke-miterlimit="10" stroke-opacity="1" fill="none" fill-rule="nonzero"/></g><g clip-path="url(#clip9)"><path d="M3792.24 4256.42C3792.24 4262.49 3787.31 4267.42 3781.24 4267.42 3775.16 4267.42 3770.24 4262.49 3770.24 4256.42 3770.24 4250.34 3775.16 4245.42 3781.24 4245.42 3787.31 4245.42 3792.24 4250.34 3792.24 4256.42Z" stroke="#000000" stroke-width="4.58333" stroke-linecap="butt" stroke-linejoin="round" stroke-miterlimit="10" stroke-opacity="1" fill="#000000" fill-rule="nonzero" fill-opacity="1"/><path d="M3958.24 4256.42C3958.24 4262.49 3953.31 4267.42 3947.24 4267.42 3941.16 4267.42 3936.24 4262.49 3936.24 4256.42 3936.24 4250.34 3941.16 4245.42 3947.24 4245.42 3953.31 4245.42 3958.24 4250.34 3958.24 4256.42Z" stroke="#000000" stroke-width="4.58333" stroke-linecap="butt" stroke-linejoin="round" stroke-miterlimit="10" stroke-opacity="1" fill="#000000" fill-rule="nonzero" fill-opacity="1"/><path d="M4124.24 4261.42C4124.24 4267.49 4119.31 4272.42 4113.24 4272.42 4107.16 4272.42 4102.24 4267.49 4102.24 4261.42 4102.24 4255.34 4107.16 4250.42 4113.24 4250.42 4119.31 4250.42 4124.24 4255.34 4124.24 4261.42Z" stroke="#000000" stroke-width="4.58333" stroke-linecap="butt" stroke-linejoin="round" stroke-miterlimit="10" stroke-opacity="1" fill="#000000" fill-rule="nonzero" fill-opacity="1"/><path d="M4289.24 4248.42C4289.24 4254.49 4284.31 4259.42 4278.24 4259.42 4272.16 4259.42 4267.24 4254.49 4267.24 4248.42 4267.24 4242.34 4272.16 4237.42 4278.24 4237.42 4284.31 4237.42 4289.24 4242.34 4289.24 4248.42Z" stroke="#000000" stroke-width="4.58333" stroke-linecap="butt" stroke-linejoin="round" stroke-miterlimit="10" stroke-opacity="1" fill="#000000" fill-rule="nonzero" fill-opacity="1"/><path d="M4455.24 4258.42C4455.24 4264.49 4450.31 4269.42 4444.24 4269.42 4438.16 4269.42 4433.24 4264.49 4433.24 4258.42 4433.24 4252.34 4438.16 4247.42 4444.24 4247.42 4450.31 4247.42 4455.24 4252.34 4455.24 4258.42Z" stroke="#000000" stroke-width="4.58333" stroke-linecap="butt" stroke-linejoin="round" stroke-miterlimit="10" stroke-opacity="1" fill="#000000" fill-rule="nonzero" fill-opacity="1"/><path d="M4621.23 4263.42C4621.23 4269.49 4616.31 4274.42 4610.24 4274.42 4604.16 4274.42 4599.24 4269.49 4599.24 4263.42 4599.24 4257.34 4604.16 4252.42 4610.24 4252.42 4616.31 4252.42 4621.23 4257.34 4621.23 4263.42Z" stroke="#000000" stroke-width="4.58333" stroke-linecap="butt" stroke-linejoin="round" stroke-miterlimit="10" stroke-opacity="1" fill="#000000" fill-rule="nonzero" fill-opacity="1"/><path d="M4787.23 4271.42C4787.23 4277.49 4782.31 4282.42 4776.24 4282.42 4770.16 4282.42 4765.24 4277.49 4765.24 4271.42 4765.24 4265.34 4770.16 4260.42 4776.24 4260.42 4782.31 4260.42 4787.23 4265.34 4787.23 4271.42Z" stroke="#000000" stroke-width="4.58333" stroke-linecap="butt" stroke-linejoin="round" stroke-miterlimit="10" stroke-opacity="1" fill="#000000" fill-rule="nonzero" fill-opacity="1"/><path d="M4952.23 4283.42C4952.23 4289.49 4947.31 4294.42 4941.24 4294.42 4935.16 4294.42 4930.24 4289.49 4930.24 4283.42 4930.24 4277.34 4935.16 4272.42 4941.24 4272.42 4947.31 4272.42 4952.23 4277.34 4952.23 4283.42Z" stroke="#000000" stroke-width="4.58333" stroke-linecap="butt" stroke-linejoin="round" stroke-miterlimit="10" stroke-opacity="1" fill="#000000" fill-rule="nonzero" fill-opacity="1"/><path d="M5118.23 4260.42C5118.23 4266.49 5113.31 4271.42 5107.24 4271.42 5101.16 4271.42 5096.24 4266.49 5096.24 4260.42 5096.24 4254.34 5101.16 4249.42 5107.24 4249.42 5113.31 4249.42 5118.23 4254.34 5118.23 4260.42Z" stroke="#000000" stroke-width="4.58333" stroke-linecap="butt" stroke-linejoin="round" stroke-miterlimit="10" stroke-opacity="1" fill="#000000" fill-rule="nonzero" fill-opacity="1"/><path d="M5284.24 4271.42C5284.24 4277.49 5279.31 4282.42 5273.24 4282.42 5267.16 4282.42 5262.24 4277.49 5262.24 4271.42 5262.24 4265.34 5267.16 4260.42 5273.24 4260.42 5279.31 4260.42 5284.24 4265.34 5284.24 4271.42Z" stroke="#000000" stroke-width="4.58333" stroke-linecap="butt" stroke-linejoin="round" stroke-miterlimit="10" stroke-opacity="1" fill="#000000" fill-rule="nonzero" fill-opacity="1"/><path d="M5450.24 4257.42C5450.24 4263.49 5445.31 4268.42 5439.24 4268.42 5433.16 4268.42 5428.24 4263.49 5428.24 4257.42 5428.24 4251.34 5433.16 4246.42 5439.24 4246.42 5445.31 4246.42 5450.24 4251.34 5450.24 4257.42Z" stroke="#000000" stroke-width="4.58333" stroke-linecap="butt" stroke-linejoin="round" stroke-miterlimit="10" stroke-opacity="1" fill="#000000" fill-rule="nonzero" fill-opacity="1"/><path d="M5616.24 4254.42C5616.24 4260.49 5611.31 4265.42 5605.24 4265.42 5599.16 4265.42 5594.24 4260.49 5594.24 4254.42 5594.24 4248.34 5599.16 4243.42 5605.24 4243.42 5611.31 4243.42 5616.24 4248.34 5616.24 4254.42Z" stroke="#000000" stroke-width="4.58333" stroke-linecap="butt" stroke-linejoin="round" stroke-miterlimit="10" stroke-opacity="1" fill="#000000" fill-rule="nonzero" fill-opacity="1"/><path d="M5781.24 4265.42C5781.24 4271.49 5776.31 4276.42 5770.24 4276.42 5764.16 4276.42 5759.24 4271.49 5759.24 4265.42 5759.24 4259.34 5764.16 4254.42 5770.24 4254.42 5776.31 4254.42 5781.24 4259.34 5781.24 4265.42Z" stroke="#000000" stroke-width="4.58333" stroke-linecap="butt" stroke-linejoin="round" stroke-miterlimit="10" stroke-opacity="1" fill="#000000" fill-rule="nonzero" fill-opacity="1"/></g><g clip-path="url(#clip10)"><path d="M3782 4074 3947.13 4074 4113.13 4085.13 4279.14 4106.13 4445.15 4079.13 4610.15 4074 4776.16 4096.13 4942.16 4128 5108.17 4085.13 5273.17 4096.13 5439.18 4106.13 5605.18 4106.13 5771 4106.13" stroke="#FF00FF" stroke-width="10.3125" stroke-linecap="round" stroke-linejoin="round" stroke-miterlimit="10" stroke-opacity="1" fill="none" fill-rule="nonzero"/></g><g clip-path="url(#clip11)"><path d="M3792.24 4074.42C3792.24 4080.49 3787.31 4085.42 3781.24 4085.42 3775.16 4085.42 3770.24 4080.49 3770.24 4074.42 3770.24 4068.34 3775.16 4063.42 3781.24 4063.42 3787.31 4063.42 3792.24 4068.34 3792.24 4074.42Z" stroke="#FF00FF" stroke-width="4.58333" stroke-linecap="butt" stroke-linejoin="round" stroke-miterlimit="10" stroke-opacity="1" fill="#FF00FF" fill-rule="nonzero" fill-opacity="1"/><path d="M3958.24 4074.42C3958.24 4080.49 3953.31 4085.42 3947.24 4085.42 3941.16 4085.42 3936.24 4080.49 3936.24 4074.42 3936.24 4068.34 3941.16 4063.42 3947.24 4063.42 3953.31 4063.42 3958.24 4068.34 3958.24 4074.42Z" stroke="#FF00FF" stroke-width="4.58333" stroke-linecap="butt" stroke-linejoin="round" stroke-miterlimit="10" stroke-opacity="1" fill="#FF00FF" fill-rule="nonzero" fill-opacity="1"/><path d="M4124.24 4084.42C4124.24 4090.49 4119.31 4095.42 4113.24 4095.42 4107.16 4095.42 4102.24 4090.49 4102.24 4084.42 4102.24 4078.34 4107.16 4073.42 4113.24 4073.42 4119.31 4073.42 4124.24 4078.34 4124.24 4084.42Z" stroke="#FF00FF" stroke-width="4.58333" stroke-linecap="butt" stroke-linejoin="round" stroke-miterlimit="10" stroke-opacity="1" fill="#FF00FF" fill-rule="nonzero" fill-opacity="1"/><path d="M4289.24 4106.42C4289.24 4112.49 4284.31 4117.42 4278.24 4117.42 4272.16 4117.42 4267.24 4112.49 4267.24 4106.42 4267.24 4100.34 4272.16 4095.42 4278.24 4095.42 4284.31 4095.42 4289.24 4100.34 4289.24 4106.42Z" stroke="#FF00FF" stroke-width="4.58333" stroke-linecap="butt" stroke-linejoin="round" stroke-miterlimit="10" stroke-opacity="1" fill="#FF00FF" fill-rule="nonzero" fill-opacity="1"/><path d="M4455.24 4079.42C4455.24 4085.49 4450.31 4090.42 4444.24 4090.42 4438.16 4090.42 4433.24 4085.49 4433.24 4079.42 4433.24 4073.34 4438.16 4068.42 4444.24 4068.42 4450.31 4068.42 4455.24 4073.34 4455.24 4079.42Z" stroke="#FF00FF" stroke-width="4.58333" stroke-linecap="butt" stroke-linejoin="round" stroke-miterlimit="10" stroke-opacity="1" fill="#FF00FF" fill-rule="nonzero" fill-opacity="1"/><path d="M4621.23 4074.42C4621.23 4080.49 4616.31 4085.42 4610.24 4085.42 4604.16 4085.42 4599.24 4080.49 4599.24 4074.42 4599.24 4068.34 4604.16 4063.42 4610.24 4063.42 4616.31 4063.42 4621.23 4068.34 4621.23 4074.42Z" stroke="#FF00FF" stroke-width="4.58333" stroke-linecap="butt" stroke-linejoin="round" stroke-miterlimit="10" stroke-opacity="1" fill="#FF00FF" fill-rule="nonzero" fill-opacity="1"/><path d="M4787.23 4095.42C4787.23 4101.49 4782.31 4106.42 4776.24 4106.42 4770.16 4106.42 4765.24 4101.49 4765.24 4095.42 4765.24 4089.34 4770.16 4084.42 4776.24 4084.42 4782.31 4084.42 4787.23 4089.34 4787.23 4095.42Z" stroke="#FF00FF" stroke-width="4.58333" stroke-linecap="butt" stroke-linejoin="round" stroke-miterlimit="10" stroke-opacity="1" fill="#FF00FF" fill-rule="nonzero" fill-opacity="1"/><path d="M4952.23 4128.42C4952.23 4134.49 4947.31 4139.42 4941.24 4139.42 4935.16 4139.42 4930.24 4134.49 4930.24 4128.42 4930.24 4122.34 4935.16 4117.42 4941.24 4117.42 4947.31 4117.42 4952.23 4122.34 4952.23 4128.42Z" stroke="#FF00FF" stroke-width="4.58333" stroke-linecap="butt" stroke-linejoin="round" stroke-miterlimit="10" stroke-opacity="1" fill="#FF00FF" fill-rule="nonzero" fill-opacity="1"/><path d="M5118.23 4084.42C5118.23 4090.49 5113.31 4095.42 5107.24 4095.42 5101.16 4095.42 5096.24 4090.49 5096.24 4084.42 5096.24 4078.34 5101.16 4073.42 5107.24 4073.42 5113.31 4073.42 5118.23 4078.34 5118.23 4084.42Z" stroke="#FF00FF" stroke-width="4.58333" stroke-linecap="butt" stroke-linejoin="round" stroke-miterlimit="10" stroke-opacity="1" fill="#FF00FF" fill-rule="nonzero" fill-opacity="1"/><path d="M5284.24 4095.42C5284.24 4101.49 5279.31 4106.42 5273.24 4106.42 5267.16 4106.42 5262.24 4101.49 5262.24 4095.42 5262.24 4089.34 5267.16 4084.42 5273.24 4084.42 5279.31 4084.42 5284.24 4089.34 5284.24 4095.42Z" stroke="#FF00FF" stroke-width="4.58333" stroke-linecap="butt" stroke-linejoin="round" stroke-miterlimit="10" stroke-opacity="1" fill="#FF00FF" fill-rule="nonzero" fill-opacity="1"/><path d="M5450.24 4106.42C5450.24 4112.49 5445.31 4117.42 5439.24 4117.42 5433.16 4117.42 5428.24 4112.49 5428.24 4106.42 5428.24 4100.34 5433.16 4095.42 5439.24 4095.42 5445.31 4095.42 5450.24 4100.34 5450.24 4106.42Z" stroke="#FF00FF" stroke-width="4.58333" stroke-linecap="butt" stroke-linejoin="round" stroke-miterlimit="10" stroke-opacity="1" fill="#FF00FF" fill-rule="nonzero" fill-opacity="1"/><path d="M5616.24 4106.42C5616.24 4112.49 5611.31 4117.42 5605.24 4117.42 5599.16 4117.42 5594.24 4112.49 5594.24 4106.42 5594.24 4100.34 5599.16 4095.42 5605.24 4095.42 5611.31 4095.42 5616.24 4100.34 5616.24 4106.42Z" stroke="#FF00FF" stroke-width="4.58333" stroke-linecap="butt" stroke-linejoin="round" stroke-miterlimit="10" stroke-opacity="1" fill="#FF00FF" fill-rule="nonzero" fill-opacity="1"/><path d="M5781.24 4106.42C5781.24 4112.49 5776.31 4117.42 5770.24 4117.42 5764.16 4117.42 5759.24 4112.49 5759.24 4106.42 5759.24 4100.34 5764.16 4095.42 5770.24 4095.42 5776.31 4095.42 5781.24 4100.34 5781.24 4106.42Z" stroke="#FF00FF" stroke-width="4.58333" stroke-linecap="butt" stroke-linejoin="round" stroke-miterlimit="10" stroke-opacity="1" fill="#FF00FF" fill-rule="nonzero" fill-opacity="1"/></g><g clip-path="url(#clip12)"><text fill="#595959" fill-opacity="1" font-family="Calibri,Calibri_MSFontService,sans-serif" font-style="normal" font-variant="normal" font-weight="400" font-stretch="normal" font-size="41" text-anchor="start" direction="ltr" writing-mode="lr-tb" unicode-bidi="normal" text-decoration="none" transform="matrix(1 0 0 1 5891.96 5077)">0</text></g><g clip-path="url(#clip13)"><text fill="#595959" fill-opacity="1" font-family="Calibri,Calibri_MSFontService,sans-serif" font-style="normal" font-variant="normal" font-weight="400" font-stretch="normal" font-size="41" text-anchor="start" direction="ltr" writing-mode="lr-tb" unicode-bidi="normal" text-decoration="none" transform="matrix(1 0 0 1 5891.96 4969)">10</text></g><g clip-path="url(#clip14)"><text fill="#595959" fill-opacity="1" font-family="Calibri,Calibri_MSFontService,sans-serif" font-style="normal" font-variant="normal" font-weight="400" font-stretch="normal" font-size="41" text-anchor="start" direction="ltr" writing-mode="lr-tb" unicode-bidi="normal" text-decoration="none" transform="matrix(1 0 0 1 5891.96 4861)">20</text></g><g clip-path="url(#clip15)"><text fill="#595959" fill-opacity="1" font-family="Calibri,Calibri_MSFontService,sans-serif" font-style="normal" font-variant="normal" font-weight="400" font-stretch="normal" font-size="41" text-anchor="start" direction="ltr" writing-mode="lr-tb" unicode-bidi="normal" text-decoration="none" transform="matrix(1 0 0 1 5891.96 4753)">30</text></g><g clip-path="url(#clip16)"><text fill="#595959" fill-opacity="1" font-family="Calibri,Calibri_MSFontService,sans-serif" font-style="normal" font-variant="normal" font-weight="400" font-stretch="normal" font-size="41" text-anchor="start" direction="ltr" writing-mode="lr-tb" unicode-bidi="normal" text-decoration="none" transform="matrix(1 0 0 1 5891.96 4645)">40</text></g><g clip-path="url(#clip17)"><text fill="#595959" fill-opacity="1" font-family="Calibri,Calibri_MSFontService,sans-serif" font-style="normal" font-variant="normal" font-weight="400" font-stretch="normal" font-size="41" text-anchor="start" direction="ltr" writing-mode="lr-tb" unicode-bidi="normal" text-decoration="none" transform="matrix(1 0 0 1 5891.96 4537)">50</text></g><g clip-path="url(#clip18)"><text fill="#595959" fill-opacity="1" font-family="Calibri,Calibri_MSFontService,sans-serif" font-style="normal" font-variant="normal" font-weight="400" font-stretch="normal" font-size="41" text-anchor="start" direction="ltr" writing-mode="lr-tb" unicode-bidi="normal" text-decoration="none" transform="matrix(1 0 0 1 5891.96 4429)">60</text></g><g clip-path="url(#clip19)"><text fill="#595959" fill-opacity="1" font-family="Calibri,Calibri_MSFontService,sans-serif" font-style="normal" font-variant="normal" font-weight="400" font-stretch="normal" font-size="41" text-anchor="start" direction="ltr" writing-mode="lr-tb" unicode-bidi="normal" text-decoration="none" transform="matrix(1 0 0 1 5891.96 4322)">70</text></g><g clip-path="url(#clip20)"><text fill="#595959" fill-opacity="1" font-family="Calibri,Calibri_MSFontService,sans-serif" font-style="normal" font-variant="normal" font-weight="400" font-stretch="normal" font-size="41" text-anchor="start" direction="ltr" writing-mode="lr-tb" unicode-bidi="normal" text-decoration="none" transform="matrix(1 0 0 1 5891.96 4214)">80</text></g><g clip-path="url(#clip21)"><text fill="#595959" fill-opacity="1" font-family="Calibri,Calibri_MSFontService,sans-serif" font-style="normal" font-variant="normal" font-weight="400" font-stretch="normal" font-size="41" text-anchor="start" direction="ltr" writing-mode="lr-tb" unicode-bidi="normal" text-decoration="none" transform="matrix(1 0 0 1 5891.96 4106)">90</text></g><g clip-path="url(#clip22)"><text fill="#595959" fill-opacity="1" font-family="Calibri,Calibri_MSFontService,sans-serif" font-style="normal" font-variant="normal" font-weight="400" font-stretch="normal" font-size="41" text-anchor="start" direction="ltr" writing-mode="lr-tb" unicode-bidi="normal" text-decoration="none" transform="matrix(1 0 0 1 5891.96 3998)">100</text></g><g clip-path="url(#clip23)"><text fill="#595959" fill-opacity="1" font-family="Calibri,Calibri_MSFontService,sans-serif" font-style="normal" font-variant="normal" font-weight="400" font-stretch="normal" font-size="41" text-anchor="start" direction="ltr" writing-mode="lr-tb" unicode-bidi="normal" text-decoration="none" transform="matrix(1 0 0 1 3639.62 5077)">1</text></g><g clip-path="url(#clip24)"><text fill="#595959" fill-opacity="1" font-family="Calibri,Calibri_MSFontService,sans-serif" font-style="normal" font-variant="normal" font-weight="400" font-stretch="normal" font-size="41" text-anchor="start" direction="ltr" writing-mode="lr-tb" unicode-bidi="normal" text-decoration="none" transform="matrix(1 0 0 1 3618.72 4135)">10</text></g><g clip-path="url(#clip25)"><text fill="#595959" fill-opacity="1" font-family="Calibri,Calibri_MSFontService,sans-serif" font-style="normal" font-variant="normal" font-weight="400" font-stretch="normal" font-size="41" text-anchor="start" direction="ltr" writing-mode="lr-tb" unicode-bidi="normal" text-decoration="none" transform="matrix(1 0 0 1 3727.16 5132)">Jan-18</text></g><g clip-path="url(#clip26)"><text fill="#595959" fill-opacity="1" font-family="Calibri,Calibri_MSFontService,sans-serif" font-style="normal" font-variant="normal" font-weight="400" font-stretch="normal" font-size="41" text-anchor="start" direction="ltr" writing-mode="lr-tb" unicode-bidi="normal" text-decoration="none" transform="matrix(1 0 0 1 3885.51 5132)">Mar-18</text></g><g clip-path="url(#clip27)"><text fill="#595959" fill-opacity="1" font-family="Calibri,Calibri_MSFontService,sans-serif" font-style="normal" font-variant="normal" font-weight="400" font-stretch="normal" font-size="41" text-anchor="start" direction="ltr" writing-mode="lr-tb" unicode-bidi="normal" text-decoration="none" transform="matrix(1 0 0 1 4049.12 5132)">May-18</text></g><g clip-path="url(#clip28)"><text fill="#595959" fill-opacity="1" font-family="Calibri,Calibri_MSFontService,sans-serif" font-style="normal" font-variant="normal" font-weight="400" font-stretch="normal" font-size="41" text-anchor="start" direction="ltr" writing-mode="lr-tb" unicode-bidi="normal" text-decoration="none" transform="matrix(1 0 0 1 4229.59 5132)">Jul-18</text></g><g clip-path="url(#clip29)"><text fill="#595959" fill-opacity="1" font-family="Calibri,Calibri_MSFontService,sans-serif" font-style="normal" font-variant="normal" font-weight="400" font-stretch="normal" font-size="41" text-anchor="start" direction="ltr" writing-mode="lr-tb" unicode-bidi="normal" text-decoration="none" transform="matrix(1 0 0 1 4386.92 5132)">Sep-18</text></g><g clip-path="url(#clip30)"><text fill="#595959" fill-opacity="1" font-family="Calibri,Calibri_MSFontService,sans-serif" font-style="normal" font-variant="normal" font-weight="400" font-stretch="normal" font-size="41" text-anchor="start" direction="ltr" writing-mode="lr-tb" unicode-bidi="normal" text-decoration="none" transform="matrix(1 0 0 1 4549.76 5132)">Nov-18</text></g><g clip-path="url(#clip31)"><text fill="#595959" fill-opacity="1" font-family="Calibri,Calibri_MSFontService,sans-serif" font-style="normal" font-variant="normal" font-weight="400" font-stretch="normal" font-size="41" text-anchor="start" direction="ltr" writing-mode="lr-tb" unicode-bidi="normal" text-decoration="none" transform="matrix(1 0 0 1 4721.73 5132)">Jan-19</text></g><g clip-path="url(#clip32)"><text fill="#595959" fill-opacity="1" font-family="Calibri,Calibri_MSFontService,sans-serif" font-style="normal" font-variant="normal" font-weight="400" font-stretch="normal" font-size="41" text-anchor="start" direction="ltr" writing-mode="lr-tb" unicode-bidi="normal" text-decoration="none" transform="matrix(1 0 0 1 4880.08 5132)">Mar-19</text></g><g clip-path="url(#clip33)"><text fill="#595959" fill-opacity="1" font-family="Calibri,Calibri_MSFontService,sans-serif" font-style="normal" font-variant="normal" font-weight="400" font-stretch="normal" font-size="41" text-anchor="start" direction="ltr" writing-mode="lr-tb" unicode-bidi="normal" text-decoration="none" transform="matrix(1 0 0 1 5043.7 5132)">May-19</text></g><g clip-path="url(#clip34)"><text fill="#595959" fill-opacity="1" font-family="Calibri,Calibri_MSFontService,sans-serif" font-style="normal" font-variant="normal" font-weight="400" font-stretch="normal" font-size="41" text-anchor="start" direction="ltr" writing-mode="lr-tb" unicode-bidi="normal" text-decoration="none" transform="matrix(1 0 0 1 5224.16 5132)">Jul-19</text></g><g clip-path="url(#clip35)"><text fill="#595959" fill-opacity="1" font-family="Calibri,Calibri_MSFontService,sans-serif" font-style="normal" font-variant="normal" font-weight="400" font-stretch="normal" font-size="41" text-anchor="start" direction="ltr" writing-mode="lr-tb" unicode-bidi="normal" text-decoration="none" transform="matrix(1 0 0 1 5381.49 5132)">Sep-19</text></g><g clip-path="url(#clip36)"><text fill="#595959" fill-opacity="1" font-family="Calibri,Calibri_MSFontService,sans-serif" font-style="normal" font-variant="normal" font-weight="400" font-stretch="normal" font-size="41" text-anchor="start" direction="ltr" writing-mode="lr-tb" unicode-bidi="normal" text-decoration="none" transform="matrix(1 0 0 1 5544.33 5132)">Nov-19</text></g><g clip-path="url(#clip37)"><text fill="#595959" fill-opacity="1" font-family="Calibri,Calibri_MSFontService,sans-serif" font-style="normal" font-variant="normal" font-weight="400" font-stretch="normal" font-size="41" text-anchor="start" direction="ltr" writing-mode="lr-tb" unicode-bidi="normal" text-decoration="none" transform="matrix(1 0 0 1 5713.01 5132)">Feb-20</text></g><g clip-path="url(#clip38)"><text fill="#595959" fill-opacity="1" font-family="Calibri,Calibri_MSFontService,sans-serif" font-style="normal" font-variant="normal" font-weight="400" font-stretch="normal" font-size="46" text-anchor="start" direction="ltr" writing-mode="lr-tb" unicode-bidi="normal" text-decoration="none" transform="matrix(6.12323e-17 -1 1 6.12323e-17 6012.41 4631)">Valor de Qi</text></g><g clip-path="url(#clip39)"><text fill="#595959" fill-opacity="1" font-family="Calibri,Calibri_MSFontService,sans-serif" font-style="normal" font-variant="normal" font-weight="700" font-stretch="normal" font-size="46" text-anchor="start" direction="ltr" writing-mode="lr-tb" unicode-bidi="normal" text-decoration="none" transform="matrix(6.12323e-17 -1 1 6.12323e-17 3593.03 4554)">pH</text></g><g clip-path="url(#clip40)"><text fill="#595959" fill-opacity="1" font-family="Calibri,Calibri_MSFontService,sans-serif" font-style="normal" font-variant="normal" font-weight="700" font-stretch="normal" font-size="64" text-anchor="start" direction="ltr" writing-mode="lr-tb" unicode-bidi="normal" text-decoration="none" transform="matrix(1 0 0 1 4622.89 3913)">pH</text></g><g clip-path="url(#clip41)"><text fill="#595959" fill-opacity="1" font-family="Calibri,Calibri_MSFontService,sans-serif" font-style="normal" font-variant="normal" font-weight="700" font-stretch="normal" font-size="64" text-anchor="start" direction="ltr" writing-mode="lr-tb" unicode-bidi="normal" text-decoration="none" transform="matrix(1 0 0 1 4726.82 3913)">x Tempo</text></g><g clip-path="url(#clip42)"><rect x="4095" y="5200" width="88" height="23" fill="#FF0000" fill-opacity="0.301961"/></g><g clip-path="url(#clip43)"><text fill="#595959" fill-opacity="1" font-family="Calibri,Calibri_MSFontService,sans-serif" font-style="normal" font-variant="normal" font-weight="400" font-stretch="normal" font-size="41" text-anchor="start" direction="ltr" writing-mode="lr-tb" unicode-bidi="normal" text-decoration="none" transform="matrix(1 0 0 1 4192.28 5222)">Classe IV</text></g><g clip-path="url(#clip44)"><rect x="4394" y="5200" width="88" height="23" fill="#00B050" fill-opacity="0.301961"/></g><g clip-path="url(#clip45)"><text fill="#595959" fill-opacity="1" font-family="Calibri,Calibri_MSFontService,sans-serif" font-style="normal" font-variant="normal" font-weight="400" font-stretch="normal" font-size="41" text-anchor="start" direction="ltr" writing-mode="lr-tb" unicode-bidi="normal" text-decoration="none" transform="matrix(1 0 0 1 4490.97 5222)">Classe I-III</text></g><g clip-path="url(#clip46)"><rect x="4713" y="5200" width="88" height="23" fill="#FF0000" fill-opacity="0.301961"/></g><g clip-path="url(#clip47)"><text fill="#595959" fill-opacity="1" font-family="Calibri,Calibri_MSFontService,sans-serif" font-style="normal" font-variant="normal" font-weight="400" font-stretch="normal" font-size="41" text-anchor="start" direction="ltr" writing-mode="lr-tb" unicode-bidi="normal" text-decoration="none" transform="matrix(1 0 0 1 4810.1 5222)">Classe IV</text></g><g clip-path="url(#clip48)"><path d="M5011 5211 5099 5211" stroke="#000000" stroke-width="10.3125" stroke-linecap="round" stroke-linejoin="round" stroke-miterlimit="10" stroke-opacity="1" fill="none" fill-rule="evenodd"/></g><g clip-path="url(#clip49)"><path d="M5066 5211C5066 5217.07 5061.08 5222 5055 5222 5048.92 5222 5044 5217.07 5044 5211 5044 5204.92 5048.92 5200 5055 5200 5061.08 5200 5066 5204.92 5066 5211Z" stroke="#000000" stroke-width="4.58333" stroke-linecap="butt" stroke-linejoin="round" stroke-miterlimit="10" stroke-opacity="1" fill="#000000" fill-rule="nonzero" fill-opacity="1"/></g><g clip-path="url(#clip50)"><text fill="#595959" fill-opacity="1" font-family="Calibri,Calibri_MSFontService,sans-serif" font-style="normal" font-variant="normal" font-weight="400" font-stretch="normal" font-size="41" text-anchor="start" direction="ltr" writing-mode="lr-tb" unicode-bidi="normal" text-decoration="none" transform="matrix(1 0 0 1 5108.78 5222)">pH</text></g><g clip-path="url(#clip51)"><path d="M5210 5211 5298 5211" stroke="#FF00FF" stroke-width="10.3125" stroke-linecap="round" stroke-linejoin="round" stroke-miterlimit="10" stroke-opacity="1" fill="none" fill-rule="evenodd"/></g><g clip-path="url(#clip52)"><path d="M5265 5211C5265 5217.07 5260.08 5222 5254 5222 5247.92 5222 5243 5217.07 5243 5211 5243 5204.92 5247.92 5200 5254 5200 5260.08 5200 5265 5204.92 5265 5211Z" stroke="#FF00FF" stroke-width="4.58333" stroke-linecap="butt" stroke-linejoin="round" stroke-miterlimit="10" stroke-opacity="1" fill="#FF00FF" fill-rule="nonzero" fill-opacity="1"/></g><g clip-path="url(#clip53)"><text fill="#595959" fill-opacity="1" font-family="Calibri,Calibri_MSFontService,sans-serif" font-style="normal" font-variant="normal" font-weight="400" font-stretch="normal" font-size="41" text-anchor="start" direction="ltr" writing-mode="lr-tb" unicode-bidi="normal" text-decoration="none" transform="matrix(1 0 0 1 5307.69 5222)">Valor de Qi</text></g><rect x="3492.5" y="3818.5" width="2590" height="1460" stroke="#D9D9D9" stroke-width="3.4375" stroke-linecap="butt" stroke-linejoin="round" stroke-miterlimit="10" stroke-opacity="1" fill="none"/></g></svg>