<svg width="2562" height="1467" xmlns="http://www.w3.org/2000/svg" xmlns:xlink="http://www.w3.org/1999/xlink" xml:space="preserve" overflow="hidden"><defs><clipPath id="clip0"><rect x="8900" y="2277" width="2562" height="1467"/></clipPath><clipPath id="clip1"><rect x="8904" y="2278" width="2554" height="1461"/></clipPath><clipPath id="clip2"><rect x="8904" y="2278" width="2554" height="1461"/></clipPath><clipPath id="clip3"><rect x="9153" y="2448" width="2029" height="1084"/></clipPath><clipPath id="clip4"><rect x="9153" y="2448" width="2029" height="1084"/></clipPath><clipPath id="clip5"><rect x="8904" y="2278" width="2554" height="1461"/></clipPath><clipPath id="clip6"><rect x="8904" y="2278" width="2554" height="1461"/></clipPath><clipPath id="clip7"><rect x="9153" y="2448" width="2029" height="1084"/></clipPath><clipPath id="clip8"><rect x="8904" y="2278" width="2554" height="1461"/></clipPath><clipPath id="clip9"><rect x="9153" y="2448" width="2029" height="1084"/></clipPath><clipPath id="clip10"><rect x="8904" y="2278" width="2554" height="1461"/></clipPath><clipPath id="clip11"><rect x="8904" y="2278" width="2554" height="1461"/></clipPath><clipPath id="clip12"><rect x="8904" y="2278" width="2554" height="1461"/></clipPath><clipPath id="clip13"><rect x="8904" y="2278" width="2554" height="1461"/></clipPath><clipPath id="clip14"><rect x="8904" y="2278" width="2554" height="1461"/></clipPath><clipPath id="clip15"><rect x="8904" y="2278" width="2554" height="1461"/></clipPath><clipPath id="clip16"><rect x="8904" y="2278" width="2554" height="1461"/></clipPath><clipPath id="clip17"><rect x="8904" y="2278" width="2554" height="1461"/></clipPath><clipPath id="clip18"><rect x="8904" y="2278" width="2554" height="1461"/></clipPath><clipPath id="clip19"><rect x="8904" y="2278" width="2554" height="1461"/></clipPath><clipPath id="clip20"><rect x="8904" y="2278" width="2554" height="1461"/></clipPath><clipPath id="clip21"><rect x="8904" y="2278" width="2554" height="1461"/></clipPath><clipPath id="clip22"><rect x="8904" y="2278" width="2554" height="1461"/></clipPath><clipPath id="clip23"><rect x="8904" y="2278" width="2554" height="1461"/></clipPath><clipPath id="clip24"><rect x="8904" y="2278" width="2554" height="1461"/></clipPath><clipPath id="clip25"><rect x="8904" y="2278" width="2554" height="1461"/></clipPath><clipPath id="clip26"><rect x="8904" y="2278" width="2554" height="1461"/></clipPath><clipPath id="clip27"><rect x="8904" y="2278" width="2554" height="1461"/></clipPath><clipPath id="clip28"><rect x="8904" y="2278" width="2554" height="1461"/></clipPath><clipPath id="clip29"><rect x="8904" y="2278" width="2554" height="1461"/></clipPath><clipPath id="clip30"><rect x="8904" y="2278" width="2554" height="1461"/></clipPath><clipPath id="clip31"><rect x="8904" y="2278" width="2554" height="1461"/></clipPath><clipPath id="clip32"><rect x="8904" y="2278" width="2554" height="1461"/></clipPath><clipPath id="clip33"><rect x="8904" y="2278" width="2554" height="1461"/></clipPath><clipPath id="clip34"><rect x="8904" y="2278" width="2554" height="1461"/></clipPath><clipPath id="clip35"><rect x="8904" y="2278" width="2554" height="1461"/></clipPath><clipPath id="clip36"><rect x="8904" y="2278" width="2554" height="1461"/></clipPath><clipPath id="clip37"><rect x="8904" y="2278" width="2554" height="1461"/></clipPath><clipPath id="clip38"><rect x="8904" y="2278" width="2554" height="1461"/></clipPath><clipPath id="clip39"><rect x="8904" y="2278" width="2554" height="1461"/></clipPath><clipPath id="clip40"><rect x="8904" y="2278" width="2554" height="1461"/></clipPath><clipPath id="clip41"><rect x="8904" y="2278" width="2554" height="1461"/></clipPath><clipPath id="clip42"><rect x="8904" y="2278" width="2554" height="1461"/></clipPath><clipPath id="clip43"><rect x="8904" y="2278" width="2554" height="1461"/></clipPath><clipPath id="clip44"><rect x="8904" y="2278" width="2554" height="1461"/></clipPath><clipPath id="clip45"><rect x="8904" y="2278" width="2554" height="1461"/></clipPath><clipPath id="clip46"><rect x="8904" y="2278" width="2554" height="1461"/></clipPath><clipPath id="clip47"><rect x="8904" y="2278" width="2554" height="1461"/></clipPath><clipPath id="clip48"><rect x="8904" y="2278" width="2554" height="1461"/></clipPath><clipPath id="clip49"><rect x="8904" y="2278" width="2554" height="1461"/></clipPath><clipPath id="clip50"><rect x="8904" y="2278" width="2554" height="1461"/></clipPath></defs><g clip-path="url(#clip0)" transform="translate(-8900 -2277)"><rect x="8905" y="2279" width="2554" height="1461" fill="#FFFFFF" fill-opacity="1"/><g clip-path="url(#clip1)"><path d="M9153.5 2948.5 11178.5 2948.5" stroke="#D9D9D9" stroke-width="3.4375" stroke-linecap="butt" stroke-linejoin="round" stroke-miterlimit="10" stroke-opacity="1" fill="none" fill-rule="nonzero"/></g><g clip-path="url(#clip2)"><path d="M9153.5 2448.5 9153.5 3528.5M9308.81 2448.5 9308.81 3528.5M9464.81 2448.5 9464.81 3528.5M9620.82 2448.5 9620.82 3528.5M9776.82 2448.5 9776.82 3528.5M9932.83 2448.5 9932.83 3528.5M10087.8 2448.5 10087.8 3528.5M10243.8 2448.5 10243.8 3528.5M10399.8 2448.5 10399.8 3528.5M10555.8 2448.5 10555.8 3528.5M10710.9 2448.5 10710.9 3528.5M10866.9 2448.5 10866.9 3528.5M11022.9 2448.5 11022.9 3528.5M11178.5 2448.5 11178.5 3528.5" stroke="#D9D9D9" stroke-width="3.4375" stroke-linecap="butt" stroke-linejoin="round" stroke-miterlimit="10" stroke-opacity="1" fill="none" fill-rule="nonzero"/></g><g clip-path="url(#clip3)"><path d="M9154 2948.1 9309.31 2948.1 9309.31 3529 9154 3529ZM9309.31 2948.1 9465.31 2948.1 9465.31 3529 9309.31 3529ZM9465.31 2948.1 9621.32 2948.1 9621.32 3529 9465.31 3529ZM9621.32 2948.1 9776.32 2948.1 9776.32 3529 9621.32 3529ZM9776.32 2948.1 9932.33 2948.1 9932.33 3529 9776.32 3529ZM9932.33 2948.1 10088.3 2948.1 10088.3 3529 9932.33 3529ZM10088.3 2948.1 10244.3 2948.1 10244.3 3529 10088.3 3529ZM10244.3 2948.1 10399.3 2948.1 10399.3 3529 10244.3 3529ZM10399.3 2948.1 10555.3 2948.1 10555.3 3529 10399.3 3529ZM10555.3 2948.1 10711.4 2948.1 10711.4 3529 10555.3 3529ZM10711.4 2948.1 10867.4 2948.1 10867.4 3529 10711.4 3529ZM10867.4 2948.1 11022.4 2948.1 11022.4 3529 10867.4 3529ZM11022.4 2948.1 11179 2948.1 11179 3529 11022.4 3529Z" fill="#00B050" fill-rule="nonzero" fill-opacity="0.301961"/></g><g clip-path="url(#clip4)"><path d="M9154 2449 9309.31 2449 9309.31 2948.1 9154 2948.1ZM9309.31 2449 9465.31 2449 9465.31 2948.1 9309.31 2948.1ZM9465.31 2449 9621.32 2449 9621.32 2948.1 9465.31 2948.1ZM9621.32 2449 9776.32 2449 9776.32 2948.1 9621.32 2948.1ZM9776.32 2449 9932.33 2449 9932.33 2948.1 9776.32 2948.1ZM9932.33 2449 10088.3 2449 10088.3 2948.1 9932.33 2948.1ZM10088.3 2449 10244.3 2449 10244.3 2948.1 10088.3 2948.1ZM10244.3 2449 10399.3 2449 10399.3 2948.1 10244.3 2948.1ZM10399.3 2449 10555.3 2449 10555.3 2948.1 10399.3 2948.1ZM10555.3 2449 10711.4 2449 10711.4 2948.1 10555.3 2948.1ZM10711.4 2449 10867.4 2449 10867.4 2948.1 10711.4 2948.1ZM10867.4 2449 11022.4 2449 11022.4 2948.1 10867.4 2948.1ZM11022.4 2449 11179 2449 11179 2948.1 11022.4 2948.1Z" fill="#FF0000" fill-rule="nonzero" fill-opacity="0.301961"/></g><g clip-path="url(#clip5)"><path d="M0 0 0.000360892 1080" stroke="#D9D9D9" stroke-width="3.4375" stroke-linecap="butt" stroke-linejoin="round" stroke-miterlimit="10" stroke-opacity="0" fill="none" fill-rule="evenodd" transform="matrix(1 0 0 -1 9153.5 3528.5)"/></g><g clip-path="url(#clip6)"><path d="M9153.5 3528.5 11178.5 3528.5" stroke="#D9D9D9" stroke-width="3.4375" stroke-linecap="butt" stroke-linejoin="round" stroke-miterlimit="10" stroke-opacity="1" fill="none" fill-rule="evenodd"/></g><g clip-path="url(#clip7)"><path d="M9231 3232 9387.31 3193.1 9543.31 3034.1 9698.32 2883 9854.32 3015.1 10010.3 3118.1 10166.3 2968.1 10321.3 3187.1 10477.3 3107.1 10633.3 3105.1 10789.4 3065.1 10945.4 3001.1 11101 3128.1" stroke="#000000" stroke-width="10.3125" stroke-linecap="round" stroke-linejoin="round" stroke-miterlimit="10" stroke-opacity="1" fill="none" fill-rule="nonzero"/></g><g clip-path="url(#clip8)"><path d="M9242.15 3231.18C9242.15 3237.26 9237.23 3242.18 9231.15 3242.18 9225.08 3242.18 9220.15 3237.26 9220.15 3231.18 9220.15 3225.11 9225.08 3220.18 9231.15 3220.18 9237.23 3220.18 9242.15 3225.11 9242.15 3231.18Z" stroke="#000000" stroke-width="4.58333" stroke-linecap="butt" stroke-linejoin="round" stroke-miterlimit="10" stroke-opacity="1" fill="#000000" fill-rule="nonzero" fill-opacity="1"/><path d="M9398.15 3192.18C9398.15 3198.26 9393.23 3203.18 9387.15 3203.18 9381.08 3203.18 9376.15 3198.26 9376.15 3192.18 9376.15 3186.11 9381.08 3181.18 9387.15 3181.18 9393.23 3181.18 9398.15 3186.11 9398.15 3192.18Z" stroke="#000000" stroke-width="4.58333" stroke-linecap="butt" stroke-linejoin="round" stroke-miterlimit="10" stroke-opacity="1" fill="#000000" fill-rule="nonzero" fill-opacity="1"/><path d="M9553.15 3034.18C9553.15 3040.26 9548.23 3045.18 9542.15 3045.18 9536.08 3045.18 9531.15 3040.26 9531.15 3034.18 9531.15 3028.11 9536.08 3023.18 9542.15 3023.18 9548.23 3023.18 9553.15 3028.11 9553.15 3034.18Z" stroke="#000000" stroke-width="4.58333" stroke-linecap="butt" stroke-linejoin="round" stroke-miterlimit="10" stroke-opacity="1" fill="#000000" fill-rule="nonzero" fill-opacity="1"/><path d="M9709.15 2882.18C9709.15 2888.26 9704.23 2893.18 9698.15 2893.18 9692.08 2893.18 9687.15 2888.26 9687.15 2882.18 9687.15 2876.11 9692.08 2871.18 9698.15 2871.18 9704.23 2871.18 9709.15 2876.11 9709.15 2882.18Z" stroke="#000000" stroke-width="4.58333" stroke-linecap="butt" stroke-linejoin="round" stroke-miterlimit="10" stroke-opacity="1" fill="#000000" fill-rule="nonzero" fill-opacity="1"/><path d="M9865.15 3014.18C9865.15 3020.26 9860.23 3025.18 9854.15 3025.18 9848.08 3025.18 9843.15 3020.26 9843.15 3014.18 9843.15 3008.11 9848.08 3003.18 9854.15 3003.18 9860.23 3003.18 9865.15 3008.11 9865.15 3014.18Z" stroke="#000000" stroke-width="4.58333" stroke-linecap="butt" stroke-linejoin="round" stroke-miterlimit="10" stroke-opacity="1" fill="#000000" fill-rule="nonzero" fill-opacity="1"/><path d="M10021.2 3118.18C10021.2 3124.26 10016.2 3129.18 10010.2 3129.18 10004.1 3129.18 9999.15 3124.26 9999.15 3118.18 9999.15 3112.11 10004.1 3107.18 10010.2 3107.18 10016.2 3107.18 10021.2 3112.11 10021.2 3118.18Z" stroke="#000000" stroke-width="4.58333" stroke-linecap="butt" stroke-linejoin="round" stroke-miterlimit="10" stroke-opacity="1" fill="#000000" fill-rule="nonzero" fill-opacity="1"/><path d="M10177.2 2967.18C10177.2 2973.26 10172.2 2978.18 10166.2 2978.18 10160.1 2978.18 10155.2 2973.26 10155.2 2967.18 10155.2 2961.11 10160.1 2956.18 10166.2 2956.18 10172.2 2956.18 10177.2 2961.11 10177.2 2967.18Z" stroke="#000000" stroke-width="4.58333" stroke-linecap="butt" stroke-linejoin="round" stroke-miterlimit="10" stroke-opacity="1" fill="#000000" fill-rule="nonzero" fill-opacity="1"/><path d="M10332.2 3187.18C10332.2 3193.26 10327.2 3198.18 10321.2 3198.18 10315.1 3198.18 10310.2 3193.26 10310.2 3187.18 10310.2 3181.11 10315.1 3176.18 10321.2 3176.18 10327.2 3176.18 10332.2 3181.11 10332.2 3187.18Z" stroke="#000000" stroke-width="4.58333" stroke-linecap="butt" stroke-linejoin="round" stroke-miterlimit="10" stroke-opacity="1" fill="#000000" fill-rule="nonzero" fill-opacity="1"/><path d="M10488.2 3107.18C10488.2 3113.26 10483.2 3118.18 10477.2 3118.18 10471.1 3118.18 10466.2 3113.26 10466.2 3107.18 10466.2 3101.11 10471.1 3096.18 10477.2 3096.18 10483.2 3096.18 10488.2 3101.11 10488.2 3107.18Z" stroke="#000000" stroke-width="4.58333" stroke-linecap="butt" stroke-linejoin="round" stroke-miterlimit="10" stroke-opacity="1" fill="#000000" fill-rule="nonzero" fill-opacity="1"/><path d="M10644.2 3104.18C10644.2 3110.26 10639.2 3115.18 10633.2 3115.18 10627.1 3115.18 10622.2 3110.26 10622.2 3104.18 10622.2 3098.11 10627.1 3093.18 10633.2 3093.18 10639.2 3093.18 10644.2 3098.11 10644.2 3104.18Z" stroke="#000000" stroke-width="4.58333" stroke-linecap="butt" stroke-linejoin="round" stroke-miterlimit="10" stroke-opacity="1" fill="#000000" fill-rule="nonzero" fill-opacity="1"/><path d="M10800.2 3064.18C10800.2 3070.26 10795.2 3075.18 10789.2 3075.18 10783.1 3075.18 10778.2 3070.26 10778.2 3064.18 10778.2 3058.11 10783.1 3053.18 10789.2 3053.18 10795.2 3053.18 10800.2 3058.11 10800.2 3064.18Z" stroke="#000000" stroke-width="4.58333" stroke-linecap="butt" stroke-linejoin="round" stroke-miterlimit="10" stroke-opacity="1" fill="#000000" fill-rule="nonzero" fill-opacity="1"/><path d="M10955.2 3001.18C10955.2 3007.26 10950.2 3012.18 10944.2 3012.18 10938.1 3012.18 10933.2 3007.26 10933.2 3001.18 10933.2 2995.11 10938.1 2990.18 10944.2 2990.18 10950.2 2990.18 10955.2 2995.11 10955.2 3001.18Z" stroke="#000000" stroke-width="4.58333" stroke-linecap="butt" stroke-linejoin="round" stroke-miterlimit="10" stroke-opacity="1" fill="#000000" fill-rule="nonzero" fill-opacity="1"/><path d="M11111.2 3127.18C11111.2 3133.26 11106.2 3138.18 11100.2 3138.18 11094.1 3138.18 11089.2 3133.26 11089.2 3127.18 11089.2 3121.11 11094.1 3116.18 11100.2 3116.18 11106.2 3116.18 11111.2 3121.11 11111.2 3127.18Z" stroke="#000000" stroke-width="4.58333" stroke-linecap="butt" stroke-linejoin="round" stroke-miterlimit="10" stroke-opacity="1" fill="#000000" fill-rule="nonzero" fill-opacity="1"/></g><g clip-path="url(#clip9)"><path d="M9231 2773 9387.31 2783.09 9543.31 2999.1 9698.32 3183 9854.32 3043.1 10010.3 2881.09 10166.3 3151.1 10321.3 2794.09 10477.3 2902.1 10633.3 2902.1 10789.4 2978.1 10945.4 3053.1 11101 2881.09" stroke="#FF00FF" stroke-width="10.3125" stroke-linecap="round" stroke-linejoin="round" stroke-miterlimit="10" stroke-opacity="1" fill="none" fill-rule="nonzero"/></g><g clip-path="url(#clip10)"><path d="M9242.15 2772.18C9242.15 2778.26 9237.23 2783.18 9231.15 2783.18 9225.08 2783.18 9220.15 2778.26 9220.15 2772.18 9220.15 2766.11 9225.08 2761.18 9231.15 2761.18 9237.23 2761.18 9242.15 2766.11 9242.15 2772.18Z" stroke="#FF00FF" stroke-width="4.58333" stroke-linecap="butt" stroke-linejoin="round" stroke-miterlimit="10" stroke-opacity="1" fill="#FF00FF" fill-rule="nonzero" fill-opacity="1"/><path d="M9398.15 2783.18C9398.15 2789.26 9393.23 2794.18 9387.15 2794.18 9381.08 2794.18 9376.15 2789.26 9376.15 2783.18 9376.15 2777.11 9381.08 2772.18 9387.15 2772.18 9393.23 2772.18 9398.15 2777.11 9398.15 2783.18Z" stroke="#FF00FF" stroke-width="4.58333" stroke-linecap="butt" stroke-linejoin="round" stroke-miterlimit="10" stroke-opacity="1" fill="#FF00FF" fill-rule="nonzero" fill-opacity="1"/><path d="M9553.15 2999.18C9553.15 3005.26 9548.23 3010.18 9542.15 3010.18 9536.08 3010.18 9531.15 3005.26 9531.15 2999.18 9531.15 2993.11 9536.08 2988.18 9542.15 2988.18 9548.23 2988.18 9553.15 2993.11 9553.15 2999.18Z" stroke="#FF00FF" stroke-width="4.58333" stroke-linecap="butt" stroke-linejoin="round" stroke-miterlimit="10" stroke-opacity="1" fill="#FF00FF" fill-rule="nonzero" fill-opacity="1"/><path d="M9709.15 3183.18C9709.15 3189.26 9704.23 3194.18 9698.15 3194.18 9692.08 3194.18 9687.15 3189.26 9687.15 3183.18 9687.15 3177.11 9692.08 3172.18 9698.15 3172.18 9704.23 3172.18 9709.15 3177.11 9709.15 3183.18Z" stroke="#FF00FF" stroke-width="4.58333" stroke-linecap="butt" stroke-linejoin="round" stroke-miterlimit="10" stroke-opacity="1" fill="#FF00FF" fill-rule="nonzero" fill-opacity="1"/><path d="M9865.15 3042.18C9865.15 3048.26 9860.23 3053.18 9854.15 3053.18 9848.08 3053.18 9843.15 3048.26 9843.15 3042.18 9843.15 3036.11 9848.08 3031.18 9854.15 3031.18 9860.23 3031.18 9865.15 3036.11 9865.15 3042.18Z" stroke="#FF00FF" stroke-width="4.58333" stroke-linecap="butt" stroke-linejoin="round" stroke-miterlimit="10" stroke-opacity="1" fill="#FF00FF" fill-rule="nonzero" fill-opacity="1"/><path d="M10021.2 2880.18C10021.2 2886.26 10016.2 2891.18 10010.2 2891.18 10004.1 2891.18 9999.15 2886.26 9999.15 2880.18 9999.15 2874.11 10004.1 2869.18 10010.2 2869.18 10016.2 2869.18 10021.2 2874.11 10021.2 2880.18Z" stroke="#FF00FF" stroke-width="4.58333" stroke-linecap="butt" stroke-linejoin="round" stroke-miterlimit="10" stroke-opacity="1" fill="#FF00FF" fill-rule="nonzero" fill-opacity="1"/><path d="M10177.2 3150.18C10177.2 3156.26 10172.2 3161.18 10166.2 3161.18 10160.1 3161.18 10155.2 3156.26 10155.2 3150.18 10155.2 3144.11 10160.1 3139.18 10166.2 3139.18 10172.2 3139.18 10177.2 3144.11 10177.2 3150.18Z" stroke="#FF00FF" stroke-width="4.58333" stroke-linecap="butt" stroke-linejoin="round" stroke-miterlimit="10" stroke-opacity="1" fill="#FF00FF" fill-rule="nonzero" fill-opacity="1"/><path d="M10332.2 2794.18C10332.2 2800.26 10327.2 2805.18 10321.2 2805.18 10315.1 2805.18 10310.2 2800.26 10310.2 2794.18 10310.2 2788.11 10315.1 2783.18 10321.2 2783.18 10327.2 2783.18 10332.2 2788.11 10332.2 2794.18Z" stroke="#FF00FF" stroke-width="4.58333" stroke-linecap="butt" stroke-linejoin="round" stroke-miterlimit="10" stroke-opacity="1" fill="#FF00FF" fill-rule="nonzero" fill-opacity="1"/><path d="M10488.2 2902.18C10488.2 2908.26 10483.2 2913.18 10477.2 2913.18 10471.1 2913.18 10466.2 2908.26 10466.2 2902.18 10466.2 2896.11 10471.1 2891.18 10477.2 2891.18 10483.2 2891.18 10488.2 2896.11 10488.2 2902.18Z" stroke="#FF00FF" stroke-width="4.58333" stroke-linecap="butt" stroke-linejoin="round" stroke-miterlimit="10" stroke-opacity="1" fill="#FF00FF" fill-rule="nonzero" fill-opacity="1"/><path d="M10644.2 2902.18C10644.2 2908.26 10639.2 2913.18 10633.2 2913.18 10627.1 2913.18 10622.2 2908.26 10622.2 2902.18 10622.2 2896.11 10627.1 2891.18 10633.2 2891.18 10639.2 2891.18 10644.2 2896.11 10644.2 2902.18Z" stroke="#FF00FF" stroke-width="4.58333" stroke-linecap="butt" stroke-linejoin="round" stroke-miterlimit="10" stroke-opacity="1" fill="#FF00FF" fill-rule="nonzero" fill-opacity="1"/><path d="M10800.2 2977.18C10800.2 2983.26 10795.2 2988.18 10789.2 2988.18 10783.1 2988.18 10778.2 2983.26 10778.2 2977.18 10778.2 2971.11 10783.1 2966.18 10789.2 2966.18 10795.2 2966.18 10800.2 2971.11 10800.2 2977.18Z" stroke="#FF00FF" stroke-width="4.58333" stroke-linecap="butt" stroke-linejoin="round" stroke-miterlimit="10" stroke-opacity="1" fill="#FF00FF" fill-rule="nonzero" fill-opacity="1"/><path d="M10955.2 3053.18C10955.2 3059.26 10950.2 3064.18 10944.2 3064.18 10938.1 3064.18 10933.2 3059.26 10933.2 3053.18 10933.2 3047.11 10938.1 3042.18 10944.2 3042.18 10950.2 3042.18 10955.2 3047.11 10955.2 3053.18Z" stroke="#FF00FF" stroke-width="4.58333" stroke-linecap="butt" stroke-linejoin="round" stroke-miterlimit="10" stroke-opacity="1" fill="#FF00FF" fill-rule="nonzero" fill-opacity="1"/><path d="M11111.2 2880.18C11111.2 2886.26 11106.2 2891.18 11100.2 2891.18 11094.1 2891.18 11089.2 2886.26 11089.2 2880.18 11089.2 2874.11 11094.1 2869.18 11100.2 2869.18 11106.2 2869.18 11111.2 2874.11 11111.2 2880.18Z" stroke="#FF00FF" stroke-width="4.58333" stroke-linecap="butt" stroke-linejoin="round" stroke-miterlimit="10" stroke-opacity="1" fill="#FF00FF" fill-rule="nonzero" fill-opacity="1"/></g><g clip-path="url(#clip11)"><text fill="#595959" fill-opacity="1" font-family="Calibri,Calibri_MSFontService,sans-serif" font-style="normal" font-variant="normal" font-weight="400" font-stretch="normal" font-size="41" text-anchor="start" direction="ltr" writing-mode="lr-tb" unicode-bidi="normal" text-decoration="none" transform="matrix(1 0 0 1 11216.9 3539)">0,00</text></g><g clip-path="url(#clip12)"><text fill="#595959" fill-opacity="1" font-family="Calibri,Calibri_MSFontService,sans-serif" font-style="normal" font-variant="normal" font-weight="400" font-stretch="normal" font-size="41" text-anchor="start" direction="ltr" writing-mode="lr-tb" unicode-bidi="normal" text-decoration="none" transform="matrix(1 0 0 1 11216.9 3431)">10,00</text></g><g clip-path="url(#clip13)"><text fill="#595959" fill-opacity="1" font-family="Calibri,Calibri_MSFontService,sans-serif" font-style="normal" font-variant="normal" font-weight="400" font-stretch="normal" font-size="41" text-anchor="start" direction="ltr" writing-mode="lr-tb" unicode-bidi="normal" text-decoration="none" transform="matrix(1 0 0 1 11216.9 3323)">20,00</text></g><g clip-path="url(#clip14)"><text fill="#595959" fill-opacity="1" font-family="Calibri,Calibri_MSFontService,sans-serif" font-style="normal" font-variant="normal" font-weight="400" font-stretch="normal" font-size="41" text-anchor="start" direction="ltr" writing-mode="lr-tb" unicode-bidi="normal" text-decoration="none" transform="matrix(1 0 0 1 11216.9 3215)">30,00</text></g><g clip-path="url(#clip15)"><text fill="#595959" fill-opacity="1" font-family="Calibri,Calibri_MSFontService,sans-serif" font-style="normal" font-variant="normal" font-weight="400" font-stretch="normal" font-size="41" text-anchor="start" direction="ltr" writing-mode="lr-tb" unicode-bidi="normal" text-decoration="none" transform="matrix(1 0 0 1 11216.9 3107)">40,00</text></g><g clip-path="url(#clip16)"><text fill="#595959" fill-opacity="1" font-family="Calibri,Calibri_MSFontService,sans-serif" font-style="normal" font-variant="normal" font-weight="400" font-stretch="normal" font-size="41" text-anchor="start" direction="ltr" writing-mode="lr-tb" unicode-bidi="normal" text-decoration="none" transform="matrix(1 0 0 1 11216.9 2999)">50,00</text></g><g clip-path="url(#clip17)"><text fill="#595959" fill-opacity="1" font-family="Calibri,Calibri_MSFontService,sans-serif" font-style="normal" font-variant="normal" font-weight="400" font-stretch="normal" font-size="41" text-anchor="start" direction="ltr" writing-mode="lr-tb" unicode-bidi="normal" text-decoration="none" transform="matrix(1 0 0 1 11216.9 2891)">60,00</text></g><g clip-path="url(#clip18)"><text fill="#595959" fill-opacity="1" font-family="Calibri,Calibri_MSFontService,sans-serif" font-style="normal" font-variant="normal" font-weight="400" font-stretch="normal" font-size="41" text-anchor="start" direction="ltr" writing-mode="lr-tb" unicode-bidi="normal" text-decoration="none" transform="matrix(1 0 0 1 11216.9 2783)">70,00</text></g><g clip-path="url(#clip19)"><text fill="#595959" fill-opacity="1" font-family="Calibri,Calibri_MSFontService,sans-serif" font-style="normal" font-variant="normal" font-weight="400" font-stretch="normal" font-size="41" text-anchor="start" direction="ltr" writing-mode="lr-tb" unicode-bidi="normal" text-decoration="none" transform="matrix(1 0 0 1 11216.9 2675)">80,00</text></g><g clip-path="url(#clip20)"><text fill="#595959" fill-opacity="1" font-family="Calibri,Calibri_MSFontService,sans-serif" font-style="normal" font-variant="normal" font-weight="400" font-stretch="normal" font-size="41" text-anchor="start" direction="ltr" writing-mode="lr-tb" unicode-bidi="normal" text-decoration="none" transform="matrix(1 0 0 1 11216.9 2567)">90,00</text></g><g clip-path="url(#clip21)"><text fill="#595959" fill-opacity="1" font-family="Calibri,Calibri_MSFontService,sans-serif" font-style="normal" font-variant="normal" font-weight="400" font-stretch="normal" font-size="41" text-anchor="start" direction="ltr" writing-mode="lr-tb" unicode-bidi="normal" text-decoration="none" transform="matrix(1 0 0 1 11216.9 2459)">100,00</text></g><g clip-path="url(#clip22)"><text fill="#595959" fill-opacity="1" font-family="Calibri,Calibri_MSFontService,sans-serif" font-style="normal" font-variant="normal" font-weight="400" font-stretch="normal" font-size="41" text-anchor="start" direction="ltr" writing-mode="lr-tb" unicode-bidi="normal" text-decoration="none" transform="matrix(1 0 0 1 9052.53 3539)">100</text></g><g clip-path="url(#clip23)"><text fill="#595959" fill-opacity="1" font-family="Calibri,Calibri_MSFontService,sans-serif" font-style="normal" font-variant="normal" font-weight="400" font-stretch="normal" font-size="41" text-anchor="start" direction="ltr" writing-mode="lr-tb" unicode-bidi="normal" text-decoration="none" transform="matrix(1 0 0 1 9052.53 2959)">500</text></g><g clip-path="url(#clip24)"><text fill="#595959" fill-opacity="1" font-family="Calibri,Calibri_MSFontService,sans-serif" font-style="normal" font-variant="normal" font-weight="400" font-stretch="normal" font-size="41" text-anchor="start" direction="ltr" writing-mode="lr-tb" unicode-bidi="normal" text-decoration="none" transform="matrix(1 0 0 1 9176.88 3594)">Jan-18</text></g><g clip-path="url(#clip25)"><text fill="#595959" fill-opacity="1" font-family="Calibri,Calibri_MSFontService,sans-serif" font-style="normal" font-variant="normal" font-weight="400" font-stretch="normal" font-size="41" text-anchor="start" direction="ltr" writing-mode="lr-tb" unicode-bidi="normal" text-decoration="none" transform="matrix(1 0 0 1 9325.25 3594)">Mar-18</text></g><g clip-path="url(#clip26)"><text fill="#595959" fill-opacity="1" font-family="Calibri,Calibri_MSFontService,sans-serif" font-style="normal" font-variant="normal" font-weight="400" font-stretch="normal" font-size="41" text-anchor="start" direction="ltr" writing-mode="lr-tb" unicode-bidi="normal" text-decoration="none" transform="matrix(1 0 0 1 9478.88 3594)">May-18</text></g><g clip-path="url(#clip27)"><text fill="#595959" fill-opacity="1" font-family="Calibri,Calibri_MSFontService,sans-serif" font-style="normal" font-variant="normal" font-weight="400" font-stretch="normal" font-size="41" text-anchor="start" direction="ltr" writing-mode="lr-tb" unicode-bidi="normal" text-decoration="none" transform="matrix(1 0 0 1 9649.36 3594)">Jul-18</text></g><g clip-path="url(#clip28)"><text fill="#595959" fill-opacity="1" font-family="Calibri,Calibri_MSFontService,sans-serif" font-style="normal" font-variant="normal" font-weight="400" font-stretch="normal" font-size="41" text-anchor="start" direction="ltr" writing-mode="lr-tb" unicode-bidi="normal" text-decoration="none" transform="matrix(1 0 0 1 9796.71 3594)">Sep-18</text></g><g clip-path="url(#clip29)"><text fill="#595959" fill-opacity="1" font-family="Calibri,Calibri_MSFontService,sans-serif" font-style="normal" font-variant="normal" font-weight="400" font-stretch="normal" font-size="41" text-anchor="start" direction="ltr" writing-mode="lr-tb" unicode-bidi="normal" text-decoration="none" transform="matrix(1 0 0 1 9949.56 3594)">Nov-18</text></g><g clip-path="url(#clip30)"><text fill="#595959" fill-opacity="1" font-family="Calibri,Calibri_MSFontService,sans-serif" font-style="normal" font-variant="normal" font-weight="400" font-stretch="normal" font-size="41" text-anchor="start" direction="ltr" writing-mode="lr-tb" unicode-bidi="normal" text-decoration="none" transform="matrix(1 0 0 1 10111.5 3594)">Jan-19</text></g><g clip-path="url(#clip31)"><text fill="#595959" fill-opacity="1" font-family="Calibri,Calibri_MSFontService,sans-serif" font-style="normal" font-variant="normal" font-weight="400" font-stretch="normal" font-size="41" text-anchor="start" direction="ltr" writing-mode="lr-tb" unicode-bidi="normal" text-decoration="none" transform="matrix(1 0 0 1 10259.9 3594)">Mar-19</text></g><g clip-path="url(#clip32)"><text fill="#595959" fill-opacity="1" font-family="Calibri,Calibri_MSFontService,sans-serif" font-style="normal" font-variant="normal" font-weight="400" font-stretch="normal" font-size="41" text-anchor="start" direction="ltr" writing-mode="lr-tb" unicode-bidi="normal" text-decoration="none" transform="matrix(1 0 0 1 10413.5 3594)">May-19</text></g><g clip-path="url(#clip33)"><text fill="#595959" fill-opacity="1" font-family="Calibri,Calibri_MSFontService,sans-serif" font-style="normal" font-variant="normal" font-weight="400" font-stretch="normal" font-size="41" text-anchor="start" direction="ltr" writing-mode="lr-tb" unicode-bidi="normal" text-decoration="none" transform="matrix(1 0 0 1 10584 3594)">Jul-19</text></g><g clip-path="url(#clip34)"><text fill="#595959" fill-opacity="1" font-family="Calibri,Calibri_MSFontService,sans-serif" font-style="normal" font-variant="normal" font-weight="400" font-stretch="normal" font-size="41" text-anchor="start" direction="ltr" writing-mode="lr-tb" unicode-bidi="normal" text-decoration="none" transform="matrix(1 0 0 1 10731.4 3594)">Sep-19</text></g><g clip-path="url(#clip35)"><text fill="#595959" fill-opacity="1" font-family="Calibri,Calibri_MSFontService,sans-serif" font-style="normal" font-variant="normal" font-weight="400" font-stretch="normal" font-size="41" text-anchor="start" direction="ltr" writing-mode="lr-tb" unicode-bidi="normal" text-decoration="none" transform="matrix(1 0 0 1 10884.2 3594)">Nov-19</text></g><g clip-path="url(#clip36)"><text fill="#595959" fill-opacity="1" font-family="Calibri,Calibri_MSFontService,sans-serif" font-style="normal" font-variant="normal" font-weight="400" font-stretch="normal" font-size="41" text-anchor="start" direction="ltr" writing-mode="lr-tb" unicode-bidi="normal" text-decoration="none" transform="matrix(1 0 0 1 11042.9 3594)">Feb-20</text></g><g clip-path="url(#clip37)"><text fill="#595959" fill-opacity="1" font-family="Calibri,Calibri_MSFontService,sans-serif" font-style="normal" font-variant="normal" font-weight="400" font-stretch="normal" font-size="46" text-anchor="start" direction="ltr" writing-mode="lr-tb" unicode-bidi="normal" text-decoration="none" transform="matrix(6.12323e-17 -1 1 6.12323e-17 11389.4 3093)">Valor de Qi</text></g><g clip-path="url(#clip38)"><text fill="#595959" fill-opacity="1" font-family="Calibri,Calibri_MSFontService,sans-serif" font-style="normal" font-variant="normal" font-weight="700" font-stretch="normal" font-size="46" text-anchor="start" direction="ltr" writing-mode="lr-tb" unicode-bidi="normal" text-decoration="none" transform="matrix(6.12323e-17 -1 1 6.12323e-17 9005.94 3125)">Sólidos (mg/L)</text></g><g clip-path="url(#clip39)"><text fill="#595959" fill-opacity="1" font-family="Calibri,Calibri_MSFontService,sans-serif" font-style="normal" font-variant="normal" font-weight="700" font-stretch="normal" font-size="64" text-anchor="start" direction="ltr" writing-mode="lr-tb" unicode-bidi="normal" text-decoration="none" transform="matrix(1 0 0 1 9826.76 2374)">Sólidos (mg/L)</text></g><g clip-path="url(#clip40)"><text fill="#595959" fill-opacity="1" font-family="Calibri,Calibri_MSFontService,sans-serif" font-style="normal" font-variant="normal" font-weight="700" font-stretch="normal" font-size="64" text-anchor="start" direction="ltr" writing-mode="lr-tb" unicode-bidi="normal" text-decoration="none" transform="matrix(1 0 0 1 10312.9 2374)">x Tempo</text></g><g clip-path="url(#clip41)"><rect x="9535" y="3662" width="88" height="23" fill="#00B050" fill-opacity="0.301961"/></g><g clip-path="url(#clip42)"><text fill="#595959" fill-opacity="1" font-family="Calibri,Calibri_MSFontService,sans-serif" font-style="normal" font-variant="normal" font-weight="400" font-stretch="normal" font-size="41" text-anchor="start" direction="ltr" writing-mode="lr-tb" unicode-bidi="normal" text-decoration="none" transform="matrix(1 0 0 1 9632.14 3684)">Classe I-III</text></g><g clip-path="url(#clip43)"><rect x="9860" y="3662" width="88" height="23" fill="#FF0000" fill-opacity="0.301961"/></g><g clip-path="url(#clip44)"><text fill="#595959" fill-opacity="1" font-family="Calibri,Calibri_MSFontService,sans-serif" font-style="normal" font-variant="normal" font-weight="400" font-stretch="normal" font-size="41" text-anchor="start" direction="ltr" writing-mode="lr-tb" unicode-bidi="normal" text-decoration="none" transform="matrix(1 0 0 1 9956.96 3684)">Classe IV</text></g><g clip-path="url(#clip45)"><path d="M10164 3674 10252 3674" stroke="#000000" stroke-width="10.3125" stroke-linecap="round" stroke-linejoin="round" stroke-miterlimit="10" stroke-opacity="1" fill="none" fill-rule="evenodd"/></g><g clip-path="url(#clip46)"><path d="M10219 3673C10219 3679.07 10214.3 3684 10208.5 3684 10202.7 3684 10198 3679.07 10198 3673 10198 3666.92 10202.7 3662 10208.5 3662 10214.3 3662 10219 3666.92 10219 3673Z" stroke="#000000" stroke-width="4.58333" stroke-linecap="butt" stroke-linejoin="round" stroke-miterlimit="10" stroke-opacity="1" fill="#000000" fill-rule="nonzero" fill-opacity="1"/></g><g clip-path="url(#clip47)"><text fill="#595959" fill-opacity="1" font-family="Calibri,Calibri_MSFontService,sans-serif" font-style="normal" font-variant="normal" font-weight="400" font-stretch="normal" font-size="41" text-anchor="start" direction="ltr" writing-mode="lr-tb" unicode-bidi="normal" text-decoration="none" transform="matrix(1 0 0 1 10261.3 3684)">Sólidos (mg/L)</text></g><g clip-path="url(#clip48)"><path d="M10560 3674 10648 3674" stroke="#FF00FF" stroke-width="10.3125" stroke-linecap="round" stroke-linejoin="round" stroke-miterlimit="10" stroke-opacity="1" fill="none" fill-rule="evenodd"/></g><g clip-path="url(#clip49)"><path d="M10615 3673C10615 3679.07 10610.3 3684 10604.5 3684 10598.7 3684 10594 3679.07 10594 3673 10594 3666.92 10598.7 3662 10604.5 3662 10610.3 3662 10615 3666.92 10615 3673Z" stroke="#FF00FF" stroke-width="4.58333" stroke-linecap="butt" stroke-linejoin="round" stroke-miterlimit="10" stroke-opacity="1" fill="#FF00FF" fill-rule="nonzero" fill-opacity="1"/></g><g clip-path="url(#clip50)"><text fill="#595959" fill-opacity="1" font-family="Calibri,Calibri_MSFontService,sans-serif" font-style="normal" font-variant="normal" font-weight="400" font-stretch="normal" font-size="41" text-anchor="start" direction="ltr" writing-mode="lr-tb" unicode-bidi="normal" text-decoration="none" transform="matrix(1 0 0 1 10657.8 3684)">Valor de Qi</text></g><rect x="8905.5" y="2279.5" width="2554" height="1461" stroke="#D9D9D9" stroke-width="3.4375" stroke-linecap="butt" stroke-linejoin="round" stroke-miterlimit="10" stroke-opacity="1" fill="none"/></g></svg>