<svg width="2594" height="1471" xmlns="http://www.w3.org/2000/svg" xmlns:xlink="http://www.w3.org/1999/xlink" xml:space="preserve" overflow="hidden"><defs><clipPath id="clip0"><rect x="3478" y="5330" width="2594" height="1471"/></clipPath><clipPath id="clip1"><rect x="3483" y="5335" width="2586" height="1463"/></clipPath><clipPath id="clip2"><rect x="3483" y="5335" width="2586" height="1463"/></clipPath><clipPath id="clip3"><rect x="3734" y="5504" width="2058" height="1009"/></clipPath><clipPath id="clip4"><rect x="3483" y="5335" width="2586" height="1463"/></clipPath><clipPath id="clip5"><rect x="3734" y="5504" width="2058" height="1009"/></clipPath><clipPath id="clip6"><rect x="3483" y="5335" width="2586" height="1463"/></clipPath><clipPath id="clip7"><rect x="3483" y="5335" width="2586" height="1463"/></clipPath><clipPath id="clip8"><rect x="3483" y="5335" width="2586" height="1463"/></clipPath><clipPath id="clip9"><rect x="3483" y="5335" width="2586" height="1463"/></clipPath><clipPath id="clip10"><rect x="3483" y="5335" width="2586" height="1463"/></clipPath><clipPath id="clip11"><rect x="3483" y="5335" width="2586" height="1463"/></clipPath><clipPath id="clip12"><rect x="3483" y="5335" width="2586" height="1463"/></clipPath><clipPath id="clip13"><rect x="3483" y="5335" width="2586" height="1463"/></clipPath><clipPath id="clip14"><rect x="3483" y="5335" width="2586" height="1463"/></clipPath><clipPath id="clip15"><rect x="3483" y="5335" width="2586" height="1463"/></clipPath><clipPath id="clip16"><rect x="3483" y="5335" width="2586" height="1463"/></clipPath><clipPath id="clip17"><rect x="3483" y="5335" width="2586" height="1463"/></clipPath><clipPath id="clip18"><rect x="3483" y="5335" width="2586" height="1463"/></clipPath><clipPath id="clip19"><rect x="3483" y="5335" width="2586" height="1463"/></clipPath><clipPath id="clip20"><rect x="3483" y="5335" width="2586" height="1463"/></clipPath><clipPath id="clip21"><rect x="3483" y="5335" width="2586" height="1463"/></clipPath><clipPath id="clip22"><rect x="3483" y="5335" width="2586" height="1463"/></clipPath><clipPath id="clip23"><rect x="3483" y="5335" width="2586" height="1463"/></clipPath><clipPath id="clip24"><rect x="3483" y="5335" width="2586" height="1463"/></clipPath><clipPath id="clip25"><rect x="3483" y="5335" width="2586" height="1463"/></clipPath><clipPath id="clip26"><rect x="3483" y="5335" width="2586" height="1463"/></clipPath><clipPath id="clip27"><rect x="3483" y="5335" width="2586" height="1463"/></clipPath><clipPath id="clip28"><rect x="3483" y="5335" width="2586" height="1463"/></clipPath><clipPath id="clip29"><rect x="3483" y="5335" width="2586" height="1463"/></clipPath><clipPath id="clip30"><rect x="3483" y="5335" width="2586" height="1463"/></clipPath><clipPath id="clip31"><rect x="3483" y="5335" width="2586" height="1463"/></clipPath><clipPath id="clip32"><rect x="3483" y="5335" width="2586" height="1463"/></clipPath><clipPath id="clip33"><rect x="3483" y="5335" width="2586" height="1463"/></clipPath><clipPath id="clip34"><rect x="3483" y="5335" width="2586" height="1463"/></clipPath><clipPath id="clip35"><rect x="3483" y="5335" width="2586" height="1463"/></clipPath><clipPath id="clip36"><rect x="3483" y="5335" width="2586" height="1463"/></clipPath><clipPath id="clip37"><rect x="3483" y="5335" width="2586" height="1463"/></clipPath><clipPath id="clip38"><rect x="3483" y="5335" width="2586" height="1463"/></clipPath><clipPath id="clip39"><rect x="3483" y="5335" width="2586" height="1463"/></clipPath><clipPath id="clip40"><rect x="3483" y="5335" width="2586" height="1463"/></clipPath><clipPath id="clip41"><rect x="3483" y="5335" width="2586" height="1463"/></clipPath><clipPath id="clip42"><rect x="3483" y="5335" width="2586" height="1463"/></clipPath><clipPath id="clip43"><rect x="3483" y="5335" width="2586" height="1463"/></clipPath><clipPath id="clip44"><rect x="3483" y="5335" width="2586" height="1463"/></clipPath><clipPath id="clip45"><rect x="3483" y="5335" width="2586" height="1463"/></clipPath><clipPath id="clip46"><rect x="3483" y="5335" width="2586" height="1463"/></clipPath><clipPath id="clip47"><rect x="3483" y="5335" width="2586" height="1463"/></clipPath><clipPath id="clip48"><rect x="3483" y="5335" width="2586" height="1463"/></clipPath><clipPath id="clip49"><rect x="3483" y="5335" width="2586" height="1463"/></clipPath><clipPath id="clip50"><rect x="3483" y="5335" width="2586" height="1463"/></clipPath><clipPath id="clip51"><rect x="3483" y="5335" width="2586" height="1463"/></clipPath><clipPath id="clip52"><rect x="3483" y="5335" width="2586" height="1463"/></clipPath><clipPath id="clip53"><rect x="3483" y="5335" width="2586" height="1463"/></clipPath><clipPath id="clip54"><rect x="3483" y="5335" width="2586" height="1463"/></clipPath><clipPath id="clip55"><rect x="3483" y="5335" width="2586" height="1463"/></clipPath><clipPath id="clip56"><rect x="3483" y="5335" width="2586" height="1463"/></clipPath><clipPath id="clip57"><rect x="3483" y="5335" width="2586" height="1463"/></clipPath><clipPath id="clip58"><rect x="3483" y="5335" width="2586" height="1463"/></clipPath><clipPath id="clip59"><rect x="3483" y="5335" width="2586" height="1463"/></clipPath><clipPath id="clip60"><rect x="3483" y="5335" width="2586" height="1463"/></clipPath><clipPath id="clip61"><rect x="3483" y="5335" width="2586" height="1463"/></clipPath><clipPath id="clip62"><rect x="3483" y="5335" width="2586" height="1463"/></clipPath></defs><g clip-path="url(#clip0)" transform="translate(-3478 -5330)"><rect x="3483" y="5335" width="2586" height="1464" fill="#FFFFFF" fill-opacity="1"/><g clip-path="url(#clip1)"><path d="M3734.5 6510.5 5789.5 6510.5M3734.5 6398.71 5789.5 6398.71M3734.5 6286.71 5789.5 6286.71M3734.5 6063.7 5789.5 6063.7M3734.5 5951.7 5789.5 5951.7M3734.5 5839.69 5789.5 5839.69M3734.5 5728.69 5789.5 5728.69M3734.5 5616.68 5789.5 5616.68M3734.5 5504.5 5789.5 5504.5" stroke="#D9D9D9" stroke-width="3.4375" stroke-linecap="butt" stroke-linejoin="round" stroke-miterlimit="10" stroke-opacity="1" fill="none" fill-rule="nonzero"/></g><g clip-path="url(#clip2)"><path d="M3734.5 6175.5 5789.5 6175.5" stroke="#D9D9D9" stroke-width="3.4375" stroke-linecap="butt" stroke-linejoin="round" stroke-miterlimit="10" stroke-opacity="1" fill="none" fill-rule="evenodd"/></g><g clip-path="url(#clip3)"><path d="M3774 6286.21 3932.13 6465 4090.13 5974.2 4248.14 5750.19 4406.14 5840.19 4564.15 5929.19 4722.15 6085.2 4880.16 6331.21 5038.17 5817.19 5196.17 5639 5354.18 5795.19 5512.18 6309.21 5750 6152.2" stroke="#4472C4" stroke-width="10.3125" stroke-linecap="round" stroke-linejoin="round" stroke-miterlimit="10" stroke-opacity="1" fill="none" fill-rule="nonzero"/></g><g clip-path="url(#clip4)"><path d="M3784.99 6286.5C3784.99 6292.57 3780.06 6297.5 3773.99 6297.5 3767.91 6297.5 3762.99 6292.57 3762.99 6286.5 3762.99 6280.42 3767.91 6275.5 3773.99 6275.5 3780.06 6275.5 3784.99 6280.42 3784.99 6286.5Z" stroke="#000000" stroke-width="4.58333" stroke-linecap="butt" stroke-linejoin="round" stroke-miterlimit="10" stroke-opacity="1" fill="#000000" fill-rule="nonzero" fill-opacity="1"/><path d="M3942.99 6465.5C3942.99 6471.57 3938.06 6476.5 3931.99 6476.5 3925.91 6476.5 3920.99 6471.57 3920.99 6465.5 3920.99 6459.42 3925.91 6454.5 3931.99 6454.5 3938.06 6454.5 3942.99 6459.42 3942.99 6465.5Z" stroke="#000000" stroke-width="4.58333" stroke-linecap="butt" stroke-linejoin="round" stroke-miterlimit="10" stroke-opacity="1" fill="#000000" fill-rule="nonzero" fill-opacity="1"/><path d="M4101.99 5974.5C4101.99 5980.57 4097.06 5985.5 4090.99 5985.5 4084.91 5985.5 4079.99 5980.57 4079.99 5974.5 4079.99 5968.42 4084.91 5963.5 4090.99 5963.5 4097.06 5963.5 4101.99 5968.42 4101.99 5974.5Z" stroke="#000000" stroke-width="4.58333" stroke-linecap="butt" stroke-linejoin="round" stroke-miterlimit="10" stroke-opacity="1" fill="#000000" fill-rule="nonzero" fill-opacity="1"/><path d="M4259.99 5750.5C4259.99 5756.57 4255.06 5761.5 4248.99 5761.5 4242.91 5761.5 4237.99 5756.57 4237.99 5750.5 4237.99 5744.42 4242.91 5739.5 4248.99 5739.5 4255.06 5739.5 4259.99 5744.42 4259.99 5750.5Z" stroke="#000000" stroke-width="4.58333" stroke-linecap="butt" stroke-linejoin="round" stroke-miterlimit="10" stroke-opacity="1" fill="#000000" fill-rule="nonzero" fill-opacity="1"/><path d="M4417.99 5840.5C4417.99 5846.57 4413.06 5851.5 4406.99 5851.5 4400.91 5851.5 4395.99 5846.57 4395.99 5840.5 4395.99 5834.42 4400.91 5829.5 4406.99 5829.5 4413.06 5829.5 4417.99 5834.42 4417.99 5840.5Z" stroke="#000000" stroke-width="4.58333" stroke-linecap="butt" stroke-linejoin="round" stroke-miterlimit="10" stroke-opacity="1" fill="#000000" fill-rule="nonzero" fill-opacity="1"/><path d="M4575.99 5929.5C4575.99 5935.57 4571.06 5940.5 4564.99 5940.5 4558.91 5940.5 4553.99 5935.57 4553.99 5929.5 4553.99 5923.42 4558.91 5918.5 4564.99 5918.5 4571.06 5918.5 4575.99 5923.42 4575.99 5929.5Z" stroke="#000000" stroke-width="4.58333" stroke-linecap="butt" stroke-linejoin="round" stroke-miterlimit="10" stroke-opacity="1" fill="#000000" fill-rule="nonzero" fill-opacity="1"/><path d="M4733.99 6085.5C4733.99 6091.57 4729.06 6096.5 4722.99 6096.5 4716.91 6096.5 4711.99 6091.57 4711.99 6085.5 4711.99 6079.42 4716.91 6074.5 4722.99 6074.5 4729.06 6074.5 4733.99 6079.42 4733.99 6085.5Z" stroke="#000000" stroke-width="4.58333" stroke-linecap="butt" stroke-linejoin="round" stroke-miterlimit="10" stroke-opacity="1" fill="#000000" fill-rule="nonzero" fill-opacity="1"/><path d="M4891.99 6331.5C4891.99 6337.57 4887.06 6342.5 4880.99 6342.5 4874.91 6342.5 4869.99 6337.57 4869.99 6331.5 4869.99 6325.42 4874.91 6320.5 4880.99 6320.5 4887.06 6320.5 4891.99 6325.42 4891.99 6331.5Z" stroke="#000000" stroke-width="4.58333" stroke-linecap="butt" stroke-linejoin="round" stroke-miterlimit="10" stroke-opacity="1" fill="#000000" fill-rule="nonzero" fill-opacity="1"/><path d="M5049.99 5817.5C5049.99 5823.57 5045.06 5828.5 5038.99 5828.5 5032.91 5828.5 5027.99 5823.57 5027.99 5817.5 5027.99 5811.42 5032.91 5806.5 5038.99 5806.5 5045.06 5806.5 5049.99 5811.42 5049.99 5817.5Z" stroke="#000000" stroke-width="4.58333" stroke-linecap="butt" stroke-linejoin="round" stroke-miterlimit="10" stroke-opacity="1" fill="#000000" fill-rule="nonzero" fill-opacity="1"/><path d="M5207.99 5638.5C5207.99 5644.57 5203.06 5649.5 5196.99 5649.5 5190.91 5649.5 5185.99 5644.57 5185.99 5638.5 5185.99 5632.42 5190.91 5627.5 5196.99 5627.5 5203.06 5627.5 5207.99 5632.42 5207.99 5638.5Z" stroke="#000000" stroke-width="4.58333" stroke-linecap="butt" stroke-linejoin="round" stroke-miterlimit="10" stroke-opacity="1" fill="#000000" fill-rule="nonzero" fill-opacity="1"/><path d="M5365.99 5795.5C5365.99 5801.57 5361.06 5806.5 5354.99 5806.5 5348.91 5806.5 5343.99 5801.57 5343.99 5795.5 5343.99 5789.42 5348.91 5784.5 5354.99 5784.5 5361.06 5784.5 5365.99 5789.42 5365.99 5795.5Z" stroke="#000000" stroke-width="4.58333" stroke-linecap="butt" stroke-linejoin="round" stroke-miterlimit="10" stroke-opacity="1" fill="#000000" fill-rule="nonzero" fill-opacity="1"/><path d="M5523.99 6309.5C5523.99 6315.57 5519.06 6320.5 5512.99 6320.5 5506.91 6320.5 5501.99 6315.57 5501.99 6309.5 5501.99 6303.42 5506.91 6298.5 5512.99 6298.5 5519.06 6298.5 5523.99 6303.42 5523.99 6309.5Z" stroke="#000000" stroke-width="4.58333" stroke-linecap="butt" stroke-linejoin="round" stroke-miterlimit="10" stroke-opacity="1" fill="#000000" fill-rule="nonzero" fill-opacity="1"/><path d="M5760.99 6152.5C5760.99 6158.57 5756.06 6163.5 5749.99 6163.5 5743.91 6163.5 5738.99 6158.57 5738.99 6152.5 5738.99 6146.42 5743.91 6141.5 5749.99 6141.5 5756.06 6141.5 5760.99 6146.42 5760.99 6152.5Z" stroke="#000000" stroke-width="4.58333" stroke-linecap="butt" stroke-linejoin="round" stroke-miterlimit="10" stroke-opacity="1" fill="#000000" fill-rule="nonzero" fill-opacity="1"/></g><g clip-path="url(#clip5)"><path d="M3774 5595.18 3932.13 5656.19 4090.13 5656.19 4248.14 5726.19 4406.14 5676.19 4564.15 5656.19 4722.15 5595.18 4880.16 5625.18 5038.17 5676.19 5196.17 5776 5354.18 5706.19 5512.18 5605.18 5750 5585" stroke="#ED7D31" stroke-width="10.3125" stroke-linecap="round" stroke-linejoin="round" stroke-miterlimit="10" stroke-opacity="1" fill="none" fill-rule="nonzero"/></g><g clip-path="url(#clip6)"><path d="M3784.99 5595.5C3784.99 5601.57 3780.06 5606.5 3773.99 5606.5 3767.91 5606.5 3762.99 5601.57 3762.99 5595.5 3762.99 5589.42 3767.91 5584.5 3773.99 5584.5 3780.06 5584.5 3784.99 5589.42 3784.99 5595.5Z" stroke="#ED7D31" stroke-width="3.4375" stroke-linecap="butt" stroke-linejoin="round" stroke-miterlimit="10" stroke-opacity="1" fill="#ED7D31" fill-rule="nonzero" fill-opacity="1"/><path d="M3942.99 5655.5C3942.99 5661.57 3938.06 5666.5 3931.99 5666.5 3925.91 5666.5 3920.99 5661.57 3920.99 5655.5 3920.99 5649.42 3925.91 5644.5 3931.99 5644.5 3938.06 5644.5 3942.99 5649.42 3942.99 5655.5Z" stroke="#ED7D31" stroke-width="3.4375" stroke-linecap="butt" stroke-linejoin="round" stroke-miterlimit="10" stroke-opacity="1" fill="#ED7D31" fill-rule="nonzero" fill-opacity="1"/><path d="M4101.99 5655.5C4101.99 5661.57 4097.06 5666.5 4090.99 5666.5 4084.91 5666.5 4079.99 5661.57 4079.99 5655.5 4079.99 5649.42 4084.91 5644.5 4090.99 5644.5 4097.06 5644.5 4101.99 5649.42 4101.99 5655.5Z" stroke="#ED7D31" stroke-width="3.4375" stroke-linecap="butt" stroke-linejoin="round" stroke-miterlimit="10" stroke-opacity="1" fill="#ED7D31" fill-rule="nonzero" fill-opacity="1"/><path d="M4259.99 5726.5C4259.99 5732.57 4255.06 5737.5 4248.99 5737.5 4242.91 5737.5 4237.99 5732.57 4237.99 5726.5 4237.99 5720.42 4242.91 5715.5 4248.99 5715.5 4255.06 5715.5 4259.99 5720.42 4259.99 5726.5Z" stroke="#ED7D31" stroke-width="3.4375" stroke-linecap="butt" stroke-linejoin="round" stroke-miterlimit="10" stroke-opacity="1" fill="#ED7D31" fill-rule="nonzero" fill-opacity="1"/><path d="M4417.99 5675.5C4417.99 5681.57 4413.06 5686.5 4406.99 5686.5 4400.91 5686.5 4395.99 5681.57 4395.99 5675.5 4395.99 5669.42 4400.91 5664.5 4406.99 5664.5 4413.06 5664.5 4417.99 5669.42 4417.99 5675.5Z" stroke="#ED7D31" stroke-width="3.4375" stroke-linecap="butt" stroke-linejoin="round" stroke-miterlimit="10" stroke-opacity="1" fill="#ED7D31" fill-rule="nonzero" fill-opacity="1"/><path d="M4575.99 5655.5C4575.99 5661.57 4571.06 5666.5 4564.99 5666.5 4558.91 5666.5 4553.99 5661.57 4553.99 5655.5 4553.99 5649.42 4558.91 5644.5 4564.99 5644.5 4571.06 5644.5 4575.99 5649.42 4575.99 5655.5Z" stroke="#ED7D31" stroke-width="3.4375" stroke-linecap="butt" stroke-linejoin="round" stroke-miterlimit="10" stroke-opacity="1" fill="#ED7D31" fill-rule="nonzero" fill-opacity="1"/><path d="M4733.99 5595.5C4733.99 5601.57 4729.06 5606.5 4722.99 5606.5 4716.91 5606.5 4711.99 5601.57 4711.99 5595.5 4711.99 5589.42 4716.91 5584.5 4722.99 5584.5 4729.06 5584.5 4733.99 5589.42 4733.99 5595.5Z" stroke="#ED7D31" stroke-width="3.4375" stroke-linecap="butt" stroke-linejoin="round" stroke-miterlimit="10" stroke-opacity="1" fill="#ED7D31" fill-rule="nonzero" fill-opacity="1"/><path d="M4891.99 5625.5C4891.99 5631.57 4887.06 5636.5 4880.99 5636.5 4874.91 5636.5 4869.99 5631.57 4869.99 5625.5 4869.99 5619.42 4874.91 5614.5 4880.99 5614.5 4887.06 5614.5 4891.99 5619.42 4891.99 5625.5Z" stroke="#ED7D31" stroke-width="3.4375" stroke-linecap="butt" stroke-linejoin="round" stroke-miterlimit="10" stroke-opacity="1" fill="#ED7D31" fill-rule="nonzero" fill-opacity="1"/><path d="M5049.99 5675.5C5049.99 5681.57 5045.06 5686.5 5038.99 5686.5 5032.91 5686.5 5027.99 5681.57 5027.99 5675.5 5027.99 5669.42 5032.91 5664.5 5038.99 5664.5 5045.06 5664.5 5049.99 5669.42 5049.99 5675.5Z" stroke="#ED7D31" stroke-width="3.4375" stroke-linecap="butt" stroke-linejoin="round" stroke-miterlimit="10" stroke-opacity="1" fill="#ED7D31" fill-rule="nonzero" fill-opacity="1"/><path d="M5207.99 5776.5C5207.99 5782.57 5203.06 5787.5 5196.99 5787.5 5190.91 5787.5 5185.99 5782.57 5185.99 5776.5 5185.99 5770.42 5190.91 5765.5 5196.99 5765.5 5203.06 5765.5 5207.99 5770.42 5207.99 5776.5Z" stroke="#ED7D31" stroke-width="3.4375" stroke-linecap="butt" stroke-linejoin="round" stroke-miterlimit="10" stroke-opacity="1" fill="#ED7D31" fill-rule="nonzero" fill-opacity="1"/><path d="M5365.99 5706.5C5365.99 5712.57 5361.06 5717.5 5354.99 5717.5 5348.91 5717.5 5343.99 5712.57 5343.99 5706.5 5343.99 5700.42 5348.91 5695.5 5354.99 5695.5 5361.06 5695.5 5365.99 5700.42 5365.99 5706.5Z" stroke="#ED7D31" stroke-width="3.4375" stroke-linecap="butt" stroke-linejoin="round" stroke-miterlimit="10" stroke-opacity="1" fill="#ED7D31" fill-rule="nonzero" fill-opacity="1"/><path d="M5523.99 5605.5C5523.99 5611.57 5519.06 5616.5 5512.99 5616.5 5506.91 5616.5 5501.99 5611.57 5501.99 5605.5 5501.99 5599.42 5506.91 5594.5 5512.99 5594.5 5519.06 5594.5 5523.99 5599.42 5523.99 5605.5Z" stroke="#ED7D31" stroke-width="3.4375" stroke-linecap="butt" stroke-linejoin="round" stroke-miterlimit="10" stroke-opacity="1" fill="#ED7D31" fill-rule="nonzero" fill-opacity="1"/><path d="M5760.99 5585.5C5760.99 5591.57 5756.06 5596.5 5749.99 5596.5 5743.91 5596.5 5738.99 5591.57 5738.99 5585.5 5738.99 5579.42 5743.91 5574.5 5749.99 5574.5 5756.06 5574.5 5760.99 5579.42 5760.99 5585.5Z" stroke="#ED7D31" stroke-width="3.4375" stroke-linecap="butt" stroke-linejoin="round" stroke-miterlimit="10" stroke-opacity="1" fill="#ED7D31" fill-rule="nonzero" fill-opacity="1"/></g><g clip-path="url(#clip7)"><text fill="#595959" fill-opacity="1" font-family="Calibri,Calibri_MSFontService,sans-serif" font-style="normal" font-variant="normal" font-weight="400" font-stretch="normal" font-size="41" text-anchor="start" direction="ltr" writing-mode="lr-tb" unicode-bidi="normal" text-decoration="none" transform="matrix(1 0 0 1 5827.49 6520)">0,00</text></g><g clip-path="url(#clip8)"><text fill="#595959" fill-opacity="1" font-family="Calibri,Calibri_MSFontService,sans-serif" font-style="normal" font-variant="normal" font-weight="400" font-stretch="normal" font-size="41" text-anchor="start" direction="ltr" writing-mode="lr-tb" unicode-bidi="normal" text-decoration="none" transform="matrix(1 0 0 1 5827.49 6420)">10,00</text></g><g clip-path="url(#clip9)"><text fill="#595959" fill-opacity="1" font-family="Calibri,Calibri_MSFontService,sans-serif" font-style="normal" font-variant="normal" font-weight="400" font-stretch="normal" font-size="41" text-anchor="start" direction="ltr" writing-mode="lr-tb" unicode-bidi="normal" text-decoration="none" transform="matrix(1 0 0 1 5827.49 6319)">20,00</text></g><g clip-path="url(#clip10)"><text fill="#595959" fill-opacity="1" font-family="Calibri,Calibri_MSFontService,sans-serif" font-style="normal" font-variant="normal" font-weight="400" font-stretch="normal" font-size="41" text-anchor="start" direction="ltr" writing-mode="lr-tb" unicode-bidi="normal" text-decoration="none" transform="matrix(1 0 0 1 5827.49 6219)">30,00</text></g><g clip-path="url(#clip11)"><text fill="#595959" fill-opacity="1" font-family="Calibri,Calibri_MSFontService,sans-serif" font-style="normal" font-variant="normal" font-weight="400" font-stretch="normal" font-size="41" text-anchor="start" direction="ltr" writing-mode="lr-tb" unicode-bidi="normal" text-decoration="none" transform="matrix(1 0 0 1 5827.49 6118)">40,00</text></g><g clip-path="url(#clip12)"><text fill="#595959" fill-opacity="1" font-family="Calibri,Calibri_MSFontService,sans-serif" font-style="normal" font-variant="normal" font-weight="400" font-stretch="normal" font-size="41" text-anchor="start" direction="ltr" writing-mode="lr-tb" unicode-bidi="normal" text-decoration="none" transform="matrix(1 0 0 1 5827.49 6018)">50,00</text></g><g clip-path="url(#clip13)"><text fill="#595959" fill-opacity="1" font-family="Calibri,Calibri_MSFontService,sans-serif" font-style="normal" font-variant="normal" font-weight="400" font-stretch="normal" font-size="41" text-anchor="start" direction="ltr" writing-mode="lr-tb" unicode-bidi="normal" text-decoration="none" transform="matrix(1 0 0 1 5827.49 5917)">60,00</text></g><g clip-path="url(#clip14)"><text fill="#595959" fill-opacity="1" font-family="Calibri,Calibri_MSFontService,sans-serif" font-style="normal" font-variant="normal" font-weight="400" font-stretch="normal" font-size="41" text-anchor="start" direction="ltr" writing-mode="lr-tb" unicode-bidi="normal" text-decoration="none" transform="matrix(1 0 0 1 5827.49 5817)">70,00</text></g><g clip-path="url(#clip15)"><text fill="#595959" fill-opacity="1" font-family="Calibri,Calibri_MSFontService,sans-serif" font-style="normal" font-variant="normal" font-weight="400" font-stretch="normal" font-size="41" text-anchor="start" direction="ltr" writing-mode="lr-tb" unicode-bidi="normal" text-decoration="none" transform="matrix(1 0 0 1 5827.49 5716)">80,00</text></g><g clip-path="url(#clip16)"><text fill="#595959" fill-opacity="1" font-family="Calibri,Calibri_MSFontService,sans-serif" font-style="normal" font-variant="normal" font-weight="400" font-stretch="normal" font-size="41" text-anchor="start" direction="ltr" writing-mode="lr-tb" unicode-bidi="normal" text-decoration="none" transform="matrix(1 0 0 1 5827.49 5616)">90,00</text></g><g clip-path="url(#clip17)"><text fill="#595959" fill-opacity="1" font-family="Calibri,Calibri_MSFontService,sans-serif" font-style="normal" font-variant="normal" font-weight="400" font-stretch="normal" font-size="41" text-anchor="start" direction="ltr" writing-mode="lr-tb" unicode-bidi="normal" text-decoration="none" transform="matrix(1 0 0 1 5827.49 5515)">100,00</text></g><g clip-path="url(#clip18)"><text fill="#595959" fill-opacity="1" font-family="Calibri,Calibri_MSFontService,sans-serif" font-style="normal" font-variant="normal" font-weight="400" font-stretch="normal" font-size="41" text-anchor="start" direction="ltr" writing-mode="lr-tb" unicode-bidi="normal" text-decoration="none" transform="matrix(1 0 0 1 3610.47 6520)">-1,50</text></g><g clip-path="url(#clip19)"><text fill="#595959" fill-opacity="1" font-family="Calibri,Calibri_MSFontService,sans-serif" font-style="normal" font-variant="normal" font-weight="400" font-stretch="normal" font-size="41" text-anchor="start" direction="ltr" writing-mode="lr-tb" unicode-bidi="normal" text-decoration="none" transform="matrix(1 0 0 1 3610.47 6408)">-1,00</text></g><g clip-path="url(#clip20)"><text fill="#595959" fill-opacity="1" font-family="Calibri,Calibri_MSFontService,sans-serif" font-style="normal" font-variant="normal" font-weight="400" font-stretch="normal" font-size="41" text-anchor="start" direction="ltr" writing-mode="lr-tb" unicode-bidi="normal" text-decoration="none" transform="matrix(1 0 0 1 3610.47 6297)">-0,50</text></g><g clip-path="url(#clip21)"><text fill="#595959" fill-opacity="1" font-family="Calibri,Calibri_MSFontService,sans-serif" font-style="normal" font-variant="normal" font-weight="400" font-stretch="normal" font-size="41" text-anchor="start" direction="ltr" writing-mode="lr-tb" unicode-bidi="normal" text-decoration="none" transform="matrix(1 0 0 1 3623.09 6185)">0,00</text></g><g clip-path="url(#clip22)"><text fill="#595959" fill-opacity="1" font-family="Calibri,Calibri_MSFontService,sans-serif" font-style="normal" font-variant="normal" font-weight="400" font-stretch="normal" font-size="41" text-anchor="start" direction="ltr" writing-mode="lr-tb" unicode-bidi="normal" text-decoration="none" transform="matrix(1 0 0 1 3623.09 6073)">0,50</text></g><g clip-path="url(#clip23)"><text fill="#595959" fill-opacity="1" font-family="Calibri,Calibri_MSFontService,sans-serif" font-style="normal" font-variant="normal" font-weight="400" font-stretch="normal" font-size="41" text-anchor="start" direction="ltr" writing-mode="lr-tb" unicode-bidi="normal" text-decoration="none" transform="matrix(1 0 0 1 3623.09 5962)">1,00</text></g><g clip-path="url(#clip24)"><text fill="#595959" fill-opacity="1" font-family="Calibri,Calibri_MSFontService,sans-serif" font-style="normal" font-variant="normal" font-weight="400" font-stretch="normal" font-size="41" text-anchor="start" direction="ltr" writing-mode="lr-tb" unicode-bidi="normal" text-decoration="none" transform="matrix(1 0 0 1 3623.09 5850)">1,50</text></g><g clip-path="url(#clip25)"><text fill="#595959" fill-opacity="1" font-family="Calibri,Calibri_MSFontService,sans-serif" font-style="normal" font-variant="normal" font-weight="400" font-stretch="normal" font-size="41" text-anchor="start" direction="ltr" writing-mode="lr-tb" unicode-bidi="normal" text-decoration="none" transform="matrix(1 0 0 1 3623.09 5738)">2,00</text></g><g clip-path="url(#clip26)"><text fill="#595959" fill-opacity="1" font-family="Calibri,Calibri_MSFontService,sans-serif" font-style="normal" font-variant="normal" font-weight="400" font-stretch="normal" font-size="41" text-anchor="start" direction="ltr" writing-mode="lr-tb" unicode-bidi="normal" text-decoration="none" transform="matrix(1 0 0 1 3623.09 5627)">2,50</text></g><g clip-path="url(#clip27)"><text fill="#595959" fill-opacity="1" font-family="Calibri,Calibri_MSFontService,sans-serif" font-style="normal" font-variant="normal" font-weight="400" font-stretch="normal" font-size="41" text-anchor="start" direction="ltr" writing-mode="lr-tb" unicode-bidi="normal" text-decoration="none" transform="matrix(1 0 0 1 3623.09 5515)">3,00</text></g><g clip-path="url(#clip28)"><text fill="#595959" fill-opacity="1" font-family="Calibri,Calibri_MSFontService,sans-serif" font-style="normal" font-variant="normal" font-weight="400" font-stretch="normal" font-size="41" text-anchor="start" direction="ltr" writing-mode="lr-tb" unicode-bidi="normal" text-decoration="none" transform="matrix(6.12323e-17 -1 1 6.12323e-17 3787.69 6645)">Jan-18</text></g><g clip-path="url(#clip29)"><text fill="#595959" fill-opacity="1" font-family="Calibri,Calibri_MSFontService,sans-serif" font-style="normal" font-variant="normal" font-weight="400" font-stretch="normal" font-size="41" text-anchor="start" direction="ltr" writing-mode="lr-tb" unicode-bidi="normal" text-decoration="none" transform="matrix(6.12323e-17 -1 1 6.12323e-17 3866.73 6652)">Feb-18</text></g><g clip-path="url(#clip30)"><text fill="#595959" fill-opacity="1" font-family="Calibri,Calibri_MSFontService,sans-serif" font-style="normal" font-variant="normal" font-weight="400" font-stretch="normal" font-size="41" text-anchor="start" direction="ltr" writing-mode="lr-tb" unicode-bidi="normal" text-decoration="none" transform="matrix(6.12323e-17 -1 1 6.12323e-17 3945.76 6660)">Mar-18</text></g><g clip-path="url(#clip31)"><text fill="#595959" fill-opacity="1" font-family="Calibri,Calibri_MSFontService,sans-serif" font-style="normal" font-variant="normal" font-weight="400" font-stretch="normal" font-size="41" text-anchor="start" direction="ltr" writing-mode="lr-tb" unicode-bidi="normal" text-decoration="none" transform="matrix(6.12323e-17 -1 1 6.12323e-17 4024.79 6651)">Apr-18</text></g><g clip-path="url(#clip32)"><text fill="#595959" fill-opacity="1" font-family="Calibri,Calibri_MSFontService,sans-serif" font-style="normal" font-variant="normal" font-weight="400" font-stretch="normal" font-size="41" text-anchor="start" direction="ltr" writing-mode="lr-tb" unicode-bidi="normal" text-decoration="none" transform="matrix(6.12323e-17 -1 1 6.12323e-17 4103.83 6664)">May-18</text></g><g clip-path="url(#clip33)"><text fill="#595959" fill-opacity="1" font-family="Calibri,Calibri_MSFontService,sans-serif" font-style="normal" font-variant="normal" font-weight="400" font-stretch="normal" font-size="41" text-anchor="start" direction="ltr" writing-mode="lr-tb" unicode-bidi="normal" text-decoration="none" transform="matrix(6.12323e-17 -1 1 6.12323e-17 4182.86 6647)">Jun-18</text></g><g clip-path="url(#clip34)"><text fill="#595959" fill-opacity="1" font-family="Calibri,Calibri_MSFontService,sans-serif" font-style="normal" font-variant="normal" font-weight="400" font-stretch="normal" font-size="41" text-anchor="start" direction="ltr" writing-mode="lr-tb" unicode-bidi="normal" text-decoration="none" transform="matrix(6.12323e-17 -1 1 6.12323e-17 4261.9 6635)">Jul-18</text></g><g clip-path="url(#clip35)"><text fill="#595959" fill-opacity="1" font-family="Calibri,Calibri_MSFontService,sans-serif" font-style="normal" font-variant="normal" font-weight="400" font-stretch="normal" font-size="41" text-anchor="start" direction="ltr" writing-mode="lr-tb" unicode-bidi="normal" text-decoration="none" transform="matrix(6.12323e-17 -1 1 6.12323e-17 4340.93 6656)">Aug-18</text></g><g clip-path="url(#clip36)"><text fill="#595959" fill-opacity="1" font-family="Calibri,Calibri_MSFontService,sans-serif" font-style="normal" font-variant="normal" font-weight="400" font-stretch="normal" font-size="41" text-anchor="start" direction="ltr" writing-mode="lr-tb" unicode-bidi="normal" text-decoration="none" transform="matrix(6.12323e-17 -1 1 6.12323e-17 4419.96 6652)">Sep-18</text></g><g clip-path="url(#clip37)"><text fill="#595959" fill-opacity="1" font-family="Calibri,Calibri_MSFontService,sans-serif" font-style="normal" font-variant="normal" font-weight="400" font-stretch="normal" font-size="41" text-anchor="start" direction="ltr" writing-mode="lr-tb" unicode-bidi="normal" text-decoration="none" transform="matrix(6.12323e-17 -1 1 6.12323e-17 4499 6649)">Oct-18</text></g><g clip-path="url(#clip38)"><text fill="#595959" fill-opacity="1" font-family="Calibri,Calibri_MSFontService,sans-serif" font-style="normal" font-variant="normal" font-weight="400" font-stretch="normal" font-size="41" text-anchor="start" direction="ltr" writing-mode="lr-tb" unicode-bidi="normal" text-decoration="none" transform="matrix(6.12323e-17 -1 1 6.12323e-17 4578.03 6658)">Nov-18</text></g><g clip-path="url(#clip39)"><text fill="#595959" fill-opacity="1" font-family="Calibri,Calibri_MSFontService,sans-serif" font-style="normal" font-variant="normal" font-weight="400" font-stretch="normal" font-size="41" text-anchor="start" direction="ltr" writing-mode="lr-tb" unicode-bidi="normal" text-decoration="none" transform="matrix(6.12323e-17 -1 1 6.12323e-17 4657.06 6654)">Dec-18</text></g><g clip-path="url(#clip40)"><text fill="#595959" fill-opacity="1" font-family="Calibri,Calibri_MSFontService,sans-serif" font-style="normal" font-variant="normal" font-weight="400" font-stretch="normal" font-size="41" text-anchor="start" direction="ltr" writing-mode="lr-tb" unicode-bidi="normal" text-decoration="none" transform="matrix(6.12323e-17 -1 1 6.12323e-17 4736.1 6645)">Jan-19</text></g><g clip-path="url(#clip41)"><text fill="#595959" fill-opacity="1" font-family="Calibri,Calibri_MSFontService,sans-serif" font-style="normal" font-variant="normal" font-weight="400" font-stretch="normal" font-size="41" text-anchor="start" direction="ltr" writing-mode="lr-tb" unicode-bidi="normal" text-decoration="none" transform="matrix(6.12323e-17 -1 1 6.12323e-17 4815.13 6652)">Feb-19</text></g><g clip-path="url(#clip42)"><text fill="#595959" fill-opacity="1" font-family="Calibri,Calibri_MSFontService,sans-serif" font-style="normal" font-variant="normal" font-weight="400" font-stretch="normal" font-size="41" text-anchor="start" direction="ltr" writing-mode="lr-tb" unicode-bidi="normal" text-decoration="none" transform="matrix(6.12323e-17 -1 1 6.12323e-17 4894.16 6660)">Mar-19</text></g><g clip-path="url(#clip43)"><text fill="#595959" fill-opacity="1" font-family="Calibri,Calibri_MSFontService,sans-serif" font-style="normal" font-variant="normal" font-weight="400" font-stretch="normal" font-size="41" text-anchor="start" direction="ltr" writing-mode="lr-tb" unicode-bidi="normal" text-decoration="none" transform="matrix(6.12323e-17 -1 1 6.12323e-17 4973.2 6651)">Apr-19</text></g><g clip-path="url(#clip44)"><text fill="#595959" fill-opacity="1" font-family="Calibri,Calibri_MSFontService,sans-serif" font-style="normal" font-variant="normal" font-weight="400" font-stretch="normal" font-size="41" text-anchor="start" direction="ltr" writing-mode="lr-tb" unicode-bidi="normal" text-decoration="none" transform="matrix(6.12323e-17 -1 1 6.12323e-17 5052.23 6664)">May-19</text></g><g clip-path="url(#clip45)"><text fill="#595959" fill-opacity="1" font-family="Calibri,Calibri_MSFontService,sans-serif" font-style="normal" font-variant="normal" font-weight="400" font-stretch="normal" font-size="41" text-anchor="start" direction="ltr" writing-mode="lr-tb" unicode-bidi="normal" text-decoration="none" transform="matrix(6.12323e-17 -1 1 6.12323e-17 5131.27 6647)">Jun-19</text></g><g clip-path="url(#clip46)"><text fill="#595959" fill-opacity="1" font-family="Calibri,Calibri_MSFontService,sans-serif" font-style="normal" font-variant="normal" font-weight="400" font-stretch="normal" font-size="41" text-anchor="start" direction="ltr" writing-mode="lr-tb" unicode-bidi="normal" text-decoration="none" transform="matrix(6.12323e-17 -1 1 6.12323e-17 5210.3 6635)">Jul-19</text></g><g clip-path="url(#clip47)"><text fill="#595959" fill-opacity="1" font-family="Calibri,Calibri_MSFontService,sans-serif" font-style="normal" font-variant="normal" font-weight="400" font-stretch="normal" font-size="41" text-anchor="start" direction="ltr" writing-mode="lr-tb" unicode-bidi="normal" text-decoration="none" transform="matrix(6.12323e-17 -1 1 6.12323e-17 5289.33 6656)">Aug-19</text></g><g clip-path="url(#clip48)"><text fill="#595959" fill-opacity="1" font-family="Calibri,Calibri_MSFontService,sans-serif" font-style="normal" font-variant="normal" font-weight="400" font-stretch="normal" font-size="41" text-anchor="start" direction="ltr" writing-mode="lr-tb" unicode-bidi="normal" text-decoration="none" transform="matrix(6.12323e-17 -1 1 6.12323e-17 5368.37 6652)">Sep-19</text></g><g clip-path="url(#clip49)"><text fill="#595959" fill-opacity="1" font-family="Calibri,Calibri_MSFontService,sans-serif" font-style="normal" font-variant="normal" font-weight="400" font-stretch="normal" font-size="41" text-anchor="start" direction="ltr" writing-mode="lr-tb" unicode-bidi="normal" text-decoration="none" transform="matrix(6.12323e-17 -1 1 6.12323e-17 5447.4 6649)">Oct-19</text></g><g clip-path="url(#clip50)"><text fill="#595959" fill-opacity="1" font-family="Calibri,Calibri_MSFontService,sans-serif" font-style="normal" font-variant="normal" font-weight="400" font-stretch="normal" font-size="41" text-anchor="start" direction="ltr" writing-mode="lr-tb" unicode-bidi="normal" text-decoration="none" transform="matrix(6.12323e-17 -1 1 6.12323e-17 5526.43 6658)">Nov-19</text></g><g clip-path="url(#clip51)"><text fill="#595959" fill-opacity="1" font-family="Calibri,Calibri_MSFontService,sans-serif" font-style="normal" font-variant="normal" font-weight="400" font-stretch="normal" font-size="41" text-anchor="start" direction="ltr" writing-mode="lr-tb" unicode-bidi="normal" text-decoration="none" transform="matrix(6.12323e-17 -1 1 6.12323e-17 5605.47 6654)">Dec-19</text></g><g clip-path="url(#clip52)"><text fill="#595959" fill-opacity="1" font-family="Calibri,Calibri_MSFontService,sans-serif" font-style="normal" font-variant="normal" font-weight="400" font-stretch="normal" font-size="41" text-anchor="start" direction="ltr" writing-mode="lr-tb" unicode-bidi="normal" text-decoration="none" transform="matrix(6.12323e-17 -1 1 6.12323e-17 5684.5 6645)">Jan-20</text></g><g clip-path="url(#clip53)"><text fill="#595959" fill-opacity="1" font-family="Calibri,Calibri_MSFontService,sans-serif" font-style="normal" font-variant="normal" font-weight="400" font-stretch="normal" font-size="41" text-anchor="start" direction="ltr" writing-mode="lr-tb" unicode-bidi="normal" text-decoration="none" transform="matrix(6.12323e-17 -1 1 6.12323e-17 5763.53 6652)">Feb-20</text></g><g clip-path="url(#clip54)"><text fill="#595959" fill-opacity="1" font-family="Calibri,Calibri_MSFontService,sans-serif" font-style="normal" font-variant="normal" font-weight="400" font-stretch="normal" font-size="46" text-anchor="start" direction="ltr" writing-mode="lr-tb" unicode-bidi="normal" text-decoration="none" transform="matrix(6.12323e-17 -1 1 6.12323e-17 6000.03 6111)">Valor de Qi</text></g><g clip-path="url(#clip55)"><text fill="#595959" fill-opacity="1" font-family="Calibri,Calibri_MSFontService,sans-serif" font-style="normal" font-variant="normal" font-weight="400" font-stretch="normal" font-size="46" text-anchor="start" direction="ltr" writing-mode="lr-tb" unicode-bidi="normal" text-decoration="none" transform="matrix(6.12323e-17 -1 1 6.12323e-17 3584.78 6170)">Temperatura (ºC)  </text></g><g clip-path="url(#clip56)"><text fill="#595959" fill-opacity="1" font-family="Calibri,Calibri_MSFontService,sans-serif" font-style="normal" font-variant="normal" font-weight="700" font-stretch="normal" font-size="64" text-anchor="start" direction="ltr" writing-mode="lr-tb" unicode-bidi="normal" text-decoration="none" transform="matrix(1 0 0 1 4429.27 5430)">Temperatura (ºC) x Tempo</text></g><g clip-path="url(#clip57)"><path d="M4232 6733 4320 6733" stroke="#4472C4" stroke-width="10.3125" stroke-linecap="round" stroke-linejoin="round" stroke-miterlimit="10" stroke-opacity="1" fill="none" fill-rule="evenodd"/></g><g clip-path="url(#clip58)"><path d="M4287 6732.5C4287 6738.31 4282.08 6743.02 4276 6743.02 4269.92 6743.02 4265 6738.31 4265 6732.5 4265 6726.69 4269.92 6721.98 4276 6721.98 4282.08 6721.98 4287 6726.69 4287 6732.5Z" stroke="#000000" stroke-width="4.58333" stroke-linecap="butt" stroke-linejoin="round" stroke-miterlimit="10" stroke-opacity="1" fill="#000000" fill-rule="nonzero" fill-opacity="1"/></g><g clip-path="url(#clip59)"><text fill="#595959" fill-opacity="1" font-family="Calibri,Calibri_MSFontService,sans-serif" font-style="normal" font-variant="normal" font-weight="400" font-stretch="normal" font-size="41" text-anchor="start" direction="ltr" writing-mode="lr-tb" unicode-bidi="normal" text-decoration="none" transform="matrix(1 0 0 1 4329.58 6743)">Temperatura Final (Tágua - Tar em ºC)</text></g><g clip-path="url(#clip60)"><path d="M5052 6733 5140 6733" stroke="#ED7D31" stroke-width="10.3125" stroke-linecap="round" stroke-linejoin="round" stroke-miterlimit="10" stroke-opacity="1" fill="none" fill-rule="evenodd"/></g><g clip-path="url(#clip61)"><path d="M5107 6732.5C5107 6738.31 5102.08 6743.02 5096 6743.02 5089.92 6743.02 5085 6738.31 5085 6732.5 5085 6726.69 5089.92 6721.98 5096 6721.98 5102.08 6721.98 5107 6726.69 5107 6732.5Z" stroke="#ED7D31" stroke-width="3.4375" stroke-linecap="butt" stroke-linejoin="round" stroke-miterlimit="10" stroke-opacity="1" fill="#ED7D31" fill-rule="nonzero" fill-opacity="1"/></g><g clip-path="url(#clip62)"><text fill="#595959" fill-opacity="1" font-family="Calibri,Calibri_MSFontService,sans-serif" font-style="normal" font-variant="normal" font-weight="400" font-stretch="normal" font-size="41" text-anchor="start" direction="ltr" writing-mode="lr-tb" unicode-bidi="normal" text-decoration="none" transform="matrix(1 0 0 1 5149.76 6743)">Valor de Qi</text></g><rect x="3483.5" y="5335.5" width="2586" height="1464" stroke="#D9D9D9" stroke-width="3.4375" stroke-linecap="butt" stroke-linejoin="round" stroke-miterlimit="10" stroke-opacity="1" fill="none"/></g></svg>