<svg width="2603" height="1467" xmlns="http://www.w3.org/2000/svg" xmlns:xlink="http://www.w3.org/1999/xlink" xml:space="preserve" overflow="hidden"><defs><clipPath id="clip0"><rect x="797" y="3799" width="2603" height="1467"/></clipPath><clipPath id="clip1"><rect x="801" y="3804" width="2595" height="1459"/></clipPath><clipPath id="clip2"><rect x="801" y="3804" width="2595" height="1459"/></clipPath><clipPath id="clip3"><rect x="1029" y="3974" width="2111" height="1082"/></clipPath><clipPath id="clip4"><rect x="1029" y="3974" width="2111" height="1082"/></clipPath><clipPath id="clip5"><rect x="801" y="3804" width="2595" height="1459"/></clipPath><clipPath id="clip6"><rect x="801" y="3804" width="2595" height="1459"/></clipPath><clipPath id="clip7"><rect x="1029" y="3974" width="2111" height="1082"/></clipPath><clipPath id="clip8"><rect x="801" y="3804" width="2595" height="1459"/></clipPath><clipPath id="clip9"><rect x="1029" y="3974" width="2111" height="1082"/></clipPath><clipPath id="clip10"><rect x="801" y="3804" width="2595" height="1459"/></clipPath><clipPath id="clip11"><rect x="801" y="3804" width="2595" height="1459"/></clipPath><clipPath id="clip12"><rect x="801" y="3804" width="2595" height="1459"/></clipPath><clipPath id="clip13"><rect x="801" y="3804" width="2595" height="1459"/></clipPath><clipPath id="clip14"><rect x="801" y="3804" width="2595" height="1459"/></clipPath><clipPath id="clip15"><rect x="801" y="3804" width="2595" height="1459"/></clipPath><clipPath id="clip16"><rect x="801" y="3804" width="2595" height="1459"/></clipPath><clipPath id="clip17"><rect x="801" y="3804" width="2595" height="1459"/></clipPath><clipPath id="clip18"><rect x="801" y="3804" width="2595" height="1459"/></clipPath><clipPath id="clip19"><rect x="801" y="3804" width="2595" height="1459"/></clipPath><clipPath id="clip20"><rect x="801" y="3804" width="2595" height="1459"/></clipPath><clipPath id="clip21"><rect x="801" y="3804" width="2595" height="1459"/></clipPath><clipPath id="clip22"><rect x="801" y="3804" width="2595" height="1459"/></clipPath><clipPath id="clip23"><rect x="801" y="3804" width="2595" height="1459"/></clipPath><clipPath id="clip24"><rect x="801" y="3804" width="2595" height="1459"/></clipPath><clipPath id="clip25"><rect x="801" y="3804" width="2595" height="1459"/></clipPath><clipPath id="clip26"><rect x="801" y="3804" width="2595" height="1459"/></clipPath><clipPath id="clip27"><rect x="801" y="3804" width="2595" height="1459"/></clipPath><clipPath id="clip28"><rect x="801" y="3804" width="2595" height="1459"/></clipPath><clipPath id="clip29"><rect x="801" y="3804" width="2595" height="1459"/></clipPath><clipPath id="clip30"><rect x="801" y="3804" width="2595" height="1459"/></clipPath><clipPath id="clip31"><rect x="801" y="3804" width="2595" height="1459"/></clipPath><clipPath id="clip32"><rect x="801" y="3804" width="2595" height="1459"/></clipPath><clipPath id="clip33"><rect x="801" y="3804" width="2595" height="1459"/></clipPath><clipPath id="clip34"><rect x="801" y="3804" width="2595" height="1459"/></clipPath><clipPath id="clip35"><rect x="801" y="3804" width="2595" height="1459"/></clipPath><clipPath id="clip36"><rect x="801" y="3804" width="2595" height="1459"/></clipPath><clipPath id="clip37"><rect x="801" y="3804" width="2595" height="1459"/></clipPath><clipPath id="clip38"><rect x="801" y="3804" width="2595" height="1459"/></clipPath><clipPath id="clip39"><rect x="801" y="3804" width="2595" height="1459"/></clipPath><clipPath id="clip40"><rect x="801" y="3804" width="2595" height="1459"/></clipPath><clipPath id="clip41"><rect x="801" y="3804" width="2595" height="1459"/></clipPath><clipPath id="clip42"><rect x="801" y="3804" width="2595" height="1459"/></clipPath><clipPath id="clip43"><rect x="801" y="3804" width="2595" height="1459"/></clipPath><clipPath id="clip44"><rect x="801" y="3804" width="2595" height="1459"/></clipPath><clipPath id="clip45"><rect x="801" y="3804" width="2595" height="1459"/></clipPath><clipPath id="clip46"><rect x="801" y="3804" width="2595" height="1459"/></clipPath><clipPath id="clip47"><rect x="801" y="3804" width="2595" height="1459"/></clipPath><clipPath id="clip48"><rect x="801" y="3804" width="2595" height="1459"/></clipPath></defs><g clip-path="url(#clip0)" transform="translate(-797 -3799)"><rect x="801" y="3804" width="2596" height="1460" fill="#FFFFFF" fill-opacity="1"/><g clip-path="url(#clip1)"><path d="M1029.5 4354.5 3137.5 4354.5" stroke="#D9D9D9" stroke-width="3.4375" stroke-linecap="butt" stroke-linejoin="round" stroke-miterlimit="10" stroke-opacity="1" fill="none" fill-rule="nonzero"/></g><g clip-path="url(#clip2)"><path d="M1029.5 3974.5 1029.5 5052.5M1191.54 3974.5 1191.54 5052.5M1353.54 3974.5 1353.54 5052.5M1515.55 3974.5 1515.55 5052.5M1677.56 3974.5 1677.56 5052.5M1840.56 3974.5 1840.56 5052.5M2002.57 3974.5 2002.57 5052.5M2164.57 3974.5 2164.57 5052.5M2326.58 3974.5 2326.58 5052.5M2488.58 3974.5 2488.58 5052.5M2650.59 3974.5 2650.59 5052.5M2813.59 3974.5 2813.59 5052.5M2975.6 3974.5 2975.6 5052.5M3137.5 3974.5 3137.5 5052.5" stroke="#D9D9D9" stroke-width="3.4375" stroke-linecap="butt" stroke-linejoin="round" stroke-miterlimit="10" stroke-opacity="1" fill="none" fill-rule="nonzero"/></g><g clip-path="url(#clip3)"><path d="M1029 4632.15 1191.04 4632.15 1191.04 5053 1029 5053ZM1191.04 4632.15 1354.04 4632.15 1354.04 5053 1191.04 5053ZM1354.04 4632.15 1516.05 4632.15 1516.05 5053 1354.04 5053ZM1516.05 4632.15 1678.06 4632.15 1678.06 5053 1516.05 5053ZM1678.06 4632.15 1840.06 4632.15 1840.06 5053 1678.06 5053ZM1840.06 4632.15 2002.07 4632.15 2002.07 5053 1840.06 5053ZM2002.07 4632.15 2164.07 4632.15 2164.07 5053 2002.07 5053ZM2164.07 4632.15 2327.08 4632.15 2327.08 5053 2164.07 5053ZM2327.08 4632.15 2489.08 4632.15 2489.08 5053 2327.08 5053ZM2489.08 4632.15 2651.09 4632.15 2651.09 5053 2489.08 5053ZM2651.09 4632.15 2813.09 4632.15 2813.09 5053 2651.09 5053ZM2813.09 4632.15 2975.1 4632.15 2975.1 5053 2813.09 5053ZM2975.1 4632.15 3137 4632.15 3137 5053 2975.1 5053Z" fill="#00B050" fill-rule="nonzero" fill-opacity="0.301961"/></g><g clip-path="url(#clip4)"><path d="M1029 3905 1191.04 3905 1191.04 4632.15 1029 4632.15ZM1191.04 3905 1354.04 3905 1354.04 4632.15 1191.04 4632.15ZM1354.04 3905 1516.05 3905 1516.05 4632.15 1354.04 4632.15ZM1516.05 3905 1678.06 3905 1678.06 4632.15 1516.05 4632.15ZM1678.06 3905 1840.06 3905 1840.06 4632.15 1678.06 4632.15ZM1840.06 3905 2002.07 3905 2002.07 4632.15 1840.06 4632.15ZM2002.07 3905 2164.07 3905 2164.07 4632.15 2002.07 4632.15ZM2164.07 3905 2327.08 3905 2327.08 4632.15 2164.07 4632.15ZM2327.08 3905 2489.08 3905 2489.08 4632.15 2327.08 4632.15ZM2489.08 3905 2651.09 3905 2651.09 4632.15 2489.08 4632.15ZM2651.09 3905 2813.09 3905 2813.09 4632.15 2651.09 4632.15ZM2813.09 3905 2975.1 3905 2975.1 4632.15 2813.09 4632.15ZM2975.1 3905 3137 3905 3137 4632.15 2975.1 4632.15Z" fill="#FF0000" fill-rule="nonzero" fill-opacity="0.301961"/></g><g clip-path="url(#clip5)"><path d="M0 0 0.000360892 1078" stroke="#D9D9D9" stroke-width="3.4375" stroke-linecap="butt" stroke-linejoin="round" stroke-miterlimit="10" stroke-opacity="0" fill="none" fill-rule="evenodd" transform="matrix(1 0 0 -1 1029.5 5052.5)"/></g><g clip-path="url(#clip6)"><path d="M1029.5 5052.5 3137.5 5052.5" stroke="#D9D9D9" stroke-width="3.4375" stroke-linecap="butt" stroke-linejoin="round" stroke-miterlimit="10" stroke-opacity="1" fill="none" fill-rule="evenodd"/></g><g clip-path="url(#clip7)"><path d="M1110 4648.15 1272.04 4740.16 1435.05 4740.16 1597.05 4690.15 1759.06 4781.16 1921.06 4842.16 2083.07 4287 2245.07 4606.15 2408.08 4769.16 2570.08 4922 2732.09 4758.16 2894.09 4427.15 3056 4740.16" stroke="#000000" stroke-width="10.3125" stroke-linecap="round" stroke-linejoin="round" stroke-miterlimit="10" stroke-opacity="1" fill="none" fill-rule="nonzero"/></g><g clip-path="url(#clip8)"><path d="M1121.82 4647.67C1121.82 4653.74 1116.89 4658.67 1110.82 4658.67 1104.74 4658.67 1099.82 4653.74 1099.82 4647.67 1099.82 4641.59 1104.74 4636.67 1110.82 4636.67 1116.89 4636.67 1121.82 4641.59 1121.82 4647.67Z" stroke="#000000" stroke-width="4.58333" stroke-linecap="butt" stroke-linejoin="round" stroke-miterlimit="10" stroke-opacity="1" fill="#000000" fill-rule="nonzero" fill-opacity="1"/><path d="M1283.82 4740.67C1283.82 4746.74 1278.89 4751.67 1272.82 4751.67 1266.74 4751.67 1261.82 4746.74 1261.82 4740.67 1261.82 4734.59 1266.74 4729.67 1272.82 4729.67 1278.89 4729.67 1283.82 4734.59 1283.82 4740.67Z" stroke="#000000" stroke-width="4.58333" stroke-linecap="butt" stroke-linejoin="round" stroke-miterlimit="10" stroke-opacity="1" fill="#000000" fill-rule="nonzero" fill-opacity="1"/><path d="M1445.82 4740.67C1445.82 4746.74 1440.89 4751.67 1434.82 4751.67 1428.74 4751.67 1423.82 4746.74 1423.82 4740.67 1423.82 4734.59 1428.74 4729.67 1434.82 4729.67 1440.89 4729.67 1445.82 4734.59 1445.82 4740.67Z" stroke="#000000" stroke-width="4.58333" stroke-linecap="butt" stroke-linejoin="round" stroke-miterlimit="10" stroke-opacity="1" fill="#000000" fill-rule="nonzero" fill-opacity="1"/><path d="M1607.82 4690.67C1607.82 4696.74 1602.89 4701.67 1596.82 4701.67 1590.74 4701.67 1585.82 4696.74 1585.82 4690.67 1585.82 4684.59 1590.74 4679.67 1596.82 4679.67 1602.89 4679.67 1607.82 4684.59 1607.82 4690.67Z" stroke="#000000" stroke-width="4.58333" stroke-linecap="butt" stroke-linejoin="round" stroke-miterlimit="10" stroke-opacity="1" fill="#000000" fill-rule="nonzero" fill-opacity="1"/><path d="M1770.82 4780.67C1770.82 4786.74 1765.89 4791.67 1759.82 4791.67 1753.74 4791.67 1748.82 4786.74 1748.82 4780.67 1748.82 4774.59 1753.74 4769.67 1759.82 4769.67 1765.89 4769.67 1770.82 4774.59 1770.82 4780.67Z" stroke="#000000" stroke-width="4.58333" stroke-linecap="butt" stroke-linejoin="round" stroke-miterlimit="10" stroke-opacity="1" fill="#000000" fill-rule="nonzero" fill-opacity="1"/><path d="M1932.82 4842.67C1932.82 4848.74 1927.89 4853.67 1921.82 4853.67 1915.74 4853.67 1910.82 4848.74 1910.82 4842.67 1910.82 4836.59 1915.74 4831.67 1921.82 4831.67 1927.89 4831.67 1932.82 4836.59 1932.82 4842.67Z" stroke="#000000" stroke-width="4.58333" stroke-linecap="butt" stroke-linejoin="round" stroke-miterlimit="10" stroke-opacity="1" fill="#000000" fill-rule="nonzero" fill-opacity="1"/><path d="M2094.82 4286.67C2094.82 4292.74 2089.89 4297.67 2083.82 4297.67 2077.74 4297.67 2072.82 4292.74 2072.82 4286.67 2072.82 4280.59 2077.74 4275.67 2083.82 4275.67 2089.89 4275.67 2094.82 4280.59 2094.82 4286.67Z" stroke="#000000" stroke-width="4.58333" stroke-linecap="butt" stroke-linejoin="round" stroke-miterlimit="10" stroke-opacity="1" fill="#000000" fill-rule="nonzero" fill-opacity="1"/><path d="M2256.82 4606.67C2256.82 4612.74 2251.89 4617.67 2245.82 4617.67 2239.74 4617.67 2234.82 4612.74 2234.82 4606.67 2234.82 4600.59 2239.74 4595.67 2245.82 4595.67 2251.89 4595.67 2256.82 4600.59 2256.82 4606.67Z" stroke="#000000" stroke-width="4.58333" stroke-linecap="butt" stroke-linejoin="round" stroke-miterlimit="10" stroke-opacity="1" fill="#000000" fill-rule="nonzero" fill-opacity="1"/><path d="M2418.82 4768.67C2418.82 4774.74 2413.89 4779.67 2407.82 4779.67 2401.74 4779.67 2396.82 4774.74 2396.82 4768.67 2396.82 4762.59 2401.74 4757.67 2407.82 4757.67 2413.89 4757.67 2418.82 4762.59 2418.82 4768.67Z" stroke="#000000" stroke-width="4.58333" stroke-linecap="butt" stroke-linejoin="round" stroke-miterlimit="10" stroke-opacity="1" fill="#000000" fill-rule="nonzero" fill-opacity="1"/><path d="M2580.82 4921.67C2580.82 4927.74 2575.89 4932.67 2569.82 4932.67 2563.74 4932.67 2558.82 4927.74 2558.82 4921.67 2558.82 4915.59 2563.74 4910.67 2569.82 4910.67 2575.89 4910.67 2580.82 4915.59 2580.82 4921.67Z" stroke="#000000" stroke-width="4.58333" stroke-linecap="butt" stroke-linejoin="round" stroke-miterlimit="10" stroke-opacity="1" fill="#000000" fill-rule="nonzero" fill-opacity="1"/><path d="M2743.82 4758.67C2743.82 4764.74 2738.89 4769.67 2732.82 4769.67 2726.74 4769.67 2721.82 4764.74 2721.82 4758.67 2721.82 4752.59 2726.74 4747.67 2732.82 4747.67 2738.89 4747.67 2743.82 4752.59 2743.82 4758.67Z" stroke="#000000" stroke-width="4.58333" stroke-linecap="butt" stroke-linejoin="round" stroke-miterlimit="10" stroke-opacity="1" fill="#000000" fill-rule="nonzero" fill-opacity="1"/><path d="M2905.82 4427.67C2905.82 4433.74 2900.89 4438.67 2894.82 4438.67 2888.74 4438.67 2883.82 4433.74 2883.82 4427.67 2883.82 4421.59 2888.74 4416.67 2894.82 4416.67 2900.89 4416.67 2905.82 4421.59 2905.82 4427.67Z" stroke="#000000" stroke-width="4.58333" stroke-linecap="butt" stroke-linejoin="round" stroke-miterlimit="10" stroke-opacity="1" fill="#000000" fill-rule="nonzero" fill-opacity="1"/><path d="M3067.82 4740.67C3067.82 4746.74 3062.89 4751.67 3056.82 4751.67 3050.74 4751.67 3045.82 4746.74 3045.82 4740.67 3045.82 4734.59 3050.74 4729.67 3056.82 4729.67 3062.89 4729.67 3067.82 4734.59 3067.82 4740.67Z" stroke="#000000" stroke-width="4.58333" stroke-linecap="butt" stroke-linejoin="round" stroke-miterlimit="10" stroke-opacity="1" fill="#000000" fill-rule="nonzero" fill-opacity="1"/></g><g clip-path="url(#clip9)"><path d="M1110 4432.15 1272.04 4352.14 1435.05 4352.14 1597.05 4378.14 1759.06 4244.14 1921.06 4230.14 2083.07 4985 2245.07 4459.15 2408.08 4271.14 2570.08 4136 2732.09 4298.14 2894.09 4675.15 3056 4352.14" stroke="#FF00FF" stroke-width="10.3125" stroke-linecap="round" stroke-linejoin="round" stroke-miterlimit="10" stroke-opacity="1" fill="none" fill-rule="nonzero"/></g><g clip-path="url(#clip10)"><path d="M1121.82 4432.67C1121.82 4438.74 1116.89 4443.67 1110.82 4443.67 1104.74 4443.67 1099.82 4438.74 1099.82 4432.67 1099.82 4426.59 1104.74 4421.67 1110.82 4421.67 1116.89 4421.67 1121.82 4426.59 1121.82 4432.67Z" stroke="#FF00FF" stroke-width="4.58333" stroke-linecap="butt" stroke-linejoin="round" stroke-miterlimit="10" stroke-opacity="1" fill="#FF00FF" fill-rule="nonzero" fill-opacity="1"/><path d="M1283.82 4351.67C1283.82 4357.74 1278.89 4362.67 1272.82 4362.67 1266.74 4362.67 1261.82 4357.74 1261.82 4351.67 1261.82 4345.59 1266.74 4340.67 1272.82 4340.67 1278.89 4340.67 1283.82 4345.59 1283.82 4351.67Z" stroke="#FF00FF" stroke-width="4.58333" stroke-linecap="butt" stroke-linejoin="round" stroke-miterlimit="10" stroke-opacity="1" fill="#FF00FF" fill-rule="nonzero" fill-opacity="1"/><path d="M1445.82 4351.67C1445.82 4357.74 1440.89 4362.67 1434.82 4362.67 1428.74 4362.67 1423.82 4357.74 1423.82 4351.67 1423.82 4345.59 1428.74 4340.67 1434.82 4340.67 1440.89 4340.67 1445.82 4345.59 1445.82 4351.67Z" stroke="#FF00FF" stroke-width="4.58333" stroke-linecap="butt" stroke-linejoin="round" stroke-miterlimit="10" stroke-opacity="1" fill="#FF00FF" fill-rule="nonzero" fill-opacity="1"/><path d="M1607.82 4378.67C1607.82 4384.74 1602.89 4389.67 1596.82 4389.67 1590.74 4389.67 1585.82 4384.74 1585.82 4378.67 1585.82 4372.59 1590.74 4367.67 1596.82 4367.67 1602.89 4367.67 1607.82 4372.59 1607.82 4378.67Z" stroke="#FF00FF" stroke-width="4.58333" stroke-linecap="butt" stroke-linejoin="round" stroke-miterlimit="10" stroke-opacity="1" fill="#FF00FF" fill-rule="nonzero" fill-opacity="1"/><path d="M1770.82 4243.67C1770.82 4249.74 1765.89 4254.67 1759.82 4254.67 1753.74 4254.67 1748.82 4249.74 1748.82 4243.67 1748.82 4237.59 1753.74 4232.67 1759.82 4232.67 1765.89 4232.67 1770.82 4237.59 1770.82 4243.67Z" stroke="#FF00FF" stroke-width="4.58333" stroke-linecap="butt" stroke-linejoin="round" stroke-miterlimit="10" stroke-opacity="1" fill="#FF00FF" fill-rule="nonzero" fill-opacity="1"/><path d="M1932.82 4230.67C1932.82 4236.74 1927.89 4241.67 1921.82 4241.67 1915.74 4241.67 1910.82 4236.74 1910.82 4230.67 1910.82 4224.59 1915.74 4219.67 1921.82 4219.67 1927.89 4219.67 1932.82 4224.59 1932.82 4230.67Z" stroke="#FF00FF" stroke-width="4.58333" stroke-linecap="butt" stroke-linejoin="round" stroke-miterlimit="10" stroke-opacity="1" fill="#FF00FF" fill-rule="nonzero" fill-opacity="1"/><path d="M2094.82 4985.67C2094.82 4991.74 2089.89 4996.67 2083.82 4996.67 2077.74 4996.67 2072.82 4991.74 2072.82 4985.67 2072.82 4979.59 2077.74 4974.67 2083.82 4974.67 2089.89 4974.67 2094.82 4979.59 2094.82 4985.67Z" stroke="#FF00FF" stroke-width="4.58333" stroke-linecap="butt" stroke-linejoin="round" stroke-miterlimit="10" stroke-opacity="1" fill="#FF00FF" fill-rule="nonzero" fill-opacity="1"/><path d="M2256.82 4459.67C2256.82 4465.74 2251.89 4470.67 2245.82 4470.67 2239.74 4470.67 2234.82 4465.74 2234.82 4459.67 2234.82 4453.59 2239.74 4448.67 2245.82 4448.67 2251.89 4448.67 2256.82 4453.59 2256.82 4459.67Z" stroke="#FF00FF" stroke-width="4.58333" stroke-linecap="butt" stroke-linejoin="round" stroke-miterlimit="10" stroke-opacity="1" fill="#FF00FF" fill-rule="nonzero" fill-opacity="1"/><path d="M2418.82 4270.67C2418.82 4276.74 2413.89 4281.67 2407.82 4281.67 2401.74 4281.67 2396.82 4276.74 2396.82 4270.67 2396.82 4264.59 2401.74 4259.67 2407.82 4259.67 2413.89 4259.67 2418.82 4264.59 2418.82 4270.67Z" stroke="#FF00FF" stroke-width="4.58333" stroke-linecap="butt" stroke-linejoin="round" stroke-miterlimit="10" stroke-opacity="1" fill="#FF00FF" fill-rule="nonzero" fill-opacity="1"/><path d="M2580.82 4135.67C2580.82 4141.74 2575.89 4146.67 2569.82 4146.67 2563.74 4146.67 2558.82 4141.74 2558.82 4135.67 2558.82 4129.59 2563.74 4124.67 2569.82 4124.67 2575.89 4124.67 2580.82 4129.59 2580.82 4135.67Z" stroke="#FF00FF" stroke-width="4.58333" stroke-linecap="butt" stroke-linejoin="round" stroke-miterlimit="10" stroke-opacity="1" fill="#FF00FF" fill-rule="nonzero" fill-opacity="1"/><path d="M2743.82 4297.67C2743.82 4303.74 2738.89 4308.67 2732.82 4308.67 2726.74 4308.67 2721.82 4303.74 2721.82 4297.67 2721.82 4291.59 2726.74 4286.67 2732.82 4286.67 2738.89 4286.67 2743.82 4291.59 2743.82 4297.67Z" stroke="#FF00FF" stroke-width="4.58333" stroke-linecap="butt" stroke-linejoin="round" stroke-miterlimit="10" stroke-opacity="1" fill="#FF00FF" fill-rule="nonzero" fill-opacity="1"/><path d="M2905.82 4675.67C2905.82 4681.74 2900.89 4686.67 2894.82 4686.67 2888.74 4686.67 2883.82 4681.74 2883.82 4675.67 2883.82 4669.59 2888.74 4664.67 2894.82 4664.67 2900.89 4664.67 2905.82 4669.59 2905.82 4675.67Z" stroke="#FF00FF" stroke-width="4.58333" stroke-linecap="butt" stroke-linejoin="round" stroke-miterlimit="10" stroke-opacity="1" fill="#FF00FF" fill-rule="nonzero" fill-opacity="1"/><path d="M3067.82 4351.67C3067.82 4357.74 3062.89 4362.67 3056.82 4362.67 3050.74 4362.67 3045.82 4357.74 3045.82 4351.67 3045.82 4345.59 3050.74 4340.67 3056.82 4340.67 3062.89 4340.67 3067.82 4345.59 3067.82 4351.67Z" stroke="#FF00FF" stroke-width="4.58333" stroke-linecap="butt" stroke-linejoin="round" stroke-miterlimit="10" stroke-opacity="1" fill="#FF00FF" fill-rule="nonzero" fill-opacity="1"/></g><g clip-path="url(#clip11)"><text fill="#595959" fill-opacity="1" font-family="Calibri,Calibri_MSFontService,sans-serif" font-style="normal" font-variant="normal" font-weight="400" font-stretch="normal" font-size="41" text-anchor="start" direction="ltr" writing-mode="lr-tb" unicode-bidi="normal" text-decoration="none" transform="matrix(1 0 0 1 3175.7 5063)">0,00</text></g><g clip-path="url(#clip12)"><text fill="#595959" fill-opacity="1" font-family="Calibri,Calibri_MSFontService,sans-serif" font-style="normal" font-variant="normal" font-weight="400" font-stretch="normal" font-size="41" text-anchor="start" direction="ltr" writing-mode="lr-tb" unicode-bidi="normal" text-decoration="none" transform="matrix(1 0 0 1 3175.7 4928)">10,00</text></g><g clip-path="url(#clip13)"><text fill="#595959" fill-opacity="1" font-family="Calibri,Calibri_MSFontService,sans-serif" font-style="normal" font-variant="normal" font-weight="400" font-stretch="normal" font-size="41" text-anchor="start" direction="ltr" writing-mode="lr-tb" unicode-bidi="normal" text-decoration="none" transform="matrix(1 0 0 1 3175.7 4793)">20,00</text></g><g clip-path="url(#clip14)"><text fill="#595959" fill-opacity="1" font-family="Calibri,Calibri_MSFontService,sans-serif" font-style="normal" font-variant="normal" font-weight="400" font-stretch="normal" font-size="41" text-anchor="start" direction="ltr" writing-mode="lr-tb" unicode-bidi="normal" text-decoration="none" transform="matrix(1 0 0 1 3175.7 4658)">30,00</text></g><g clip-path="url(#clip15)"><text fill="#595959" fill-opacity="1" font-family="Calibri,Calibri_MSFontService,sans-serif" font-style="normal" font-variant="normal" font-weight="400" font-stretch="normal" font-size="41" text-anchor="start" direction="ltr" writing-mode="lr-tb" unicode-bidi="normal" text-decoration="none" transform="matrix(1 0 0 1 3175.7 4523)">40,00</text></g><g clip-path="url(#clip16)"><text fill="#595959" fill-opacity="1" font-family="Calibri,Calibri_MSFontService,sans-serif" font-style="normal" font-variant="normal" font-weight="400" font-stretch="normal" font-size="41" text-anchor="start" direction="ltr" writing-mode="lr-tb" unicode-bidi="normal" text-decoration="none" transform="matrix(1 0 0 1 3175.7 4389)">50,00</text></g><g clip-path="url(#clip17)"><text fill="#595959" fill-opacity="1" font-family="Calibri,Calibri_MSFontService,sans-serif" font-style="normal" font-variant="normal" font-weight="400" font-stretch="normal" font-size="41" text-anchor="start" direction="ltr" writing-mode="lr-tb" unicode-bidi="normal" text-decoration="none" transform="matrix(1 0 0 1 3175.7 4254)">60,00</text></g><g clip-path="url(#clip18)"><text fill="#595959" fill-opacity="1" font-family="Calibri,Calibri_MSFontService,sans-serif" font-style="normal" font-variant="normal" font-weight="400" font-stretch="normal" font-size="41" text-anchor="start" direction="ltr" writing-mode="lr-tb" unicode-bidi="normal" text-decoration="none" transform="matrix(1 0 0 1 3175.7 4119)">70,00</text></g><g clip-path="url(#clip19)"><text fill="#595959" fill-opacity="1" font-family="Calibri,Calibri_MSFontService,sans-serif" font-style="normal" font-variant="normal" font-weight="400" font-stretch="normal" font-size="41" text-anchor="start" direction="ltr" writing-mode="lr-tb" unicode-bidi="normal" text-decoration="none" transform="matrix(1 0 0 1 3175.7 3984)">80,00</text></g><g clip-path="url(#clip20)"><text fill="#595959" fill-opacity="1" font-family="Calibri,Calibri_MSFontService,sans-serif" font-style="normal" font-variant="normal" font-weight="400" font-stretch="normal" font-size="41" text-anchor="start" direction="ltr" writing-mode="lr-tb" unicode-bidi="normal" text-decoration="none" transform="matrix(1 0 0 1 949.201 5063)">10</text></g><g clip-path="url(#clip21)"><text fill="#595959" fill-opacity="1" font-family="Calibri,Calibri_MSFontService,sans-serif" font-style="normal" font-variant="normal" font-weight="400" font-stretch="normal" font-size="41" text-anchor="start" direction="ltr" writing-mode="lr-tb" unicode-bidi="normal" text-decoration="none" transform="matrix(1 0 0 1 928.301 4364)">100</text></g><g clip-path="url(#clip22)"><text fill="#595959" fill-opacity="1" font-family="Calibri,Calibri_MSFontService,sans-serif" font-style="normal" font-variant="normal" font-weight="400" font-stretch="normal" font-size="41" text-anchor="start" direction="ltr" writing-mode="lr-tb" unicode-bidi="normal" text-decoration="none" transform="matrix(1 0 0 1 1055.84 5118)">Jan-18</text></g><g clip-path="url(#clip23)"><text fill="#595959" fill-opacity="1" font-family="Calibri,Calibri_MSFontService,sans-serif" font-style="normal" font-variant="normal" font-weight="400" font-stretch="normal" font-size="41" text-anchor="start" direction="ltr" writing-mode="lr-tb" unicode-bidi="normal" text-decoration="none" transform="matrix(1 0 0 1 1210.6 5118)">Mar-18</text></g><g clip-path="url(#clip24)"><text fill="#595959" fill-opacity="1" font-family="Calibri,Calibri_MSFontService,sans-serif" font-style="normal" font-variant="normal" font-weight="400" font-stretch="normal" font-size="41" text-anchor="start" direction="ltr" writing-mode="lr-tb" unicode-bidi="normal" text-decoration="none" transform="matrix(1 0 0 1 1370.62 5118)">May-18</text></g><g clip-path="url(#clip25)"><text fill="#595959" fill-opacity="1" font-family="Calibri,Calibri_MSFontService,sans-serif" font-style="normal" font-variant="normal" font-weight="400" font-stretch="normal" font-size="41" text-anchor="start" direction="ltr" writing-mode="lr-tb" unicode-bidi="normal" text-decoration="none" transform="matrix(1 0 0 1 1547.49 5118)">Jul-18</text></g><g clip-path="url(#clip26)"><text fill="#595959" fill-opacity="1" font-family="Calibri,Calibri_MSFontService,sans-serif" font-style="normal" font-variant="normal" font-weight="400" font-stretch="normal" font-size="41" text-anchor="start" direction="ltr" writing-mode="lr-tb" unicode-bidi="normal" text-decoration="none" transform="matrix(1 0 0 1 1701.22 5118)">Sep-18</text></g><g clip-path="url(#clip27)"><text fill="#595959" fill-opacity="1" font-family="Calibri,Calibri_MSFontService,sans-serif" font-style="normal" font-variant="normal" font-weight="400" font-stretch="normal" font-size="41" text-anchor="start" direction="ltr" writing-mode="lr-tb" unicode-bidi="normal" text-decoration="none" transform="matrix(1 0 0 1 1860.46 5118)">Nov-18</text></g><g clip-path="url(#clip28)"><text fill="#595959" fill-opacity="1" font-family="Calibri,Calibri_MSFontService,sans-serif" font-style="normal" font-variant="normal" font-weight="400" font-stretch="normal" font-size="41" text-anchor="start" direction="ltr" writing-mode="lr-tb" unicode-bidi="normal" text-decoration="none" transform="matrix(1 0 0 1 2028.84 5118)">Jan-19</text></g><g clip-path="url(#clip29)"><text fill="#595959" fill-opacity="1" font-family="Calibri,Calibri_MSFontService,sans-serif" font-style="normal" font-variant="normal" font-weight="400" font-stretch="normal" font-size="41" text-anchor="start" direction="ltr" writing-mode="lr-tb" unicode-bidi="normal" text-decoration="none" transform="matrix(1 0 0 1 2183.59 5118)">Mar-19</text></g><g clip-path="url(#clip30)"><text fill="#595959" fill-opacity="1" font-family="Calibri,Calibri_MSFontService,sans-serif" font-style="normal" font-variant="normal" font-weight="400" font-stretch="normal" font-size="41" text-anchor="start" direction="ltr" writing-mode="lr-tb" unicode-bidi="normal" text-decoration="none" transform="matrix(1 0 0 1 2343.62 5118)">May-19</text></g><g clip-path="url(#clip31)"><text fill="#595959" fill-opacity="1" font-family="Calibri,Calibri_MSFontService,sans-serif" font-style="normal" font-variant="normal" font-weight="400" font-stretch="normal" font-size="41" text-anchor="start" direction="ltr" writing-mode="lr-tb" unicode-bidi="normal" text-decoration="none" transform="matrix(1 0 0 1 2520.49 5118)">Jul-19</text></g><g clip-path="url(#clip32)"><text fill="#595959" fill-opacity="1" font-family="Calibri,Calibri_MSFontService,sans-serif" font-style="normal" font-variant="normal" font-weight="400" font-stretch="normal" font-size="41" text-anchor="start" direction="ltr" writing-mode="lr-tb" unicode-bidi="normal" text-decoration="none" transform="matrix(1 0 0 1 2674.22 5118)">Sep-19</text></g><g clip-path="url(#clip33)"><text fill="#595959" fill-opacity="1" font-family="Calibri,Calibri_MSFontService,sans-serif" font-style="normal" font-variant="normal" font-weight="400" font-stretch="normal" font-size="41" text-anchor="start" direction="ltr" writing-mode="lr-tb" unicode-bidi="normal" text-decoration="none" transform="matrix(1 0 0 1 2833.46 5118)">Nov-19</text></g><g clip-path="url(#clip34)"><text fill="#595959" fill-opacity="1" font-family="Calibri,Calibri_MSFontService,sans-serif" font-style="normal" font-variant="normal" font-weight="400" font-stretch="normal" font-size="41" text-anchor="start" direction="ltr" writing-mode="lr-tb" unicode-bidi="normal" text-decoration="none" transform="matrix(1 0 0 1 2998.55 5118)">Feb-20</text></g><g clip-path="url(#clip35)"><text fill="#595959" fill-opacity="1" font-family="Calibri,Calibri_MSFontService,sans-serif" font-style="normal" font-variant="normal" font-weight="400" font-stretch="normal" font-size="46" text-anchor="start" direction="ltr" writing-mode="lr-tb" unicode-bidi="normal" text-decoration="none" transform="matrix(6.12323e-17 -1 1 6.12323e-17 3327.34 4617)">Valor de Qi</text></g><g clip-path="url(#clip36)"><text fill="#595959" fill-opacity="1" font-family="Calibri,Calibri_MSFontService,sans-serif" font-style="normal" font-variant="normal" font-weight="700" font-stretch="normal" font-size="46" text-anchor="start" direction="ltr" writing-mode="lr-tb" unicode-bidi="normal" text-decoration="none" transform="matrix(6.12323e-17 -1 1 6.12323e-17 902.611 4657)">Turbidez (UNT)</text></g><g clip-path="url(#clip37)"><text fill="#595959" fill-opacity="1" font-family="Calibri,Calibri_MSFontService,sans-serif" font-style="normal" font-variant="normal" font-weight="700" font-stretch="normal" font-size="64" text-anchor="start" direction="ltr" writing-mode="lr-tb" unicode-bidi="normal" text-decoration="none" transform="matrix(1 0 0 1 1751.87 3900)">Turbidez (UNT)</text></g><g clip-path="url(#clip38)"><text fill="#595959" fill-opacity="1" font-family="Calibri,Calibri_MSFontService,sans-serif" font-style="normal" font-variant="normal" font-weight="700" font-stretch="normal" font-size="64" text-anchor="start" direction="ltr" writing-mode="lr-tb" unicode-bidi="normal" text-decoration="none" transform="matrix(1 0 0 1 2222.35 3900)">x Tempo</text></g><g clip-path="url(#clip39)"><rect x="1450" y="5186" width="88" height="22.9995" fill="#00B050" fill-opacity="0.301961"/></g><g clip-path="url(#clip40)"><text fill="#595959" fill-opacity="1" font-family="Calibri,Calibri_MSFontService,sans-serif" font-style="normal" font-variant="normal" font-weight="400" font-stretch="normal" font-size="41" text-anchor="start" direction="ltr" writing-mode="lr-tb" unicode-bidi="normal" text-decoration="none" transform="matrix(1 0 0 1 1547.32 5208)">Classe I</text></g><g clip-path="url(#clip41)"><rect x="1731" y="5186" width="88" height="22.9995" fill="#FF0000" fill-opacity="0.301961"/></g><g clip-path="url(#clip42)"><text fill="#595959" fill-opacity="1" font-family="Calibri,Calibri_MSFontService,sans-serif" font-style="normal" font-variant="normal" font-weight="400" font-stretch="normal" font-size="41" text-anchor="start" direction="ltr" writing-mode="lr-tb" unicode-bidi="normal" text-decoration="none" transform="matrix(1 0 0 1 1828.45 5208)">Classe II-IV</text></g><g clip-path="url(#clip43)"><path d="M2069 5198 2157 5198" stroke="#000000" stroke-width="10.3125" stroke-linecap="round" stroke-linejoin="round" stroke-miterlimit="10" stroke-opacity="1" fill="none" fill-rule="evenodd"/></g><g clip-path="url(#clip44)"><path d="M2124 5197C2124 5203.07 2119.07 5208 2113 5208 2106.92 5208 2102 5203.07 2102 5197 2102 5190.92 2106.92 5186 2113 5186 2119.07 5186 2124 5190.92 2124 5197Z" stroke="#000000" stroke-width="4.58333" stroke-linecap="butt" stroke-linejoin="round" stroke-miterlimit="10" stroke-opacity="1" fill="#000000" fill-rule="nonzero" fill-opacity="1"/></g><g clip-path="url(#clip45)"><text fill="#595959" fill-opacity="1" font-family="Calibri,Calibri_MSFontService,sans-serif" font-style="normal" font-variant="normal" font-weight="400" font-stretch="normal" font-size="41" text-anchor="start" direction="ltr" writing-mode="lr-tb" unicode-bidi="normal" text-decoration="none" transform="matrix(1 0 0 1 2166.42 5208)">Turbidez (UNT)</text></g><g clip-path="url(#clip46)"><path d="M2480 5198 2568 5198" stroke="#FF00FF" stroke-width="10.3125" stroke-linecap="round" stroke-linejoin="round" stroke-miterlimit="10" stroke-opacity="1" fill="none" fill-rule="evenodd"/></g><g clip-path="url(#clip47)"><path d="M2534 5197C2534 5203.07 2529.07 5208 2523 5208 2516.93 5208 2512 5203.07 2512 5197 2512 5190.92 2516.93 5186 2523 5186 2529.07 5186 2534 5190.92 2534 5197Z" stroke="#FF00FF" stroke-width="4.58333" stroke-linecap="butt" stroke-linejoin="round" stroke-miterlimit="10" stroke-opacity="1" fill="#FF00FF" fill-rule="nonzero" fill-opacity="1"/></g><g clip-path="url(#clip48)"><text fill="#595959" fill-opacity="1" font-family="Calibri,Calibri_MSFontService,sans-serif" font-style="normal" font-variant="normal" font-weight="400" font-stretch="normal" font-size="41" text-anchor="start" direction="ltr" writing-mode="lr-tb" unicode-bidi="normal" text-decoration="none" transform="matrix(1 0 0 1 2577.16 5208)">Valor de Qi</text></g><rect x="801.5" y="3804.5" width="2596" height="1460" stroke="#D9D9D9" stroke-width="3.4375" stroke-linecap="butt" stroke-linejoin="round" stroke-miterlimit="10" stroke-opacity="1" fill="none"/></g></svg>